%TF.GenerationSoftware,KiCad,Pcbnew,(6.0.7-1)-1*%
%TF.CreationDate,2022-08-15T15:43:10-06:00*%
%TF.ProjectId,mic_preamp,6d69635f-7072-4656-916d-702e6b696361,1*%
%TF.SameCoordinates,Original*%
%TF.FileFunction,Soldermask,Top*%
%TF.FilePolarity,Negative*%
%FSLAX46Y46*%
G04 Gerber Fmt 4.6, Leading zero omitted, Abs format (unit mm)*
G04 Created by KiCad (PCBNEW (6.0.7-1)-1) date 2022-08-15 15:43:10*
%MOMM*%
%LPD*%
G01*
G04 APERTURE LIST*
%ADD10C,3.200000*%
%ADD11C,1.600000*%
%ADD12O,1.600000X1.600000*%
%ADD13O,2.300000X4.600000*%
%ADD14R,1.508000X1.508000*%
%ADD15C,1.508000*%
%ADD16O,2.200000X1.200000*%
%ADD17O,1.200000X2.200000*%
%ADD18C,3.400000*%
%ADD19C,2.900000*%
%ADD20R,2.600000X2.600000*%
%ADD21C,2.600000*%
%ADD22R,1.800000X1.800000*%
%ADD23C,1.800000*%
%ADD24R,1.600000X1.600000*%
G04 APERTURE END LIST*
G36*
X113445690Y-79463333D02*
G01*
X113597589Y-79410974D01*
X113614421Y-79332487D01*
X113628088Y-79260087D01*
X113630314Y-79209418D01*
X113618451Y-79171434D01*
X113589853Y-79137087D01*
X113546702Y-79101091D01*
X113497056Y-79057261D01*
X113454194Y-79010660D01*
X113431634Y-78978389D01*
X113401116Y-78921722D01*
X113462442Y-78784092D01*
X113490042Y-78723740D01*
X113513440Y-78675497D01*
X113529274Y-78646155D01*
X113533497Y-78640559D01*
X113552432Y-78640842D01*
X113595410Y-78646417D01*
X113655096Y-78656239D01*
X113695274Y-78663621D01*
X113761236Y-78674996D01*
X113814738Y-78681983D01*
X113848509Y-78683755D01*
X113856259Y-78681989D01*
X113870158Y-78665553D01*
X113899212Y-78631219D01*
X113937894Y-78585519D01*
X113950244Y-78570931D01*
X114035291Y-78470470D01*
X113978051Y-78322853D01*
X113920812Y-78175236D01*
X113964092Y-78139274D01*
X114001202Y-78110347D01*
X114052020Y-78073052D01*
X114091385Y-78045305D01*
X114175397Y-77987299D01*
X114243433Y-78044004D01*
X114295060Y-78087116D01*
X114347497Y-78131028D01*
X114367486Y-78147813D01*
X114423503Y-78194916D01*
X114695589Y-78091698D01*
X114719596Y-77938490D01*
X114730652Y-77872189D01*
X114740819Y-77818750D01*
X114748649Y-77785421D01*
X114751607Y-77778107D01*
X114770037Y-77773926D01*
X114813023Y-77768562D01*
X114873170Y-77762856D01*
X114912895Y-77759731D01*
X115066181Y-77748529D01*
X115107194Y-77841845D01*
X115132656Y-77902465D01*
X115155380Y-77961100D01*
X115166716Y-77993665D01*
X115178219Y-78024960D01*
X115193547Y-78044130D01*
X115220982Y-78056225D01*
X115268805Y-78066296D01*
X115292518Y-78070384D01*
X115351029Y-78080778D01*
X115399154Y-78090155D01*
X115425290Y-78096181D01*
X115448161Y-78088288D01*
X115485108Y-78054470D01*
X115536985Y-77993910D01*
X115550587Y-77976791D01*
X115650404Y-77849817D01*
X115709165Y-77874322D01*
X115814794Y-77921710D01*
X115892286Y-77964502D01*
X115944822Y-78004718D01*
X115974888Y-78043068D01*
X115989098Y-78072423D01*
X115995850Y-78099707D01*
X115995419Y-78134188D01*
X115988083Y-78185135D01*
X115980397Y-78227921D01*
X115956421Y-78358024D01*
X116104419Y-78482818D01*
X116240269Y-78430077D01*
X116302263Y-78406599D01*
X116353585Y-78388253D01*
X116386489Y-78377760D01*
X116393322Y-78376318D01*
X116409124Y-78388305D01*
X116438053Y-78421308D01*
X116475792Y-78469500D01*
X116518026Y-78527056D01*
X116560440Y-78588151D01*
X116598718Y-78646959D01*
X116619863Y-78682115D01*
X116653615Y-78740852D01*
X116549618Y-78862250D01*
X116445620Y-78983648D01*
X116471820Y-79062527D01*
X116483276Y-79096691D01*
X116494690Y-79120390D01*
X116511892Y-79136640D01*
X116540709Y-79148457D01*
X116586969Y-79158860D01*
X116656502Y-79170865D01*
X116692781Y-79176899D01*
X116751206Y-79187810D01*
X116787018Y-79199593D01*
X116809341Y-79217291D01*
X116827299Y-79245947D01*
X116831132Y-79253361D01*
X116848633Y-79303427D01*
X116863837Y-79377222D01*
X116875040Y-79466472D01*
X116875067Y-79466765D01*
X116889247Y-79621845D01*
X116736900Y-79676296D01*
X116584554Y-79730747D01*
X116573038Y-79801259D01*
X116563860Y-79855979D01*
X116555288Y-79904798D01*
X116553456Y-79914738D01*
X116552535Y-79939709D01*
X116563364Y-79963482D01*
X116590697Y-79992628D01*
X116639289Y-80033715D01*
X116639945Y-80034246D01*
X116690461Y-80079959D01*
X116733326Y-80127322D01*
X116759547Y-80166357D01*
X116760103Y-80167562D01*
X116771399Y-80194827D01*
X116775650Y-80218263D01*
X116771312Y-80245482D01*
X116756839Y-80284096D01*
X116730685Y-80341717D01*
X116720186Y-80364154D01*
X116691068Y-80423889D01*
X116666103Y-80470708D01*
X116648747Y-80498349D01*
X116643433Y-80503124D01*
X116623732Y-80499886D01*
X116580209Y-80491902D01*
X116520453Y-80480579D01*
X116485155Y-80473775D01*
X116338111Y-80445271D01*
X116249081Y-80553493D01*
X116209061Y-80603686D01*
X116178365Y-80645130D01*
X116161718Y-80671316D01*
X116160050Y-80676117D01*
X116165577Y-80696499D01*
X116180394Y-80739145D01*
X116201857Y-80796615D01*
X116214487Y-80829183D01*
X116268925Y-80967847D01*
X116157527Y-81048871D01*
X116104311Y-81086772D01*
X116059395Y-81117300D01*
X116030190Y-81135467D01*
X116025069Y-81137976D01*
X116004589Y-81131612D01*
X115966821Y-81107889D01*
X115918093Y-81071056D01*
X115887718Y-81045720D01*
X115771426Y-80945382D01*
X115633634Y-80994078D01*
X115495841Y-81042775D01*
X115469809Y-81198197D01*
X115458187Y-81264725D01*
X115447932Y-81318256D01*
X115440451Y-81351711D01*
X115437799Y-81359290D01*
X115420295Y-81362821D01*
X115378076Y-81367703D01*
X115318368Y-81373167D01*
X115277020Y-81376414D01*
X115122220Y-81387866D01*
X115091155Y-81326038D01*
X115067503Y-81273238D01*
X115042703Y-81209343D01*
X115032223Y-81179041D01*
X115017886Y-81136342D01*
X115004033Y-81108366D01*
X114983742Y-81090471D01*
X114950093Y-81078016D01*
X114896164Y-81066358D01*
X114851596Y-81057891D01*
X114735518Y-81035839D01*
X114637983Y-81158026D01*
X114595420Y-81210091D01*
X114559977Y-81251111D01*
X114536456Y-81275654D01*
X114529991Y-81280214D01*
X114511718Y-81274078D01*
X114471298Y-81257606D01*
X114415725Y-81233703D01*
X114381523Y-81218569D01*
X114311502Y-81185539D01*
X114264571Y-81158097D01*
X114233611Y-81131241D01*
X114211506Y-81099966D01*
X114210655Y-81098464D01*
X114192925Y-81063578D01*
X114185933Y-81033955D01*
X114188867Y-80997401D01*
X114200369Y-80944041D01*
X114212613Y-80886365D01*
X114220912Y-80836538D01*
X114223190Y-80811841D01*
X114211143Y-80778659D01*
X114180544Y-80738393D01*
X114140256Y-80700484D01*
X114099143Y-80674373D01*
X114091215Y-80671265D01*
X114064294Y-80672433D01*
X114016259Y-80683636D01*
X113955589Y-80702719D01*
X113927300Y-80712971D01*
X113857130Y-80737959D01*
X113810512Y-80750460D01*
X113782031Y-80751612D01*
X113769740Y-80746073D01*
X113745178Y-80719519D01*
X113711738Y-80675254D01*
X113673355Y-80619539D01*
X113633962Y-80558634D01*
X113597495Y-80498799D01*
X113567889Y-80446294D01*
X113549077Y-80407380D01*
X113544943Y-80388401D01*
X113560575Y-80367701D01*
X113591907Y-80329922D01*
X113633277Y-80281826D01*
X113651835Y-80260685D01*
X113746541Y-80153443D01*
X113718068Y-80076627D01*
X113701366Y-80032178D01*
X113689727Y-80002338D01*
X113686694Y-79995405D01*
X113670710Y-79991053D01*
X113630474Y-79983185D01*
X113573363Y-79973200D01*
X113546079Y-79968705D01*
X113481902Y-79957485D01*
X113429402Y-79946769D01*
X113396973Y-79938329D01*
X113391655Y-79936085D01*
X113363370Y-79902854D01*
X113339726Y-79844481D01*
X113323245Y-79767766D01*
X113320235Y-79743713D01*
X113313025Y-79677783D01*
X113305654Y-79613148D01*
X113301903Y-79581696D01*
X113295985Y-79533536D01*
X114070246Y-79533536D01*
X114070707Y-79695803D01*
X114098974Y-79856437D01*
X114156485Y-80011932D01*
X114160534Y-80020283D01*
X114234749Y-80138435D01*
X114335146Y-80249000D01*
X114456101Y-80347989D01*
X114591989Y-80431415D01*
X114737185Y-80495292D01*
X114886066Y-80535632D01*
X114887960Y-80535976D01*
X114966756Y-80543980D01*
X115064015Y-80544816D01*
X115167281Y-80539173D01*
X115264098Y-80527743D01*
X115342010Y-80511216D01*
X115343793Y-80510688D01*
X115513182Y-80444301D01*
X115665190Y-80353089D01*
X115797692Y-80239862D01*
X115908564Y-80107426D01*
X115995684Y-79958589D01*
X116056928Y-79796160D01*
X116090172Y-79622945D01*
X116095793Y-79516446D01*
X116085001Y-79352786D01*
X116050699Y-79207583D01*
X115990944Y-79075641D01*
X115903794Y-78951763D01*
X115870430Y-78913661D01*
X115737185Y-78790976D01*
X115588532Y-78694974D01*
X115427890Y-78626454D01*
X115258679Y-78586211D01*
X115084319Y-78575042D01*
X114908231Y-78593745D01*
X114733833Y-78643116D01*
X114724542Y-78646666D01*
X114570705Y-78722127D01*
X114434589Y-78820513D01*
X114317635Y-78938316D01*
X114221283Y-79072028D01*
X114146974Y-79218141D01*
X114096148Y-79373146D01*
X114070246Y-79533536D01*
X113295985Y-79533536D01*
X113293792Y-79515692D01*
X113445690Y-79463333D01*
G37*
G36*
X115794824Y-82239695D02*
G01*
X115851854Y-82202041D01*
X115890447Y-82171568D01*
X115914778Y-82143107D01*
X115929027Y-82111491D01*
X115937370Y-82071552D01*
X115943984Y-82018123D01*
X115945543Y-82004717D01*
X115950219Y-81950687D01*
X115946118Y-81914461D01*
X115929854Y-81882290D01*
X115908255Y-81853338D01*
X115873105Y-81804905D01*
X115842714Y-81756946D01*
X115835338Y-81743471D01*
X115824815Y-81720750D01*
X115821410Y-81700514D01*
X115827287Y-81676252D01*
X115844611Y-81641455D01*
X115875546Y-81589611D01*
X115899183Y-81551410D01*
X115936190Y-81491978D01*
X115966593Y-81443519D01*
X115986673Y-81411938D01*
X115992726Y-81402875D01*
X116009397Y-81403556D01*
X116049379Y-81410191D01*
X116104819Y-81421433D01*
X116119124Y-81424571D01*
X116240827Y-81451647D01*
X116324478Y-81393356D01*
X116373348Y-81359043D01*
X116414980Y-81329360D01*
X116436311Y-81313750D01*
X116456093Y-81283801D01*
X116471528Y-81225914D01*
X116479071Y-81176344D01*
X116487908Y-81117991D01*
X116497597Y-81072504D01*
X116506179Y-81048918D01*
X116506906Y-81048107D01*
X116528030Y-81039058D01*
X116571781Y-81026220D01*
X116629406Y-81012113D01*
X116640201Y-81009716D01*
X116702894Y-80995810D01*
X116756812Y-80983498D01*
X116791320Y-80975213D01*
X116793605Y-80974618D01*
X116813975Y-80974751D01*
X116835667Y-80989611D01*
X116863639Y-81023893D01*
X116895647Y-81071173D01*
X116935642Y-81126794D01*
X116971690Y-81166439D01*
X116998230Y-81183997D01*
X116998323Y-81184018D01*
X117031890Y-81190617D01*
X117084448Y-81200184D01*
X117133046Y-81208656D01*
X117233767Y-81225855D01*
X117333456Y-81146531D01*
X117433144Y-81067206D01*
X117580055Y-81157705D01*
X117655678Y-81206151D01*
X117706529Y-81245882D01*
X117736069Y-81283264D01*
X117747761Y-81324662D01*
X117745067Y-81376443D01*
X117732867Y-81438683D01*
X117708694Y-81546440D01*
X117768055Y-81632629D01*
X117802737Y-81680174D01*
X117830594Y-81707364D01*
X117861425Y-81721196D01*
X117902019Y-81728291D01*
X117973092Y-81736843D01*
X118024266Y-81744738D01*
X118059954Y-81756766D01*
X118084568Y-81777716D01*
X118102522Y-81812378D01*
X118118227Y-81865541D01*
X118136096Y-81941994D01*
X118148462Y-81995775D01*
X118188465Y-82167166D01*
X118082649Y-82235851D01*
X117976833Y-82304537D01*
X117934661Y-82540241D01*
X117998818Y-82616327D01*
X118041422Y-82669805D01*
X118066128Y-82713089D01*
X118072813Y-82753723D01*
X118061351Y-82799251D01*
X118031619Y-82857216D01*
X117993822Y-82918837D01*
X117903693Y-83061678D01*
X117812117Y-83039790D01*
X117738144Y-83024268D01*
X117683232Y-83020974D01*
X117636010Y-83032218D01*
X117585103Y-83060308D01*
X117534472Y-83096175D01*
X117428428Y-83174479D01*
X117417066Y-83295722D01*
X117410542Y-83357495D01*
X117403321Y-83394573D01*
X117392419Y-83414189D01*
X117374852Y-83423576D01*
X117363060Y-83426599D01*
X117324161Y-83435546D01*
X117268284Y-83448577D01*
X117224385Y-83458899D01*
X117168235Y-83472086D01*
X117121570Y-83482932D01*
X117099434Y-83487978D01*
X117078254Y-83483011D01*
X117051146Y-83457189D01*
X117014720Y-83407006D01*
X117001487Y-83386705D01*
X116932461Y-83279018D01*
X116800740Y-83258854D01*
X116741814Y-83250106D01*
X116698777Y-83246891D01*
X116663718Y-83251836D01*
X116628727Y-83267567D01*
X116585895Y-83296708D01*
X116527310Y-83341885D01*
X116510158Y-83355302D01*
X116490302Y-83369976D01*
X116472454Y-83377343D01*
X116451213Y-83375557D01*
X116421175Y-83362775D01*
X116376938Y-83337152D01*
X116313099Y-83296844D01*
X116283618Y-83277959D01*
X116216381Y-83231240D01*
X116174672Y-83189830D01*
X116154899Y-83145745D01*
X116153469Y-83091003D01*
X116166680Y-83018111D01*
X116190650Y-82913023D01*
X116132375Y-82828411D01*
X116101749Y-82785990D01*
X116074772Y-82758359D01*
X116042966Y-82741296D01*
X115997849Y-82730578D01*
X115930941Y-82721986D01*
X115915098Y-82720248D01*
X115861096Y-82712617D01*
X115829949Y-82701688D01*
X115812517Y-82683064D01*
X115805243Y-82667390D01*
X115795152Y-82636171D01*
X115781258Y-82585769D01*
X115765304Y-82523491D01*
X115749032Y-82456647D01*
X115734186Y-82392544D01*
X115722508Y-82338491D01*
X115715740Y-82301797D01*
X115715381Y-82294063D01*
X116281300Y-82294063D01*
X116303784Y-82425074D01*
X116356451Y-82545693D01*
X116439072Y-82655189D01*
X116447382Y-82663871D01*
X116557105Y-82754684D01*
X116682022Y-82820033D01*
X116816863Y-82858421D01*
X116956359Y-82868350D01*
X117095242Y-82848323D01*
X117095785Y-82848181D01*
X117229401Y-82798572D01*
X117346272Y-82725903D01*
X117444452Y-82633976D01*
X117521993Y-82526588D01*
X117576951Y-82407540D01*
X117607377Y-82280629D01*
X117611327Y-82149654D01*
X117586852Y-82018416D01*
X117559029Y-81944034D01*
X117499261Y-81845508D01*
X117414010Y-81753974D01*
X117309791Y-81675666D01*
X117236526Y-81635549D01*
X117184669Y-81612148D01*
X117141642Y-81597195D01*
X117097358Y-81588819D01*
X117041729Y-81585148D01*
X116964669Y-81584311D01*
X116960302Y-81584310D01*
X116881973Y-81585059D01*
X116825554Y-81588553D01*
X116780959Y-81596663D01*
X116738101Y-81611261D01*
X116686891Y-81634218D01*
X116684079Y-81635549D01*
X116555152Y-81713176D01*
X116448347Y-81812214D01*
X116365852Y-81929791D01*
X116309856Y-82063037D01*
X116289224Y-82153395D01*
X116281300Y-82294063D01*
X115715381Y-82294063D01*
X115715178Y-82289696D01*
X115794824Y-82239695D01*
G37*
G36*
X117024119Y-78579107D02*
G01*
X117029932Y-78534085D01*
X117034560Y-78479998D01*
X117031670Y-78443866D01*
X117017215Y-78412832D01*
X116987150Y-78374042D01*
X116975029Y-78359619D01*
X116909957Y-78282447D01*
X116971141Y-78169123D01*
X117001412Y-78113686D01*
X117024982Y-78079985D01*
X117050375Y-78064318D01*
X117086116Y-78062982D01*
X117140730Y-78072277D01*
X117177205Y-78079638D01*
X117212062Y-78072058D01*
X117263433Y-78038282D01*
X117293242Y-78013455D01*
X117337197Y-77973687D01*
X117362088Y-77944262D01*
X117373328Y-77914893D01*
X117376328Y-77875293D01*
X117376433Y-77855340D01*
X117376433Y-77770000D01*
X117496027Y-77729790D01*
X117615620Y-77689581D01*
X117681575Y-77768357D01*
X117718387Y-77810894D01*
X117746351Y-77834457D01*
X117777123Y-77844650D01*
X117822359Y-77847079D01*
X117845396Y-77847133D01*
X117901928Y-77845547D01*
X117939431Y-77837544D01*
X117970849Y-77818254D01*
X118004598Y-77787240D01*
X118065934Y-77727348D01*
X118185712Y-77789007D01*
X118242627Y-77820498D01*
X118288558Y-77849972D01*
X118315737Y-77872312D01*
X118319100Y-77876909D01*
X118324779Y-77906968D01*
X118324553Y-77955495D01*
X118321284Y-77989542D01*
X118316058Y-78041678D01*
X118320026Y-78075756D01*
X118336608Y-78105205D01*
X118356965Y-78129586D01*
X118389071Y-78161899D01*
X118420110Y-78177811D01*
X118463803Y-78182945D01*
X118487961Y-78183239D01*
X118539299Y-78186075D01*
X118576629Y-78198036D01*
X118604966Y-78224303D01*
X118629325Y-78270054D01*
X118654721Y-78340468D01*
X118661942Y-78362918D01*
X118701144Y-78486363D01*
X118642979Y-78529250D01*
X118591475Y-78570454D01*
X118561831Y-78606206D01*
X118548219Y-78647112D01*
X118544809Y-78703782D01*
X118544801Y-78707918D01*
X118547762Y-78764101D01*
X118560645Y-78804788D01*
X118589453Y-78846255D01*
X118600819Y-78859788D01*
X118632205Y-78899150D01*
X118652532Y-78929815D01*
X118656837Y-78940820D01*
X118649490Y-78961611D01*
X118630144Y-79001765D01*
X118602840Y-79052946D01*
X118600208Y-79057667D01*
X118543580Y-79158928D01*
X118451932Y-79149349D01*
X118398624Y-79145192D01*
X118362681Y-79149496D01*
X118330213Y-79166533D01*
X118288491Y-79199605D01*
X118248020Y-79235547D01*
X118225517Y-79265853D01*
X118214461Y-79303334D01*
X118208695Y-79356345D01*
X118200693Y-79453249D01*
X118080655Y-79490152D01*
X118024234Y-79507493D01*
X117981743Y-79520543D01*
X117960584Y-79527029D01*
X117959494Y-79527359D01*
X117949826Y-79516339D01*
X117926546Y-79488013D01*
X117911479Y-79469375D01*
X117881270Y-79431218D01*
X117859451Y-79402563D01*
X117854601Y-79395671D01*
X117834539Y-79386531D01*
X117792113Y-79377965D01*
X117742566Y-79372385D01*
X117686414Y-79368966D01*
X117650786Y-79371934D01*
X117624320Y-79384881D01*
X117595652Y-79411398D01*
X117585360Y-79422081D01*
X117549235Y-79455568D01*
X117519062Y-79476327D01*
X117508699Y-79479647D01*
X117476947Y-79471345D01*
X117428345Y-79449686D01*
X117372358Y-79419536D01*
X117318451Y-79385765D01*
X117298591Y-79371585D01*
X117268702Y-79347565D01*
X117253703Y-79326014D01*
X117250080Y-79296032D01*
X117254319Y-79246722D01*
X117255358Y-79237493D01*
X117260038Y-79182403D01*
X117256567Y-79146034D01*
X117242010Y-79115529D01*
X117221165Y-79087647D01*
X117192904Y-79055501D01*
X117166299Y-79038738D01*
X117129302Y-79032400D01*
X117084710Y-79031506D01*
X117036175Y-79029770D01*
X117001259Y-79021148D01*
X116975128Y-79000524D01*
X116952949Y-78962777D01*
X116929887Y-78902790D01*
X116911796Y-78848409D01*
X116875644Y-78737335D01*
X116937979Y-78684596D01*
X116975313Y-78654448D01*
X117002359Y-78635245D01*
X117010039Y-78631618D01*
X117011441Y-78628512D01*
X117342534Y-78628512D01*
X117347086Y-78704721D01*
X117358840Y-78771968D01*
X117368475Y-78802112D01*
X117420950Y-78888960D01*
X117497359Y-78962783D01*
X117590306Y-79017123D01*
X117632410Y-79032557D01*
X117698421Y-79043695D01*
X117779964Y-79045013D01*
X117862277Y-79037029D01*
X117924868Y-79022301D01*
X118012246Y-78977914D01*
X118094006Y-78909531D01*
X118161618Y-78825033D01*
X118187084Y-78779962D01*
X118221471Y-78678768D01*
X118231429Y-78572029D01*
X118217999Y-78467145D01*
X118182220Y-78371517D01*
X118125130Y-78292542D01*
X118117619Y-78285214D01*
X118026164Y-78220037D01*
X117921800Y-78180654D01*
X117810630Y-78167106D01*
X117698756Y-78179432D01*
X117592282Y-78217675D01*
X117498258Y-78281040D01*
X117417587Y-78371320D01*
X117366129Y-78474630D01*
X117343659Y-78591472D01*
X117342534Y-78628512D01*
X117011441Y-78628512D01*
X117016650Y-78616976D01*
X117024119Y-78579107D01*
G37*
G36*
X124041647Y-112109574D02*
G01*
X124051541Y-112129944D01*
X124054736Y-112138451D01*
X124068017Y-112171654D01*
X124089031Y-112218858D01*
X124115823Y-112276097D01*
X124146442Y-112339406D01*
X124178935Y-112404819D01*
X124211351Y-112468369D01*
X124241736Y-112526093D01*
X124268138Y-112574024D01*
X124275246Y-112586338D01*
X124403924Y-112791014D01*
X124545718Y-112989071D01*
X124697796Y-113176986D01*
X124857327Y-113351235D01*
X125002002Y-113490808D01*
X125056997Y-113539297D01*
X125118528Y-113591337D01*
X125182996Y-113644077D01*
X125246801Y-113694662D01*
X125306342Y-113740240D01*
X125358021Y-113777960D01*
X125398237Y-113804967D01*
X125399243Y-113805591D01*
X125420502Y-113821005D01*
X125430996Y-113833173D01*
X125431200Y-113835574D01*
X125422640Y-113842008D01*
X125397957Y-113859519D01*
X125357848Y-113887625D01*
X125303013Y-113925843D01*
X125234148Y-113973693D01*
X125151952Y-114030691D01*
X125057123Y-114096355D01*
X124950359Y-114170204D01*
X124832358Y-114251756D01*
X124703817Y-114340527D01*
X124565435Y-114436037D01*
X124417910Y-114537803D01*
X124261940Y-114645344D01*
X124098222Y-114758176D01*
X123927456Y-114875818D01*
X123750338Y-114997789D01*
X123567566Y-115123605D01*
X123379840Y-115252784D01*
X123231281Y-115354978D01*
X122999304Y-115514512D01*
X122783558Y-115662832D01*
X122583478Y-115800322D01*
X122398498Y-115927365D01*
X122228053Y-116044343D01*
X122071579Y-116151640D01*
X121928510Y-116249638D01*
X121798281Y-116338719D01*
X121680327Y-116419268D01*
X121574083Y-116491665D01*
X121478983Y-116556295D01*
X121394463Y-116613539D01*
X121319958Y-116663782D01*
X121254902Y-116707404D01*
X121198730Y-116744790D01*
X121150877Y-116776322D01*
X121110778Y-116802383D01*
X121077869Y-116823356D01*
X121051583Y-116839622D01*
X121031355Y-116851566D01*
X121016621Y-116859570D01*
X121006816Y-116864017D01*
X121001510Y-116865294D01*
X120974048Y-116862061D01*
X120936295Y-116854414D01*
X120904244Y-116846160D01*
X120788216Y-116804037D01*
X120687599Y-116748570D01*
X120602629Y-116680059D01*
X120533540Y-116598806D01*
X120480566Y-116505113D01*
X120443943Y-116399282D01*
X120423905Y-116281614D01*
X120420350Y-116224496D01*
X120417567Y-116135490D01*
X122222528Y-114120462D01*
X122378418Y-113946447D01*
X122530771Y-113776417D01*
X122679022Y-113611000D01*
X122822610Y-113450822D01*
X122960973Y-113296510D01*
X123093546Y-113148689D01*
X123219769Y-113007986D01*
X123339079Y-112875028D01*
X123450913Y-112750441D01*
X123554709Y-112634851D01*
X123649904Y-112528884D01*
X123735936Y-112433168D01*
X123812242Y-112348328D01*
X123878261Y-112274991D01*
X123933428Y-112213783D01*
X123977183Y-112165331D01*
X124008962Y-112130261D01*
X124028204Y-112109199D01*
X124034345Y-112102734D01*
X124041647Y-112109574D01*
G37*
G36*
X126259018Y-109325737D02*
G01*
X126349749Y-109328680D01*
X126433117Y-109333621D01*
X126503594Y-109340504D01*
X126506406Y-109340863D01*
X126715171Y-109377928D01*
X126917970Y-109433980D01*
X127113764Y-109508196D01*
X127301512Y-109599757D01*
X127480177Y-109707841D01*
X127648718Y-109831628D01*
X127806098Y-109970297D01*
X127951275Y-110123029D01*
X128083212Y-110289001D01*
X128200869Y-110467394D01*
X128303207Y-110657387D01*
X128372152Y-110814174D01*
X128442506Y-111017796D01*
X128494060Y-111226964D01*
X128526925Y-111439963D01*
X128541214Y-111655076D01*
X128537037Y-111870589D01*
X128514507Y-112084786D01*
X128473735Y-112295952D01*
X128414832Y-112502373D01*
X128337910Y-112702332D01*
X128243080Y-112894115D01*
X128236119Y-112906577D01*
X128181593Y-113003466D01*
X128100906Y-113005284D01*
X128049210Y-113004327D01*
X127993385Y-113000043D01*
X127948785Y-112993890D01*
X127776880Y-112952710D01*
X127601046Y-112892299D01*
X127422267Y-112813237D01*
X127241528Y-112716101D01*
X127059815Y-112601469D01*
X126878113Y-112469922D01*
X126697408Y-112322036D01*
X126518684Y-112158391D01*
X126507585Y-112147636D01*
X126331127Y-111967521D01*
X126163926Y-111779708D01*
X126006762Y-111585629D01*
X125860415Y-111386716D01*
X125725667Y-111184400D01*
X125603297Y-110980113D01*
X125494087Y-110775288D01*
X125398817Y-110571355D01*
X125318267Y-110369747D01*
X125253218Y-110171894D01*
X125204450Y-109979230D01*
X125172745Y-109793185D01*
X125161830Y-109679209D01*
X125154855Y-109571324D01*
X125209179Y-109543796D01*
X125320896Y-109493271D01*
X125447590Y-109446556D01*
X125583957Y-109405182D01*
X125724692Y-109370677D01*
X125864490Y-109344571D01*
X125933049Y-109335065D01*
X125997940Y-109329456D01*
X126077585Y-109326069D01*
X126166454Y-109324848D01*
X126259018Y-109325737D01*
G37*
G36*
X124776635Y-109892122D02*
G01*
X124784632Y-109911173D01*
X124794877Y-109945160D01*
X124805623Y-109985389D01*
X124876604Y-110223994D01*
X124965980Y-110466562D01*
X125072572Y-110711279D01*
X125195201Y-110956331D01*
X125332688Y-111199903D01*
X125483853Y-111440182D01*
X125647517Y-111675353D01*
X125822500Y-111903602D01*
X126007623Y-112123115D01*
X126201706Y-112332077D01*
X126403571Y-112528675D01*
X126535640Y-112646599D01*
X126712256Y-112792093D01*
X126892056Y-112927223D01*
X127072849Y-113050622D01*
X127252445Y-113160924D01*
X127428655Y-113256760D01*
X127599288Y-113336763D01*
X127714970Y-113382881D01*
X127757559Y-113398991D01*
X127792008Y-113412908D01*
X127814440Y-113423007D01*
X127821164Y-113427400D01*
X127812567Y-113435764D01*
X127788707Y-113451461D01*
X127752611Y-113472770D01*
X127707308Y-113497969D01*
X127655825Y-113525338D01*
X127601190Y-113553155D01*
X127591585Y-113557914D01*
X127423649Y-113631429D01*
X127244730Y-113692547D01*
X127061394Y-113739288D01*
X126894192Y-113767930D01*
X126844661Y-113772812D01*
X126781149Y-113776852D01*
X126708342Y-113779968D01*
X126630929Y-113782074D01*
X126553595Y-113783089D01*
X126481029Y-113782927D01*
X126417917Y-113781505D01*
X126368947Y-113778740D01*
X126356820Y-113777533D01*
X126224867Y-113759563D01*
X126109976Y-113737924D01*
X126008999Y-113711807D01*
X125918791Y-113680400D01*
X125838255Y-113643941D01*
X125703301Y-113569382D01*
X125571638Y-113484192D01*
X125440714Y-113386432D01*
X125307975Y-113274159D01*
X125170871Y-113145432D01*
X125131835Y-113106662D01*
X125035071Y-113007224D01*
X124950590Y-112915035D01*
X124874317Y-112825137D01*
X124802179Y-112732575D01*
X124730099Y-112632392D01*
X124673678Y-112549347D01*
X124576661Y-112397425D01*
X124492877Y-112252026D01*
X124419303Y-112107332D01*
X124352915Y-111957524D01*
X124310519Y-111850252D01*
X124288084Y-111782281D01*
X124271213Y-111710178D01*
X124259561Y-111630771D01*
X124252786Y-111540886D01*
X124250543Y-111437349D01*
X124252489Y-111316988D01*
X124252548Y-111315042D01*
X124265611Y-111112980D01*
X124292719Y-110922191D01*
X124334963Y-110738239D01*
X124393430Y-110556689D01*
X124469209Y-110373105D01*
X124499577Y-110308471D01*
X124522935Y-110262954D01*
X124552454Y-110209622D01*
X124586123Y-110151692D01*
X124621933Y-110092379D01*
X124657872Y-110034900D01*
X124691932Y-109982470D01*
X124722101Y-109938305D01*
X124746369Y-109905622D01*
X124762517Y-109887809D01*
X124769669Y-109885253D01*
X124776635Y-109892122D01*
G37*
G36*
X126598470Y-115178659D02*
G01*
X126783447Y-115197473D01*
X126962155Y-115234432D01*
X127134067Y-115289539D01*
X127298654Y-115362801D01*
X127455389Y-115454222D01*
X127603744Y-115563807D01*
X127705934Y-115654782D01*
X127837989Y-115795636D01*
X127955816Y-115951047D01*
X128059427Y-116121038D01*
X128148831Y-116305632D01*
X128224041Y-116504851D01*
X128285067Y-116718718D01*
X128331919Y-116947258D01*
X128338618Y-116988480D01*
X128346504Y-117054844D01*
X128352377Y-117137446D01*
X128356263Y-117232215D01*
X128358188Y-117335081D01*
X128358177Y-117441974D01*
X128356255Y-117548824D01*
X128352450Y-117651560D01*
X128346786Y-117746112D01*
X128339289Y-117828410D01*
X128333002Y-117876306D01*
X128323911Y-117931132D01*
X128312534Y-117993705D01*
X128299686Y-118060126D01*
X128286184Y-118126496D01*
X128272842Y-118188915D01*
X128260476Y-118243485D01*
X128249901Y-118286307D01*
X128241934Y-118313481D01*
X128241061Y-118315848D01*
X128237331Y-118320079D01*
X128228902Y-118321890D01*
X128213770Y-118320833D01*
X128189930Y-118316456D01*
X128155379Y-118308311D01*
X128108112Y-118295948D01*
X128046125Y-118278917D01*
X127967414Y-118256768D01*
X127928375Y-118245686D01*
X127852883Y-118224167D01*
X127783927Y-118204409D01*
X127723897Y-118187105D01*
X127675186Y-118172948D01*
X127640183Y-118162632D01*
X127621281Y-118156850D01*
X127618630Y-118155890D01*
X127619430Y-118145504D01*
X127624313Y-118119356D01*
X127632461Y-118081496D01*
X127642109Y-118039904D01*
X127683469Y-117833243D01*
X127708693Y-117628244D01*
X127717975Y-117426444D01*
X127711508Y-117229379D01*
X127689485Y-117038586D01*
X127652099Y-116855599D01*
X127599543Y-116681956D01*
X127532010Y-116519191D01*
X127449693Y-116368842D01*
X127427861Y-116334931D01*
X127384574Y-116276777D01*
X127329420Y-116213186D01*
X127267249Y-116148991D01*
X127202911Y-116089029D01*
X127141257Y-116038134D01*
X127102612Y-116010697D01*
X126976023Y-115940604D01*
X126840593Y-115888674D01*
X126696887Y-115854958D01*
X126545473Y-115839505D01*
X126386915Y-115842367D01*
X126221780Y-115863594D01*
X126050635Y-115903236D01*
X126014956Y-115913613D01*
X125829757Y-115977134D01*
X125643417Y-116056829D01*
X125455082Y-116153214D01*
X125263897Y-116266802D01*
X125069009Y-116398108D01*
X124869563Y-116547647D01*
X124664706Y-116715932D01*
X124621987Y-116752774D01*
X124556441Y-116811562D01*
X124480011Y-116883204D01*
X124395206Y-116965155D01*
X124304537Y-117054870D01*
X124210515Y-117149805D01*
X124115650Y-117247415D01*
X124022453Y-117345156D01*
X123933435Y-117440482D01*
X123851106Y-117530849D01*
X123820593Y-117565057D01*
X123721604Y-117674945D01*
X123617906Y-117786651D01*
X123512256Y-117897376D01*
X123407412Y-118004319D01*
X123306133Y-118104679D01*
X123211178Y-118195655D01*
X123125304Y-118274448D01*
X123098986Y-118297685D01*
X122870792Y-118488512D01*
X122646167Y-118659471D01*
X122424792Y-118810732D01*
X122206346Y-118942462D01*
X121990509Y-119054829D01*
X121776961Y-119148004D01*
X121565381Y-119222153D01*
X121355449Y-119277445D01*
X121172730Y-119310508D01*
X121113986Y-119316706D01*
X121041889Y-119320975D01*
X120961569Y-119323321D01*
X120878156Y-119323752D01*
X120796779Y-119322273D01*
X120722569Y-119318892D01*
X120660654Y-119313615D01*
X120633064Y-119309800D01*
X120465124Y-119272224D01*
X120307978Y-119218129D01*
X120162411Y-119148267D01*
X120029210Y-119063393D01*
X119909159Y-118964260D01*
X119803045Y-118851620D01*
X119711651Y-118726228D01*
X119635765Y-118588837D01*
X119576172Y-118440200D01*
X119533656Y-118281071D01*
X119527513Y-118249381D01*
X119519551Y-118190117D01*
X119514069Y-118117000D01*
X119511117Y-118035975D01*
X119510747Y-117952987D01*
X119513011Y-117873979D01*
X119517959Y-117804897D01*
X119523313Y-117764052D01*
X119566634Y-117570063D01*
X119629691Y-117380589D01*
X119712138Y-117196488D01*
X119813632Y-117018617D01*
X119836511Y-116983377D01*
X119872153Y-116931597D01*
X119913015Y-116875449D01*
X119956055Y-116818814D01*
X119998232Y-116765574D01*
X120036505Y-116719611D01*
X120067834Y-116684807D01*
X120079492Y-116673223D01*
X120105631Y-116648805D01*
X120215677Y-116751594D01*
X120298405Y-116829700D01*
X120371403Y-116900319D01*
X120433813Y-116962545D01*
X120484775Y-117015472D01*
X120523428Y-117058194D01*
X120548913Y-117089804D01*
X120560370Y-117109397D01*
X120560342Y-117114776D01*
X120549445Y-117128516D01*
X120528962Y-117153350D01*
X120502561Y-117184851D01*
X120490678Y-117198900D01*
X120397670Y-117319722D01*
X120317048Y-117447361D01*
X120250528Y-117578431D01*
X120199829Y-117709547D01*
X120166668Y-117837321D01*
X120166563Y-117837873D01*
X120158338Y-117901647D01*
X120155030Y-117974937D01*
X120156537Y-118049953D01*
X120162760Y-118118906D01*
X120170778Y-118163284D01*
X120206214Y-118270624D01*
X120257275Y-118365772D01*
X120322986Y-118448418D01*
X120402376Y-118518249D01*
X120494472Y-118574955D01*
X120598301Y-118618223D01*
X120712891Y-118647742D01*
X120837268Y-118663201D01*
X120970461Y-118664287D01*
X121111496Y-118650689D01*
X121259401Y-118622095D01*
X121413203Y-118578194D01*
X121438787Y-118569559D01*
X121586760Y-118513854D01*
X121729815Y-118449978D01*
X121872709Y-118375537D01*
X122020197Y-118288138D01*
X122101376Y-118236059D01*
X122260672Y-118126598D01*
X122417744Y-118008669D01*
X122574275Y-117880751D01*
X122731950Y-117741327D01*
X122892453Y-117588876D01*
X123057466Y-117421879D01*
X123228673Y-117238816D01*
X123325540Y-117131348D01*
X123545147Y-116890532D01*
X123758690Y-116668146D01*
X123967033Y-116463421D01*
X124171038Y-116275589D01*
X124371570Y-116103883D01*
X124569492Y-115947533D01*
X124765667Y-115805771D01*
X124956284Y-115680740D01*
X125172419Y-115554580D01*
X125386505Y-115446524D01*
X125598016Y-115356578D01*
X125806424Y-115284745D01*
X126011201Y-115231032D01*
X126211819Y-115195444D01*
X126407751Y-115177984D01*
X126598470Y-115178659D01*
G37*
D10*
X109425000Y-80425000D03*
D11*
X131625000Y-110250000D03*
D12*
X139245000Y-110250000D03*
D13*
X140600000Y-82750000D03*
X149400000Y-82750000D03*
D14*
X142500000Y-89750000D03*
D15*
X145000000Y-89750000D03*
X147500000Y-89750000D03*
D16*
X164950000Y-103500000D03*
D17*
X169950000Y-98500000D03*
D16*
X164950000Y-93500000D03*
D11*
X118240000Y-94690000D03*
X113160000Y-102310000D03*
D18*
X122050000Y-102310000D03*
X122685000Y-94690000D03*
D19*
X126500000Y-98500000D03*
X116330000Y-106750000D03*
D10*
X171025000Y-80425000D03*
D11*
X158000000Y-83500000D03*
X163000000Y-83500000D03*
D20*
X147400000Y-114805000D03*
D21*
X152480000Y-114805000D03*
X157560000Y-114805000D03*
D11*
X135800000Y-95600000D03*
X140800000Y-95600000D03*
X132416000Y-98590000D03*
D12*
X132416000Y-106210000D03*
D11*
X147400000Y-104600000D03*
X152400000Y-104600000D03*
X164875000Y-110375000D03*
D12*
X172495000Y-110375000D03*
D22*
X165750000Y-114950000D03*
D23*
X163210000Y-114950000D03*
D11*
X132416000Y-96410000D03*
D12*
X132416000Y-88790000D03*
D11*
X140800000Y-99400000D03*
X135800000Y-99400000D03*
D22*
X141775000Y-114950000D03*
D23*
X139235000Y-114950000D03*
D10*
X109450000Y-116550000D03*
D11*
X157800000Y-96000000D03*
X157800000Y-101000000D03*
D10*
X171025000Y-116575000D03*
D11*
X140800000Y-105550000D03*
X140800000Y-103050000D03*
D24*
X147400000Y-93520000D03*
D12*
X147400000Y-96060000D03*
X147400000Y-98600000D03*
X147400000Y-101140000D03*
X155020000Y-101140000D03*
X155020000Y-98600000D03*
X155020000Y-96060000D03*
X155020000Y-93520000D03*
M02*
