%TF.GenerationSoftware,KiCad,Pcbnew,(6.0.7-1)-1*%
%TF.CreationDate,2022-08-15T15:43:09-06:00*%
%TF.ProjectId,mic_preamp,6d69635f-7072-4656-916d-702e6b696361,1*%
%TF.SameCoordinates,Original*%
%TF.FileFunction,Copper,L1,Top*%
%TF.FilePolarity,Positive*%
%FSLAX46Y46*%
G04 Gerber Fmt 4.6, Leading zero omitted, Abs format (unit mm)*
G04 Created by KiCad (PCBNEW (6.0.7-1)-1) date 2022-08-15 15:43:09*
%MOMM*%
%LPD*%
G01*
G04 APERTURE LIST*
%TA.AperFunction,ComponentPad*%
%ADD10C,1.600000*%
%TD*%
%TA.AperFunction,ComponentPad*%
%ADD11O,1.600000X1.600000*%
%TD*%
%TA.AperFunction,WasherPad*%
%ADD12O,2.300000X4.600000*%
%TD*%
%TA.AperFunction,ComponentPad*%
%ADD13R,1.508000X1.508000*%
%TD*%
%TA.AperFunction,ComponentPad*%
%ADD14C,1.508000*%
%TD*%
%TA.AperFunction,ComponentPad*%
%ADD15O,2.200000X1.200000*%
%TD*%
%TA.AperFunction,ComponentPad*%
%ADD16O,1.200000X2.200000*%
%TD*%
%TA.AperFunction,ComponentPad*%
%ADD17C,3.400000*%
%TD*%
%TA.AperFunction,ComponentPad*%
%ADD18C,2.900000*%
%TD*%
%TA.AperFunction,ComponentPad*%
%ADD19R,2.600000X2.600000*%
%TD*%
%TA.AperFunction,ComponentPad*%
%ADD20C,2.600000*%
%TD*%
%TA.AperFunction,ComponentPad*%
%ADD21R,1.800000X1.800000*%
%TD*%
%TA.AperFunction,ComponentPad*%
%ADD22C,1.800000*%
%TD*%
%TA.AperFunction,ComponentPad*%
%ADD23R,1.600000X1.600000*%
%TD*%
%TA.AperFunction,Conductor*%
%ADD24C,0.200000*%
%TD*%
%TA.AperFunction,Conductor*%
%ADD25C,0.250000*%
%TD*%
%TA.AperFunction,Conductor*%
%ADD26C,0.750000*%
%TD*%
G04 APERTURE END LIST*
D10*
X131625000Y-110250000D03*
D11*
X139245000Y-110250000D03*
D12*
X140600000Y-82750000D03*
X149400000Y-82750000D03*
D13*
X142500000Y-89750000D03*
D14*
X145000000Y-89750000D03*
X147500000Y-89750000D03*
D15*
X164950000Y-103500000D03*
D16*
X169950000Y-98500000D03*
D15*
X164950000Y-93500000D03*
D17*
X122050000Y-102310000D03*
X122685000Y-94690000D03*
D18*
X126500000Y-98500000D03*
X116330000Y-106750000D03*
D10*
X158000000Y-83500000D03*
X163000000Y-83500000D03*
D19*
X147400000Y-114805000D03*
D20*
X152480000Y-114805000D03*
X157560000Y-114805000D03*
D10*
X135800000Y-95600000D03*
X140800000Y-95600000D03*
X132416000Y-98590000D03*
D11*
X132416000Y-106210000D03*
D10*
X147400000Y-104600000D03*
X152400000Y-104600000D03*
X164875000Y-110375000D03*
D11*
X172495000Y-110375000D03*
D21*
X165750000Y-114950000D03*
D22*
X163210000Y-114950000D03*
D10*
X132416000Y-96410000D03*
D11*
X132416000Y-88790000D03*
D10*
X140800000Y-99400000D03*
X135800000Y-99400000D03*
D21*
X141775000Y-114950000D03*
D22*
X139235000Y-114950000D03*
D10*
X157800000Y-96000000D03*
X157800000Y-101000000D03*
X140800000Y-105550000D03*
X140800000Y-103050000D03*
D23*
X147400000Y-93520000D03*
D11*
X147400000Y-96060000D03*
X147400000Y-98600000D03*
X147400000Y-101140000D03*
X155020000Y-101140000D03*
X155020000Y-98600000D03*
X155020000Y-96060000D03*
X155020000Y-93520000D03*
D24*
X131160000Y-95666161D02*
X131160000Y-96210000D01*
X129960000Y-97153839D02*
X129960000Y-95666161D01*
X129560000Y-95666161D02*
X129560000Y-97153839D01*
X134500000Y-95600000D02*
X135800000Y-95600000D01*
X132416000Y-96410000D02*
X133690000Y-96410000D01*
X133690000Y-96410000D02*
X134500000Y-95600000D01*
X144100000Y-97300000D02*
X146160000Y-97300000D01*
X130360000Y-95666161D02*
X130360000Y-97153839D01*
X135800000Y-95600000D02*
X137500000Y-97300000D01*
X126500000Y-98500000D02*
X128590000Y-96410000D01*
X131360000Y-96410000D02*
X131629390Y-96410000D01*
X128590000Y-96410000D02*
X128960000Y-96410000D01*
X137500000Y-97300000D02*
X142900000Y-97300000D01*
X129160000Y-96210000D02*
X129160000Y-95666161D01*
X131629390Y-96410000D02*
X132416000Y-96410000D01*
X130760000Y-97153839D02*
X130760000Y-95666161D01*
X144098632Y-97300000D02*
X144100000Y-97300000D01*
X146160000Y-97300000D02*
X147400000Y-96060000D01*
X143498632Y-96701368D02*
X143500000Y-96701368D01*
X130560000Y-97353800D02*
G75*
G02*
X130360000Y-97153839I0J200000D01*
G01*
X143799332Y-97000684D02*
G75*
G03*
X143500000Y-96701368I-299332J-16D01*
G01*
X129760000Y-97353800D02*
G75*
G02*
X129560000Y-97153839I0J200000D01*
G01*
X143199300Y-97000684D02*
G75*
G02*
X142900000Y-97300000I-299300J-16D01*
G01*
X143498632Y-96701416D02*
G75*
G03*
X143199316Y-97000684I-32J-299284D01*
G01*
X129360000Y-95466200D02*
G75*
G03*
X129160000Y-95666161I0J-200000D01*
G01*
X130960000Y-95466200D02*
G75*
G03*
X130760000Y-95666161I0J-200000D01*
G01*
X130160000Y-95466200D02*
G75*
G03*
X129960000Y-95666161I0J-200000D01*
G01*
X131360000Y-96410000D02*
G75*
G02*
X131160000Y-96210000I0J200000D01*
G01*
X129560039Y-95666161D02*
G75*
G03*
X129360000Y-95466161I-200039J-39D01*
G01*
X131160039Y-95666161D02*
G75*
G03*
X130960000Y-95466161I-200039J-39D01*
G01*
X129960039Y-97153839D02*
G75*
G02*
X129760000Y-97353839I-200039J39D01*
G01*
X129160000Y-96210000D02*
G75*
G02*
X128960000Y-96410000I-200000J0D01*
G01*
X130360039Y-95666161D02*
G75*
G03*
X130160000Y-95466161I-200039J-39D01*
G01*
X144098632Y-97299984D02*
G75*
G02*
X143799316Y-97000684I-32J299284D01*
G01*
X130760039Y-97153839D02*
G75*
G02*
X130560000Y-97353839I-200039J39D01*
G01*
X146500000Y-97700000D02*
X147400000Y-98600000D01*
X132416000Y-98590000D02*
X133590000Y-98590000D01*
X132416000Y-98590000D02*
X131260000Y-98590000D01*
X125600000Y-100900000D02*
X122685000Y-97985000D01*
X145000000Y-97700000D02*
X146500000Y-97700000D01*
X144100000Y-98000000D02*
X144100000Y-98069047D01*
X144700000Y-98069047D02*
X144700000Y-98000000D01*
X133590000Y-98590000D02*
X134400000Y-99400000D01*
X122685000Y-97985000D02*
X122685000Y-94690000D01*
X131260000Y-98590000D02*
X128950000Y-100900000D01*
X128950000Y-100900000D02*
X125600000Y-100900000D01*
X137500000Y-97700000D02*
X143800000Y-97700000D01*
X135800000Y-99400000D02*
X137500000Y-97700000D01*
X134400000Y-99400000D02*
X135800000Y-99400000D01*
X144100000Y-98000000D02*
G75*
G03*
X143800000Y-97700000I-300000J0D01*
G01*
X145000000Y-97700000D02*
G75*
G03*
X144700000Y-98000000I0J-300000D01*
G01*
X144400000Y-98369000D02*
G75*
G02*
X144100000Y-98069047I0J300000D01*
G01*
X144700047Y-98069047D02*
G75*
G02*
X144400000Y-98369047I-300047J47D01*
G01*
D25*
X151750000Y-89750000D02*
X158000000Y-83500000D01*
X147500000Y-89750000D02*
X151750000Y-89750000D01*
X163000000Y-83500000D02*
X163000000Y-85540000D01*
X163000000Y-85540000D02*
X155020000Y-93520000D01*
D26*
X153890000Y-96060000D02*
X155020000Y-96060000D01*
X155020000Y-96060000D02*
X157740000Y-96060000D01*
X152600000Y-97350000D02*
X153890000Y-96060000D01*
X157705000Y-114950000D02*
X157560000Y-114805000D01*
X157400000Y-106650000D02*
X152600000Y-101850000D01*
X157740000Y-96060000D02*
X157800000Y-96000000D01*
X163210000Y-114950000D02*
X157705000Y-114950000D01*
X152600000Y-101850000D02*
X152600000Y-97350000D01*
X157400000Y-114805000D02*
X157400000Y-106650000D01*
X141775000Y-114950000D02*
X147255000Y-114950000D01*
X147400000Y-101140000D02*
X147400000Y-104600000D01*
X147400000Y-114805000D02*
X147400000Y-104600000D01*
X147255000Y-114950000D02*
X147400000Y-114805000D01*
D25*
X139235000Y-110260000D02*
X139235000Y-114950000D01*
X139245000Y-110250000D02*
X139235000Y-110260000D01*
X159850000Y-98600000D02*
X164950000Y-93500000D01*
X155020000Y-98600000D02*
X159850000Y-98600000D01*
X164950000Y-103500000D02*
X164750000Y-103500000D01*
X164750000Y-103500000D02*
X159850000Y-98600000D01*
X145219500Y-89750000D02*
X145000000Y-89750000D01*
X142500000Y-89750000D02*
X145000000Y-89750000D01*
X147400000Y-91930500D02*
X145219500Y-89750000D01*
X147400000Y-93520000D02*
X147400000Y-91930500D01*
X165775000Y-114925000D02*
X165775000Y-111275000D01*
X165775000Y-111275000D02*
X164875000Y-110375000D01*
X165750000Y-114950000D02*
X165775000Y-114925000D01*
M02*
