M48
; DRILL file {KiCad (6.0.7-1)-1} date Monday, August 15, 2022 at 03:43:20 PM
; FORMAT={-:-/ absolute / metric / decimal}
; #@! TF.CreationDate,2022-08-15T15:43:20-06:00
; #@! TF.GenerationSoftware,Kicad,Pcbnew,(6.0.7-1)-1
; #@! TF.FileFunction,Plated,1,2,PTH
FMAT,2
METRIC
; #@! TA.AperFunction,Plated,PTH,ComponentDrill
T1C0.400
; #@! TA.AperFunction,Plated,PTH,ComponentDrill
T2C0.800
; #@! TA.AperFunction,Plated,PTH,ComponentDrill
T3C0.900
; #@! TA.AperFunction,Plated,PTH,ComponentDrill
T4C1.000
; #@! TA.AperFunction,Plated,PTH,ComponentDrill
T5C1.200
; #@! TA.AperFunction,Plated,PTH,ComponentDrill
T6C1.300
; #@! TA.AperFunction,Plated,PTH,ComponentDrill
T7C1.600
%
G90
G05
T2
X131.625Y-110.25
X132.416Y-88.79
X132.416Y-96.41
X132.416Y-98.59
X132.416Y-106.21
X135.8Y-95.6
X135.8Y-99.4
X139.245Y-110.25
X140.8Y-95.6
X140.8Y-99.4
X140.8Y-103.05
X140.8Y-105.55
X147.4Y-93.52
X147.4Y-96.06
X147.4Y-98.6
X147.4Y-101.14
X147.4Y-104.6
X152.4Y-104.6
X155.02Y-93.52
X155.02Y-96.06
X155.02Y-98.6
X155.02Y-101.14
X157.8Y-96.0
X157.8Y-101.0
X158.0Y-83.5
X163.0Y-83.5
X164.875Y-110.375
X172.495Y-110.375
T3
X139.235Y-114.95
X141.775Y-114.95
X163.21Y-114.95
X165.75Y-114.95
T4
X142.5Y-89.75
X145.0Y-89.75
X147.5Y-89.75
T5
X116.33Y-106.75
X126.5Y-98.5
T6
X147.4Y-114.805
X152.48Y-114.805
X157.56Y-114.805
T7
X122.05Y-102.31
X122.685Y-94.69
T1
X165.45Y-93.5G85X164.45Y-93.5
G05
X164.45Y-103.5G85X165.45Y-103.5
G05
X169.95Y-99.0G85X169.95Y-98.0
G05
T0
M30
