%TF.GenerationSoftware,KiCad,Pcbnew,(6.0.7-1)-1*%
%TF.CreationDate,2022-08-15T15:43:25-06:00*%
%TF.ProjectId,mic_preamp,6d69635f-7072-4656-916d-702e6b696361,1*%
%TF.SameCoordinates,Original*%
%TF.FileFunction,Drillmap*%
%TF.FilePolarity,Positive*%
%FSLAX45Y45*%
G04 Gerber Fmt 4.5, Leading zero omitted, Abs format (unit mm)*
G04 Created by KiCad (PCBNEW (6.0.7-1)-1) date 2022-08-15 15:43:25*
%MOMM*%
%LPD*%
G01*
G04 APERTURE LIST*
%ADD10C,0.100000*%
%ADD11C,0.200000*%
%ADD12C,0.120000*%
%ADD13C,0.160000*%
%ADD14C,0.180000*%
%ADD15C,0.320000*%
G04 APERTURE END LIST*
D10*
X17145000Y-12000000D02*
G75*
G03*
X17445000Y-11700000I0J300000D01*
G01*
X17145000Y-7700000D02*
X10900000Y-7700000D01*
X17445000Y-8000000D02*
G75*
G03*
X17145000Y-7700000I-300000J0D01*
G01*
X10600000Y-11700000D02*
G75*
G03*
X10900000Y-12000000I300000J0D01*
G01*
X10600000Y-8000000D02*
X10600000Y-11700000D01*
X17445000Y-10500000D02*
X17445000Y-11700000D01*
X17445000Y-9200000D02*
X17445000Y-8000000D01*
X10900000Y-12000000D02*
X17145000Y-12000000D01*
X10900000Y-7700000D02*
G75*
G03*
X10600000Y-8000000I0J-300000D01*
G01*
D11*
D12*
X16435000Y-9790000D02*
X16555000Y-9910000D01*
X16555000Y-9790000D02*
X16435000Y-9910000D01*
X16935000Y-9290000D02*
X17055000Y-9410000D01*
X17055000Y-9290000D02*
X16935000Y-9410000D01*
X16935000Y-10290000D02*
X17055000Y-10410000D01*
X17055000Y-10290000D02*
X16935000Y-10410000D01*
X17185000Y-9290000D02*
X17305000Y-9410000D01*
X17305000Y-9290000D02*
X17185000Y-9410000D01*
X17185000Y-10290000D02*
X17305000Y-10410000D01*
X17305000Y-10290000D02*
X17185000Y-10410000D01*
D13*
X11396000Y-10231000D02*
G75*
G03*
X11396000Y-10231000I-80000J0D01*
G01*
X11904000Y-9469000D02*
G75*
G03*
X11904000Y-9469000I-80000J0D01*
G01*
D14*
X14060000Y-8185000D02*
X14060000Y-8365000D01*
X13970000Y-8275000D02*
X14150000Y-8275000D01*
D11*
X13970000Y-8255000D02*
X13970000Y-8295000D01*
X14150000Y-8255000D02*
X14150000Y-8295000D01*
X13970000Y-8295000D02*
G75*
G03*
X14150000Y-8295000I90000J0D01*
G01*
X14150000Y-8255000D02*
G75*
G03*
X13970000Y-8255000I-90000J0D01*
G01*
D14*
X14940000Y-8185000D02*
X14940000Y-8365000D01*
X14850000Y-8275000D02*
X15030000Y-8275000D01*
D11*
X14850000Y-8255000D02*
X14850000Y-8295000D01*
X15030000Y-8255000D02*
X15030000Y-8295000D01*
X14850000Y-8295000D02*
G75*
G03*
X15030000Y-8295000I90000J0D01*
G01*
X15030000Y-8255000D02*
G75*
G03*
X14850000Y-8255000I-90000J0D01*
G01*
D15*
X11055638Y-8155638D02*
X11055638Y-7929362D01*
X10829362Y-7929362D01*
X10829362Y-8155638D01*
X11055638Y-8155638D01*
X11058138Y-11768138D02*
X11058138Y-11541862D01*
X10831862Y-11541862D01*
X10831862Y-11768138D01*
X11058138Y-11768138D01*
X17215638Y-8155638D02*
X17215638Y-7929362D01*
X16989362Y-7929362D01*
X16989362Y-8155638D01*
X17215638Y-8155638D01*
X17215638Y-11770638D02*
X17215638Y-11544362D01*
X16989362Y-11544362D01*
X16989362Y-11770638D01*
X17215638Y-11770638D01*
D11*
X10852619Y-12315476D02*
X10852619Y-12115476D01*
X10900238Y-12115476D01*
X10928810Y-12125000D01*
X10947857Y-12144048D01*
X10957381Y-12163095D01*
X10966905Y-12201190D01*
X10966905Y-12229762D01*
X10957381Y-12267857D01*
X10947857Y-12286905D01*
X10928810Y-12305952D01*
X10900238Y-12315476D01*
X10852619Y-12315476D01*
X11052619Y-12315476D02*
X11052619Y-12182143D01*
X11052619Y-12220238D02*
X11062143Y-12201190D01*
X11071667Y-12191667D01*
X11090714Y-12182143D01*
X11109762Y-12182143D01*
X11176429Y-12315476D02*
X11176429Y-12182143D01*
X11176429Y-12115476D02*
X11166905Y-12125000D01*
X11176429Y-12134524D01*
X11185952Y-12125000D01*
X11176429Y-12115476D01*
X11176429Y-12134524D01*
X11300238Y-12315476D02*
X11281190Y-12305952D01*
X11271667Y-12286905D01*
X11271667Y-12115476D01*
X11405000Y-12315476D02*
X11385952Y-12305952D01*
X11376428Y-12286905D01*
X11376428Y-12115476D01*
X11633571Y-12315476D02*
X11633571Y-12115476D01*
X11700238Y-12258333D01*
X11766905Y-12115476D01*
X11766905Y-12315476D01*
X11947857Y-12315476D02*
X11947857Y-12210714D01*
X11938333Y-12191667D01*
X11919286Y-12182143D01*
X11881190Y-12182143D01*
X11862143Y-12191667D01*
X11947857Y-12305952D02*
X11928809Y-12315476D01*
X11881190Y-12315476D01*
X11862143Y-12305952D01*
X11852619Y-12286905D01*
X11852619Y-12267857D01*
X11862143Y-12248809D01*
X11881190Y-12239286D01*
X11928809Y-12239286D01*
X11947857Y-12229762D01*
X12043095Y-12182143D02*
X12043095Y-12382143D01*
X12043095Y-12191667D02*
X12062143Y-12182143D01*
X12100238Y-12182143D01*
X12119286Y-12191667D01*
X12128809Y-12201190D01*
X12138333Y-12220238D01*
X12138333Y-12277381D01*
X12128809Y-12296428D01*
X12119286Y-12305952D01*
X12100238Y-12315476D01*
X12062143Y-12315476D01*
X12043095Y-12305952D01*
X12224048Y-12296428D02*
X12233571Y-12305952D01*
X12224048Y-12315476D01*
X12214524Y-12305952D01*
X12224048Y-12296428D01*
X12224048Y-12315476D01*
X12224048Y-12191667D02*
X12233571Y-12201190D01*
X12224048Y-12210714D01*
X12214524Y-12201190D01*
X12224048Y-12191667D01*
X12224048Y-12210714D01*
D12*
X10475000Y-12585000D02*
X10595000Y-12705000D01*
X10595000Y-12585000D02*
X10475000Y-12705000D01*
D11*
X10957381Y-12735476D02*
X10843095Y-12735476D01*
X10900238Y-12735476D02*
X10900238Y-12535476D01*
X10881190Y-12564048D01*
X10862143Y-12583095D01*
X10843095Y-12592619D01*
X11043095Y-12716428D02*
X11052619Y-12725952D01*
X11043095Y-12735476D01*
X11033571Y-12725952D01*
X11043095Y-12716428D01*
X11043095Y-12735476D01*
X11128810Y-12554524D02*
X11138333Y-12545000D01*
X11157381Y-12535476D01*
X11205000Y-12535476D01*
X11224048Y-12545000D01*
X11233571Y-12554524D01*
X11243095Y-12573571D01*
X11243095Y-12592619D01*
X11233571Y-12621190D01*
X11119286Y-12735476D01*
X11243095Y-12735476D01*
X11366905Y-12535476D02*
X11385952Y-12535476D01*
X11405000Y-12545000D01*
X11414524Y-12554524D01*
X11424048Y-12573571D01*
X11433571Y-12611667D01*
X11433571Y-12659286D01*
X11424048Y-12697381D01*
X11414524Y-12716428D01*
X11405000Y-12725952D01*
X11385952Y-12735476D01*
X11366905Y-12735476D01*
X11347857Y-12725952D01*
X11338333Y-12716428D01*
X11328809Y-12697381D01*
X11319286Y-12659286D01*
X11319286Y-12611667D01*
X11328809Y-12573571D01*
X11338333Y-12554524D01*
X11347857Y-12545000D01*
X11366905Y-12535476D01*
X11557381Y-12535476D02*
X11576428Y-12535476D01*
X11595476Y-12545000D01*
X11605000Y-12554524D01*
X11614524Y-12573571D01*
X11624048Y-12611667D01*
X11624048Y-12659286D01*
X11614524Y-12697381D01*
X11605000Y-12716428D01*
X11595476Y-12725952D01*
X11576428Y-12735476D01*
X11557381Y-12735476D01*
X11538333Y-12725952D01*
X11528809Y-12716428D01*
X11519286Y-12697381D01*
X11509762Y-12659286D01*
X11509762Y-12611667D01*
X11519286Y-12573571D01*
X11528809Y-12554524D01*
X11538333Y-12545000D01*
X11557381Y-12535476D01*
X11709762Y-12735476D02*
X11709762Y-12602143D01*
X11709762Y-12621190D02*
X11719286Y-12611667D01*
X11738333Y-12602143D01*
X11766905Y-12602143D01*
X11785952Y-12611667D01*
X11795476Y-12630714D01*
X11795476Y-12735476D01*
X11795476Y-12630714D02*
X11805000Y-12611667D01*
X11824048Y-12602143D01*
X11852619Y-12602143D01*
X11871667Y-12611667D01*
X11881190Y-12630714D01*
X11881190Y-12735476D01*
X11976428Y-12735476D02*
X11976428Y-12602143D01*
X11976428Y-12621190D02*
X11985952Y-12611667D01*
X12005000Y-12602143D01*
X12033571Y-12602143D01*
X12052619Y-12611667D01*
X12062143Y-12630714D01*
X12062143Y-12735476D01*
X12062143Y-12630714D02*
X12071667Y-12611667D01*
X12090714Y-12602143D01*
X12119286Y-12602143D01*
X12138333Y-12611667D01*
X12147857Y-12630714D01*
X12147857Y-12735476D01*
X12538333Y-12525952D02*
X12366905Y-12783095D01*
X12795476Y-12535476D02*
X12814524Y-12535476D01*
X12833571Y-12545000D01*
X12843095Y-12554524D01*
X12852619Y-12573571D01*
X12862143Y-12611667D01*
X12862143Y-12659286D01*
X12852619Y-12697381D01*
X12843095Y-12716428D01*
X12833571Y-12725952D01*
X12814524Y-12735476D01*
X12795476Y-12735476D01*
X12776428Y-12725952D01*
X12766905Y-12716428D01*
X12757381Y-12697381D01*
X12747857Y-12659286D01*
X12747857Y-12611667D01*
X12757381Y-12573571D01*
X12766905Y-12554524D01*
X12776428Y-12545000D01*
X12795476Y-12535476D01*
X12947857Y-12716428D02*
X12957381Y-12725952D01*
X12947857Y-12735476D01*
X12938333Y-12725952D01*
X12947857Y-12716428D01*
X12947857Y-12735476D01*
X13081190Y-12535476D02*
X13100238Y-12535476D01*
X13119286Y-12545000D01*
X13128809Y-12554524D01*
X13138333Y-12573571D01*
X13147857Y-12611667D01*
X13147857Y-12659286D01*
X13138333Y-12697381D01*
X13128809Y-12716428D01*
X13119286Y-12725952D01*
X13100238Y-12735476D01*
X13081190Y-12735476D01*
X13062143Y-12725952D01*
X13052619Y-12716428D01*
X13043095Y-12697381D01*
X13033571Y-12659286D01*
X13033571Y-12611667D01*
X13043095Y-12573571D01*
X13052619Y-12554524D01*
X13062143Y-12545000D01*
X13081190Y-12535476D01*
X13319286Y-12602143D02*
X13319286Y-12735476D01*
X13271667Y-12525952D02*
X13224048Y-12668809D01*
X13347857Y-12668809D01*
X13405000Y-12535476D02*
X13538333Y-12535476D01*
X13452619Y-12735476D01*
X13605000Y-12554524D02*
X13614524Y-12545000D01*
X13633571Y-12535476D01*
X13681190Y-12535476D01*
X13700238Y-12545000D01*
X13709762Y-12554524D01*
X13719286Y-12573571D01*
X13719286Y-12592619D01*
X13709762Y-12621190D01*
X13595476Y-12735476D01*
X13719286Y-12735476D01*
X13795476Y-12535476D02*
X13795476Y-12573571D01*
X13871667Y-12535476D02*
X13871667Y-12573571D01*
X14166905Y-12811667D02*
X14157381Y-12802143D01*
X14138333Y-12773571D01*
X14128809Y-12754524D01*
X14119286Y-12725952D01*
X14109762Y-12678333D01*
X14109762Y-12640238D01*
X14119286Y-12592619D01*
X14128809Y-12564048D01*
X14138333Y-12545000D01*
X14157381Y-12516428D01*
X14166905Y-12506905D01*
X14338333Y-12535476D02*
X14243095Y-12535476D01*
X14233571Y-12630714D01*
X14243095Y-12621190D01*
X14262143Y-12611667D01*
X14309762Y-12611667D01*
X14328809Y-12621190D01*
X14338333Y-12630714D01*
X14347857Y-12649762D01*
X14347857Y-12697381D01*
X14338333Y-12716428D01*
X14328809Y-12725952D01*
X14309762Y-12735476D01*
X14262143Y-12735476D01*
X14243095Y-12725952D01*
X14233571Y-12716428D01*
X14585952Y-12735476D02*
X14585952Y-12535476D01*
X14671667Y-12735476D02*
X14671667Y-12630714D01*
X14662143Y-12611667D01*
X14643095Y-12602143D01*
X14614524Y-12602143D01*
X14595476Y-12611667D01*
X14585952Y-12621190D01*
X14795476Y-12735476D02*
X14776428Y-12725952D01*
X14766905Y-12716428D01*
X14757381Y-12697381D01*
X14757381Y-12640238D01*
X14766905Y-12621190D01*
X14776428Y-12611667D01*
X14795476Y-12602143D01*
X14824048Y-12602143D01*
X14843095Y-12611667D01*
X14852619Y-12621190D01*
X14862143Y-12640238D01*
X14862143Y-12697381D01*
X14852619Y-12716428D01*
X14843095Y-12725952D01*
X14824048Y-12735476D01*
X14795476Y-12735476D01*
X14976428Y-12735476D02*
X14957381Y-12725952D01*
X14947857Y-12706905D01*
X14947857Y-12535476D01*
X15128809Y-12725952D02*
X15109762Y-12735476D01*
X15071667Y-12735476D01*
X15052619Y-12725952D01*
X15043095Y-12706905D01*
X15043095Y-12630714D01*
X15052619Y-12611667D01*
X15071667Y-12602143D01*
X15109762Y-12602143D01*
X15128809Y-12611667D01*
X15138333Y-12630714D01*
X15138333Y-12649762D01*
X15043095Y-12668809D01*
X15214524Y-12725952D02*
X15233571Y-12735476D01*
X15271667Y-12735476D01*
X15290714Y-12725952D01*
X15300238Y-12706905D01*
X15300238Y-12697381D01*
X15290714Y-12678333D01*
X15271667Y-12668809D01*
X15243095Y-12668809D01*
X15224048Y-12659286D01*
X15214524Y-12640238D01*
X15214524Y-12630714D01*
X15224048Y-12611667D01*
X15243095Y-12602143D01*
X15271667Y-12602143D01*
X15290714Y-12611667D01*
X15366905Y-12811667D02*
X15376428Y-12802143D01*
X15395476Y-12773571D01*
X15405000Y-12754524D01*
X15414524Y-12725952D01*
X15424048Y-12678333D01*
X15424048Y-12640238D01*
X15414524Y-12592619D01*
X15405000Y-12564048D01*
X15395476Y-12545000D01*
X15376428Y-12516428D01*
X15366905Y-12506905D01*
X15728809Y-12811667D02*
X15719286Y-12802143D01*
X15700238Y-12773571D01*
X15690714Y-12754524D01*
X15681190Y-12725952D01*
X15671667Y-12678333D01*
X15671667Y-12640238D01*
X15681190Y-12592619D01*
X15690714Y-12564048D01*
X15700238Y-12545000D01*
X15719286Y-12516428D01*
X15728809Y-12506905D01*
X15805000Y-12602143D02*
X15805000Y-12735476D01*
X15805000Y-12621190D02*
X15814524Y-12611667D01*
X15833571Y-12602143D01*
X15862143Y-12602143D01*
X15881190Y-12611667D01*
X15890714Y-12630714D01*
X15890714Y-12735476D01*
X16014524Y-12735476D02*
X15995476Y-12725952D01*
X15985952Y-12716428D01*
X15976428Y-12697381D01*
X15976428Y-12640238D01*
X15985952Y-12621190D01*
X15995476Y-12611667D01*
X16014524Y-12602143D01*
X16043095Y-12602143D01*
X16062143Y-12611667D01*
X16071667Y-12621190D01*
X16081190Y-12640238D01*
X16081190Y-12697381D01*
X16071667Y-12716428D01*
X16062143Y-12725952D01*
X16043095Y-12735476D01*
X16014524Y-12735476D01*
X16138333Y-12602143D02*
X16214524Y-12602143D01*
X16166905Y-12535476D02*
X16166905Y-12706905D01*
X16176428Y-12725952D01*
X16195476Y-12735476D01*
X16214524Y-12735476D01*
X16433571Y-12602143D02*
X16433571Y-12802143D01*
X16433571Y-12611667D02*
X16452619Y-12602143D01*
X16490714Y-12602143D01*
X16509762Y-12611667D01*
X16519286Y-12621190D01*
X16528809Y-12640238D01*
X16528809Y-12697381D01*
X16519286Y-12716428D01*
X16509762Y-12725952D01*
X16490714Y-12735476D01*
X16452619Y-12735476D01*
X16433571Y-12725952D01*
X16643095Y-12735476D02*
X16624048Y-12725952D01*
X16614524Y-12706905D01*
X16614524Y-12535476D01*
X16805000Y-12735476D02*
X16805000Y-12630714D01*
X16795476Y-12611667D01*
X16776428Y-12602143D01*
X16738333Y-12602143D01*
X16719286Y-12611667D01*
X16805000Y-12725952D02*
X16785952Y-12735476D01*
X16738333Y-12735476D01*
X16719286Y-12725952D01*
X16709762Y-12706905D01*
X16709762Y-12687857D01*
X16719286Y-12668809D01*
X16738333Y-12659286D01*
X16785952Y-12659286D01*
X16805000Y-12649762D01*
X16871667Y-12602143D02*
X16947857Y-12602143D01*
X16900238Y-12535476D02*
X16900238Y-12706905D01*
X16909762Y-12725952D01*
X16928810Y-12735476D01*
X16947857Y-12735476D01*
X17090714Y-12725952D02*
X17071667Y-12735476D01*
X17033571Y-12735476D01*
X17014524Y-12725952D01*
X17005000Y-12706905D01*
X17005000Y-12630714D01*
X17014524Y-12611667D01*
X17033571Y-12602143D01*
X17071667Y-12602143D01*
X17090714Y-12611667D01*
X17100238Y-12630714D01*
X17100238Y-12649762D01*
X17005000Y-12668809D01*
X17271667Y-12735476D02*
X17271667Y-12535476D01*
X17271667Y-12725952D02*
X17252619Y-12735476D01*
X17214524Y-12735476D01*
X17195476Y-12725952D01*
X17185952Y-12716428D01*
X17176429Y-12697381D01*
X17176429Y-12640238D01*
X17185952Y-12621190D01*
X17195476Y-12611667D01*
X17214524Y-12602143D01*
X17252619Y-12602143D01*
X17271667Y-12611667D01*
X17347857Y-12811667D02*
X17357381Y-12802143D01*
X17376429Y-12773571D01*
X17385952Y-12754524D01*
X17395476Y-12725952D01*
X17405000Y-12678333D01*
X17405000Y-12640238D01*
X17395476Y-12592619D01*
X17385952Y-12564048D01*
X17376429Y-12545000D01*
X17357381Y-12516428D01*
X17347857Y-12506905D01*
D13*
X10595000Y-12909000D02*
G75*
G03*
X10595000Y-12909000I-80000J0D01*
G01*
D11*
X10957381Y-12999476D02*
X10843095Y-12999476D01*
X10900238Y-12999476D02*
X10900238Y-12799476D01*
X10881190Y-12828048D01*
X10862143Y-12847095D01*
X10843095Y-12856619D01*
X11043095Y-12980428D02*
X11052619Y-12989952D01*
X11043095Y-12999476D01*
X11033571Y-12989952D01*
X11043095Y-12980428D01*
X11043095Y-12999476D01*
X11224048Y-12799476D02*
X11185952Y-12799476D01*
X11166905Y-12809000D01*
X11157381Y-12818524D01*
X11138333Y-12847095D01*
X11128810Y-12885190D01*
X11128810Y-12961381D01*
X11138333Y-12980428D01*
X11147857Y-12989952D01*
X11166905Y-12999476D01*
X11205000Y-12999476D01*
X11224048Y-12989952D01*
X11233571Y-12980428D01*
X11243095Y-12961381D01*
X11243095Y-12913762D01*
X11233571Y-12894714D01*
X11224048Y-12885190D01*
X11205000Y-12875667D01*
X11166905Y-12875667D01*
X11147857Y-12885190D01*
X11138333Y-12894714D01*
X11128810Y-12913762D01*
X11366905Y-12799476D02*
X11385952Y-12799476D01*
X11405000Y-12809000D01*
X11414524Y-12818524D01*
X11424048Y-12837571D01*
X11433571Y-12875667D01*
X11433571Y-12923286D01*
X11424048Y-12961381D01*
X11414524Y-12980428D01*
X11405000Y-12989952D01*
X11385952Y-12999476D01*
X11366905Y-12999476D01*
X11347857Y-12989952D01*
X11338333Y-12980428D01*
X11328809Y-12961381D01*
X11319286Y-12923286D01*
X11319286Y-12875667D01*
X11328809Y-12837571D01*
X11338333Y-12818524D01*
X11347857Y-12809000D01*
X11366905Y-12799476D01*
X11557381Y-12799476D02*
X11576428Y-12799476D01*
X11595476Y-12809000D01*
X11605000Y-12818524D01*
X11614524Y-12837571D01*
X11624048Y-12875667D01*
X11624048Y-12923286D01*
X11614524Y-12961381D01*
X11605000Y-12980428D01*
X11595476Y-12989952D01*
X11576428Y-12999476D01*
X11557381Y-12999476D01*
X11538333Y-12989952D01*
X11528809Y-12980428D01*
X11519286Y-12961381D01*
X11509762Y-12923286D01*
X11509762Y-12875667D01*
X11519286Y-12837571D01*
X11528809Y-12818524D01*
X11538333Y-12809000D01*
X11557381Y-12799476D01*
X11709762Y-12999476D02*
X11709762Y-12866143D01*
X11709762Y-12885190D02*
X11719286Y-12875667D01*
X11738333Y-12866143D01*
X11766905Y-12866143D01*
X11785952Y-12875667D01*
X11795476Y-12894714D01*
X11795476Y-12999476D01*
X11795476Y-12894714D02*
X11805000Y-12875667D01*
X11824048Y-12866143D01*
X11852619Y-12866143D01*
X11871667Y-12875667D01*
X11881190Y-12894714D01*
X11881190Y-12999476D01*
X11976428Y-12999476D02*
X11976428Y-12866143D01*
X11976428Y-12885190D02*
X11985952Y-12875667D01*
X12005000Y-12866143D01*
X12033571Y-12866143D01*
X12052619Y-12875667D01*
X12062143Y-12894714D01*
X12062143Y-12999476D01*
X12062143Y-12894714D02*
X12071667Y-12875667D01*
X12090714Y-12866143D01*
X12119286Y-12866143D01*
X12138333Y-12875667D01*
X12147857Y-12894714D01*
X12147857Y-12999476D01*
X12538333Y-12789952D02*
X12366905Y-13047095D01*
X12795476Y-12799476D02*
X12814524Y-12799476D01*
X12833571Y-12809000D01*
X12843095Y-12818524D01*
X12852619Y-12837571D01*
X12862143Y-12875667D01*
X12862143Y-12923286D01*
X12852619Y-12961381D01*
X12843095Y-12980428D01*
X12833571Y-12989952D01*
X12814524Y-12999476D01*
X12795476Y-12999476D01*
X12776428Y-12989952D01*
X12766905Y-12980428D01*
X12757381Y-12961381D01*
X12747857Y-12923286D01*
X12747857Y-12875667D01*
X12757381Y-12837571D01*
X12766905Y-12818524D01*
X12776428Y-12809000D01*
X12795476Y-12799476D01*
X12947857Y-12980428D02*
X12957381Y-12989952D01*
X12947857Y-12999476D01*
X12938333Y-12989952D01*
X12947857Y-12980428D01*
X12947857Y-12999476D01*
X13081190Y-12799476D02*
X13100238Y-12799476D01*
X13119286Y-12809000D01*
X13128809Y-12818524D01*
X13138333Y-12837571D01*
X13147857Y-12875667D01*
X13147857Y-12923286D01*
X13138333Y-12961381D01*
X13128809Y-12980428D01*
X13119286Y-12989952D01*
X13100238Y-12999476D01*
X13081190Y-12999476D01*
X13062143Y-12989952D01*
X13052619Y-12980428D01*
X13043095Y-12961381D01*
X13033571Y-12923286D01*
X13033571Y-12875667D01*
X13043095Y-12837571D01*
X13052619Y-12818524D01*
X13062143Y-12809000D01*
X13081190Y-12799476D01*
X13319286Y-12799476D02*
X13281190Y-12799476D01*
X13262143Y-12809000D01*
X13252619Y-12818524D01*
X13233571Y-12847095D01*
X13224048Y-12885190D01*
X13224048Y-12961381D01*
X13233571Y-12980428D01*
X13243095Y-12989952D01*
X13262143Y-12999476D01*
X13300238Y-12999476D01*
X13319286Y-12989952D01*
X13328809Y-12980428D01*
X13338333Y-12961381D01*
X13338333Y-12913762D01*
X13328809Y-12894714D01*
X13319286Y-12885190D01*
X13300238Y-12875667D01*
X13262143Y-12875667D01*
X13243095Y-12885190D01*
X13233571Y-12894714D01*
X13224048Y-12913762D01*
X13405000Y-12799476D02*
X13528809Y-12799476D01*
X13462143Y-12875667D01*
X13490714Y-12875667D01*
X13509762Y-12885190D01*
X13519286Y-12894714D01*
X13528809Y-12913762D01*
X13528809Y-12961381D01*
X13519286Y-12980428D01*
X13509762Y-12989952D01*
X13490714Y-12999476D01*
X13433571Y-12999476D01*
X13414524Y-12989952D01*
X13405000Y-12980428D01*
X13652619Y-12799476D02*
X13671667Y-12799476D01*
X13690714Y-12809000D01*
X13700238Y-12818524D01*
X13709762Y-12837571D01*
X13719286Y-12875667D01*
X13719286Y-12923286D01*
X13709762Y-12961381D01*
X13700238Y-12980428D01*
X13690714Y-12989952D01*
X13671667Y-12999476D01*
X13652619Y-12999476D01*
X13633571Y-12989952D01*
X13624048Y-12980428D01*
X13614524Y-12961381D01*
X13605000Y-12923286D01*
X13605000Y-12875667D01*
X13614524Y-12837571D01*
X13624048Y-12818524D01*
X13633571Y-12809000D01*
X13652619Y-12799476D01*
X13795476Y-12799476D02*
X13795476Y-12837571D01*
X13871667Y-12799476D02*
X13871667Y-12837571D01*
X14166905Y-13075667D02*
X14157381Y-13066143D01*
X14138333Y-13037571D01*
X14128809Y-13018524D01*
X14119286Y-12989952D01*
X14109762Y-12942333D01*
X14109762Y-12904238D01*
X14119286Y-12856619D01*
X14128809Y-12828048D01*
X14138333Y-12809000D01*
X14157381Y-12780428D01*
X14166905Y-12770905D01*
X14233571Y-12818524D02*
X14243095Y-12809000D01*
X14262143Y-12799476D01*
X14309762Y-12799476D01*
X14328809Y-12809000D01*
X14338333Y-12818524D01*
X14347857Y-12837571D01*
X14347857Y-12856619D01*
X14338333Y-12885190D01*
X14224048Y-12999476D01*
X14347857Y-12999476D01*
X14585952Y-12999476D02*
X14585952Y-12799476D01*
X14671667Y-12999476D02*
X14671667Y-12894714D01*
X14662143Y-12875667D01*
X14643095Y-12866143D01*
X14614524Y-12866143D01*
X14595476Y-12875667D01*
X14585952Y-12885190D01*
X14795476Y-12999476D02*
X14776428Y-12989952D01*
X14766905Y-12980428D01*
X14757381Y-12961381D01*
X14757381Y-12904238D01*
X14766905Y-12885190D01*
X14776428Y-12875667D01*
X14795476Y-12866143D01*
X14824048Y-12866143D01*
X14843095Y-12875667D01*
X14852619Y-12885190D01*
X14862143Y-12904238D01*
X14862143Y-12961381D01*
X14852619Y-12980428D01*
X14843095Y-12989952D01*
X14824048Y-12999476D01*
X14795476Y-12999476D01*
X14976428Y-12999476D02*
X14957381Y-12989952D01*
X14947857Y-12970905D01*
X14947857Y-12799476D01*
X15128809Y-12989952D02*
X15109762Y-12999476D01*
X15071667Y-12999476D01*
X15052619Y-12989952D01*
X15043095Y-12970905D01*
X15043095Y-12894714D01*
X15052619Y-12875667D01*
X15071667Y-12866143D01*
X15109762Y-12866143D01*
X15128809Y-12875667D01*
X15138333Y-12894714D01*
X15138333Y-12913762D01*
X15043095Y-12932809D01*
X15214524Y-12989952D02*
X15233571Y-12999476D01*
X15271667Y-12999476D01*
X15290714Y-12989952D01*
X15300238Y-12970905D01*
X15300238Y-12961381D01*
X15290714Y-12942333D01*
X15271667Y-12932809D01*
X15243095Y-12932809D01*
X15224048Y-12923286D01*
X15214524Y-12904238D01*
X15214524Y-12894714D01*
X15224048Y-12875667D01*
X15243095Y-12866143D01*
X15271667Y-12866143D01*
X15290714Y-12875667D01*
X15366905Y-13075667D02*
X15376428Y-13066143D01*
X15395476Y-13037571D01*
X15405000Y-13018524D01*
X15414524Y-12989952D01*
X15424048Y-12942333D01*
X15424048Y-12904238D01*
X15414524Y-12856619D01*
X15405000Y-12828048D01*
X15395476Y-12809000D01*
X15376428Y-12780428D01*
X15366905Y-12770905D01*
X15728809Y-13075667D02*
X15719286Y-13066143D01*
X15700238Y-13037571D01*
X15690714Y-13018524D01*
X15681190Y-12989952D01*
X15671667Y-12942333D01*
X15671667Y-12904238D01*
X15681190Y-12856619D01*
X15690714Y-12828048D01*
X15700238Y-12809000D01*
X15719286Y-12780428D01*
X15728809Y-12770905D01*
X15805000Y-12866143D02*
X15805000Y-12999476D01*
X15805000Y-12885190D02*
X15814524Y-12875667D01*
X15833571Y-12866143D01*
X15862143Y-12866143D01*
X15881190Y-12875667D01*
X15890714Y-12894714D01*
X15890714Y-12999476D01*
X16014524Y-12999476D02*
X15995476Y-12989952D01*
X15985952Y-12980428D01*
X15976428Y-12961381D01*
X15976428Y-12904238D01*
X15985952Y-12885190D01*
X15995476Y-12875667D01*
X16014524Y-12866143D01*
X16043095Y-12866143D01*
X16062143Y-12875667D01*
X16071667Y-12885190D01*
X16081190Y-12904238D01*
X16081190Y-12961381D01*
X16071667Y-12980428D01*
X16062143Y-12989952D01*
X16043095Y-12999476D01*
X16014524Y-12999476D01*
X16138333Y-12866143D02*
X16214524Y-12866143D01*
X16166905Y-12799476D02*
X16166905Y-12970905D01*
X16176428Y-12989952D01*
X16195476Y-12999476D01*
X16214524Y-12999476D01*
X16433571Y-12866143D02*
X16433571Y-13066143D01*
X16433571Y-12875667D02*
X16452619Y-12866143D01*
X16490714Y-12866143D01*
X16509762Y-12875667D01*
X16519286Y-12885190D01*
X16528809Y-12904238D01*
X16528809Y-12961381D01*
X16519286Y-12980428D01*
X16509762Y-12989952D01*
X16490714Y-12999476D01*
X16452619Y-12999476D01*
X16433571Y-12989952D01*
X16643095Y-12999476D02*
X16624048Y-12989952D01*
X16614524Y-12970905D01*
X16614524Y-12799476D01*
X16805000Y-12999476D02*
X16805000Y-12894714D01*
X16795476Y-12875667D01*
X16776428Y-12866143D01*
X16738333Y-12866143D01*
X16719286Y-12875667D01*
X16805000Y-12989952D02*
X16785952Y-12999476D01*
X16738333Y-12999476D01*
X16719286Y-12989952D01*
X16709762Y-12970905D01*
X16709762Y-12951857D01*
X16719286Y-12932809D01*
X16738333Y-12923286D01*
X16785952Y-12923286D01*
X16805000Y-12913762D01*
X16871667Y-12866143D02*
X16947857Y-12866143D01*
X16900238Y-12799476D02*
X16900238Y-12970905D01*
X16909762Y-12989952D01*
X16928810Y-12999476D01*
X16947857Y-12999476D01*
X17090714Y-12989952D02*
X17071667Y-12999476D01*
X17033571Y-12999476D01*
X17014524Y-12989952D01*
X17005000Y-12970905D01*
X17005000Y-12894714D01*
X17014524Y-12875667D01*
X17033571Y-12866143D01*
X17071667Y-12866143D01*
X17090714Y-12875667D01*
X17100238Y-12894714D01*
X17100238Y-12913762D01*
X17005000Y-12932809D01*
X17271667Y-12999476D02*
X17271667Y-12799476D01*
X17271667Y-12989952D02*
X17252619Y-12999476D01*
X17214524Y-12999476D01*
X17195476Y-12989952D01*
X17185952Y-12980428D01*
X17176429Y-12961381D01*
X17176429Y-12904238D01*
X17185952Y-12885190D01*
X17195476Y-12875667D01*
X17214524Y-12866143D01*
X17252619Y-12866143D01*
X17271667Y-12875667D01*
X17347857Y-13075667D02*
X17357381Y-13066143D01*
X17376429Y-13037571D01*
X17385952Y-13018524D01*
X17395476Y-12989952D01*
X17405000Y-12942333D01*
X17405000Y-12904238D01*
X17395476Y-12856619D01*
X17385952Y-12828048D01*
X17376429Y-12809000D01*
X17357381Y-12780428D01*
X17347857Y-12770905D01*
D14*
X10505000Y-13099000D02*
X10505000Y-13279000D01*
X10415000Y-13189000D02*
X10595000Y-13189000D01*
D11*
X10957381Y-13279476D02*
X10843095Y-13279476D01*
X10900238Y-13279476D02*
X10900238Y-13079476D01*
X10881190Y-13108048D01*
X10862143Y-13127095D01*
X10843095Y-13136619D01*
X11043095Y-13260428D02*
X11052619Y-13269952D01*
X11043095Y-13279476D01*
X11033571Y-13269952D01*
X11043095Y-13260428D01*
X11043095Y-13279476D01*
X11166905Y-13165190D02*
X11147857Y-13155667D01*
X11138333Y-13146143D01*
X11128810Y-13127095D01*
X11128810Y-13117571D01*
X11138333Y-13098524D01*
X11147857Y-13089000D01*
X11166905Y-13079476D01*
X11205000Y-13079476D01*
X11224048Y-13089000D01*
X11233571Y-13098524D01*
X11243095Y-13117571D01*
X11243095Y-13127095D01*
X11233571Y-13146143D01*
X11224048Y-13155667D01*
X11205000Y-13165190D01*
X11166905Y-13165190D01*
X11147857Y-13174714D01*
X11138333Y-13184238D01*
X11128810Y-13203286D01*
X11128810Y-13241381D01*
X11138333Y-13260428D01*
X11147857Y-13269952D01*
X11166905Y-13279476D01*
X11205000Y-13279476D01*
X11224048Y-13269952D01*
X11233571Y-13260428D01*
X11243095Y-13241381D01*
X11243095Y-13203286D01*
X11233571Y-13184238D01*
X11224048Y-13174714D01*
X11205000Y-13165190D01*
X11366905Y-13079476D02*
X11385952Y-13079476D01*
X11405000Y-13089000D01*
X11414524Y-13098524D01*
X11424048Y-13117571D01*
X11433571Y-13155667D01*
X11433571Y-13203286D01*
X11424048Y-13241381D01*
X11414524Y-13260428D01*
X11405000Y-13269952D01*
X11385952Y-13279476D01*
X11366905Y-13279476D01*
X11347857Y-13269952D01*
X11338333Y-13260428D01*
X11328809Y-13241381D01*
X11319286Y-13203286D01*
X11319286Y-13155667D01*
X11328809Y-13117571D01*
X11338333Y-13098524D01*
X11347857Y-13089000D01*
X11366905Y-13079476D01*
X11557381Y-13079476D02*
X11576428Y-13079476D01*
X11595476Y-13089000D01*
X11605000Y-13098524D01*
X11614524Y-13117571D01*
X11624048Y-13155667D01*
X11624048Y-13203286D01*
X11614524Y-13241381D01*
X11605000Y-13260428D01*
X11595476Y-13269952D01*
X11576428Y-13279476D01*
X11557381Y-13279476D01*
X11538333Y-13269952D01*
X11528809Y-13260428D01*
X11519286Y-13241381D01*
X11509762Y-13203286D01*
X11509762Y-13155667D01*
X11519286Y-13117571D01*
X11528809Y-13098524D01*
X11538333Y-13089000D01*
X11557381Y-13079476D01*
X11709762Y-13279476D02*
X11709762Y-13146143D01*
X11709762Y-13165190D02*
X11719286Y-13155667D01*
X11738333Y-13146143D01*
X11766905Y-13146143D01*
X11785952Y-13155667D01*
X11795476Y-13174714D01*
X11795476Y-13279476D01*
X11795476Y-13174714D02*
X11805000Y-13155667D01*
X11824048Y-13146143D01*
X11852619Y-13146143D01*
X11871667Y-13155667D01*
X11881190Y-13174714D01*
X11881190Y-13279476D01*
X11976428Y-13279476D02*
X11976428Y-13146143D01*
X11976428Y-13165190D02*
X11985952Y-13155667D01*
X12005000Y-13146143D01*
X12033571Y-13146143D01*
X12052619Y-13155667D01*
X12062143Y-13174714D01*
X12062143Y-13279476D01*
X12062143Y-13174714D02*
X12071667Y-13155667D01*
X12090714Y-13146143D01*
X12119286Y-13146143D01*
X12138333Y-13155667D01*
X12147857Y-13174714D01*
X12147857Y-13279476D01*
X12538333Y-13069952D02*
X12366905Y-13327095D01*
X12795476Y-13079476D02*
X12814524Y-13079476D01*
X12833571Y-13089000D01*
X12843095Y-13098524D01*
X12852619Y-13117571D01*
X12862143Y-13155667D01*
X12862143Y-13203286D01*
X12852619Y-13241381D01*
X12843095Y-13260428D01*
X12833571Y-13269952D01*
X12814524Y-13279476D01*
X12795476Y-13279476D01*
X12776428Y-13269952D01*
X12766905Y-13260428D01*
X12757381Y-13241381D01*
X12747857Y-13203286D01*
X12747857Y-13155667D01*
X12757381Y-13117571D01*
X12766905Y-13098524D01*
X12776428Y-13089000D01*
X12795476Y-13079476D01*
X12947857Y-13260428D02*
X12957381Y-13269952D01*
X12947857Y-13279476D01*
X12938333Y-13269952D01*
X12947857Y-13260428D01*
X12947857Y-13279476D01*
X13081190Y-13079476D02*
X13100238Y-13079476D01*
X13119286Y-13089000D01*
X13128809Y-13098524D01*
X13138333Y-13117571D01*
X13147857Y-13155667D01*
X13147857Y-13203286D01*
X13138333Y-13241381D01*
X13128809Y-13260428D01*
X13119286Y-13269952D01*
X13100238Y-13279476D01*
X13081190Y-13279476D01*
X13062143Y-13269952D01*
X13052619Y-13260428D01*
X13043095Y-13241381D01*
X13033571Y-13203286D01*
X13033571Y-13155667D01*
X13043095Y-13117571D01*
X13052619Y-13098524D01*
X13062143Y-13089000D01*
X13081190Y-13079476D01*
X13214524Y-13079476D02*
X13347857Y-13079476D01*
X13262143Y-13279476D01*
X13462143Y-13079476D02*
X13481190Y-13079476D01*
X13500238Y-13089000D01*
X13509762Y-13098524D01*
X13519286Y-13117571D01*
X13528809Y-13155667D01*
X13528809Y-13203286D01*
X13519286Y-13241381D01*
X13509762Y-13260428D01*
X13500238Y-13269952D01*
X13481190Y-13279476D01*
X13462143Y-13279476D01*
X13443095Y-13269952D01*
X13433571Y-13260428D01*
X13424048Y-13241381D01*
X13414524Y-13203286D01*
X13414524Y-13155667D01*
X13424048Y-13117571D01*
X13433571Y-13098524D01*
X13443095Y-13089000D01*
X13462143Y-13079476D01*
X13624048Y-13279476D02*
X13662143Y-13279476D01*
X13681190Y-13269952D01*
X13690714Y-13260428D01*
X13709762Y-13231857D01*
X13719286Y-13193762D01*
X13719286Y-13117571D01*
X13709762Y-13098524D01*
X13700238Y-13089000D01*
X13681190Y-13079476D01*
X13643095Y-13079476D01*
X13624048Y-13089000D01*
X13614524Y-13098524D01*
X13605000Y-13117571D01*
X13605000Y-13165190D01*
X13614524Y-13184238D01*
X13624048Y-13193762D01*
X13643095Y-13203286D01*
X13681190Y-13203286D01*
X13700238Y-13193762D01*
X13709762Y-13184238D01*
X13719286Y-13165190D01*
X13795476Y-13079476D02*
X13795476Y-13117571D01*
X13871667Y-13079476D02*
X13871667Y-13117571D01*
X14166905Y-13355667D02*
X14157381Y-13346143D01*
X14138333Y-13317571D01*
X14128809Y-13298524D01*
X14119286Y-13269952D01*
X14109762Y-13222333D01*
X14109762Y-13184238D01*
X14119286Y-13136619D01*
X14128809Y-13108048D01*
X14138333Y-13089000D01*
X14157381Y-13060428D01*
X14166905Y-13050905D01*
X14281190Y-13079476D02*
X14300238Y-13079476D01*
X14319286Y-13089000D01*
X14328809Y-13098524D01*
X14338333Y-13117571D01*
X14347857Y-13155667D01*
X14347857Y-13203286D01*
X14338333Y-13241381D01*
X14328809Y-13260428D01*
X14319286Y-13269952D01*
X14300238Y-13279476D01*
X14281190Y-13279476D01*
X14262143Y-13269952D01*
X14252619Y-13260428D01*
X14243095Y-13241381D01*
X14233571Y-13203286D01*
X14233571Y-13155667D01*
X14243095Y-13117571D01*
X14252619Y-13098524D01*
X14262143Y-13089000D01*
X14281190Y-13079476D01*
X14585952Y-13279476D02*
X14585952Y-13079476D01*
X14671667Y-13279476D02*
X14671667Y-13174714D01*
X14662143Y-13155667D01*
X14643095Y-13146143D01*
X14614524Y-13146143D01*
X14595476Y-13155667D01*
X14585952Y-13165190D01*
X14795476Y-13279476D02*
X14776428Y-13269952D01*
X14766905Y-13260428D01*
X14757381Y-13241381D01*
X14757381Y-13184238D01*
X14766905Y-13165190D01*
X14776428Y-13155667D01*
X14795476Y-13146143D01*
X14824048Y-13146143D01*
X14843095Y-13155667D01*
X14852619Y-13165190D01*
X14862143Y-13184238D01*
X14862143Y-13241381D01*
X14852619Y-13260428D01*
X14843095Y-13269952D01*
X14824048Y-13279476D01*
X14795476Y-13279476D01*
X14976428Y-13279476D02*
X14957381Y-13269952D01*
X14947857Y-13250905D01*
X14947857Y-13079476D01*
X15128809Y-13269952D02*
X15109762Y-13279476D01*
X15071667Y-13279476D01*
X15052619Y-13269952D01*
X15043095Y-13250905D01*
X15043095Y-13174714D01*
X15052619Y-13155667D01*
X15071667Y-13146143D01*
X15109762Y-13146143D01*
X15128809Y-13155667D01*
X15138333Y-13174714D01*
X15138333Y-13193762D01*
X15043095Y-13212809D01*
X15214524Y-13269952D02*
X15233571Y-13279476D01*
X15271667Y-13279476D01*
X15290714Y-13269952D01*
X15300238Y-13250905D01*
X15300238Y-13241381D01*
X15290714Y-13222333D01*
X15271667Y-13212809D01*
X15243095Y-13212809D01*
X15224048Y-13203286D01*
X15214524Y-13184238D01*
X15214524Y-13174714D01*
X15224048Y-13155667D01*
X15243095Y-13146143D01*
X15271667Y-13146143D01*
X15290714Y-13155667D01*
X15538333Y-13203286D02*
X15690714Y-13203286D01*
X15614524Y-13279476D02*
X15614524Y-13127095D01*
X15928809Y-13098524D02*
X15938333Y-13089000D01*
X15957381Y-13079476D01*
X16005000Y-13079476D01*
X16024048Y-13089000D01*
X16033571Y-13098524D01*
X16043095Y-13117571D01*
X16043095Y-13136619D01*
X16033571Y-13165190D01*
X15919286Y-13279476D01*
X16043095Y-13279476D01*
X16271667Y-13269952D02*
X16290714Y-13279476D01*
X16328809Y-13279476D01*
X16347857Y-13269952D01*
X16357381Y-13250905D01*
X16357381Y-13241381D01*
X16347857Y-13222333D01*
X16328809Y-13212809D01*
X16300238Y-13212809D01*
X16281190Y-13203286D01*
X16271667Y-13184238D01*
X16271667Y-13174714D01*
X16281190Y-13155667D01*
X16300238Y-13146143D01*
X16328809Y-13146143D01*
X16347857Y-13155667D01*
X16471667Y-13279476D02*
X16452619Y-13269952D01*
X16443095Y-13250905D01*
X16443095Y-13079476D01*
X16576428Y-13279476D02*
X16557381Y-13269952D01*
X16547857Y-13260428D01*
X16538333Y-13241381D01*
X16538333Y-13184238D01*
X16547857Y-13165190D01*
X16557381Y-13155667D01*
X16576428Y-13146143D01*
X16605000Y-13146143D01*
X16624048Y-13155667D01*
X16633571Y-13165190D01*
X16643095Y-13184238D01*
X16643095Y-13241381D01*
X16633571Y-13260428D01*
X16624048Y-13269952D01*
X16605000Y-13279476D01*
X16576428Y-13279476D01*
X16700238Y-13146143D02*
X16776428Y-13146143D01*
X16728809Y-13079476D02*
X16728809Y-13250905D01*
X16738333Y-13269952D01*
X16757381Y-13279476D01*
X16776428Y-13279476D01*
X16833571Y-13269952D02*
X16852619Y-13279476D01*
X16890714Y-13279476D01*
X16909762Y-13269952D01*
X16919286Y-13250905D01*
X16919286Y-13241381D01*
X16909762Y-13222333D01*
X16890714Y-13212809D01*
X16862143Y-13212809D01*
X16843095Y-13203286D01*
X16833571Y-13184238D01*
X16833571Y-13174714D01*
X16843095Y-13155667D01*
X16862143Y-13146143D01*
X16890714Y-13146143D01*
X16909762Y-13155667D01*
X16985952Y-13355667D02*
X16995476Y-13346143D01*
X17014524Y-13317571D01*
X17024048Y-13298524D01*
X17033571Y-13269952D01*
X17043095Y-13222333D01*
X17043095Y-13184238D01*
X17033571Y-13136619D01*
X17024048Y-13108048D01*
X17014524Y-13089000D01*
X16995476Y-13060428D01*
X16985952Y-13050905D01*
X17347857Y-13355667D02*
X17338333Y-13346143D01*
X17319286Y-13317571D01*
X17309762Y-13298524D01*
X17300238Y-13269952D01*
X17290714Y-13222333D01*
X17290714Y-13184238D01*
X17300238Y-13136619D01*
X17309762Y-13108048D01*
X17319286Y-13089000D01*
X17338333Y-13060428D01*
X17347857Y-13050905D01*
X17424048Y-13146143D02*
X17424048Y-13279476D01*
X17424048Y-13165190D02*
X17433571Y-13155667D01*
X17452619Y-13146143D01*
X17481190Y-13146143D01*
X17500238Y-13155667D01*
X17509762Y-13174714D01*
X17509762Y-13279476D01*
X17633571Y-13279476D02*
X17614524Y-13269952D01*
X17605000Y-13260428D01*
X17595476Y-13241381D01*
X17595476Y-13184238D01*
X17605000Y-13165190D01*
X17614524Y-13155667D01*
X17633571Y-13146143D01*
X17662143Y-13146143D01*
X17681190Y-13155667D01*
X17690714Y-13165190D01*
X17700238Y-13184238D01*
X17700238Y-13241381D01*
X17690714Y-13260428D01*
X17681190Y-13269952D01*
X17662143Y-13279476D01*
X17633571Y-13279476D01*
X17757381Y-13146143D02*
X17833571Y-13146143D01*
X17785952Y-13079476D02*
X17785952Y-13250905D01*
X17795476Y-13269952D01*
X17814524Y-13279476D01*
X17833571Y-13279476D01*
X18052619Y-13146143D02*
X18052619Y-13346143D01*
X18052619Y-13155667D02*
X18071667Y-13146143D01*
X18109762Y-13146143D01*
X18128810Y-13155667D01*
X18138333Y-13165190D01*
X18147857Y-13184238D01*
X18147857Y-13241381D01*
X18138333Y-13260428D01*
X18128810Y-13269952D01*
X18109762Y-13279476D01*
X18071667Y-13279476D01*
X18052619Y-13269952D01*
X18262143Y-13279476D02*
X18243095Y-13269952D01*
X18233571Y-13250905D01*
X18233571Y-13079476D01*
X18424048Y-13279476D02*
X18424048Y-13174714D01*
X18414524Y-13155667D01*
X18395476Y-13146143D01*
X18357381Y-13146143D01*
X18338333Y-13155667D01*
X18424048Y-13269952D02*
X18405000Y-13279476D01*
X18357381Y-13279476D01*
X18338333Y-13269952D01*
X18328810Y-13250905D01*
X18328810Y-13231857D01*
X18338333Y-13212809D01*
X18357381Y-13203286D01*
X18405000Y-13203286D01*
X18424048Y-13193762D01*
X18490714Y-13146143D02*
X18566905Y-13146143D01*
X18519286Y-13079476D02*
X18519286Y-13250905D01*
X18528810Y-13269952D01*
X18547857Y-13279476D01*
X18566905Y-13279476D01*
X18709762Y-13269952D02*
X18690714Y-13279476D01*
X18652619Y-13279476D01*
X18633571Y-13269952D01*
X18624048Y-13250905D01*
X18624048Y-13174714D01*
X18633571Y-13155667D01*
X18652619Y-13146143D01*
X18690714Y-13146143D01*
X18709762Y-13155667D01*
X18719286Y-13174714D01*
X18719286Y-13193762D01*
X18624048Y-13212809D01*
X18890714Y-13279476D02*
X18890714Y-13079476D01*
X18890714Y-13269952D02*
X18871667Y-13279476D01*
X18833571Y-13279476D01*
X18814524Y-13269952D01*
X18805000Y-13260428D01*
X18795476Y-13241381D01*
X18795476Y-13184238D01*
X18805000Y-13165190D01*
X18814524Y-13155667D01*
X18833571Y-13146143D01*
X18871667Y-13146143D01*
X18890714Y-13155667D01*
X18966905Y-13355667D02*
X18976429Y-13346143D01*
X18995476Y-13317571D01*
X19005000Y-13298524D01*
X19014524Y-13269952D01*
X19024048Y-13222333D01*
X19024048Y-13184238D01*
X19014524Y-13136619D01*
X19005000Y-13108048D01*
X18995476Y-13089000D01*
X18976429Y-13060428D01*
X18966905Y-13050905D01*
X10565711Y-13559711D02*
X10565711Y-13418289D01*
X10424289Y-13418289D01*
X10424289Y-13559711D01*
X10565711Y-13559711D01*
X10833571Y-13379476D02*
X10957381Y-13379476D01*
X10890714Y-13455667D01*
X10919286Y-13455667D01*
X10938333Y-13465190D01*
X10947857Y-13474714D01*
X10957381Y-13493762D01*
X10957381Y-13541381D01*
X10947857Y-13560428D01*
X10938333Y-13569952D01*
X10919286Y-13579476D01*
X10862143Y-13579476D01*
X10843095Y-13569952D01*
X10833571Y-13560428D01*
X11043095Y-13560428D02*
X11052619Y-13569952D01*
X11043095Y-13579476D01*
X11033571Y-13569952D01*
X11043095Y-13560428D01*
X11043095Y-13579476D01*
X11128810Y-13398524D02*
X11138333Y-13389000D01*
X11157381Y-13379476D01*
X11205000Y-13379476D01*
X11224048Y-13389000D01*
X11233571Y-13398524D01*
X11243095Y-13417571D01*
X11243095Y-13436619D01*
X11233571Y-13465190D01*
X11119286Y-13579476D01*
X11243095Y-13579476D01*
X11366905Y-13379476D02*
X11385952Y-13379476D01*
X11405000Y-13389000D01*
X11414524Y-13398524D01*
X11424048Y-13417571D01*
X11433571Y-13455667D01*
X11433571Y-13503286D01*
X11424048Y-13541381D01*
X11414524Y-13560428D01*
X11405000Y-13569952D01*
X11385952Y-13579476D01*
X11366905Y-13579476D01*
X11347857Y-13569952D01*
X11338333Y-13560428D01*
X11328809Y-13541381D01*
X11319286Y-13503286D01*
X11319286Y-13455667D01*
X11328809Y-13417571D01*
X11338333Y-13398524D01*
X11347857Y-13389000D01*
X11366905Y-13379476D01*
X11557381Y-13379476D02*
X11576428Y-13379476D01*
X11595476Y-13389000D01*
X11605000Y-13398524D01*
X11614524Y-13417571D01*
X11624048Y-13455667D01*
X11624048Y-13503286D01*
X11614524Y-13541381D01*
X11605000Y-13560428D01*
X11595476Y-13569952D01*
X11576428Y-13579476D01*
X11557381Y-13579476D01*
X11538333Y-13569952D01*
X11528809Y-13560428D01*
X11519286Y-13541381D01*
X11509762Y-13503286D01*
X11509762Y-13455667D01*
X11519286Y-13417571D01*
X11528809Y-13398524D01*
X11538333Y-13389000D01*
X11557381Y-13379476D01*
X11709762Y-13579476D02*
X11709762Y-13446143D01*
X11709762Y-13465190D02*
X11719286Y-13455667D01*
X11738333Y-13446143D01*
X11766905Y-13446143D01*
X11785952Y-13455667D01*
X11795476Y-13474714D01*
X11795476Y-13579476D01*
X11795476Y-13474714D02*
X11805000Y-13455667D01*
X11824048Y-13446143D01*
X11852619Y-13446143D01*
X11871667Y-13455667D01*
X11881190Y-13474714D01*
X11881190Y-13579476D01*
X11976428Y-13579476D02*
X11976428Y-13446143D01*
X11976428Y-13465190D02*
X11985952Y-13455667D01*
X12005000Y-13446143D01*
X12033571Y-13446143D01*
X12052619Y-13455667D01*
X12062143Y-13474714D01*
X12062143Y-13579476D01*
X12062143Y-13474714D02*
X12071667Y-13455667D01*
X12090714Y-13446143D01*
X12119286Y-13446143D01*
X12138333Y-13455667D01*
X12147857Y-13474714D01*
X12147857Y-13579476D01*
X12538333Y-13369952D02*
X12366905Y-13627095D01*
X12795476Y-13379476D02*
X12814524Y-13379476D01*
X12833571Y-13389000D01*
X12843095Y-13398524D01*
X12852619Y-13417571D01*
X12862143Y-13455667D01*
X12862143Y-13503286D01*
X12852619Y-13541381D01*
X12843095Y-13560428D01*
X12833571Y-13569952D01*
X12814524Y-13579476D01*
X12795476Y-13579476D01*
X12776428Y-13569952D01*
X12766905Y-13560428D01*
X12757381Y-13541381D01*
X12747857Y-13503286D01*
X12747857Y-13455667D01*
X12757381Y-13417571D01*
X12766905Y-13398524D01*
X12776428Y-13389000D01*
X12795476Y-13379476D01*
X12947857Y-13560428D02*
X12957381Y-13569952D01*
X12947857Y-13579476D01*
X12938333Y-13569952D01*
X12947857Y-13560428D01*
X12947857Y-13579476D01*
X13147857Y-13579476D02*
X13033571Y-13579476D01*
X13090714Y-13579476D02*
X13090714Y-13379476D01*
X13071667Y-13408048D01*
X13052619Y-13427095D01*
X13033571Y-13436619D01*
X13224048Y-13398524D02*
X13233571Y-13389000D01*
X13252619Y-13379476D01*
X13300238Y-13379476D01*
X13319286Y-13389000D01*
X13328809Y-13398524D01*
X13338333Y-13417571D01*
X13338333Y-13436619D01*
X13328809Y-13465190D01*
X13214524Y-13579476D01*
X13338333Y-13579476D01*
X13509762Y-13379476D02*
X13471667Y-13379476D01*
X13452619Y-13389000D01*
X13443095Y-13398524D01*
X13424048Y-13427095D01*
X13414524Y-13465190D01*
X13414524Y-13541381D01*
X13424048Y-13560428D01*
X13433571Y-13569952D01*
X13452619Y-13579476D01*
X13490714Y-13579476D01*
X13509762Y-13569952D01*
X13519286Y-13560428D01*
X13528809Y-13541381D01*
X13528809Y-13493762D01*
X13519286Y-13474714D01*
X13509762Y-13465190D01*
X13490714Y-13455667D01*
X13452619Y-13455667D01*
X13433571Y-13465190D01*
X13424048Y-13474714D01*
X13414524Y-13493762D01*
X13652619Y-13379476D02*
X13671667Y-13379476D01*
X13690714Y-13389000D01*
X13700238Y-13398524D01*
X13709762Y-13417571D01*
X13719286Y-13455667D01*
X13719286Y-13503286D01*
X13709762Y-13541381D01*
X13700238Y-13560428D01*
X13690714Y-13569952D01*
X13671667Y-13579476D01*
X13652619Y-13579476D01*
X13633571Y-13569952D01*
X13624048Y-13560428D01*
X13614524Y-13541381D01*
X13605000Y-13503286D01*
X13605000Y-13455667D01*
X13614524Y-13417571D01*
X13624048Y-13398524D01*
X13633571Y-13389000D01*
X13652619Y-13379476D01*
X13795476Y-13379476D02*
X13795476Y-13417571D01*
X13871667Y-13379476D02*
X13871667Y-13417571D01*
X14166905Y-13655667D02*
X14157381Y-13646143D01*
X14138333Y-13617571D01*
X14128809Y-13598524D01*
X14119286Y-13569952D01*
X14109762Y-13522333D01*
X14109762Y-13484238D01*
X14119286Y-13436619D01*
X14128809Y-13408048D01*
X14138333Y-13389000D01*
X14157381Y-13360428D01*
X14166905Y-13350905D01*
X14328809Y-13446143D02*
X14328809Y-13579476D01*
X14281190Y-13369952D02*
X14233571Y-13512809D01*
X14357381Y-13512809D01*
X14585952Y-13579476D02*
X14585952Y-13379476D01*
X14671667Y-13579476D02*
X14671667Y-13474714D01*
X14662143Y-13455667D01*
X14643095Y-13446143D01*
X14614524Y-13446143D01*
X14595476Y-13455667D01*
X14585952Y-13465190D01*
X14795476Y-13579476D02*
X14776428Y-13569952D01*
X14766905Y-13560428D01*
X14757381Y-13541381D01*
X14757381Y-13484238D01*
X14766905Y-13465190D01*
X14776428Y-13455667D01*
X14795476Y-13446143D01*
X14824048Y-13446143D01*
X14843095Y-13455667D01*
X14852619Y-13465190D01*
X14862143Y-13484238D01*
X14862143Y-13541381D01*
X14852619Y-13560428D01*
X14843095Y-13569952D01*
X14824048Y-13579476D01*
X14795476Y-13579476D01*
X14976428Y-13579476D02*
X14957381Y-13569952D01*
X14947857Y-13550905D01*
X14947857Y-13379476D01*
X15128809Y-13569952D02*
X15109762Y-13579476D01*
X15071667Y-13579476D01*
X15052619Y-13569952D01*
X15043095Y-13550905D01*
X15043095Y-13474714D01*
X15052619Y-13455667D01*
X15071667Y-13446143D01*
X15109762Y-13446143D01*
X15128809Y-13455667D01*
X15138333Y-13474714D01*
X15138333Y-13493762D01*
X15043095Y-13512809D01*
X15214524Y-13569952D02*
X15233571Y-13579476D01*
X15271667Y-13579476D01*
X15290714Y-13569952D01*
X15300238Y-13550905D01*
X15300238Y-13541381D01*
X15290714Y-13522333D01*
X15271667Y-13512809D01*
X15243095Y-13512809D01*
X15224048Y-13503286D01*
X15214524Y-13484238D01*
X15214524Y-13474714D01*
X15224048Y-13455667D01*
X15243095Y-13446143D01*
X15271667Y-13446143D01*
X15290714Y-13455667D01*
X15366905Y-13655667D02*
X15376428Y-13646143D01*
X15395476Y-13617571D01*
X15405000Y-13598524D01*
X15414524Y-13569952D01*
X15424048Y-13522333D01*
X15424048Y-13484238D01*
X15414524Y-13436619D01*
X15405000Y-13408048D01*
X15395476Y-13389000D01*
X15376428Y-13360428D01*
X15366905Y-13350905D01*
X15728809Y-13655667D02*
X15719286Y-13646143D01*
X15700238Y-13617571D01*
X15690714Y-13598524D01*
X15681190Y-13569952D01*
X15671667Y-13522333D01*
X15671667Y-13484238D01*
X15681190Y-13436619D01*
X15690714Y-13408048D01*
X15700238Y-13389000D01*
X15719286Y-13360428D01*
X15728809Y-13350905D01*
X15805000Y-13446143D02*
X15805000Y-13579476D01*
X15805000Y-13465190D02*
X15814524Y-13455667D01*
X15833571Y-13446143D01*
X15862143Y-13446143D01*
X15881190Y-13455667D01*
X15890714Y-13474714D01*
X15890714Y-13579476D01*
X16014524Y-13579476D02*
X15995476Y-13569952D01*
X15985952Y-13560428D01*
X15976428Y-13541381D01*
X15976428Y-13484238D01*
X15985952Y-13465190D01*
X15995476Y-13455667D01*
X16014524Y-13446143D01*
X16043095Y-13446143D01*
X16062143Y-13455667D01*
X16071667Y-13465190D01*
X16081190Y-13484238D01*
X16081190Y-13541381D01*
X16071667Y-13560428D01*
X16062143Y-13569952D01*
X16043095Y-13579476D01*
X16014524Y-13579476D01*
X16138333Y-13446143D02*
X16214524Y-13446143D01*
X16166905Y-13379476D02*
X16166905Y-13550905D01*
X16176428Y-13569952D01*
X16195476Y-13579476D01*
X16214524Y-13579476D01*
X16433571Y-13446143D02*
X16433571Y-13646143D01*
X16433571Y-13455667D02*
X16452619Y-13446143D01*
X16490714Y-13446143D01*
X16509762Y-13455667D01*
X16519286Y-13465190D01*
X16528809Y-13484238D01*
X16528809Y-13541381D01*
X16519286Y-13560428D01*
X16509762Y-13569952D01*
X16490714Y-13579476D01*
X16452619Y-13579476D01*
X16433571Y-13569952D01*
X16643095Y-13579476D02*
X16624048Y-13569952D01*
X16614524Y-13550905D01*
X16614524Y-13379476D01*
X16805000Y-13579476D02*
X16805000Y-13474714D01*
X16795476Y-13455667D01*
X16776428Y-13446143D01*
X16738333Y-13446143D01*
X16719286Y-13455667D01*
X16805000Y-13569952D02*
X16785952Y-13579476D01*
X16738333Y-13579476D01*
X16719286Y-13569952D01*
X16709762Y-13550905D01*
X16709762Y-13531857D01*
X16719286Y-13512809D01*
X16738333Y-13503286D01*
X16785952Y-13503286D01*
X16805000Y-13493762D01*
X16871667Y-13446143D02*
X16947857Y-13446143D01*
X16900238Y-13379476D02*
X16900238Y-13550905D01*
X16909762Y-13569952D01*
X16928810Y-13579476D01*
X16947857Y-13579476D01*
X17090714Y-13569952D02*
X17071667Y-13579476D01*
X17033571Y-13579476D01*
X17014524Y-13569952D01*
X17005000Y-13550905D01*
X17005000Y-13474714D01*
X17014524Y-13455667D01*
X17033571Y-13446143D01*
X17071667Y-13446143D01*
X17090714Y-13455667D01*
X17100238Y-13474714D01*
X17100238Y-13493762D01*
X17005000Y-13512809D01*
X17271667Y-13579476D02*
X17271667Y-13379476D01*
X17271667Y-13569952D02*
X17252619Y-13579476D01*
X17214524Y-13579476D01*
X17195476Y-13569952D01*
X17185952Y-13560428D01*
X17176429Y-13541381D01*
X17176429Y-13484238D01*
X17185952Y-13465190D01*
X17195476Y-13455667D01*
X17214524Y-13446143D01*
X17252619Y-13446143D01*
X17271667Y-13455667D01*
X17347857Y-13655667D02*
X17357381Y-13646143D01*
X17376429Y-13617571D01*
X17385952Y-13598524D01*
X17395476Y-13569952D01*
X17405000Y-13522333D01*
X17405000Y-13484238D01*
X17395476Y-13436619D01*
X17385952Y-13408048D01*
X17376429Y-13389000D01*
X17357381Y-13360428D01*
X17347857Y-13350905D01*
M02*
