%TF.GenerationSoftware,KiCad,Pcbnew,(6.0.7-1)-1*%
%TF.CreationDate,2022-08-15T15:41:10-06:00*%
%TF.ProjectId,bpf,6270662e-6b69-4636-9164-5f7063625858,1*%
%TF.SameCoordinates,Original*%
%TF.FileFunction,Legend,Top*%
%TF.FilePolarity,Positive*%
%FSLAX46Y46*%
G04 Gerber Fmt 4.6, Leading zero omitted, Abs format (unit mm)*
G04 Created by KiCad (PCBNEW (6.0.7-1)-1) date 2022-08-15 15:41:10*
%MOMM*%
%LPD*%
G01*
G04 APERTURE LIST*
%ADD10C,0.150000*%
%ADD11C,0.300000*%
%ADD12C,0.120000*%
%ADD13C,1.600000*%
%ADD14O,1.600000X1.600000*%
%ADD15R,2.600000X2.600000*%
%ADD16C,2.600000*%
%ADD17C,3.200000*%
%ADD18R,1.800000X1.800000*%
%ADD19C,1.800000*%
%ADD20R,1.600000X1.600000*%
%ADD21C,3.556000*%
%ADD22C,3.810000*%
%ADD23O,2.200000X1.200000*%
%ADD24O,1.200000X2.200000*%
G04 APERTURE END LIST*
D10*
X118352380Y-108319047D02*
X119066666Y-108319047D01*
X119209523Y-108366666D01*
X119304761Y-108461904D01*
X119352380Y-108604761D01*
X119352380Y-108700000D01*
X119352380Y-107366666D02*
X119352380Y-107842857D01*
X118352380Y-107842857D01*
X119257142Y-106461904D02*
X119304761Y-106509523D01*
X119352380Y-106652380D01*
X119352380Y-106747619D01*
X119304761Y-106890476D01*
X119209523Y-106985714D01*
X119114285Y-107033333D01*
X118923809Y-107080952D01*
X118780952Y-107080952D01*
X118590476Y-107033333D01*
X118495238Y-106985714D01*
X118400000Y-106890476D01*
X118352380Y-106747619D01*
X118352380Y-106652380D01*
X118400000Y-106509523D01*
X118447619Y-106461904D01*
X118352380Y-105747619D02*
X119066666Y-105747619D01*
X119209523Y-105795238D01*
X119304761Y-105890476D01*
X119352380Y-106033333D01*
X119352380Y-106128571D01*
X119352380Y-104795238D02*
X119352380Y-105271428D01*
X118352380Y-105271428D01*
X119257142Y-103890476D02*
X119304761Y-103938095D01*
X119352380Y-104080952D01*
X119352380Y-104176190D01*
X119304761Y-104319047D01*
X119209523Y-104414285D01*
X119114285Y-104461904D01*
X118923809Y-104509523D01*
X118780952Y-104509523D01*
X118590476Y-104461904D01*
X118495238Y-104414285D01*
X118400000Y-104319047D01*
X118352380Y-104176190D01*
X118352380Y-104080952D01*
X118400000Y-103938095D01*
X118447619Y-103890476D01*
X118352380Y-103176190D02*
X119066666Y-103176190D01*
X119209523Y-103223809D01*
X119304761Y-103319047D01*
X119352380Y-103461904D01*
X119352380Y-103557142D01*
X119352380Y-102223809D02*
X119352380Y-102700000D01*
X118352380Y-102700000D01*
X119257142Y-101319047D02*
X119304761Y-101366666D01*
X119352380Y-101509523D01*
X119352380Y-101604761D01*
X119304761Y-101747619D01*
X119209523Y-101842857D01*
X119114285Y-101890476D01*
X118923809Y-101938095D01*
X118780952Y-101938095D01*
X118590476Y-101890476D01*
X118495238Y-101842857D01*
X118400000Y-101747619D01*
X118352380Y-101604761D01*
X118352380Y-101509523D01*
X118400000Y-101366666D01*
X118447619Y-101319047D01*
X118352380Y-100604761D02*
X119066666Y-100604761D01*
X119209523Y-100652380D01*
X119304761Y-100747619D01*
X119352380Y-100890476D01*
X119352380Y-100985714D01*
X119352380Y-99652380D02*
X119352380Y-100128571D01*
X118352380Y-100128571D01*
X119257142Y-98747619D02*
X119304761Y-98795238D01*
X119352380Y-98938095D01*
X119352380Y-99033333D01*
X119304761Y-99176190D01*
X119209523Y-99271428D01*
X119114285Y-99319047D01*
X118923809Y-99366666D01*
X118780952Y-99366666D01*
X118590476Y-99319047D01*
X118495238Y-99271428D01*
X118400000Y-99176190D01*
X118352380Y-99033333D01*
X118352380Y-98938095D01*
X118400000Y-98795238D01*
X118447619Y-98747619D01*
D11*
X79839645Y-119749979D02*
G75*
G03*
X81287670Y-120763950I1636755J796479D01*
G01*
X78839601Y-117250000D02*
G75*
G03*
X77839601Y-117250000I-500000J-237417D01*
G01*
X75391537Y-120763999D02*
G75*
G03*
X76839601Y-119750000I-188737J1810499D01*
G01*
X76839593Y-119749996D02*
G75*
G03*
X77839601Y-117250000I-9754393J5351796D01*
G01*
X78839591Y-117250002D02*
G75*
G03*
X79839601Y-119750000I9174409J2219802D01*
G01*
D10*
X116452380Y-122589285D02*
X117404761Y-122589285D01*
X116928571Y-123065476D02*
X116928571Y-122113095D01*
X118595238Y-121815476D02*
X118000000Y-121815476D01*
X117940476Y-122410714D01*
X118000000Y-122351190D01*
X118119047Y-122291666D01*
X118416666Y-122291666D01*
X118535714Y-122351190D01*
X118595238Y-122410714D01*
X118654761Y-122529761D01*
X118654761Y-122827380D01*
X118595238Y-122946428D01*
X118535714Y-123005952D01*
X118416666Y-123065476D01*
X118119047Y-123065476D01*
X118000000Y-123005952D01*
X117940476Y-122946428D01*
X119011904Y-121815476D02*
X119428571Y-123065476D01*
X119845238Y-121815476D01*
X121214285Y-122946428D02*
X121273809Y-123005952D01*
X121214285Y-123065476D01*
X121154761Y-123005952D01*
X121214285Y-122946428D01*
X121214285Y-123065476D01*
X121214285Y-122291666D02*
X121273809Y-122351190D01*
X121214285Y-122410714D01*
X121154761Y-122351190D01*
X121214285Y-122291666D01*
X121214285Y-122410714D01*
X121690476Y-123541666D02*
X121750000Y-123482142D01*
X121869047Y-123303571D01*
X121928571Y-123184523D01*
X121988095Y-123005952D01*
X122047619Y-122708333D01*
X122047619Y-122470238D01*
X121988095Y-122172619D01*
X121928571Y-121994047D01*
X121869047Y-121875000D01*
X121750000Y-121696428D01*
X121690476Y-121636904D01*
X75880952Y-122196554D02*
X76059523Y-122256078D01*
X76119047Y-122315601D01*
X76178571Y-122434649D01*
X76178571Y-122613220D01*
X76119047Y-122732268D01*
X76059523Y-122791792D01*
X75940476Y-122851316D01*
X75464285Y-122851316D01*
X75464285Y-121601316D01*
X75880952Y-121601316D01*
X76000000Y-121660840D01*
X76059523Y-121720363D01*
X76119047Y-121839411D01*
X76119047Y-121958459D01*
X76059523Y-122077506D01*
X76000000Y-122137030D01*
X75880952Y-122196554D01*
X75464285Y-122196554D01*
X76714285Y-122851316D02*
X76714285Y-121601316D01*
X77190476Y-121601316D01*
X77309523Y-121660840D01*
X77369047Y-121720363D01*
X77428571Y-121839411D01*
X77428571Y-122017982D01*
X77369047Y-122137030D01*
X77309523Y-122196554D01*
X77190476Y-122256078D01*
X76714285Y-122256078D01*
X78380952Y-122196554D02*
X77964285Y-122196554D01*
X77964285Y-122851316D02*
X77964285Y-121601316D01*
X78559523Y-121601316D01*
X79869047Y-122017982D02*
X80166666Y-122851316D01*
X80464285Y-122017982D01*
X81595238Y-122851316D02*
X80880952Y-122851316D01*
X81238095Y-122851316D02*
X81238095Y-121601316D01*
X81119047Y-121779887D01*
X81000000Y-121898935D01*
X80880952Y-121958459D01*
X101797619Y-117375000D02*
X101678571Y-117315476D01*
X101500000Y-117315476D01*
X101321428Y-117375000D01*
X101202380Y-117494047D01*
X101142857Y-117613095D01*
X101083333Y-117851190D01*
X101083333Y-118029761D01*
X101142857Y-118267857D01*
X101202380Y-118386904D01*
X101321428Y-118505952D01*
X101500000Y-118565476D01*
X101619047Y-118565476D01*
X101797619Y-118505952D01*
X101857142Y-118446428D01*
X101857142Y-118029761D01*
X101619047Y-118029761D01*
X102392857Y-118565476D02*
X102392857Y-117315476D01*
X103107142Y-118565476D01*
X103107142Y-117315476D01*
X103702380Y-118565476D02*
X103702380Y-117315476D01*
X104000000Y-117315476D01*
X104178571Y-117375000D01*
X104297619Y-117494047D01*
X104357142Y-117613095D01*
X104416666Y-117851190D01*
X104416666Y-118029761D01*
X104357142Y-118267857D01*
X104297619Y-118386904D01*
X104178571Y-118505952D01*
X104000000Y-118565476D01*
X103702380Y-118565476D01*
X95142857Y-118089285D02*
X96095238Y-118089285D01*
X97285714Y-117315476D02*
X96690476Y-117315476D01*
X96630952Y-117910714D01*
X96690476Y-117851190D01*
X96809523Y-117791666D01*
X97107142Y-117791666D01*
X97226190Y-117851190D01*
X97285714Y-117910714D01*
X97345238Y-118029761D01*
X97345238Y-118327380D01*
X97285714Y-118446428D01*
X97226190Y-118505952D01*
X97107142Y-118565476D01*
X96809523Y-118565476D01*
X96690476Y-118505952D01*
X96630952Y-118446428D01*
X97702380Y-117315476D02*
X98119047Y-118565476D01*
X98535714Y-117315476D01*
X83452380Y-122589285D02*
X84404761Y-122589285D01*
X85595238Y-121815476D02*
X85000000Y-121815476D01*
X84940476Y-122410714D01*
X85000000Y-122351190D01*
X85119047Y-122291666D01*
X85416666Y-122291666D01*
X85535714Y-122351190D01*
X85595238Y-122410714D01*
X85654761Y-122529761D01*
X85654761Y-122827380D01*
X85595238Y-122946428D01*
X85535714Y-123005952D01*
X85416666Y-123065476D01*
X85119047Y-123065476D01*
X85000000Y-123005952D01*
X84940476Y-122946428D01*
X86011904Y-121815476D02*
X86428571Y-123065476D01*
X86845238Y-121815476D01*
X88214285Y-122946428D02*
X88273809Y-123005952D01*
X88214285Y-123065476D01*
X88154761Y-123005952D01*
X88214285Y-122946428D01*
X88214285Y-123065476D01*
X88214285Y-122291666D02*
X88273809Y-122351190D01*
X88214285Y-122410714D01*
X88154761Y-122351190D01*
X88214285Y-122291666D01*
X88214285Y-122410714D01*
X88690476Y-123541666D02*
X88750000Y-123482142D01*
X88869047Y-123303571D01*
X88928571Y-123184523D01*
X88988095Y-123005952D01*
X89047619Y-122708333D01*
X89047619Y-122470238D01*
X88988095Y-122172619D01*
X88928571Y-121994047D01*
X88869047Y-121875000D01*
X88750000Y-121696428D01*
X88690476Y-121636904D01*
X106642857Y-118089285D02*
X107595238Y-118089285D01*
X107119047Y-118565476D02*
X107119047Y-117613095D01*
X108785714Y-117315476D02*
X108190476Y-117315476D01*
X108130952Y-117910714D01*
X108190476Y-117851190D01*
X108309523Y-117791666D01*
X108607142Y-117791666D01*
X108726190Y-117851190D01*
X108785714Y-117910714D01*
X108845238Y-118029761D01*
X108845238Y-118327380D01*
X108785714Y-118446428D01*
X108726190Y-118505952D01*
X108607142Y-118565476D01*
X108309523Y-118565476D01*
X108190476Y-118505952D01*
X108130952Y-118446428D01*
X109202380Y-117315476D02*
X109619047Y-118565476D01*
X110035714Y-117315476D01*
X115982142Y-110809226D02*
X116220238Y-110809226D01*
X116339285Y-110868750D01*
X116458333Y-110987797D01*
X116517857Y-111225892D01*
X116517857Y-111642559D01*
X116458333Y-111880654D01*
X116339285Y-111999702D01*
X116220238Y-112059226D01*
X115982142Y-112059226D01*
X115863095Y-111999702D01*
X115744047Y-111880654D01*
X115684523Y-111642559D01*
X115684523Y-111225892D01*
X115744047Y-110987797D01*
X115863095Y-110868750D01*
X115982142Y-110809226D01*
X117053571Y-111225892D02*
X117053571Y-112475892D01*
X117053571Y-111285416D02*
X117172619Y-111225892D01*
X117410714Y-111225892D01*
X117529761Y-111285416D01*
X117589285Y-111344940D01*
X117648809Y-111463988D01*
X117648809Y-111821130D01*
X117589285Y-111940178D01*
X117529761Y-111999702D01*
X117410714Y-112059226D01*
X117172619Y-112059226D01*
X117053571Y-111999702D01*
X118005952Y-111225892D02*
X118482142Y-111225892D01*
X118184523Y-110809226D02*
X118184523Y-111880654D01*
X118244047Y-111999702D01*
X118363095Y-112059226D01*
X118482142Y-112059226D01*
X118898809Y-112059226D02*
X118898809Y-111225892D01*
X118898809Y-110809226D02*
X118839285Y-110868750D01*
X118898809Y-110928273D01*
X118958333Y-110868750D01*
X118898809Y-110809226D01*
X118898809Y-110928273D01*
X120029761Y-111999702D02*
X119910714Y-112059226D01*
X119672619Y-112059226D01*
X119553571Y-111999702D01*
X119494047Y-111940178D01*
X119434523Y-111821130D01*
X119434523Y-111463988D01*
X119494047Y-111344940D01*
X119553571Y-111285416D01*
X119672619Y-111225892D01*
X119910714Y-111225892D01*
X120029761Y-111285416D01*
X121101190Y-112059226D02*
X121101190Y-111404464D01*
X121041666Y-111285416D01*
X120922619Y-111225892D01*
X120684523Y-111225892D01*
X120565476Y-111285416D01*
X121101190Y-111999702D02*
X120982142Y-112059226D01*
X120684523Y-112059226D01*
X120565476Y-111999702D01*
X120505952Y-111880654D01*
X120505952Y-111761607D01*
X120565476Y-111642559D01*
X120684523Y-111583035D01*
X120982142Y-111583035D01*
X121101190Y-111523511D01*
X121875000Y-112059226D02*
X121755952Y-111999702D01*
X121696428Y-111880654D01*
X121696428Y-110809226D01*
X112589285Y-113952678D02*
X112529761Y-114012202D01*
X112351190Y-114071726D01*
X112232142Y-114071726D01*
X112053571Y-114012202D01*
X111934523Y-113893154D01*
X111875000Y-113774107D01*
X111815476Y-113536011D01*
X111815476Y-113357440D01*
X111875000Y-113119345D01*
X111934523Y-113000297D01*
X112053571Y-112881250D01*
X112232142Y-112821726D01*
X112351190Y-112821726D01*
X112529761Y-112881250D01*
X112589285Y-112940773D01*
X113303571Y-114071726D02*
X113184523Y-114012202D01*
X113125000Y-113952678D01*
X113065476Y-113833630D01*
X113065476Y-113476488D01*
X113125000Y-113357440D01*
X113184523Y-113297916D01*
X113303571Y-113238392D01*
X113482142Y-113238392D01*
X113601190Y-113297916D01*
X113660714Y-113357440D01*
X113720238Y-113476488D01*
X113720238Y-113833630D01*
X113660714Y-113952678D01*
X113601190Y-114012202D01*
X113482142Y-114071726D01*
X113303571Y-114071726D01*
X114255952Y-114071726D02*
X114255952Y-113238392D01*
X114255952Y-113357440D02*
X114315476Y-113297916D01*
X114434523Y-113238392D01*
X114613095Y-113238392D01*
X114732142Y-113297916D01*
X114791666Y-113416964D01*
X114791666Y-114071726D01*
X114791666Y-113416964D02*
X114851190Y-113297916D01*
X114970238Y-113238392D01*
X115148809Y-113238392D01*
X115267857Y-113297916D01*
X115327380Y-113416964D01*
X115327380Y-114071726D01*
X115922619Y-114071726D02*
X115922619Y-113238392D01*
X115922619Y-113357440D02*
X115982142Y-113297916D01*
X116101190Y-113238392D01*
X116279761Y-113238392D01*
X116398809Y-113297916D01*
X116458333Y-113416964D01*
X116458333Y-114071726D01*
X116458333Y-113416964D02*
X116517857Y-113297916D01*
X116636904Y-113238392D01*
X116815476Y-113238392D01*
X116934523Y-113297916D01*
X116994047Y-113416964D01*
X116994047Y-114071726D01*
X118125000Y-113238392D02*
X118125000Y-114071726D01*
X117589285Y-113238392D02*
X117589285Y-113893154D01*
X117648809Y-114012202D01*
X117767857Y-114071726D01*
X117946428Y-114071726D01*
X118065476Y-114012202D01*
X118125000Y-113952678D01*
X118720238Y-113238392D02*
X118720238Y-114071726D01*
X118720238Y-113357440D02*
X118779761Y-113297916D01*
X118898809Y-113238392D01*
X119077380Y-113238392D01*
X119196428Y-113297916D01*
X119255952Y-113416964D01*
X119255952Y-114071726D01*
X119851190Y-114071726D02*
X119851190Y-113238392D01*
X119851190Y-112821726D02*
X119791666Y-112881250D01*
X119851190Y-112940773D01*
X119910714Y-112881250D01*
X119851190Y-112821726D01*
X119851190Y-112940773D01*
X120982142Y-114012202D02*
X120863095Y-114071726D01*
X120625000Y-114071726D01*
X120505952Y-114012202D01*
X120446428Y-113952678D01*
X120386904Y-113833630D01*
X120386904Y-113476488D01*
X120446428Y-113357440D01*
X120505952Y-113297916D01*
X120625000Y-113238392D01*
X120863095Y-113238392D01*
X120982142Y-113297916D01*
X122053571Y-114071726D02*
X122053571Y-113416964D01*
X121994047Y-113297916D01*
X121875000Y-113238392D01*
X121636904Y-113238392D01*
X121517857Y-113297916D01*
X122053571Y-114012202D02*
X121934523Y-114071726D01*
X121636904Y-114071726D01*
X121517857Y-114012202D01*
X121458333Y-113893154D01*
X121458333Y-113774107D01*
X121517857Y-113655059D01*
X121636904Y-113595535D01*
X121934523Y-113595535D01*
X122053571Y-113536011D01*
X122470238Y-113238392D02*
X122946428Y-113238392D01*
X122648809Y-112821726D02*
X122648809Y-113893154D01*
X122708333Y-114012202D01*
X122827380Y-114071726D01*
X122946428Y-114071726D01*
X123363095Y-114071726D02*
X123363095Y-113238392D01*
X123363095Y-112821726D02*
X123303571Y-112881250D01*
X123363095Y-112940773D01*
X123422619Y-112881250D01*
X123363095Y-112821726D01*
X123363095Y-112940773D01*
X124136904Y-114071726D02*
X124017857Y-114012202D01*
X123958333Y-113952678D01*
X123898809Y-113833630D01*
X123898809Y-113476488D01*
X123958333Y-113357440D01*
X124017857Y-113297916D01*
X124136904Y-113238392D01*
X124315476Y-113238392D01*
X124434523Y-113297916D01*
X124494047Y-113357440D01*
X124553571Y-113476488D01*
X124553571Y-113833630D01*
X124494047Y-113952678D01*
X124434523Y-114012202D01*
X124315476Y-114071726D01*
X124136904Y-114071726D01*
X125089285Y-113238392D02*
X125089285Y-114071726D01*
X125089285Y-113357440D02*
X125148809Y-113297916D01*
X125267857Y-113238392D01*
X125446428Y-113238392D01*
X125565476Y-113297916D01*
X125625000Y-113416964D01*
X125625000Y-114071726D01*
X92083333Y-106202380D02*
X91750000Y-105726190D01*
X91511904Y-106202380D02*
X91511904Y-105202380D01*
X91892857Y-105202380D01*
X91988095Y-105250000D01*
X92035714Y-105297619D01*
X92083333Y-105392857D01*
X92083333Y-105535714D01*
X92035714Y-105630952D01*
X91988095Y-105678571D01*
X91892857Y-105726190D01*
X91511904Y-105726190D01*
X92464285Y-105297619D02*
X92511904Y-105250000D01*
X92607142Y-105202380D01*
X92845238Y-105202380D01*
X92940476Y-105250000D01*
X92988095Y-105297619D01*
X93035714Y-105392857D01*
X93035714Y-105488095D01*
X92988095Y-105630952D01*
X92416666Y-106202380D01*
X93035714Y-106202380D01*
X102411666Y-120452380D02*
X102411666Y-121166666D01*
X102364047Y-121309523D01*
X102268809Y-121404761D01*
X102125952Y-121452380D01*
X102030714Y-121452380D01*
X102840238Y-120547619D02*
X102887857Y-120500000D01*
X102983095Y-120452380D01*
X103221190Y-120452380D01*
X103316428Y-120500000D01*
X103364047Y-120547619D01*
X103411666Y-120642857D01*
X103411666Y-120738095D01*
X103364047Y-120880952D01*
X102792619Y-121452380D01*
X103411666Y-121452380D01*
X92333333Y-115452380D02*
X92000000Y-114976190D01*
X91761904Y-115452380D02*
X91761904Y-114452380D01*
X92142857Y-114452380D01*
X92238095Y-114500000D01*
X92285714Y-114547619D01*
X92333333Y-114642857D01*
X92333333Y-114785714D01*
X92285714Y-114880952D01*
X92238095Y-114928571D01*
X92142857Y-114976190D01*
X91761904Y-114976190D01*
X93285714Y-115452380D02*
X92714285Y-115452380D01*
X93000000Y-115452380D02*
X93000000Y-114452380D01*
X92904761Y-114595238D01*
X92809523Y-114690476D01*
X92714285Y-114738095D01*
X111511904Y-119202380D02*
X111511904Y-118202380D01*
X111750000Y-118202380D01*
X111892857Y-118250000D01*
X111988095Y-118345238D01*
X112035714Y-118440476D01*
X112083333Y-118630952D01*
X112083333Y-118773809D01*
X112035714Y-118964285D01*
X111988095Y-119059523D01*
X111892857Y-119154761D01*
X111750000Y-119202380D01*
X111511904Y-119202380D01*
X113035714Y-119202380D02*
X112464285Y-119202380D01*
X112750000Y-119202380D02*
X112750000Y-118202380D01*
X112654761Y-118345238D01*
X112559523Y-118440476D01*
X112464285Y-118488095D01*
X93583333Y-110607142D02*
X93535714Y-110654761D01*
X93392857Y-110702380D01*
X93297619Y-110702380D01*
X93154761Y-110654761D01*
X93059523Y-110559523D01*
X93011904Y-110464285D01*
X92964285Y-110273809D01*
X92964285Y-110130952D01*
X93011904Y-109940476D01*
X93059523Y-109845238D01*
X93154761Y-109750000D01*
X93297619Y-109702380D01*
X93392857Y-109702380D01*
X93535714Y-109750000D01*
X93583333Y-109797619D01*
X94440476Y-110035714D02*
X94440476Y-110702380D01*
X94202380Y-109654761D02*
X93964285Y-110369047D01*
X94583333Y-110369047D01*
X88357142Y-127121778D02*
X88404761Y-127169397D01*
X88452380Y-127312254D01*
X88452380Y-127407492D01*
X88404761Y-127550350D01*
X88309523Y-127645588D01*
X88214285Y-127693207D01*
X88023809Y-127740826D01*
X87880952Y-127740826D01*
X87690476Y-127693207D01*
X87595238Y-127645588D01*
X87500000Y-127550350D01*
X87452380Y-127407492D01*
X87452380Y-127312254D01*
X87500000Y-127169397D01*
X87547619Y-127121778D01*
X88452380Y-126169397D02*
X88452380Y-126740826D01*
X88452380Y-126455112D02*
X87452380Y-126455112D01*
X87595238Y-126550350D01*
X87690476Y-126645588D01*
X87738095Y-126740826D01*
X107988095Y-115202380D02*
X107988095Y-116011904D01*
X108035714Y-116107142D01*
X108083333Y-116154761D01*
X108178571Y-116202380D01*
X108369047Y-116202380D01*
X108464285Y-116154761D01*
X108511904Y-116107142D01*
X108559523Y-116011904D01*
X108559523Y-115202380D01*
X109559523Y-116202380D02*
X108988095Y-116202380D01*
X109273809Y-116202380D02*
X109273809Y-115202380D01*
X109178571Y-115345238D01*
X109083333Y-115440476D01*
X108988095Y-115488095D01*
X110333333Y-95357142D02*
X110285714Y-95404761D01*
X110142857Y-95452380D01*
X110047619Y-95452380D01*
X109904761Y-95404761D01*
X109809523Y-95309523D01*
X109761904Y-95214285D01*
X109714285Y-95023809D01*
X109714285Y-94880952D01*
X109761904Y-94690476D01*
X109809523Y-94595238D01*
X109904761Y-94500000D01*
X110047619Y-94452380D01*
X110142857Y-94452380D01*
X110285714Y-94500000D01*
X110333333Y-94547619D01*
X111190476Y-94452380D02*
X111000000Y-94452380D01*
X110904761Y-94500000D01*
X110857142Y-94547619D01*
X110761904Y-94690476D01*
X110714285Y-94880952D01*
X110714285Y-95261904D01*
X110761904Y-95357142D01*
X110809523Y-95404761D01*
X110904761Y-95452380D01*
X111095238Y-95452380D01*
X111190476Y-95404761D01*
X111238095Y-95357142D01*
X111285714Y-95261904D01*
X111285714Y-95023809D01*
X111238095Y-94928571D01*
X111190476Y-94880952D01*
X111095238Y-94833333D01*
X110904761Y-94833333D01*
X110809523Y-94880952D01*
X110761904Y-94928571D01*
X110714285Y-95023809D01*
X118583333Y-120452380D02*
X118250000Y-119976190D01*
X118011904Y-120452380D02*
X118011904Y-119452380D01*
X118392857Y-119452380D01*
X118488095Y-119500000D01*
X118535714Y-119547619D01*
X118583333Y-119642857D01*
X118583333Y-119785714D01*
X118535714Y-119880952D01*
X118488095Y-119928571D01*
X118392857Y-119976190D01*
X118011904Y-119976190D01*
X118916666Y-119452380D02*
X119535714Y-119452380D01*
X119202380Y-119833333D01*
X119345238Y-119833333D01*
X119440476Y-119880952D01*
X119488095Y-119928571D01*
X119535714Y-120023809D01*
X119535714Y-120261904D01*
X119488095Y-120357142D01*
X119440476Y-120404761D01*
X119345238Y-120452380D01*
X119059523Y-120452380D01*
X118964285Y-120404761D01*
X118916666Y-120357142D01*
X108702380Y-105166666D02*
X108226190Y-105500000D01*
X108702380Y-105738095D02*
X107702380Y-105738095D01*
X107702380Y-105357142D01*
X107750000Y-105261904D01*
X107797619Y-105214285D01*
X107892857Y-105166666D01*
X108035714Y-105166666D01*
X108130952Y-105214285D01*
X108178571Y-105261904D01*
X108226190Y-105357142D01*
X108226190Y-105738095D01*
X107702380Y-104309523D02*
X107702380Y-104500000D01*
X107750000Y-104595238D01*
X107797619Y-104642857D01*
X107940476Y-104738095D01*
X108130952Y-104785714D01*
X108511904Y-104785714D01*
X108607142Y-104738095D01*
X108654761Y-104690476D01*
X108702380Y-104595238D01*
X108702380Y-104404761D01*
X108654761Y-104309523D01*
X108607142Y-104261904D01*
X108511904Y-104214285D01*
X108273809Y-104214285D01*
X108178571Y-104261904D01*
X108130952Y-104309523D01*
X108083333Y-104404761D01*
X108083333Y-104595238D01*
X108130952Y-104690476D01*
X108178571Y-104738095D01*
X108273809Y-104785714D01*
X110333333Y-115012380D02*
X110000000Y-114536190D01*
X109761904Y-115012380D02*
X109761904Y-114012380D01*
X110142857Y-114012380D01*
X110238095Y-114060000D01*
X110285714Y-114107619D01*
X110333333Y-114202857D01*
X110333333Y-114345714D01*
X110285714Y-114440952D01*
X110238095Y-114488571D01*
X110142857Y-114536190D01*
X109761904Y-114536190D01*
X111238095Y-114012380D02*
X110761904Y-114012380D01*
X110714285Y-114488571D01*
X110761904Y-114440952D01*
X110857142Y-114393333D01*
X111095238Y-114393333D01*
X111190476Y-114440952D01*
X111238095Y-114488571D01*
X111285714Y-114583809D01*
X111285714Y-114821904D01*
X111238095Y-114917142D01*
X111190476Y-114964761D01*
X111095238Y-115012380D01*
X110857142Y-115012380D01*
X110761904Y-114964761D01*
X110714285Y-114917142D01*
X117607142Y-127166666D02*
X117654761Y-127214285D01*
X117702380Y-127357142D01*
X117702380Y-127452380D01*
X117654761Y-127595238D01*
X117559523Y-127690476D01*
X117464285Y-127738095D01*
X117273809Y-127785714D01*
X117130952Y-127785714D01*
X116940476Y-127738095D01*
X116845238Y-127690476D01*
X116750000Y-127595238D01*
X116702380Y-127452380D01*
X116702380Y-127357142D01*
X116750000Y-127214285D01*
X116797619Y-127166666D01*
X116797619Y-126785714D02*
X116750000Y-126738095D01*
X116702380Y-126642857D01*
X116702380Y-126404761D01*
X116750000Y-126309523D01*
X116797619Y-126261904D01*
X116892857Y-126214285D01*
X116988095Y-126214285D01*
X117130952Y-126261904D01*
X117702380Y-126833333D01*
X117702380Y-126214285D01*
X92511904Y-119202380D02*
X92511904Y-118202380D01*
X92750000Y-118202380D01*
X92892857Y-118250000D01*
X92988095Y-118345238D01*
X93035714Y-118440476D01*
X93083333Y-118630952D01*
X93083333Y-118773809D01*
X93035714Y-118964285D01*
X92988095Y-119059523D01*
X92892857Y-119154761D01*
X92750000Y-119202380D01*
X92511904Y-119202380D01*
X93464285Y-118297619D02*
X93511904Y-118250000D01*
X93607142Y-118202380D01*
X93845238Y-118202380D01*
X93940476Y-118250000D01*
X93988095Y-118297619D01*
X94035714Y-118392857D01*
X94035714Y-118488095D01*
X93988095Y-118630952D01*
X93416666Y-119202380D01*
X94035714Y-119202380D01*
X75666666Y-109452380D02*
X75666666Y-110166666D01*
X75619047Y-110309523D01*
X75523809Y-110404761D01*
X75380952Y-110452380D01*
X75285714Y-110452380D01*
X76666666Y-110452380D02*
X76095238Y-110452380D01*
X76380952Y-110452380D02*
X76380952Y-109452380D01*
X76285714Y-109595238D01*
X76190476Y-109690476D01*
X76095238Y-109738095D01*
X93583333Y-100107142D02*
X93535714Y-100154761D01*
X93392857Y-100202380D01*
X93297619Y-100202380D01*
X93154761Y-100154761D01*
X93059523Y-100059523D01*
X93011904Y-99964285D01*
X92964285Y-99773809D01*
X92964285Y-99630952D01*
X93011904Y-99440476D01*
X93059523Y-99345238D01*
X93154761Y-99250000D01*
X93297619Y-99202380D01*
X93392857Y-99202380D01*
X93535714Y-99250000D01*
X93583333Y-99297619D01*
X94488095Y-99202380D02*
X94011904Y-99202380D01*
X93964285Y-99678571D01*
X94011904Y-99630952D01*
X94107142Y-99583333D01*
X94345238Y-99583333D01*
X94440476Y-99630952D01*
X94488095Y-99678571D01*
X94535714Y-99773809D01*
X94535714Y-100011904D01*
X94488095Y-100107142D01*
X94440476Y-100154761D01*
X94345238Y-100202380D01*
X94107142Y-100202380D01*
X94011904Y-100154761D01*
X93964285Y-100107142D01*
X117416666Y-94952380D02*
X117416666Y-95666666D01*
X117369047Y-95809523D01*
X117273809Y-95904761D01*
X117130952Y-95952380D01*
X117035714Y-95952380D01*
X117797619Y-94952380D02*
X118416666Y-94952380D01*
X118083333Y-95333333D01*
X118226190Y-95333333D01*
X118321428Y-95380952D01*
X118369047Y-95428571D01*
X118416666Y-95523809D01*
X118416666Y-95761904D01*
X118369047Y-95857142D01*
X118321428Y-95904761D01*
X118226190Y-95952380D01*
X117940476Y-95952380D01*
X117845238Y-95904761D01*
X117797619Y-95857142D01*
X86583333Y-120452380D02*
X86250000Y-119976190D01*
X86011904Y-120452380D02*
X86011904Y-119452380D01*
X86392857Y-119452380D01*
X86488095Y-119500000D01*
X86535714Y-119547619D01*
X86583333Y-119642857D01*
X86583333Y-119785714D01*
X86535714Y-119880952D01*
X86488095Y-119928571D01*
X86392857Y-119976190D01*
X86011904Y-119976190D01*
X87440476Y-119785714D02*
X87440476Y-120452380D01*
X87202380Y-119404761D02*
X86964285Y-120119047D01*
X87583333Y-120119047D01*
X83083333Y-115357142D02*
X83035714Y-115404761D01*
X82892857Y-115452380D01*
X82797619Y-115452380D01*
X82654761Y-115404761D01*
X82559523Y-115309523D01*
X82511904Y-115214285D01*
X82464285Y-115023809D01*
X82464285Y-114880952D01*
X82511904Y-114690476D01*
X82559523Y-114595238D01*
X82654761Y-114500000D01*
X82797619Y-114452380D01*
X82892857Y-114452380D01*
X83035714Y-114500000D01*
X83083333Y-114547619D01*
X83416666Y-114452380D02*
X84035714Y-114452380D01*
X83702380Y-114833333D01*
X83845238Y-114833333D01*
X83940476Y-114880952D01*
X83988095Y-114928571D01*
X84035714Y-115023809D01*
X84035714Y-115261904D01*
X83988095Y-115357142D01*
X83940476Y-115404761D01*
X83845238Y-115452380D01*
X83559523Y-115452380D01*
X83464285Y-115404761D01*
X83416666Y-115357142D01*
X107988095Y-90702380D02*
X107988095Y-91511904D01*
X108035714Y-91607142D01*
X108083333Y-91654761D01*
X108178571Y-91702380D01*
X108369047Y-91702380D01*
X108464285Y-91654761D01*
X108511904Y-91607142D01*
X108559523Y-91511904D01*
X108559523Y-90702380D01*
X108988095Y-90797619D02*
X109035714Y-90750000D01*
X109130952Y-90702380D01*
X109369047Y-90702380D01*
X109464285Y-90750000D01*
X109511904Y-90797619D01*
X109559523Y-90892857D01*
X109559523Y-90988095D01*
X109511904Y-91130952D01*
X108940476Y-91702380D01*
X109559523Y-91702380D01*
D12*
X89170000Y-102130000D02*
X89170000Y-102460000D01*
X95710000Y-102130000D02*
X89170000Y-102130000D01*
X89170000Y-104870000D02*
X89170000Y-104540000D01*
X95710000Y-102460000D02*
X95710000Y-102130000D01*
X95710000Y-104870000D02*
X89170000Y-104870000D01*
X95710000Y-104540000D02*
X95710000Y-104870000D01*
X104020000Y-123736000D02*
X103973000Y-123782000D01*
X110425000Y-119544000D02*
X110425000Y-129465000D01*
X95065000Y-119544000D02*
X95065000Y-129465000D01*
X101711000Y-126044000D02*
X101676000Y-126079000D01*
X106598000Y-125828000D02*
X106551000Y-125874000D01*
X95065000Y-128905000D02*
X110425000Y-128905000D01*
X94825000Y-128965000D02*
X94825000Y-129705000D01*
X101518000Y-125828000D02*
X101471000Y-125874000D01*
X94825000Y-129705000D02*
X95325000Y-129705000D01*
X103815000Y-123530000D02*
X103780000Y-123566000D01*
X95065000Y-127405000D02*
X110425000Y-127405000D01*
X95065000Y-122504000D02*
X110425000Y-122504000D01*
X109100000Y-123736000D02*
X109053000Y-123782000D01*
X108895000Y-123530000D02*
X108860000Y-123566000D01*
X106791000Y-126044000D02*
X106756000Y-126079000D01*
X95065000Y-119544000D02*
X110425000Y-119544000D01*
X95065000Y-129465000D02*
X110425000Y-129465000D01*
X96981000Y-126340000D02*
G75*
G03*
X97693805Y-126485253I683999J1535001D01*
G01*
X96130000Y-124121000D02*
G75*
G03*
X96129573Y-125488042I1534993J-684001D01*
G01*
X97665000Y-126485000D02*
G75*
G03*
X98348318Y-126339756I0J1680000D01*
G01*
X99200001Y-125489000D02*
G75*
G03*
X99200427Y-124121958I-1535001J684000D01*
G01*
X98349000Y-123270000D02*
G75*
G03*
X96981958Y-123269573I-684001J-1534993D01*
G01*
X109505000Y-124805000D02*
G75*
G03*
X109505000Y-124805000I-1680000J0D01*
G01*
X104425000Y-124805000D02*
G75*
G03*
X104425000Y-124805000I-1680000J0D01*
G01*
X89170000Y-113540000D02*
X89170000Y-113870000D01*
X95710000Y-113870000D02*
X95710000Y-113540000D01*
X89170000Y-111130000D02*
X95710000Y-111130000D01*
X89170000Y-111460000D02*
X89170000Y-111130000D01*
X89170000Y-113870000D02*
X95710000Y-113870000D01*
X95710000Y-111130000D02*
X95710000Y-111460000D01*
X115255000Y-120625000D02*
X115255000Y-120469000D01*
X115255000Y-122941000D02*
X115255000Y-122785000D01*
X112653870Y-122784837D02*
G75*
G03*
X114735961Y-122785000I1041130J1079837D01*
G01*
X112022665Y-122783608D02*
G75*
G03*
X115255000Y-122940516I1672335J1078608D01*
G01*
X115255000Y-120469484D02*
G75*
G03*
X112022665Y-120626392I-1560000J-1235516D01*
G01*
X114735961Y-120625000D02*
G75*
G03*
X112653870Y-120625163I-1040961J-1080000D01*
G01*
X96370000Y-106630000D02*
X91130000Y-106630000D01*
X91130000Y-109370000D02*
X91130000Y-109055000D01*
X96370000Y-109370000D02*
X91130000Y-109370000D01*
X96370000Y-106945000D02*
X96370000Y-106630000D01*
X91130000Y-106945000D02*
X91130000Y-106630000D01*
X96370000Y-109370000D02*
X96370000Y-109055000D01*
X89174000Y-126795112D02*
X90710000Y-126795112D01*
X90572000Y-124634112D02*
X92928000Y-124634112D01*
X92790000Y-125594112D02*
X93950000Y-125594112D01*
X89295000Y-126154112D02*
X90710000Y-126154112D01*
X89214000Y-126475112D02*
X90710000Y-126475112D01*
X92790000Y-125154112D02*
X93614000Y-125154112D01*
X92790000Y-126475112D02*
X94286000Y-126475112D01*
X91232000Y-124394112D02*
X92268000Y-124394112D01*
X89222000Y-126435112D02*
X90710000Y-126435112D01*
X92790000Y-126915112D02*
X94330000Y-126915112D01*
X89550000Y-125594112D02*
X90710000Y-125594112D01*
X92790000Y-124954112D02*
X93403000Y-124954112D01*
X92790000Y-126355112D02*
X94261000Y-126355112D01*
X89421000Y-125834112D02*
X90710000Y-125834112D01*
X90250000Y-124834112D02*
X93250000Y-124834112D01*
X92790000Y-125754112D02*
X94040000Y-125754112D01*
X89601000Y-125514112D02*
X90710000Y-125514112D01*
X89460000Y-125754112D02*
X90710000Y-125754112D01*
X92790000Y-126154112D02*
X94205000Y-126154112D01*
X90652000Y-124594112D02*
X92848000Y-124594112D01*
X90431000Y-124714112D02*
X93069000Y-124714112D01*
X89482000Y-125714112D02*
X90710000Y-125714112D01*
X92790000Y-125234112D02*
X93687000Y-125234112D01*
X92790000Y-126114112D02*
X94192000Y-126114112D01*
X89685000Y-125394112D02*
X90710000Y-125394112D01*
X90367000Y-124754112D02*
X93133000Y-124754112D01*
X92790000Y-126234112D02*
X94230000Y-126234112D01*
X89189000Y-126635112D02*
X90710000Y-126635112D01*
X89207000Y-126515112D02*
X90710000Y-126515112D01*
X92790000Y-126955112D02*
X94330000Y-126955112D01*
X90025000Y-129509887D02*
X90525000Y-129509887D01*
X92790000Y-126435112D02*
X94278000Y-126435112D01*
X89746000Y-125314112D02*
X90710000Y-125314112D01*
X89181000Y-126715112D02*
X90710000Y-126715112D01*
X92790000Y-126034112D02*
X94164000Y-126034112D01*
X92790000Y-126315112D02*
X94251000Y-126315112D01*
X90945000Y-124474112D02*
X92555000Y-124474112D01*
X89270000Y-126234112D02*
X90710000Y-126234112D01*
X91466000Y-124354112D02*
X92034000Y-124354112D01*
X92790000Y-126755112D02*
X94323000Y-126755112D01*
X89239000Y-126355112D02*
X90710000Y-126355112D01*
X90739000Y-124554112D02*
X92761000Y-124554112D01*
X92790000Y-126675112D02*
X94315000Y-126675112D01*
X90275000Y-129759887D02*
X90275000Y-129259887D01*
X89813000Y-125234112D02*
X90710000Y-125234112D01*
X90835000Y-124514112D02*
X92665000Y-124514112D01*
X89886000Y-125154112D02*
X90710000Y-125154112D01*
X92790000Y-126595112D02*
X94306000Y-126595112D01*
X90196000Y-124874112D02*
X93304000Y-124874112D01*
X89655000Y-125434112D02*
X90710000Y-125434112D01*
X89177000Y-126755112D02*
X90710000Y-126755112D01*
X92790000Y-126635112D02*
X94311000Y-126635112D01*
X90051000Y-124994112D02*
X90710000Y-124994112D01*
X92790000Y-126555112D02*
X94300000Y-126555112D01*
X89185000Y-126675112D02*
X90710000Y-126675112D01*
X89715000Y-125354112D02*
X90710000Y-125354112D01*
X92790000Y-125914112D02*
X94115000Y-125914112D01*
X92790000Y-125034112D02*
X93493000Y-125034112D01*
X89200000Y-126555112D02*
X90710000Y-126555112D01*
X89440000Y-125794112D02*
X90710000Y-125794112D01*
X90307000Y-124794112D02*
X93193000Y-124794112D01*
X92790000Y-125394112D02*
X93815000Y-125394112D01*
X89628000Y-125474112D02*
X90710000Y-125474112D01*
X92790000Y-126715112D02*
X94319000Y-126715112D01*
X92790000Y-125514112D02*
X93899000Y-125514112D01*
X92790000Y-125474112D02*
X93872000Y-125474112D01*
X92790000Y-125074112D02*
X93535000Y-125074112D01*
X92790000Y-126515112D02*
X94293000Y-126515112D01*
X92790000Y-126275112D02*
X94241000Y-126275112D01*
X92790000Y-125874112D02*
X94098000Y-125874112D01*
X89526000Y-125634112D02*
X90710000Y-125634112D01*
X92790000Y-126395112D02*
X94270000Y-126395112D01*
X89385000Y-125914112D02*
X90710000Y-125914112D01*
X90145000Y-124914112D02*
X93355000Y-124914112D01*
X92790000Y-125714112D02*
X94018000Y-125714112D01*
X89368000Y-125954112D02*
X90710000Y-125954112D01*
X92790000Y-125554112D02*
X93925000Y-125554112D01*
X89170000Y-126915112D02*
X90710000Y-126915112D01*
X92790000Y-125194112D02*
X93651000Y-125194112D01*
X90097000Y-124954112D02*
X90710000Y-124954112D01*
X91073000Y-124434112D02*
X92427000Y-124434112D01*
X92790000Y-126795112D02*
X94326000Y-126795112D01*
X89352000Y-125994112D02*
X90710000Y-125994112D01*
X92790000Y-125954112D02*
X94132000Y-125954112D01*
X92790000Y-126835112D02*
X94328000Y-126835112D01*
X92790000Y-125354112D02*
X93785000Y-125354112D01*
X92790000Y-125674112D02*
X93997000Y-125674112D01*
X92790000Y-125834112D02*
X94079000Y-125834112D01*
X89308000Y-126114112D02*
X90710000Y-126114112D01*
X89170000Y-126955112D02*
X90710000Y-126955112D01*
X92790000Y-125114112D02*
X93576000Y-125114112D01*
X92790000Y-124994112D02*
X93449000Y-124994112D01*
X89924000Y-125114112D02*
X90710000Y-125114112D01*
X89172000Y-126835112D02*
X90710000Y-126835112D01*
X89230000Y-126395112D02*
X90710000Y-126395112D01*
X92790000Y-126074112D02*
X94178000Y-126074112D01*
X92790000Y-125274112D02*
X93721000Y-125274112D01*
X92790000Y-125314112D02*
X93754000Y-125314112D01*
X92790000Y-125434112D02*
X93845000Y-125434112D01*
X89779000Y-125274112D02*
X90710000Y-125274112D01*
X89249000Y-126315112D02*
X90710000Y-126315112D01*
X89322000Y-126074112D02*
X90710000Y-126074112D01*
X90007000Y-125034112D02*
X90710000Y-125034112D01*
X90499000Y-124674112D02*
X93001000Y-124674112D01*
X89849000Y-125194112D02*
X90710000Y-125194112D01*
X89965000Y-125074112D02*
X90710000Y-125074112D01*
X92790000Y-125994112D02*
X94148000Y-125994112D01*
X92790000Y-125794112D02*
X94060000Y-125794112D01*
X89402000Y-125874112D02*
X90710000Y-125874112D01*
X89575000Y-125554112D02*
X90710000Y-125554112D01*
X92790000Y-126875112D02*
X94329000Y-126875112D01*
X89282000Y-126194112D02*
X90710000Y-126194112D01*
X89336000Y-126034112D02*
X90710000Y-126034112D01*
X89194000Y-126595112D02*
X90710000Y-126595112D01*
X89259000Y-126275112D02*
X90710000Y-126275112D01*
X89503000Y-125674112D02*
X90710000Y-125674112D01*
X92790000Y-125634112D02*
X93974000Y-125634112D01*
X92790000Y-126194112D02*
X94218000Y-126194112D01*
X89171000Y-126875112D02*
X90710000Y-126875112D01*
X94370000Y-126955112D02*
G75*
G03*
X94370000Y-126955112I-2620000J0D01*
G01*
X100110000Y-105870000D02*
X100110000Y-116150000D01*
X105410000Y-116150000D02*
X105410000Y-105870000D01*
X100110000Y-116150000D02*
X105410000Y-116150000D01*
X101760000Y-105870000D02*
X100110000Y-105870000D01*
X105410000Y-105870000D02*
X103760000Y-105870000D01*
X101760000Y-105870000D02*
G75*
G03*
X103760000Y-105870000I1000000J0D01*
G01*
X109130000Y-102170000D02*
X109130000Y-96930000D01*
X109130000Y-96930000D02*
X109445000Y-96930000D01*
X111870000Y-102170000D02*
X111870000Y-96930000D01*
X109130000Y-102170000D02*
X109445000Y-102170000D01*
X111555000Y-96930000D02*
X111870000Y-96930000D01*
X111555000Y-102170000D02*
X111870000Y-102170000D01*
X115480000Y-116710000D02*
X115480000Y-116380000D01*
X115480000Y-118790000D02*
X115480000Y-119120000D01*
X115480000Y-116380000D02*
X122020000Y-116380000D01*
X122020000Y-119120000D02*
X122020000Y-118790000D01*
X115480000Y-119120000D02*
X122020000Y-119120000D01*
X122020000Y-116380000D02*
X122020000Y-116710000D01*
X99480000Y-102460000D02*
X99480000Y-102130000D01*
X99480000Y-102130000D02*
X106020000Y-102130000D01*
X99480000Y-104870000D02*
X106020000Y-104870000D01*
X99480000Y-104540000D02*
X99480000Y-104870000D01*
X106020000Y-102130000D02*
X106020000Y-102460000D01*
X106020000Y-104870000D02*
X106020000Y-104540000D01*
X109130000Y-112080000D02*
X109460000Y-112080000D01*
X109130000Y-105540000D02*
X109130000Y-112080000D01*
X111870000Y-112080000D02*
X111540000Y-112080000D01*
X111540000Y-105540000D02*
X111870000Y-105540000D01*
X111870000Y-105540000D02*
X111870000Y-112080000D01*
X109460000Y-105540000D02*
X109130000Y-105540000D01*
X116306000Y-127360000D02*
X114790000Y-127360000D01*
X114555000Y-129481000D02*
X112945000Y-129481000D01*
X115950000Y-128361000D02*
X114790000Y-128361000D01*
X114928000Y-129321000D02*
X112572000Y-129321000D01*
X116205000Y-127801000D02*
X114790000Y-127801000D01*
X114268000Y-129561000D02*
X113232000Y-129561000D01*
X115754000Y-128641000D02*
X114790000Y-128641000D01*
X116148000Y-127961000D02*
X114790000Y-127961000D01*
X116315000Y-127280000D02*
X114790000Y-127280000D01*
X115133000Y-129201000D02*
X112367000Y-129201000D01*
X112710000Y-127440000D02*
X111207000Y-127440000D01*
X116330000Y-127040000D02*
X114790000Y-127040000D01*
X114848000Y-129361000D02*
X112652000Y-129361000D01*
X116326000Y-127160000D02*
X114790000Y-127160000D01*
X112710000Y-127480000D02*
X111214000Y-127480000D01*
X116261000Y-127600000D02*
X114790000Y-127600000D01*
X116018000Y-128241000D02*
X114790000Y-128241000D01*
X112710000Y-128801000D02*
X111886000Y-128801000D01*
X116328000Y-127120000D02*
X114790000Y-127120000D01*
X115899000Y-128441000D02*
X114790000Y-128441000D01*
X116115000Y-128041000D02*
X114790000Y-128041000D01*
X116270000Y-127560000D02*
X114790000Y-127560000D01*
X112710000Y-128841000D02*
X111924000Y-128841000D01*
X116300000Y-127400000D02*
X114790000Y-127400000D01*
X112710000Y-128561000D02*
X111685000Y-128561000D01*
X116293000Y-127440000D02*
X114790000Y-127440000D01*
X112710000Y-127600000D02*
X111239000Y-127600000D01*
X116060000Y-128161000D02*
X114790000Y-128161000D01*
X115449000Y-128961000D02*
X114790000Y-128961000D01*
X116323000Y-127200000D02*
X114790000Y-127200000D01*
X112710000Y-127080000D02*
X111171000Y-127080000D01*
X112710000Y-128281000D02*
X111503000Y-128281000D01*
X112710000Y-128881000D02*
X111965000Y-128881000D01*
X114427000Y-129521000D02*
X113073000Y-129521000D01*
X112710000Y-128521000D02*
X111655000Y-128521000D01*
X112710000Y-128041000D02*
X111385000Y-128041000D01*
X115403000Y-129001000D02*
X114790000Y-129001000D01*
X112710000Y-127761000D02*
X111282000Y-127761000D01*
X115614000Y-128801000D02*
X114790000Y-128801000D01*
X115535000Y-128881000D02*
X114790000Y-128881000D01*
X112710000Y-128001000D02*
X111368000Y-128001000D01*
X112710000Y-127680000D02*
X111259000Y-127680000D01*
X112710000Y-128201000D02*
X111460000Y-128201000D01*
X115193000Y-129161000D02*
X112307000Y-129161000D01*
X115974000Y-128321000D02*
X114790000Y-128321000D01*
X116040000Y-128201000D02*
X114790000Y-128201000D01*
X115250000Y-129121000D02*
X112250000Y-129121000D01*
X112710000Y-127400000D02*
X111200000Y-127400000D01*
X112710000Y-128641000D02*
X111746000Y-128641000D01*
X114761000Y-129401000D02*
X112739000Y-129401000D01*
X112710000Y-128761000D02*
X111849000Y-128761000D01*
X112710000Y-128161000D02*
X111440000Y-128161000D01*
X116278000Y-127520000D02*
X114790000Y-127520000D01*
X112710000Y-128361000D02*
X111550000Y-128361000D01*
X112710000Y-127640000D02*
X111249000Y-127640000D01*
X112710000Y-128481000D02*
X111628000Y-128481000D01*
X115576000Y-128841000D02*
X114790000Y-128841000D01*
X116286000Y-127480000D02*
X114790000Y-127480000D01*
X116311000Y-127320000D02*
X114790000Y-127320000D01*
X115225000Y-124195225D02*
X115225000Y-124695225D01*
X115355000Y-129041000D02*
X112145000Y-129041000D01*
X112710000Y-128401000D02*
X111575000Y-128401000D01*
X116192000Y-127841000D02*
X114790000Y-127841000D01*
X112710000Y-128921000D02*
X112007000Y-128921000D01*
X115687000Y-128721000D02*
X114790000Y-128721000D01*
X115304000Y-129081000D02*
X112196000Y-129081000D01*
X112710000Y-129001000D02*
X112097000Y-129001000D01*
X112710000Y-128721000D02*
X111813000Y-128721000D01*
X112710000Y-127921000D02*
X111336000Y-127921000D01*
X116330000Y-127000000D02*
X114790000Y-127000000D01*
X115721000Y-128681000D02*
X114790000Y-128681000D01*
X115925000Y-128401000D02*
X114790000Y-128401000D01*
X112710000Y-127881000D02*
X111322000Y-127881000D01*
X112710000Y-127160000D02*
X111174000Y-127160000D01*
X112710000Y-127520000D02*
X111222000Y-127520000D01*
X115001000Y-129281000D02*
X112499000Y-129281000D01*
X112710000Y-128601000D02*
X111715000Y-128601000D01*
X115475000Y-124445225D02*
X114975000Y-124445225D01*
X112710000Y-127120000D02*
X111172000Y-127120000D01*
X112710000Y-128121000D02*
X111421000Y-128121000D01*
X116132000Y-128001000D02*
X114790000Y-128001000D01*
X116329000Y-127080000D02*
X114790000Y-127080000D01*
X116241000Y-127680000D02*
X114790000Y-127680000D01*
X115872000Y-128481000D02*
X114790000Y-128481000D01*
X112710000Y-128961000D02*
X112051000Y-128961000D01*
X116251000Y-127640000D02*
X114790000Y-127640000D01*
X115651000Y-128761000D02*
X114790000Y-128761000D01*
X116098000Y-128081000D02*
X114790000Y-128081000D01*
X115997000Y-128281000D02*
X114790000Y-128281000D01*
X112710000Y-128321000D02*
X111526000Y-128321000D01*
X115785000Y-128601000D02*
X114790000Y-128601000D01*
X112710000Y-127721000D02*
X111270000Y-127721000D01*
X112710000Y-127320000D02*
X111189000Y-127320000D01*
X112710000Y-127280000D02*
X111185000Y-127280000D01*
X112710000Y-128081000D02*
X111402000Y-128081000D01*
X115815000Y-128561000D02*
X114790000Y-128561000D01*
X116319000Y-127240000D02*
X114790000Y-127240000D01*
X112710000Y-127200000D02*
X111177000Y-127200000D01*
X112710000Y-127000000D02*
X111170000Y-127000000D01*
X116230000Y-127721000D02*
X114790000Y-127721000D01*
X112710000Y-127841000D02*
X111308000Y-127841000D01*
X114034000Y-129601000D02*
X113466000Y-129601000D01*
X112710000Y-127801000D02*
X111295000Y-127801000D01*
X112710000Y-127360000D02*
X111194000Y-127360000D01*
X115845000Y-128521000D02*
X114790000Y-128521000D01*
X112710000Y-128681000D02*
X111779000Y-128681000D01*
X116079000Y-128121000D02*
X114790000Y-128121000D01*
X116178000Y-127881000D02*
X114790000Y-127881000D01*
X116164000Y-127921000D02*
X114790000Y-127921000D01*
X112710000Y-127240000D02*
X111181000Y-127240000D01*
X112710000Y-127560000D02*
X111230000Y-127560000D01*
X114665000Y-129441000D02*
X112835000Y-129441000D01*
X112710000Y-128441000D02*
X111601000Y-128441000D01*
X112710000Y-127040000D02*
X111170000Y-127040000D01*
X112710000Y-127961000D02*
X111352000Y-127961000D01*
X115493000Y-128921000D02*
X114790000Y-128921000D01*
X115069000Y-129241000D02*
X112431000Y-129241000D01*
X112710000Y-128241000D02*
X111482000Y-128241000D01*
X116218000Y-127761000D02*
X114790000Y-127761000D01*
X116370000Y-127000000D02*
G75*
G03*
X116370000Y-127000000I-2620000J0D01*
G01*
X93375000Y-120670000D02*
X93375000Y-120514000D01*
X93375000Y-122986000D02*
X93375000Y-122830000D01*
X92855961Y-120670000D02*
G75*
G03*
X90773870Y-120670163I-1040961J-1080000D01*
G01*
X93375000Y-120514484D02*
G75*
G03*
X90142665Y-120671392I-1560000J-1235516D01*
G01*
X90773870Y-122829837D02*
G75*
G03*
X92855961Y-122830000I1041130J1079837D01*
G01*
X90142665Y-122828608D02*
G75*
G03*
X93375000Y-122985516I1672335J1078608D01*
G01*
X82462663Y-98986411D02*
G75*
G03*
X79000000Y-99000000I-1712664J-4763588D01*
G01*
X75986411Y-102037337D02*
G75*
G03*
X76000000Y-105500000I4763588J-1712664D01*
G01*
X85513589Y-105462663D02*
G75*
G03*
X85500000Y-102000000I-4763589J1712663D01*
G01*
X79037337Y-108513589D02*
G75*
G03*
X82500000Y-108500000I1712663J4763589D01*
G01*
X91130000Y-95880000D02*
X96370000Y-95880000D01*
X96370000Y-95880000D02*
X96370000Y-96195000D01*
X91130000Y-98620000D02*
X96370000Y-98620000D01*
X91130000Y-95880000D02*
X91130000Y-96195000D01*
X96370000Y-98305000D02*
X96370000Y-98620000D01*
X91130000Y-98305000D02*
X91130000Y-98620000D01*
X124550000Y-109750000D02*
X113550000Y-109750000D01*
X113550000Y-97750000D02*
X124550000Y-97750000D01*
X113550000Y-109750000D02*
X113550000Y-97750000D01*
X90020000Y-116380000D02*
X83480000Y-116380000D01*
X90020000Y-119120000D02*
X83480000Y-119120000D01*
X90020000Y-118790000D02*
X90020000Y-119120000D01*
X90020000Y-116710000D02*
X90020000Y-116380000D01*
X83480000Y-119120000D02*
X83480000Y-118790000D01*
X83480000Y-116380000D02*
X83480000Y-116710000D01*
G36*
X87110674Y-92267464D02*
G01*
X87154390Y-92206266D01*
X87216316Y-92160043D01*
X87294991Y-92134400D01*
X87339154Y-92131045D01*
X87425088Y-92144530D01*
X87495210Y-92181258D01*
X87548068Y-92235637D01*
X87582210Y-92302077D01*
X87596183Y-92374986D01*
X87588537Y-92448774D01*
X87557819Y-92517849D01*
X87502577Y-92576620D01*
X87461549Y-92602356D01*
X87380618Y-92632796D01*
X87305898Y-92634583D01*
X87227614Y-92607700D01*
X87216379Y-92601947D01*
X87147129Y-92549933D01*
X87103395Y-92484873D01*
X87083715Y-92412372D01*
X87085113Y-92376705D01*
X87183376Y-92376705D01*
X87191256Y-92448430D01*
X87217457Y-92497615D01*
X87265819Y-92531148D01*
X87270755Y-92533359D01*
X87313115Y-92550512D01*
X87342324Y-92554652D01*
X87374954Y-92545865D01*
X87403952Y-92534054D01*
X87455773Y-92502291D01*
X87484669Y-92456265D01*
X87494780Y-92388811D01*
X87494932Y-92376705D01*
X87481592Y-92307887D01*
X87446140Y-92255656D01*
X87395429Y-92223024D01*
X87336313Y-92213002D01*
X87275645Y-92228604D01*
X87231308Y-92260843D01*
X87196760Y-92305291D01*
X87184093Y-92355069D01*
X87183376Y-92376705D01*
X87085113Y-92376705D01*
X87086628Y-92338034D01*
X87110674Y-92267464D01*
G37*
G36*
X91003557Y-92410577D02*
G01*
X91035198Y-92380048D01*
X91089996Y-92353751D01*
X91158322Y-92335151D01*
X91230545Y-92327712D01*
X91233934Y-92327695D01*
X91284782Y-92325233D01*
X91309750Y-92316454D01*
X91315591Y-92302020D01*
X91301696Y-92251747D01*
X91264933Y-92217202D01*
X91212688Y-92201450D01*
X91152346Y-92207556D01*
X91119633Y-92220689D01*
X91079127Y-92237208D01*
X91052745Y-92234386D01*
X91043851Y-92228331D01*
X91023877Y-92204451D01*
X91020433Y-92193669D01*
X91035285Y-92174932D01*
X91073858Y-92156540D01*
X91127175Y-92141365D01*
X91186257Y-92132284D01*
X91216419Y-92130923D01*
X91273887Y-92134898D01*
X91314523Y-92150370D01*
X91346766Y-92176017D01*
X91366937Y-92196130D01*
X91380747Y-92216180D01*
X91389692Y-92242826D01*
X91395271Y-92282731D01*
X91398981Y-92342555D01*
X91402070Y-92421982D01*
X91409285Y-92622853D01*
X91370637Y-92622853D01*
X91339615Y-92614073D01*
X91331988Y-92590552D01*
X91330007Y-92571956D01*
X91319213Y-92569878D01*
X91292333Y-92585318D01*
X91272308Y-92598751D01*
X91195868Y-92632479D01*
X91115352Y-92634138D01*
X91071113Y-92621376D01*
X91031663Y-92597993D01*
X91010144Y-92577322D01*
X90993353Y-92534921D01*
X90988816Y-92478752D01*
X90989713Y-92473079D01*
X91075856Y-92473079D01*
X91082723Y-92515573D01*
X91100787Y-92542900D01*
X91129299Y-92554905D01*
X91170703Y-92557262D01*
X91235542Y-92547665D01*
X91277639Y-92521609D01*
X91308750Y-92473930D01*
X91315591Y-92437590D01*
X91315591Y-92389225D01*
X91224429Y-92396784D01*
X91148080Y-92410723D01*
X91097895Y-92436709D01*
X91075856Y-92473079D01*
X90989713Y-92473079D01*
X90997199Y-92425728D01*
X91003557Y-92410577D01*
G37*
G36*
X87039077Y-93111504D02*
G01*
X87072862Y-93126886D01*
X87120062Y-93130287D01*
X87163563Y-93121708D01*
X87180097Y-93111504D01*
X87186166Y-93112353D01*
X87190940Y-93130233D01*
X87194543Y-93167865D01*
X87197101Y-93227969D01*
X87198740Y-93313265D01*
X87199585Y-93426475D01*
X87199774Y-93537844D01*
X87199774Y-93983860D01*
X87019400Y-93983860D01*
X87019400Y-93537844D01*
X87019705Y-93400575D01*
X87020704Y-93293376D01*
X87022524Y-93213527D01*
X87025288Y-93158306D01*
X87029123Y-93124993D01*
X87034155Y-93110868D01*
X87039077Y-93111504D01*
G37*
G36*
X92484171Y-92386663D02*
G01*
X92539852Y-92389986D01*
X92583395Y-92398357D01*
X92625115Y-92413655D01*
X92668399Y-92434280D01*
X92728836Y-92468220D01*
X92768434Y-92502016D01*
X92797700Y-92545172D01*
X92803680Y-92556638D01*
X92826199Y-92614292D01*
X92839257Y-92672883D01*
X92840575Y-92691918D01*
X92840575Y-92754035D01*
X92647994Y-92754035D01*
X92638093Y-92692116D01*
X92625698Y-92642712D01*
X92608410Y-92603405D01*
X92606061Y-92599932D01*
X92570693Y-92575339D01*
X92512886Y-92559217D01*
X92441901Y-92551645D01*
X92367005Y-92552704D01*
X92297460Y-92562475D01*
X92242530Y-92581038D01*
X92220298Y-92596573D01*
X92212729Y-92607053D01*
X92206595Y-92624067D01*
X92201703Y-92651005D01*
X92197863Y-92691259D01*
X92194883Y-92748218D01*
X92192573Y-92825272D01*
X92190741Y-92925813D01*
X92189197Y-93053230D01*
X92188119Y-93167779D01*
X92186947Y-93327771D01*
X92186744Y-93458183D01*
X92187874Y-93562225D01*
X92190699Y-93643108D01*
X92195584Y-93704043D01*
X92202891Y-93748238D01*
X92212984Y-93778906D01*
X92226226Y-93799254D01*
X92242981Y-93812495D01*
X92262085Y-93821263D01*
X92298021Y-93828778D01*
X92354630Y-93834164D01*
X92419808Y-93836280D01*
X92421290Y-93836281D01*
X92508951Y-93830722D01*
X92570117Y-93812132D01*
X92609473Y-93777641D01*
X92631705Y-93724380D01*
X92635615Y-93705035D01*
X92646685Y-93639509D01*
X92845143Y-93639509D01*
X92835299Y-93722628D01*
X92814832Y-93813402D01*
X92775793Y-93883858D01*
X92715659Y-93935700D01*
X92631907Y-93970631D01*
X92522015Y-93990355D01*
X92430633Y-93995963D01*
X92321095Y-93995866D01*
X92241264Y-93988734D01*
X92197115Y-93977808D01*
X92118299Y-93941875D01*
X92063426Y-93898957D01*
X92023643Y-93841966D01*
X92020902Y-93836695D01*
X92012116Y-93817936D01*
X92005042Y-93797312D01*
X91999493Y-93771250D01*
X91995287Y-93736174D01*
X91992238Y-93688510D01*
X91990162Y-93624684D01*
X91988874Y-93541121D01*
X91988192Y-93434246D01*
X91987929Y-93300485D01*
X91987896Y-93196898D01*
X91988048Y-93034846D01*
X91988772Y-92902171D01*
X91990470Y-92795457D01*
X91993542Y-92711288D01*
X91998391Y-92646246D01*
X92005417Y-92596914D01*
X92015022Y-92559876D01*
X92027608Y-92531715D01*
X92043575Y-92509013D01*
X92063325Y-92488355D01*
X92072094Y-92480156D01*
X92129150Y-92437951D01*
X92196747Y-92409583D01*
X92281709Y-92393137D01*
X92390860Y-92386701D01*
X92406036Y-92386509D01*
X92484171Y-92386663D01*
G37*
G36*
X89028440Y-92830157D02*
G01*
X89121715Y-92854549D01*
X89188743Y-92888669D01*
X89218398Y-92911758D01*
X89242169Y-92936786D01*
X89260703Y-92967495D01*
X89274649Y-93007626D01*
X89284656Y-93060920D01*
X89291373Y-93131119D01*
X89295448Y-93221963D01*
X89297529Y-93337194D01*
X89298267Y-93480552D01*
X89298317Y-93520626D01*
X89298677Y-93983860D01*
X89101905Y-93983860D01*
X89101905Y-93551769D01*
X89101431Y-93405051D01*
X89099729Y-93287621D01*
X89096381Y-93195983D01*
X89090967Y-93126639D01*
X89083066Y-93076094D01*
X89072260Y-93040849D01*
X89058129Y-93017408D01*
X89040253Y-93002274D01*
X89035667Y-92999654D01*
X89004067Y-92991251D01*
X88951821Y-92985441D01*
X88898926Y-92983602D01*
X88835365Y-92985756D01*
X88792949Y-92994199D01*
X88760197Y-93011904D01*
X88746170Y-93023155D01*
X88700162Y-93062707D01*
X88694905Y-93523284D01*
X88689649Y-93983860D01*
X88493343Y-93983860D01*
X88498366Y-93512427D01*
X88500228Y-93361778D01*
X88502814Y-93240207D01*
X88506943Y-93143996D01*
X88513435Y-93069428D01*
X88523111Y-93012785D01*
X88536789Y-92970351D01*
X88555291Y-92938406D01*
X88579434Y-92913234D01*
X88610041Y-92891118D01*
X88639294Y-92873382D01*
X88719507Y-92840916D01*
X88817595Y-92823070D01*
X88923820Y-92819574D01*
X89028440Y-92830157D01*
G37*
G36*
X90006420Y-92824724D02*
G01*
X90123290Y-92846485D01*
X90217365Y-92889451D01*
X90287163Y-92952247D01*
X90331203Y-93033499D01*
X90348003Y-93131831D01*
X90348128Y-93141827D01*
X90348128Y-93196772D01*
X90155080Y-93196772D01*
X90144297Y-93124871D01*
X90129383Y-93064540D01*
X90102434Y-93024953D01*
X90057762Y-93002309D01*
X89989680Y-92992809D01*
X89945119Y-92991801D01*
X89879364Y-92993227D01*
X89836852Y-92998998D01*
X89808096Y-93011350D01*
X89786963Y-93029119D01*
X89773321Y-93044408D01*
X89763328Y-93062375D01*
X89756284Y-93088234D01*
X89751486Y-93127196D01*
X89748233Y-93184474D01*
X89745824Y-93265282D01*
X89744085Y-93347663D01*
X89742035Y-93487077D01*
X89742938Y-93597174D01*
X89748219Y-93681399D01*
X89759305Y-93743195D01*
X89777622Y-93786006D01*
X89804594Y-93813276D01*
X89841648Y-93828449D01*
X89890210Y-93834967D01*
X89946385Y-93836281D01*
X90028000Y-93831945D01*
X90083432Y-93816402D01*
X90118447Y-93785852D01*
X90138811Y-93736493D01*
X90145022Y-93705330D01*
X90155547Y-93639509D01*
X90348128Y-93639509D01*
X90347768Y-93701000D01*
X90331967Y-93795880D01*
X90287685Y-93877420D01*
X90217842Y-93941744D01*
X90136611Y-93981352D01*
X90086610Y-93991226D01*
X90015157Y-93996740D01*
X89933295Y-93997955D01*
X89852068Y-93994928D01*
X89782520Y-93987718D01*
X89743577Y-93979259D01*
X89673663Y-93942632D01*
X89612580Y-93885060D01*
X89570604Y-93817025D01*
X89562981Y-93795095D01*
X89556129Y-93752423D01*
X89550898Y-93684110D01*
X89547279Y-93596896D01*
X89545265Y-93497520D01*
X89544849Y-93392721D01*
X89546024Y-93289238D01*
X89548783Y-93193811D01*
X89553117Y-93113179D01*
X89559020Y-93054080D01*
X89563814Y-93029999D01*
X89603404Y-92952464D01*
X89668967Y-92891653D01*
X89757480Y-92848970D01*
X89865921Y-92825816D01*
X89991269Y-92823592D01*
X90006420Y-92824724D01*
G37*
G36*
X87157153Y-92830071D02*
G01*
X87195258Y-92860410D01*
X87215032Y-92909217D01*
X87216172Y-92926210D01*
X87202256Y-92980802D01*
X87166270Y-93020359D01*
X87116855Y-93039255D01*
X87062651Y-93031863D01*
X87057462Y-93029540D01*
X87025539Y-93002311D01*
X87001747Y-92964175D01*
X86990645Y-92925951D01*
X86998929Y-92895021D01*
X87014500Y-92871873D01*
X87058608Y-92833603D01*
X87108881Y-92820403D01*
X87157153Y-92830071D01*
G37*
G36*
X85369164Y-92385929D02*
G01*
X85425107Y-92389734D01*
X85468593Y-92398416D01*
X85509786Y-92413893D01*
X85551478Y-92434280D01*
X85626398Y-92482513D01*
X85676271Y-92540797D01*
X85706551Y-92617104D01*
X85717978Y-92677700D01*
X85728672Y-92755721D01*
X85623842Y-92750778D01*
X85519012Y-92745836D01*
X85509398Y-92673789D01*
X85496958Y-92623382D01*
X85477617Y-92586989D01*
X85471235Y-92580866D01*
X85427995Y-92562312D01*
X85363692Y-92549833D01*
X85289716Y-92544785D01*
X85217459Y-92548520D01*
X85209003Y-92549689D01*
X85151597Y-92563141D01*
X85111767Y-92586820D01*
X85086567Y-92625931D01*
X85073046Y-92685683D01*
X85068256Y-92771280D01*
X85068076Y-92798502D01*
X85068636Y-92871491D01*
X85071557Y-92919832D01*
X85078702Y-92951664D01*
X85091935Y-92975130D01*
X85113120Y-92998372D01*
X85114027Y-92999280D01*
X85165490Y-93035199D01*
X85247930Y-93070593D01*
X85306699Y-93089974D01*
X85407941Y-93122795D01*
X85484151Y-93152926D01*
X85542456Y-93184111D01*
X85589981Y-93220097D01*
X85629319Y-93259566D01*
X85678497Y-93333176D01*
X85709072Y-93426139D01*
X85721784Y-93541668D01*
X85719671Y-93651222D01*
X85703583Y-93764363D01*
X85669549Y-93851934D01*
X85615194Y-93917226D01*
X85538143Y-93963533D01*
X85479947Y-93983597D01*
X85428776Y-93992028D01*
X85356665Y-93996839D01*
X85275270Y-93997990D01*
X85196250Y-93995439D01*
X85131264Y-93989144D01*
X85109070Y-93984925D01*
X85025868Y-93954482D01*
X84955456Y-93909520D01*
X84923161Y-93876938D01*
X84901969Y-93837877D01*
X84880740Y-93780155D01*
X84863736Y-93717622D01*
X84855218Y-93664127D01*
X84854907Y-93655100D01*
X84869862Y-93647160D01*
X84908991Y-93641545D01*
X84961491Y-93639509D01*
X85068076Y-93639509D01*
X85068076Y-93695084D01*
X85077481Y-93746295D01*
X85099423Y-93789371D01*
X85116462Y-93807361D01*
X85137195Y-93818719D01*
X85169020Y-93824954D01*
X85219334Y-93827572D01*
X85289445Y-93828082D01*
X85374539Y-93826524D01*
X85434486Y-93818602D01*
X85473678Y-93799443D01*
X85496507Y-93764177D01*
X85507364Y-93707931D01*
X85510641Y-93625833D01*
X85510814Y-93582512D01*
X85508859Y-93495848D01*
X85500307Y-93428971D01*
X85481121Y-93377446D01*
X85447269Y-93336840D01*
X85394715Y-93302721D01*
X85319424Y-93270654D01*
X85217363Y-93236206D01*
X85186943Y-93226625D01*
X85067993Y-93181301D01*
X84978973Y-93128384D01*
X84917547Y-93066145D01*
X84884717Y-93003017D01*
X84874863Y-92957144D01*
X84867795Y-92888518D01*
X84864420Y-92807128D01*
X84864276Y-92778233D01*
X84868937Y-92670395D01*
X84883745Y-92588495D01*
X84911658Y-92526471D01*
X84955635Y-92478263D01*
X85018638Y-92437810D01*
X85034411Y-92429806D01*
X85081063Y-92408695D01*
X85123397Y-92395450D01*
X85171584Y-92388296D01*
X85235793Y-92385458D01*
X85290604Y-92385087D01*
X85369164Y-92385929D01*
G37*
G36*
X94653812Y-92828786D02*
G01*
X94755001Y-92855702D01*
X94830941Y-92899524D01*
X94838638Y-92906267D01*
X94861950Y-92929378D01*
X94880538Y-92953675D01*
X94894934Y-92982999D01*
X94905670Y-93021192D01*
X94913278Y-93072094D01*
X94918290Y-93139547D01*
X94921238Y-93227392D01*
X94922654Y-93339470D01*
X94923069Y-93479622D01*
X94923080Y-93516000D01*
X94923080Y-93983860D01*
X94726307Y-93983860D01*
X94726307Y-93064100D01*
X94686059Y-93023851D01*
X94660224Y-93002197D01*
X94630505Y-92989995D01*
X94586861Y-92984663D01*
X94529535Y-92983602D01*
X94465532Y-92985049D01*
X94424218Y-92991113D01*
X94395552Y-93004375D01*
X94373012Y-93023851D01*
X94332763Y-93064100D01*
X94332763Y-93983860D01*
X94119593Y-93983860D01*
X94119593Y-93566527D01*
X94120330Y-93437517D01*
X94122424Y-93319524D01*
X94125698Y-93217436D01*
X94129978Y-93136143D01*
X94135086Y-93080534D01*
X94137627Y-93065105D01*
X94170366Y-92974200D01*
X94225593Y-92904885D01*
X94304402Y-92856477D01*
X94407885Y-92828292D01*
X94530395Y-92819625D01*
X94653812Y-92828786D01*
G37*
G36*
X96000321Y-93100053D02*
G01*
X96013457Y-93029911D01*
X96033713Y-92975954D01*
X96062267Y-92934051D01*
X96100299Y-92900070D01*
X96148988Y-92869882D01*
X96158555Y-92864754D01*
X96197257Y-92847308D01*
X96239119Y-92836395D01*
X96293273Y-92830584D01*
X96368855Y-92828443D01*
X96391055Y-92828316D01*
X96471079Y-92829103D01*
X96528128Y-92833117D01*
X96571987Y-92841986D01*
X96612437Y-92857339D01*
X96637021Y-92869262D01*
X96708442Y-92916965D01*
X96756200Y-92977910D01*
X96782593Y-93056837D01*
X96789917Y-93158487D01*
X96789240Y-93183367D01*
X96779739Y-93274228D01*
X96757151Y-93344154D01*
X96717746Y-93396269D01*
X96657799Y-93433696D01*
X96573581Y-93459560D01*
X96461367Y-93476984D01*
X96435716Y-93479684D01*
X96344023Y-93489903D01*
X96280078Y-93501836D01*
X96238898Y-93519294D01*
X96215505Y-93546090D01*
X96204916Y-93586033D01*
X96202151Y-93642937D01*
X96202098Y-93658448D01*
X96205730Y-93735527D01*
X96220151Y-93786814D01*
X96250648Y-93817342D01*
X96302508Y-93832147D01*
X96381019Y-93836263D01*
X96388855Y-93836281D01*
X96472350Y-93832008D01*
X96529269Y-93816929D01*
X96564983Y-93787659D01*
X96584861Y-93740812D01*
X96590636Y-93709032D01*
X96599961Y-93639509D01*
X96792415Y-93639509D01*
X96792054Y-93701000D01*
X96781783Y-93768112D01*
X96755738Y-93839156D01*
X96720015Y-93899561D01*
X96699630Y-93921937D01*
X96632665Y-93961965D01*
X96539795Y-93987887D01*
X96425200Y-93998656D01*
X96392709Y-93998849D01*
X96323605Y-93996525D01*
X96262009Y-93991659D01*
X96219491Y-93985221D01*
X96214627Y-93983931D01*
X96132245Y-93946848D01*
X96065034Y-93892747D01*
X96027569Y-93840122D01*
X96016841Y-93814435D01*
X96008690Y-93782989D01*
X96002658Y-93740781D01*
X95998289Y-93682808D01*
X95995125Y-93604068D01*
X95992710Y-93499556D01*
X95991843Y-93448890D01*
X95990693Y-93305411D01*
X95992571Y-93216740D01*
X96202098Y-93216740D01*
X96202651Y-93286522D01*
X96205103Y-93329151D01*
X96210645Y-93350261D01*
X96220466Y-93355487D01*
X96230794Y-93352603D01*
X96260724Y-93345010D01*
X96312480Y-93335996D01*
X96375256Y-93327425D01*
X96379877Y-93326879D01*
X96443033Y-93318742D01*
X96495967Y-93310566D01*
X96527871Y-93304031D01*
X96529067Y-93303669D01*
X96564073Y-93276662D01*
X96586265Y-93227105D01*
X96593912Y-93163316D01*
X96585285Y-93093611D01*
X96577933Y-93068876D01*
X96545002Y-93022278D01*
X96485553Y-92994330D01*
X96400197Y-92985252D01*
X96353314Y-92987398D01*
X96291250Y-92996279D01*
X96248627Y-93014354D01*
X96221952Y-93046921D01*
X96207732Y-93099278D01*
X96202474Y-93176720D01*
X96202098Y-93216740D01*
X95992571Y-93216740D01*
X95993126Y-93190509D01*
X96000321Y-93100053D01*
G37*
G36*
X95529794Y-92836023D02*
G01*
X95824952Y-92836023D01*
X95824952Y-93000000D01*
X95529794Y-93000000D01*
X95529794Y-93374605D01*
X95529831Y-93504044D01*
X95530978Y-93604493D01*
X95534784Y-93679757D01*
X95542799Y-93733636D01*
X95556574Y-93769935D01*
X95577659Y-93792455D01*
X95607605Y-93805001D01*
X95647960Y-93811375D01*
X95700277Y-93815380D01*
X95709746Y-93816047D01*
X95824952Y-93824290D01*
X95824952Y-93983860D01*
X95722466Y-93982182D01*
X95658709Y-93979326D01*
X95600879Y-93973700D01*
X95570788Y-93968527D01*
X95493483Y-93940836D01*
X95425115Y-93900492D01*
X95392915Y-93871841D01*
X95369715Y-93842232D01*
X95351736Y-93807987D01*
X95338332Y-93764703D01*
X95328858Y-93707977D01*
X95322667Y-93633404D01*
X95319114Y-93536582D01*
X95317552Y-93413107D01*
X95317343Y-93356649D01*
X95316624Y-93000000D01*
X95068862Y-93000000D01*
X95073860Y-92922111D01*
X95078857Y-92844222D01*
X95197741Y-92839404D01*
X95316624Y-92834586D01*
X95316624Y-92409683D01*
X95529794Y-92409683D01*
X95529794Y-92836023D01*
G37*
G36*
X86059284Y-92138416D02*
G01*
X86068335Y-92164885D01*
X86068335Y-92198894D01*
X86111540Y-92164908D01*
X86170663Y-92137139D01*
X86240412Y-92131245D01*
X86306977Y-92147225D01*
X86336685Y-92164908D01*
X86379890Y-92198894D01*
X86423096Y-92164908D01*
X86481853Y-92137283D01*
X86551286Y-92131201D01*
X86617542Y-92146690D01*
X86647676Y-92164464D01*
X86680784Y-92201023D01*
X86703665Y-92253192D01*
X86717539Y-92325860D01*
X86723624Y-92423915D01*
X86724150Y-92471175D01*
X86724242Y-92622853D01*
X86625855Y-92622853D01*
X86625855Y-92454326D01*
X86623591Y-92358729D01*
X86615498Y-92291276D01*
X86599630Y-92247544D01*
X86574039Y-92223113D01*
X86536779Y-92213560D01*
X86519531Y-92212911D01*
X86466866Y-92223858D01*
X86430274Y-92256117D01*
X86414174Y-92281039D01*
X86404042Y-92311412D01*
X86398578Y-92355077D01*
X86396480Y-92419874D01*
X86396288Y-92461088D01*
X86396288Y-92622853D01*
X86297902Y-92622853D01*
X86297902Y-92445020D01*
X86297140Y-92363800D01*
X86294218Y-92308810D01*
X86288176Y-92273509D01*
X86278059Y-92251353D01*
X86267915Y-92240049D01*
X86219424Y-92215636D01*
X86166388Y-92220830D01*
X86116603Y-92254854D01*
X86116286Y-92255190D01*
X86097662Y-92278192D01*
X86085457Y-92304725D01*
X86077949Y-92342577D01*
X86073412Y-92399536D01*
X86070897Y-92460161D01*
X86068004Y-92534232D01*
X86064412Y-92581526D01*
X86058457Y-92608045D01*
X86048477Y-92619792D01*
X86032807Y-92622771D01*
X86025804Y-92622853D01*
X85986346Y-92622853D01*
X85986346Y-92130923D01*
X86027340Y-92130923D01*
X86059284Y-92138416D01*
G37*
G36*
X87465256Y-93127695D02*
G01*
X87468430Y-93078083D01*
X87473400Y-93042141D01*
X87480573Y-93015090D01*
X87490359Y-92992148D01*
X87499301Y-92975403D01*
X87546164Y-92913588D01*
X87609744Y-92869683D01*
X87693973Y-92842098D01*
X87802780Y-92829242D01*
X87863880Y-92827836D01*
X87942875Y-92828787D01*
X87998369Y-92832697D01*
X88039629Y-92841174D01*
X88075921Y-92855826D01*
X88100194Y-92868830D01*
X88149576Y-92901629D01*
X88190626Y-92937069D01*
X88202524Y-92950807D01*
X88230664Y-93008635D01*
X88249281Y-93085554D01*
X88256237Y-93168699D01*
X88250520Y-93239515D01*
X88225275Y-93321449D01*
X88181875Y-93384592D01*
X88117269Y-93430951D01*
X88028400Y-93462532D01*
X87912216Y-93481339D01*
X87877734Y-93484342D01*
X87788970Y-93492951D01*
X87727915Y-93505809D01*
X87689482Y-93526920D01*
X87668585Y-93560289D01*
X87660138Y-93609921D01*
X87658909Y-93656652D01*
X87661168Y-93716801D01*
X87670175Y-93755908D01*
X87689272Y-93785551D01*
X87699158Y-93796032D01*
X87724993Y-93817686D01*
X87754711Y-93829888D01*
X87798356Y-93835221D01*
X87855681Y-93836281D01*
X87919685Y-93834834D01*
X87960998Y-93828771D01*
X87989664Y-93815509D01*
X88012204Y-93796032D01*
X88046045Y-93742151D01*
X88052453Y-93697646D01*
X88052453Y-93639509D01*
X88267633Y-93639509D01*
X88256300Y-93717398D01*
X88244671Y-93774491D01*
X88228983Y-93825000D01*
X88223089Y-93838427D01*
X88178259Y-93898045D01*
X88113538Y-93949460D01*
X88041773Y-93982536D01*
X88039646Y-93983139D01*
X87977707Y-93993751D01*
X87897564Y-93998572D01*
X87811052Y-93997808D01*
X87730011Y-93991669D01*
X87666275Y-93980363D01*
X87653255Y-93976340D01*
X87600247Y-93951354D01*
X87553423Y-93919760D01*
X87548656Y-93915568D01*
X87522198Y-93888865D01*
X87501726Y-93860536D01*
X87486486Y-93826132D01*
X87475725Y-93781206D01*
X87468690Y-93721311D01*
X87464627Y-93641999D01*
X87462784Y-93538824D01*
X87462406Y-93407338D01*
X87462407Y-93406369D01*
X87462653Y-93287057D01*
X87462712Y-93280412D01*
X87659096Y-93280412D01*
X87659408Y-93325680D01*
X87663218Y-93349260D01*
X87671463Y-93356686D01*
X87685081Y-93353491D01*
X87685941Y-93353143D01*
X87715768Y-93345781D01*
X87768441Y-93337083D01*
X87834141Y-93328605D01*
X87855681Y-93326258D01*
X87929376Y-93316980D01*
X87977734Y-93306168D01*
X88008204Y-93291641D01*
X88023757Y-93277049D01*
X88045017Y-93230629D01*
X88053260Y-93167691D01*
X88048631Y-93101753D01*
X88031276Y-93046334D01*
X88021107Y-93030512D01*
X88002096Y-93011009D01*
X87978497Y-92999403D01*
X87941869Y-92993694D01*
X87883770Y-92991884D01*
X87857716Y-92991801D01*
X87781165Y-92993546D01*
X87728429Y-93002242D01*
X87694788Y-93023083D01*
X87675525Y-93061262D01*
X87665919Y-93121972D01*
X87661344Y-93207923D01*
X87659096Y-93280412D01*
X87462712Y-93280412D01*
X87463467Y-93195760D01*
X87465256Y-93127695D01*
G37*
G36*
X88279151Y-92135538D02*
G01*
X88317282Y-92148640D01*
X88351272Y-92178791D01*
X88375174Y-92229428D01*
X88389894Y-92303985D01*
X88396337Y-92405897D01*
X88396804Y-92450151D01*
X88396804Y-92622853D01*
X88298418Y-92622853D01*
X88298418Y-92450678D01*
X88297682Y-92371357D01*
X88294725Y-92317797D01*
X88288425Y-92282983D01*
X88277659Y-92259899D01*
X88265623Y-92245707D01*
X88216921Y-92218240D01*
X88158293Y-92215499D01*
X88118691Y-92228963D01*
X88087003Y-92261711D01*
X88065774Y-92321410D01*
X88054569Y-92409743D01*
X88052453Y-92485920D01*
X88052453Y-92622853D01*
X87953191Y-92622853D01*
X87957728Y-92380987D01*
X87962266Y-92139122D01*
X88007360Y-92133933D01*
X88040440Y-92134878D01*
X88051849Y-92152667D01*
X88052453Y-92163819D01*
X88052453Y-92198894D01*
X88095659Y-92164908D01*
X88147023Y-92140923D01*
X88213297Y-92130758D01*
X88279151Y-92135538D01*
G37*
G36*
X86442625Y-92829028D02*
G01*
X86498864Y-92833839D01*
X86542936Y-92844058D01*
X86585132Y-92861485D01*
X86600587Y-92869221D01*
X86677367Y-92926137D01*
X86730112Y-93002885D01*
X86755342Y-93093763D01*
X86757037Y-93125561D01*
X86757037Y-93196772D01*
X86658651Y-93196772D01*
X86604190Y-93196109D01*
X86574795Y-93191584D01*
X86562736Y-93179394D01*
X86560283Y-93155732D01*
X86560265Y-93148350D01*
X86548420Y-93076304D01*
X86512479Y-93025378D01*
X86451831Y-92995167D01*
X86365869Y-92985267D01*
X86317937Y-92987398D01*
X86271090Y-92992165D01*
X86235079Y-93000338D01*
X86208478Y-93015848D01*
X86189863Y-93042627D01*
X86177809Y-93084604D01*
X86170891Y-93145710D01*
X86167685Y-93229878D01*
X86166767Y-93341036D01*
X86166721Y-93404637D01*
X86167300Y-93529279D01*
X86169411Y-93625337D01*
X86173611Y-93697006D01*
X86180458Y-93748484D01*
X86190511Y-93783967D01*
X86204329Y-93807650D01*
X86222468Y-93823732D01*
X86246954Y-93829743D01*
X86294239Y-93834142D01*
X86354337Y-93836019D01*
X86357577Y-93836030D01*
X86440181Y-93831639D01*
X86496331Y-93815763D01*
X86531363Y-93784972D01*
X86550612Y-93735840D01*
X86555258Y-93709032D01*
X86564583Y-93639509D01*
X86757037Y-93639509D01*
X86757037Y-93705626D01*
X86741910Y-93800216D01*
X86699087Y-93881463D01*
X86632399Y-93944292D01*
X86547457Y-93983139D01*
X86486312Y-93993632D01*
X86406964Y-93998505D01*
X86321163Y-93997947D01*
X86240656Y-93992149D01*
X86177189Y-93981299D01*
X86162770Y-93976925D01*
X86101372Y-93952317D01*
X86053803Y-93924761D01*
X86018222Y-93889862D01*
X85992787Y-93843224D01*
X85975659Y-93780451D01*
X85964996Y-93697148D01*
X85958958Y-93588918D01*
X85956264Y-93483805D01*
X85954533Y-93344996D01*
X85955369Y-93234573D01*
X85959205Y-93148196D01*
X85966472Y-93081524D01*
X85977601Y-93030217D01*
X85993024Y-92989936D01*
X86007943Y-92963932D01*
X86043870Y-92925033D01*
X86095552Y-92886114D01*
X86125750Y-92868818D01*
X86170840Y-92848674D01*
X86214507Y-92836337D01*
X86267180Y-92830012D01*
X86339292Y-92827903D01*
X86363930Y-92827824D01*
X86442625Y-92829028D01*
G37*
G36*
X93096448Y-93088685D02*
G01*
X93106720Y-93026440D01*
X93122187Y-92979529D01*
X93143837Y-92943593D01*
X93172663Y-92914272D01*
X93205180Y-92890191D01*
X93290621Y-92848824D01*
X93391411Y-92825356D01*
X93499146Y-92819420D01*
X93605421Y-92830651D01*
X93701830Y-92858683D01*
X93779969Y-92903149D01*
X93794676Y-92915853D01*
X93848385Y-92987983D01*
X93880327Y-93079127D01*
X93888462Y-93182106D01*
X93883858Y-93230101D01*
X93865564Y-93306952D01*
X93834035Y-93366518D01*
X93785357Y-93411435D01*
X93715618Y-93444336D01*
X93620906Y-93467858D01*
X93507450Y-93483574D01*
X93412037Y-93495848D01*
X93348904Y-93508936D01*
X93317544Y-93522951D01*
X93315019Y-93525909D01*
X93292466Y-93584895D01*
X93286111Y-93656031D01*
X93295145Y-93727072D01*
X93318759Y-93785775D01*
X93333420Y-93804400D01*
X93357116Y-93821643D01*
X93390902Y-93831483D01*
X93443436Y-93835704D01*
X93488283Y-93836281D01*
X93568255Y-93832457D01*
X93622098Y-93818316D01*
X93655864Y-93789851D01*
X93675606Y-93743058D01*
X93682754Y-93707594D01*
X93693641Y-93639509D01*
X93894594Y-93639509D01*
X93884696Y-93723080D01*
X93862626Y-93817445D01*
X93819595Y-93889476D01*
X93752251Y-93944508D01*
X93741609Y-93950652D01*
X93701467Y-93970315D01*
X93660165Y-93982979D01*
X93608263Y-93990423D01*
X93536322Y-93994429D01*
X93504681Y-93995348D01*
X93426994Y-93995323D01*
X93357836Y-93991728D01*
X93306918Y-93985211D01*
X93291511Y-93981125D01*
X93201390Y-93933121D01*
X93137791Y-93866050D01*
X93117785Y-93829705D01*
X93107463Y-93803450D01*
X93099715Y-93773060D01*
X93094179Y-93733616D01*
X93090490Y-93680198D01*
X93088286Y-93607886D01*
X93087205Y-93511762D01*
X93086900Y-93411019D01*
X93087528Y-93276615D01*
X93088233Y-93250420D01*
X93283312Y-93250420D01*
X93284006Y-93314874D01*
X93286870Y-93351785D01*
X93293071Y-93366388D01*
X93303781Y-93363920D01*
X93307950Y-93360714D01*
X93334832Y-93349841D01*
X93385225Y-93338517D01*
X93449932Y-93328657D01*
X93475723Y-93325758D01*
X93561215Y-93314539D01*
X93619107Y-93298690D01*
X93654586Y-93274204D01*
X93672842Y-93237075D01*
X93679063Y-93183296D01*
X93679334Y-93168539D01*
X93672273Y-93088007D01*
X93647329Y-93032818D01*
X93601046Y-92999605D01*
X93529974Y-92985000D01*
X93489662Y-92983602D01*
X93411818Y-92988652D01*
X93355614Y-93006543D01*
X93317872Y-93041384D01*
X93295414Y-93097286D01*
X93285060Y-93178359D01*
X93283312Y-93250420D01*
X93088233Y-93250420D01*
X93090381Y-93170623D01*
X93096448Y-93088685D01*
G37*
G36*
X90596926Y-93138169D02*
G01*
X90600260Y-93088771D01*
X90605493Y-93052399D01*
X90613050Y-93024112D01*
X90623354Y-92998968D01*
X90630988Y-92983420D01*
X90667711Y-92927688D01*
X90718314Y-92886545D01*
X90749487Y-92869262D01*
X90792471Y-92849552D01*
X90833633Y-92837221D01*
X90882778Y-92830617D01*
X90949710Y-92828088D01*
X90995452Y-92827836D01*
X91074641Y-92828792D01*
X91130357Y-92832717D01*
X91171895Y-92841214D01*
X91208549Y-92855888D01*
X91232968Y-92868830D01*
X91284626Y-92904603D01*
X91329264Y-92946834D01*
X91342138Y-92963283D01*
X91376185Y-93038073D01*
X91391426Y-93126325D01*
X91388462Y-93218282D01*
X91367895Y-93304188D01*
X91330328Y-93374289D01*
X91315742Y-93390870D01*
X91272981Y-93424667D01*
X91218203Y-93449718D01*
X91145348Y-93467830D01*
X91048355Y-93480813D01*
X90999992Y-93485090D01*
X90915941Y-93493166D01*
X90859290Y-93504702D01*
X90824659Y-93524274D01*
X90806671Y-93556457D01*
X90799948Y-93605825D01*
X90799064Y-93656034D01*
X90802832Y-93732480D01*
X90817544Y-93784047D01*
X90848316Y-93815407D01*
X90900262Y-93831229D01*
X90978497Y-93836183D01*
X90996463Y-93836281D01*
X91059828Y-93835250D01*
X91099654Y-93830427D01*
X91125178Y-93819222D01*
X91145634Y-93799044D01*
X91150424Y-93793076D01*
X91175718Y-93743002D01*
X91184409Y-93694690D01*
X91184409Y-93639509D01*
X91402037Y-93639509D01*
X91391458Y-93716687D01*
X91366444Y-93816530D01*
X91320981Y-93892569D01*
X91253035Y-93948135D01*
X91248627Y-93950652D01*
X91208762Y-93970313D01*
X91167646Y-93982992D01*
X91115874Y-93990472D01*
X91044039Y-93994539D01*
X91012234Y-93995491D01*
X90910720Y-93995338D01*
X90835742Y-93988482D01*
X90783395Y-93975098D01*
X90730956Y-93949851D01*
X90685128Y-93919333D01*
X90678796Y-93913861D01*
X90652658Y-93887291D01*
X90632482Y-93858678D01*
X90617509Y-93823540D01*
X90606978Y-93777396D01*
X90600132Y-93715764D01*
X90596209Y-93634163D01*
X90594452Y-93528110D01*
X90594093Y-93413943D01*
X90594267Y-93295813D01*
X90594759Y-93240545D01*
X90790865Y-93240545D01*
X90791501Y-93308019D01*
X90794111Y-93347844D01*
X90799747Y-93365157D01*
X90809463Y-93365092D01*
X90815503Y-93360714D01*
X90842419Y-93349813D01*
X90892804Y-93338481D01*
X90957419Y-93328649D01*
X90982354Y-93325852D01*
X91067263Y-93315047D01*
X91124631Y-93300175D01*
X91159711Y-93277007D01*
X91177758Y-93241316D01*
X91184024Y-93188873D01*
X91184409Y-93163252D01*
X91178460Y-93086287D01*
X91157594Y-93035164D01*
X91117286Y-93004618D01*
X91053007Y-92989387D01*
X91033193Y-92987398D01*
X90941893Y-92988018D01*
X90870279Y-93005551D01*
X90822469Y-93038684D01*
X90809679Y-93058637D01*
X90800951Y-93093946D01*
X90794374Y-93151309D01*
X90791059Y-93220006D01*
X90790865Y-93240545D01*
X90594759Y-93240545D01*
X90595070Y-93205536D01*
X90596926Y-93138169D01*
G37*
G36*
X89438308Y-92380730D02*
G01*
X89505354Y-92346503D01*
X89593431Y-92329316D01*
X89634302Y-92327695D01*
X89693999Y-92323274D01*
X89722872Y-92308924D01*
X89721828Y-92283014D01*
X89691770Y-92243913D01*
X89684767Y-92236762D01*
X89639884Y-92204938D01*
X89590110Y-92199151D01*
X89527579Y-92218752D01*
X89518317Y-92223029D01*
X89476844Y-92238996D01*
X89450334Y-92237249D01*
X89437950Y-92229220D01*
X89416972Y-92205739D01*
X89421650Y-92186138D01*
X89454513Y-92164610D01*
X89469231Y-92157388D01*
X89541147Y-92135220D01*
X89617093Y-92131323D01*
X89688805Y-92144012D01*
X89748021Y-92171606D01*
X89786476Y-92212423D01*
X89791311Y-92222963D01*
X89797789Y-92256081D01*
X89802965Y-92313153D01*
X89806213Y-92385347D01*
X89807005Y-92443546D01*
X89807005Y-92622853D01*
X89766010Y-92622853D01*
X89734302Y-92615588D01*
X89725034Y-92589155D01*
X89725016Y-92587199D01*
X89725016Y-92551546D01*
X89685043Y-92589099D01*
X89635887Y-92617464D01*
X89570850Y-92633030D01*
X89505170Y-92633351D01*
X89468507Y-92623868D01*
X89421255Y-92588172D01*
X89389113Y-92534905D01*
X89380665Y-92491672D01*
X89383342Y-92480614D01*
X89479051Y-92480614D01*
X89487244Y-92519042D01*
X89498728Y-92537585D01*
X89533665Y-92553317D01*
X89584304Y-92556285D01*
X89636456Y-92547221D01*
X89673957Y-92528567D01*
X89701802Y-92491893D01*
X89718818Y-92446578D01*
X89729116Y-92393286D01*
X89652462Y-92393286D01*
X89579093Y-92400942D01*
X89522005Y-92421924D01*
X89487111Y-92453255D01*
X89479051Y-92480614D01*
X89383342Y-92480614D01*
X89395632Y-92429839D01*
X89438308Y-92380730D01*
G37*
G36*
X90527919Y-92152763D02*
G01*
X90564164Y-92177900D01*
X90616741Y-92224878D01*
X90623836Y-92423866D01*
X90630931Y-92622853D01*
X90531404Y-92622853D01*
X90525854Y-92441127D01*
X90522670Y-92359588D01*
X90518266Y-92304501D01*
X90511485Y-92269523D01*
X90501170Y-92248311D01*
X90488474Y-92236156D01*
X90433453Y-92214527D01*
X90374265Y-92220886D01*
X90322786Y-92253160D01*
X90304342Y-92274005D01*
X90292586Y-92297030D01*
X90286026Y-92329823D01*
X90283173Y-92379972D01*
X90282538Y-92455064D01*
X90282537Y-92458131D01*
X90282537Y-92622853D01*
X90183274Y-92622853D01*
X90187812Y-92380987D01*
X90189727Y-92287450D01*
X90191956Y-92221664D01*
X90195369Y-92178588D01*
X90200834Y-92153183D01*
X90209220Y-92140409D01*
X90221397Y-92135226D01*
X90230441Y-92133725D01*
X90263744Y-92138719D01*
X90277379Y-92162160D01*
X90284861Y-92184368D01*
X90296923Y-92185746D01*
X90323648Y-92166555D01*
X90327587Y-92163458D01*
X90389056Y-92134450D01*
X90459400Y-92131103D01*
X90527919Y-92152763D01*
G37*
G36*
X88890550Y-92003322D02*
G01*
X88902289Y-92020208D01*
X88905118Y-92059620D01*
X88905132Y-92065332D01*
X88905132Y-92130923D01*
X88970723Y-92130923D01*
X89012982Y-92133160D01*
X89031765Y-92143714D01*
X89036290Y-92168347D01*
X89036314Y-92171917D01*
X89032734Y-92198329D01*
X89015847Y-92210068D01*
X88976435Y-92212897D01*
X88970723Y-92212911D01*
X88905132Y-92212911D01*
X88905132Y-92359319D01*
X88908270Y-92447934D01*
X88918776Y-92507593D01*
X88938293Y-92541632D01*
X88968464Y-92553388D01*
X88998824Y-92549649D01*
X89026822Y-92546215D01*
X89034993Y-92561589D01*
X89033362Y-92585358D01*
X89025039Y-92616841D01*
X89002814Y-92630666D01*
X88970723Y-92634506D01*
X88920107Y-92632601D01*
X88877655Y-92623213D01*
X88876927Y-92622918D01*
X88855667Y-92610412D01*
X88840682Y-92589743D01*
X88830678Y-92555399D01*
X88824355Y-92501870D01*
X88820419Y-92423644D01*
X88819027Y-92376888D01*
X88814945Y-92221110D01*
X88761653Y-92215972D01*
X88724176Y-92207970D01*
X88709832Y-92188674D01*
X88708360Y-92170878D01*
X88712839Y-92143820D01*
X88732663Y-92132750D01*
X88765752Y-92130923D01*
X88802498Y-92128937D01*
X88818828Y-92116677D01*
X88823016Y-92084686D01*
X88823144Y-92065332D01*
X88825382Y-92023073D01*
X88835936Y-92004291D01*
X88860568Y-91999765D01*
X88864138Y-91999742D01*
X88890550Y-92003322D01*
G37*
G36*
X97530397Y-92820941D02*
G01*
X97592506Y-92824677D01*
X97631055Y-92832761D01*
X97650649Y-92846742D01*
X97655893Y-92868164D01*
X97652903Y-92891446D01*
X97642462Y-92942073D01*
X97631114Y-92972436D01*
X97611352Y-92987152D01*
X97575667Y-92990838D01*
X97516552Y-92988109D01*
X97497524Y-92986983D01*
X97392688Y-92986905D01*
X97317095Y-93000618D01*
X97270169Y-93028267D01*
X97257628Y-93046595D01*
X97254092Y-93069621D01*
X97250482Y-93120936D01*
X97246975Y-93196034D01*
X97243748Y-93290409D01*
X97240977Y-93399555D01*
X97238839Y-93518967D01*
X97238701Y-93528825D01*
X97232449Y-93983860D01*
X97036558Y-93983860D01*
X97041568Y-93504228D01*
X97043074Y-93366223D01*
X97044594Y-93257040D01*
X97046456Y-93172706D01*
X97048983Y-93109247D01*
X97052500Y-93062693D01*
X97057333Y-93029071D01*
X97063806Y-93004407D01*
X97072245Y-92984730D01*
X97082975Y-92966067D01*
X97086001Y-92961180D01*
X97140832Y-92897904D01*
X97215982Y-92854011D01*
X97314189Y-92828411D01*
X97438194Y-92820010D01*
X97440123Y-92820009D01*
X97530397Y-92820941D01*
G37*
X80630000Y-113870000D02*
X80630000Y-113555000D01*
X85870000Y-111445000D02*
X85870000Y-111130000D01*
X85870000Y-111130000D02*
X80630000Y-111130000D01*
X85870000Y-113870000D02*
X80630000Y-113870000D01*
X80630000Y-111445000D02*
X80630000Y-111130000D01*
X85870000Y-113870000D02*
X85870000Y-113555000D01*
X100110000Y-90870000D02*
X100110000Y-101150000D01*
X101760000Y-90870000D02*
X100110000Y-90870000D01*
X100110000Y-101150000D02*
X105410000Y-101150000D01*
X105410000Y-90870000D02*
X103760000Y-90870000D01*
X105410000Y-101150000D02*
X105410000Y-90870000D01*
X101760000Y-90870000D02*
G75*
G03*
X103760000Y-90870000I1000000J0D01*
G01*
%LPC*%
G36*
X81654059Y-92039807D02*
G01*
X81748966Y-92007092D01*
X81759483Y-91958054D01*
X81768021Y-91912818D01*
X81769412Y-91881160D01*
X81762001Y-91857427D01*
X81744132Y-91835967D01*
X81717171Y-91813477D01*
X81686153Y-91786091D01*
X81659372Y-91756975D01*
X81645276Y-91736812D01*
X81626209Y-91701406D01*
X81664525Y-91615415D01*
X81681770Y-91577707D01*
X81696389Y-91547564D01*
X81706282Y-91529231D01*
X81708921Y-91525735D01*
X81720752Y-91525912D01*
X81747604Y-91529395D01*
X81784896Y-91535532D01*
X81810000Y-91540144D01*
X81851213Y-91547251D01*
X81884641Y-91551617D01*
X81905741Y-91552724D01*
X81910584Y-91551621D01*
X81919268Y-91541351D01*
X81937421Y-91519899D01*
X81961590Y-91491346D01*
X81969305Y-91482231D01*
X82022443Y-91419463D01*
X81986680Y-91327231D01*
X81950916Y-91235000D01*
X81977958Y-91212530D01*
X82001144Y-91194457D01*
X82032896Y-91171154D01*
X82057491Y-91153818D01*
X82109982Y-91117576D01*
X82152491Y-91153005D01*
X82184748Y-91179942D01*
X82217510Y-91207378D01*
X82230000Y-91217865D01*
X82265000Y-91247296D01*
X82350000Y-91215050D01*
X82435000Y-91182805D01*
X82450000Y-91087080D01*
X82456907Y-91045655D01*
X82463259Y-91012266D01*
X82468152Y-90991442D01*
X82470000Y-90986872D01*
X82481515Y-90984260D01*
X82508372Y-90980908D01*
X82545953Y-90977343D01*
X82570773Y-90975391D01*
X82666547Y-90968392D01*
X82692171Y-91026696D01*
X82708080Y-91064571D01*
X82722278Y-91101207D01*
X82729361Y-91121554D01*
X82736548Y-91141107D01*
X82746125Y-91153084D01*
X82763266Y-91160641D01*
X82793147Y-91166933D01*
X82807963Y-91169488D01*
X82844520Y-91175982D01*
X82874589Y-91181841D01*
X82890919Y-91185606D01*
X82905209Y-91180674D01*
X82928293Y-91159544D01*
X82960707Y-91121707D01*
X82969205Y-91111010D01*
X83031571Y-91031677D01*
X83068285Y-91046987D01*
X83134282Y-91076596D01*
X83182699Y-91103332D01*
X83215524Y-91128459D01*
X83234310Y-91152420D01*
X83243188Y-91170762D01*
X83247407Y-91187809D01*
X83247138Y-91209353D01*
X83242554Y-91241185D01*
X83237752Y-91267917D01*
X83222771Y-91349206D01*
X83315241Y-91427178D01*
X83400120Y-91394225D01*
X83438854Y-91379556D01*
X83470921Y-91368093D01*
X83491479Y-91361537D01*
X83495748Y-91360636D01*
X83505622Y-91368126D01*
X83523696Y-91388746D01*
X83547276Y-91418857D01*
X83573664Y-91454818D01*
X83600164Y-91492990D01*
X83624080Y-91529734D01*
X83637292Y-91551699D01*
X83658380Y-91588398D01*
X83593403Y-91664248D01*
X83528425Y-91740098D01*
X83544794Y-91789382D01*
X83551952Y-91810728D01*
X83559084Y-91825535D01*
X83569831Y-91835687D01*
X83587836Y-91843071D01*
X83616740Y-91849571D01*
X83660184Y-91857072D01*
X83682851Y-91860842D01*
X83719355Y-91867659D01*
X83741731Y-91875021D01*
X83755679Y-91886079D01*
X83766899Y-91903983D01*
X83769294Y-91908616D01*
X83780228Y-91939897D01*
X83789727Y-91986004D01*
X83796727Y-92041768D01*
X83796744Y-92041951D01*
X83805604Y-92138846D01*
X83710417Y-92172867D01*
X83615231Y-92206888D01*
X83608036Y-92250944D01*
X83602301Y-92285133D01*
X83596945Y-92315635D01*
X83595801Y-92321846D01*
X83595225Y-92337448D01*
X83601991Y-92352301D01*
X83619069Y-92370511D01*
X83649429Y-92396183D01*
X83649839Y-92396515D01*
X83681402Y-92425076D01*
X83708184Y-92454669D01*
X83724567Y-92479058D01*
X83724915Y-92479811D01*
X83731972Y-92496846D01*
X83734628Y-92511489D01*
X83731918Y-92528496D01*
X83722875Y-92552622D01*
X83706534Y-92588624D01*
X83699974Y-92602642D01*
X83681781Y-92639965D01*
X83666183Y-92669218D01*
X83655339Y-92686488D01*
X83652018Y-92689471D01*
X83639710Y-92687448D01*
X83612516Y-92682460D01*
X83575180Y-92675385D01*
X83553126Y-92671134D01*
X83461253Y-92653325D01*
X83405626Y-92720942D01*
X83380622Y-92752303D01*
X83361443Y-92778197D01*
X83351042Y-92794558D01*
X83350000Y-92797558D01*
X83353453Y-92810293D01*
X83362711Y-92836938D01*
X83376120Y-92872846D01*
X83384012Y-92893194D01*
X83418025Y-92979831D01*
X83348423Y-93030455D01*
X83315173Y-93054137D01*
X83287110Y-93073210D01*
X83268863Y-93084561D01*
X83265663Y-93086129D01*
X83252867Y-93082153D01*
X83229269Y-93067330D01*
X83198824Y-93044317D01*
X83179845Y-93028487D01*
X83107186Y-92965795D01*
X82935000Y-93026647D01*
X82918734Y-93123755D01*
X82911473Y-93165322D01*
X82905066Y-93198768D01*
X82900392Y-93219671D01*
X82898734Y-93224407D01*
X82887798Y-93226613D01*
X82861420Y-93229663D01*
X82824114Y-93233077D01*
X82798280Y-93235106D01*
X82701560Y-93242261D01*
X82682150Y-93203630D01*
X82667373Y-93170641D01*
X82651877Y-93130719D01*
X82645330Y-93111786D01*
X82636372Y-93085108D01*
X82627716Y-93067628D01*
X82615038Y-93056448D01*
X82594014Y-93048666D01*
X82560319Y-93041381D01*
X82532473Y-93036091D01*
X82459947Y-93022313D01*
X82399007Y-93098656D01*
X82372414Y-93131186D01*
X82350269Y-93156816D01*
X82335573Y-93172151D01*
X82331533Y-93175000D01*
X82320117Y-93171166D01*
X82294862Y-93160874D01*
X82260140Y-93145939D01*
X82238770Y-93136484D01*
X82195021Y-93115846D01*
X82165698Y-93098701D01*
X82146355Y-93081921D01*
X82132543Y-93062380D01*
X82132012Y-93061442D01*
X82120933Y-93039645D01*
X82116565Y-93021136D01*
X82118398Y-92998297D01*
X82125585Y-92964957D01*
X82133234Y-92928921D01*
X82138420Y-92897789D01*
X82139843Y-92882359D01*
X82132316Y-92861626D01*
X82113198Y-92836468D01*
X82088026Y-92812783D01*
X82062338Y-92796468D01*
X82057385Y-92794526D01*
X82040565Y-92795256D01*
X82010552Y-92802256D01*
X81972645Y-92814179D01*
X81954970Y-92820585D01*
X81911128Y-92836197D01*
X81882001Y-92844007D01*
X81864206Y-92844727D01*
X81856526Y-92841267D01*
X81841180Y-92824676D01*
X81820287Y-92797019D01*
X81796304Y-92762208D01*
X81771692Y-92724154D01*
X81748907Y-92686769D01*
X81730409Y-92653964D01*
X81718655Y-92629650D01*
X81716072Y-92617792D01*
X81725839Y-92604858D01*
X81745415Y-92581254D01*
X81771264Y-92551203D01*
X81782859Y-92537994D01*
X81842032Y-92470989D01*
X81824241Y-92422994D01*
X81813806Y-92395223D01*
X81806534Y-92376579D01*
X81804639Y-92372247D01*
X81794652Y-92369528D01*
X81769512Y-92364612D01*
X81733830Y-92358373D01*
X81716782Y-92355565D01*
X81676684Y-92348554D01*
X81643882Y-92341859D01*
X81623620Y-92336586D01*
X81620297Y-92335184D01*
X81602625Y-92314420D01*
X81587852Y-92277949D01*
X81577555Y-92230017D01*
X81575674Y-92214989D01*
X81571169Y-92173795D01*
X81566564Y-92133412D01*
X81564220Y-92113760D01*
X81560522Y-92083670D01*
X82044283Y-92083670D01*
X82044572Y-92185054D01*
X82062233Y-92285419D01*
X82098166Y-92382573D01*
X82100696Y-92387791D01*
X82147065Y-92461613D01*
X82209794Y-92530693D01*
X82285366Y-92592542D01*
X82370270Y-92644668D01*
X82460989Y-92684578D01*
X82554010Y-92709782D01*
X82555194Y-92709997D01*
X82604426Y-92714998D01*
X82665193Y-92715520D01*
X82729714Y-92711995D01*
X82790206Y-92704853D01*
X82838886Y-92694527D01*
X82840000Y-92694198D01*
X82945834Y-92652718D01*
X83040809Y-92595729D01*
X83123597Y-92524984D01*
X83192870Y-92442238D01*
X83247303Y-92349244D01*
X83285569Y-92247758D01*
X83306339Y-92139533D01*
X83309852Y-92072992D01*
X83303109Y-91970736D01*
X83281676Y-91880013D01*
X83244341Y-91797576D01*
X83189890Y-91720176D01*
X83169044Y-91696370D01*
X83085792Y-91619716D01*
X82992913Y-91559734D01*
X82892543Y-91516922D01*
X82786820Y-91491778D01*
X82677880Y-91484800D01*
X82567859Y-91496485D01*
X82458895Y-91527332D01*
X82453090Y-91529550D01*
X82356972Y-91576698D01*
X82271926Y-91638170D01*
X82198852Y-91711774D01*
X82138651Y-91795318D01*
X82092223Y-91886610D01*
X82060467Y-91983458D01*
X82044283Y-92083670D01*
X81560522Y-92083670D01*
X81559152Y-92072521D01*
X81654059Y-92039807D01*
G37*
G36*
X83121805Y-93774486D02*
G01*
X83157438Y-93750960D01*
X83181550Y-93731920D01*
X83196753Y-93714138D01*
X83205656Y-93694384D01*
X83210868Y-93669430D01*
X83215001Y-93636047D01*
X83215975Y-93627672D01*
X83218896Y-93593913D01*
X83216334Y-93571279D01*
X83206172Y-93551178D01*
X83192677Y-93533089D01*
X83170715Y-93502828D01*
X83151727Y-93472863D01*
X83147118Y-93464444D01*
X83140543Y-93450248D01*
X83138416Y-93437604D01*
X83142088Y-93422446D01*
X83152912Y-93400704D01*
X83172240Y-93368311D01*
X83187009Y-93344444D01*
X83210131Y-93307310D01*
X83229127Y-93277033D01*
X83241673Y-93257301D01*
X83245455Y-93251638D01*
X83255871Y-93252064D01*
X83280852Y-93256210D01*
X83315491Y-93263233D01*
X83324429Y-93265194D01*
X83400469Y-93282112D01*
X83452734Y-93245691D01*
X83483268Y-93224252D01*
X83509280Y-93205706D01*
X83522608Y-93195953D01*
X83534968Y-93177240D01*
X83544612Y-93141073D01*
X83549325Y-93110101D01*
X83554846Y-93073642D01*
X83560900Y-93045222D01*
X83566262Y-93030485D01*
X83566716Y-93029978D01*
X83579914Y-93024324D01*
X83607250Y-93016303D01*
X83643255Y-93007489D01*
X83650000Y-93005991D01*
X83689170Y-92997303D01*
X83722858Y-92989610D01*
X83744419Y-92984434D01*
X83745847Y-92984062D01*
X83758574Y-92984145D01*
X83772127Y-92993430D01*
X83789604Y-93014849D01*
X83809602Y-93044390D01*
X83834592Y-93079142D01*
X83857115Y-93103913D01*
X83873697Y-93114883D01*
X83873755Y-93114896D01*
X83894728Y-93119019D01*
X83927566Y-93124996D01*
X83957930Y-93130290D01*
X84020861Y-93141036D01*
X84083147Y-93091474D01*
X84145432Y-93041912D01*
X84237223Y-93098456D01*
X84284473Y-93128725D01*
X84316244Y-93153549D01*
X84334701Y-93176905D01*
X84342006Y-93202771D01*
X84340323Y-93235124D01*
X84332700Y-93274012D01*
X84317597Y-93341338D01*
X84354686Y-93395189D01*
X84376356Y-93424896D01*
X84393761Y-93441884D01*
X84413024Y-93450527D01*
X84438387Y-93454960D01*
X84482793Y-93460303D01*
X84514767Y-93465236D01*
X84537065Y-93472751D01*
X84552444Y-93485841D01*
X84563662Y-93507497D01*
X84573475Y-93540714D01*
X84584639Y-93588482D01*
X84592366Y-93622085D01*
X84617359Y-93729170D01*
X84485131Y-93815000D01*
X84471957Y-93888634D01*
X84458782Y-93962268D01*
X84498867Y-94009807D01*
X84525486Y-94043220D01*
X84540923Y-94070264D01*
X84545100Y-94095652D01*
X84537939Y-94124098D01*
X84519362Y-94160316D01*
X84495746Y-94198816D01*
X84439433Y-94288064D01*
X84382216Y-94274388D01*
X84335997Y-94264690D01*
X84301688Y-94262632D01*
X84272184Y-94269657D01*
X84240377Y-94287208D01*
X84208743Y-94309618D01*
X84142486Y-94358543D01*
X84135387Y-94434295D01*
X84131311Y-94472891D01*
X84126799Y-94496058D01*
X84119988Y-94508314D01*
X84109012Y-94514179D01*
X84101644Y-94516068D01*
X84077339Y-94521658D01*
X84042428Y-94529800D01*
X84015000Y-94536249D01*
X83979916Y-94544488D01*
X83950760Y-94551265D01*
X83936929Y-94554417D01*
X83923696Y-94551314D01*
X83906759Y-94535180D01*
X83884000Y-94503826D01*
X83875732Y-94491142D01*
X83832604Y-94423859D01*
X83750305Y-94411260D01*
X83713488Y-94405794D01*
X83686598Y-94403786D01*
X83664693Y-94406875D01*
X83642830Y-94416704D01*
X83616068Y-94434911D01*
X83579464Y-94463138D01*
X83568748Y-94471521D01*
X83556342Y-94480690D01*
X83545191Y-94485292D01*
X83531919Y-94484177D01*
X83513151Y-94476190D01*
X83485512Y-94460181D01*
X83445625Y-94434996D01*
X83427205Y-94423197D01*
X83385195Y-94394007D01*
X83359135Y-94368133D01*
X83346781Y-94340589D01*
X83345888Y-94306386D01*
X83354142Y-94260843D01*
X83369118Y-94195184D01*
X83332708Y-94142318D01*
X83313573Y-94115813D01*
X83296718Y-94098549D01*
X83276845Y-94087888D01*
X83248656Y-94081192D01*
X83206851Y-94075823D01*
X83196952Y-94074737D01*
X83163212Y-94069969D01*
X83143751Y-94063141D01*
X83132860Y-94051505D01*
X83128315Y-94041712D01*
X83122010Y-94022206D01*
X83113329Y-93990714D01*
X83103361Y-93951803D01*
X83093194Y-93910038D01*
X83083918Y-93869987D01*
X83076622Y-93836214D01*
X83072393Y-93813288D01*
X83072169Y-93808456D01*
X83425757Y-93808456D01*
X83439805Y-93890312D01*
X83472711Y-93965675D01*
X83524333Y-94034089D01*
X83529525Y-94039513D01*
X83598080Y-94096253D01*
X83676129Y-94137083D01*
X83760378Y-94161068D01*
X83847536Y-94167272D01*
X83934310Y-94154759D01*
X83934650Y-94154670D01*
X84018133Y-94123674D01*
X84091155Y-94078271D01*
X84152498Y-94020834D01*
X84200946Y-93953738D01*
X84235283Y-93879356D01*
X84254294Y-93800062D01*
X84256762Y-93718229D01*
X84241470Y-93636230D01*
X84224086Y-93589757D01*
X84186743Y-93528197D01*
X84133478Y-93471006D01*
X84068361Y-93422079D01*
X84022585Y-93397014D01*
X83990184Y-93382393D01*
X83963301Y-93373051D01*
X83935632Y-93367817D01*
X83900875Y-93365523D01*
X83852728Y-93365000D01*
X83850000Y-93365000D01*
X83801059Y-93365467D01*
X83765808Y-93367651D01*
X83737945Y-93372718D01*
X83711167Y-93381839D01*
X83679172Y-93396183D01*
X83677414Y-93397014D01*
X83596860Y-93445516D01*
X83530128Y-93507395D01*
X83478585Y-93580857D01*
X83443599Y-93664110D01*
X83430708Y-93720566D01*
X83425757Y-93808456D01*
X83072169Y-93808456D01*
X83072042Y-93805727D01*
X83121805Y-93774486D01*
G37*
G36*
X83889873Y-91487339D02*
G01*
X83893504Y-91459210D01*
X83896396Y-91425416D01*
X83894590Y-91402840D01*
X83885559Y-91383450D01*
X83866774Y-91359214D01*
X83859201Y-91350203D01*
X83818543Y-91301985D01*
X83856771Y-91231180D01*
X83875685Y-91196543D01*
X83890412Y-91175486D01*
X83906277Y-91165697D01*
X83928608Y-91164863D01*
X83962731Y-91170670D01*
X83985521Y-91175270D01*
X84007300Y-91170533D01*
X84039397Y-91149430D01*
X84058021Y-91133918D01*
X84085484Y-91109071D01*
X84101037Y-91090686D01*
X84108059Y-91072336D01*
X84109934Y-91047594D01*
X84110000Y-91035128D01*
X84110000Y-90981807D01*
X84184722Y-90956684D01*
X84259444Y-90931560D01*
X84300653Y-90980780D01*
X84323653Y-91007358D01*
X84341125Y-91022080D01*
X84360351Y-91028449D01*
X84388615Y-91029966D01*
X84403009Y-91030000D01*
X84438330Y-91029009D01*
X84461762Y-91024008D01*
X84481392Y-91011956D01*
X84502479Y-90992578D01*
X84540802Y-90955157D01*
X84615640Y-90993682D01*
X84651200Y-91013358D01*
X84679898Y-91031774D01*
X84696880Y-91045731D01*
X84698981Y-91048604D01*
X84702529Y-91067385D01*
X84702388Y-91097705D01*
X84700345Y-91118977D01*
X84697080Y-91151552D01*
X84699559Y-91172844D01*
X84709920Y-91191244D01*
X84722639Y-91206477D01*
X84742699Y-91226666D01*
X84762092Y-91236609D01*
X84789391Y-91239816D01*
X84804486Y-91240000D01*
X84836562Y-91241772D01*
X84859886Y-91249245D01*
X84877591Y-91265656D01*
X84892810Y-91294242D01*
X84908678Y-91338237D01*
X84913190Y-91352264D01*
X84937683Y-91429393D01*
X84901341Y-91456188D01*
X84869161Y-91481933D01*
X84850640Y-91504271D01*
X84842135Y-91529829D01*
X84840004Y-91565237D01*
X84840000Y-91567821D01*
X84841849Y-91602924D01*
X84849898Y-91628346D01*
X84867898Y-91654255D01*
X84875000Y-91662710D01*
X84894609Y-91687303D01*
X84907310Y-91706463D01*
X84910000Y-91713338D01*
X84905409Y-91726329D01*
X84893322Y-91751418D01*
X84876262Y-91783395D01*
X84874618Y-91786345D01*
X84839237Y-91849613D01*
X84781975Y-91843628D01*
X84748667Y-91841031D01*
X84726210Y-91843720D01*
X84705924Y-91854365D01*
X84679856Y-91875028D01*
X84654570Y-91897485D01*
X84640510Y-91916420D01*
X84633602Y-91939838D01*
X84630000Y-91972960D01*
X84625000Y-92033506D01*
X84550000Y-92056563D01*
X84514747Y-92067398D01*
X84488199Y-92075551D01*
X84474979Y-92079604D01*
X84474298Y-92079810D01*
X84468257Y-92072925D01*
X84453712Y-92055227D01*
X84444298Y-92043582D01*
X84425423Y-92019741D01*
X84411791Y-92001837D01*
X84408760Y-91997531D01*
X84396225Y-91991820D01*
X84369717Y-91986468D01*
X84338760Y-91982982D01*
X84303676Y-91980846D01*
X84281416Y-91982700D01*
X84264880Y-91990789D01*
X84246968Y-92007357D01*
X84240538Y-92014032D01*
X84217966Y-92034955D01*
X84199114Y-92047925D01*
X84192639Y-92050000D01*
X84172801Y-92044813D01*
X84142434Y-92031280D01*
X84107453Y-92012442D01*
X84073772Y-91991342D01*
X84061363Y-91982482D01*
X84042689Y-91967475D01*
X84033317Y-91954009D01*
X84031053Y-91935276D01*
X84033702Y-91904467D01*
X84034351Y-91898701D01*
X84037275Y-91864280D01*
X84035106Y-91841557D01*
X84026012Y-91822498D01*
X84012987Y-91805077D01*
X83995330Y-91784992D01*
X83978707Y-91774518D01*
X83955591Y-91770558D01*
X83927730Y-91770000D01*
X83897405Y-91768915D01*
X83875589Y-91763528D01*
X83859263Y-91750642D01*
X83845405Y-91727058D01*
X83830996Y-91689577D01*
X83819692Y-91655600D01*
X83797105Y-91586201D01*
X83836052Y-91553249D01*
X83859378Y-91534413D01*
X83876277Y-91522414D01*
X83881075Y-91520148D01*
X83881951Y-91518208D01*
X84088819Y-91518208D01*
X84091663Y-91565823D01*
X84099007Y-91607840D01*
X84105027Y-91626674D01*
X84137814Y-91680936D01*
X84185555Y-91727061D01*
X84243628Y-91761013D01*
X84269935Y-91770656D01*
X84311178Y-91777615D01*
X84362127Y-91778439D01*
X84413556Y-91773451D01*
X84452663Y-91764248D01*
X84507258Y-91736515D01*
X84558341Y-91693789D01*
X84600586Y-91640994D01*
X84616497Y-91612834D01*
X84637982Y-91549608D01*
X84644204Y-91482917D01*
X84635813Y-91417385D01*
X84613457Y-91357636D01*
X84577787Y-91308293D01*
X84573095Y-91303714D01*
X84515953Y-91262992D01*
X84450746Y-91238385D01*
X84381287Y-91229920D01*
X84311388Y-91237621D01*
X84244862Y-91261516D01*
X84186116Y-91301106D01*
X84135712Y-91357513D01*
X84103561Y-91422062D01*
X84089522Y-91495065D01*
X84088819Y-91518208D01*
X83881951Y-91518208D01*
X83885206Y-91511000D01*
X83889873Y-91487339D01*
G37*
D13*
X96250000Y-103500000D03*
D14*
X88630000Y-103500000D03*
D15*
X97665000Y-124805000D03*
D16*
X102745000Y-124805000D03*
X107825000Y-124805000D03*
D13*
X88630000Y-112500000D03*
D14*
X96250000Y-112500000D03*
D17*
X78500000Y-94000000D03*
X122250000Y-126500000D03*
D18*
X114965000Y-121705000D03*
D19*
X112425000Y-121705000D03*
D13*
X96250000Y-108000000D03*
X91250000Y-108000000D03*
D20*
X91750000Y-127955112D03*
D13*
X91750000Y-125955112D03*
D20*
X98950000Y-107200000D03*
D14*
X98950000Y-109740000D03*
X98950000Y-112280000D03*
X98950000Y-114820000D03*
X106570000Y-114820000D03*
X106570000Y-112280000D03*
X106570000Y-109740000D03*
X106570000Y-107200000D03*
D13*
X110500000Y-102050000D03*
X110500000Y-97050000D03*
X114940000Y-117750000D03*
D14*
X122560000Y-117750000D03*
D17*
X78500000Y-126500000D03*
D13*
X98940000Y-103500000D03*
D14*
X106560000Y-103500000D03*
D13*
X110500000Y-105000000D03*
D14*
X110500000Y-112620000D03*
D20*
X113750000Y-126000000D03*
D13*
X113750000Y-128000000D03*
D18*
X93085000Y-121750000D03*
D19*
X90545000Y-121750000D03*
D21*
X80750000Y-103750000D03*
D22*
X83925000Y-100575000D03*
X77575000Y-100575000D03*
X83925000Y-106925000D03*
X77575000Y-106925000D03*
D13*
X91250000Y-97250000D03*
X96250000Y-97250000D03*
D17*
X122250000Y-94000000D03*
D23*
X116250000Y-108750000D03*
D24*
X121250000Y-103750000D03*
D23*
X116250000Y-98750000D03*
D13*
X90560000Y-117750000D03*
D14*
X82940000Y-117750000D03*
D13*
X85750000Y-112500000D03*
X80750000Y-112500000D03*
D20*
X98950000Y-92200000D03*
D14*
X98950000Y-94740000D03*
X98950000Y-97280000D03*
X98950000Y-99820000D03*
X106570000Y-99820000D03*
X106570000Y-97280000D03*
X106570000Y-94740000D03*
X106570000Y-92200000D03*
M02*
