%TF.GenerationSoftware,KiCad,Pcbnew,(6.0.7-1)-1*%
%TF.CreationDate,2022-08-15T15:41:10-06:00*%
%TF.ProjectId,bpf,6270662e-6b69-4636-9164-5f7063625858,1*%
%TF.SameCoordinates,Original*%
%TF.FileFunction,Copper,L1,Top*%
%TF.FilePolarity,Positive*%
%FSLAX46Y46*%
G04 Gerber Fmt 4.6, Leading zero omitted, Abs format (unit mm)*
G04 Created by KiCad (PCBNEW (6.0.7-1)-1) date 2022-08-15 15:41:10*
%MOMM*%
%LPD*%
G01*
G04 APERTURE LIST*
%TA.AperFunction,ComponentPad*%
%ADD10C,1.600000*%
%TD*%
%TA.AperFunction,ComponentPad*%
%ADD11O,1.600000X1.600000*%
%TD*%
%TA.AperFunction,ComponentPad*%
%ADD12R,2.600000X2.600000*%
%TD*%
%TA.AperFunction,ComponentPad*%
%ADD13C,2.600000*%
%TD*%
%TA.AperFunction,ComponentPad*%
%ADD14R,1.800000X1.800000*%
%TD*%
%TA.AperFunction,ComponentPad*%
%ADD15C,1.800000*%
%TD*%
%TA.AperFunction,ComponentPad*%
%ADD16R,1.600000X1.600000*%
%TD*%
%TA.AperFunction,ComponentPad*%
%ADD17C,3.556000*%
%TD*%
%TA.AperFunction,ComponentPad*%
%ADD18C,3.810000*%
%TD*%
%TA.AperFunction,ComponentPad*%
%ADD19O,2.200000X1.200000*%
%TD*%
%TA.AperFunction,ComponentPad*%
%ADD20O,1.200000X2.200000*%
%TD*%
%TA.AperFunction,Conductor*%
%ADD21C,0.300000*%
%TD*%
G04 APERTURE END LIST*
D10*
X96250000Y-103500000D03*
D11*
X88630000Y-103500000D03*
D12*
X97665000Y-124805000D03*
D13*
X102745000Y-124805000D03*
X107825000Y-124805000D03*
D10*
X88630000Y-112500000D03*
D11*
X96250000Y-112500000D03*
D14*
X114965000Y-121705000D03*
D15*
X112425000Y-121705000D03*
D10*
X96250000Y-108000000D03*
X91250000Y-108000000D03*
D16*
X91750000Y-127955112D03*
D10*
X91750000Y-125955112D03*
D16*
X98950000Y-107200000D03*
D11*
X98950000Y-109740000D03*
X98950000Y-112280000D03*
X98950000Y-114820000D03*
X106570000Y-114820000D03*
X106570000Y-112280000D03*
X106570000Y-109740000D03*
X106570000Y-107200000D03*
D10*
X110500000Y-102050000D03*
X110500000Y-97050000D03*
X114940000Y-117750000D03*
D11*
X122560000Y-117750000D03*
D10*
X98940000Y-103500000D03*
D11*
X106560000Y-103500000D03*
D10*
X110500000Y-105000000D03*
D11*
X110500000Y-112620000D03*
D16*
X113750000Y-126000000D03*
D10*
X113750000Y-128000000D03*
D14*
X93085000Y-121750000D03*
D15*
X90545000Y-121750000D03*
D17*
X80750000Y-103750000D03*
D18*
X83925000Y-100575000D03*
X77575000Y-100575000D03*
X83925000Y-106925000D03*
X77575000Y-106925000D03*
D10*
X91250000Y-97250000D03*
X96250000Y-97250000D03*
D19*
X116250000Y-108750000D03*
D20*
X121250000Y-103750000D03*
D19*
X116250000Y-98750000D03*
D10*
X90560000Y-117750000D03*
D11*
X82940000Y-117750000D03*
D10*
X85750000Y-112500000D03*
X80750000Y-112500000D03*
D16*
X98950000Y-92200000D03*
D11*
X98950000Y-94740000D03*
X98950000Y-97280000D03*
X98950000Y-99820000D03*
X106570000Y-99820000D03*
X106570000Y-97280000D03*
X106570000Y-94740000D03*
X106570000Y-92200000D03*
D21*
X88630000Y-103500000D02*
X88630000Y-106380000D01*
X85750000Y-112500000D02*
X90250000Y-108000000D01*
X90250000Y-108000000D02*
X91250000Y-108000000D01*
X88630000Y-106380000D02*
X90250000Y-108000000D01*
X98920000Y-97250000D02*
X98950000Y-97280000D01*
X97500000Y-98730000D02*
X98950000Y-97280000D01*
X96250000Y-97250000D02*
X98920000Y-97250000D01*
X98940000Y-103500000D02*
X97500000Y-102060000D01*
X97500000Y-102060000D02*
X97500000Y-98730000D01*
X115750000Y-95000000D02*
X116250000Y-95500000D01*
X113500000Y-100050000D02*
X110500000Y-97050000D01*
X112800000Y-94700000D02*
X112800000Y-94335410D01*
X106800000Y-97050000D02*
X106570000Y-97280000D01*
X110500000Y-97050000D02*
X110500000Y-95500000D01*
X110500000Y-95500000D02*
X111000000Y-95000000D01*
X116250000Y-108500000D02*
X113500000Y-105750000D01*
X114300000Y-95000000D02*
X115193198Y-95000000D01*
X110500000Y-97050000D02*
X106800000Y-97050000D01*
X116250000Y-95500000D02*
X116250000Y-98750000D01*
X116250000Y-108750000D02*
X116250000Y-108500000D01*
X113400000Y-94335410D02*
X113400000Y-94700000D01*
X111000000Y-95000000D02*
X112500000Y-95000000D01*
X114000000Y-95664590D02*
X114000000Y-95300000D01*
X115193198Y-95000000D02*
X115750000Y-95000000D01*
X113400000Y-94700000D02*
X113400000Y-95664590D01*
X113500000Y-105750000D02*
X113500000Y-100050000D01*
X113399990Y-94335410D02*
G75*
G03*
X113100000Y-94035410I-299990J10D01*
G01*
X114300000Y-95000000D02*
G75*
G03*
X114000000Y-95300000I0J-300000D01*
G01*
X113100000Y-94035400D02*
G75*
G03*
X112800000Y-94335410I0J-300000D01*
G01*
X113999990Y-95664590D02*
G75*
G02*
X113700000Y-95964590I-299990J-10D01*
G01*
X113700000Y-95964600D02*
G75*
G02*
X113400000Y-95664590I0J300000D01*
G01*
X112800000Y-94700000D02*
G75*
G02*
X112500000Y-95000000I-300000J0D01*
G01*
X110500000Y-105000000D02*
X108060000Y-105000000D01*
X110500000Y-102050000D02*
X108010000Y-102050000D01*
X108010000Y-102050000D02*
X106560000Y-103500000D01*
X108060000Y-105000000D02*
X106560000Y-103500000D01*
X80750000Y-103500000D02*
X80750000Y-112500000D01*
X96250000Y-112500000D02*
X98730000Y-112500000D01*
X98730000Y-112500000D02*
X98950000Y-112280000D01*
X96250000Y-108000000D02*
X96250000Y-112500000D01*
X114965000Y-117775000D02*
X114940000Y-117750000D01*
X114965000Y-121705000D02*
X114965000Y-117775000D01*
X90545000Y-121750000D02*
X90545000Y-117765000D01*
X90545000Y-117765000D02*
X90560000Y-117750000D01*
X106910000Y-112620000D02*
X106570000Y-112280000D01*
X96250000Y-103500000D02*
X97700000Y-104950000D01*
X110500000Y-112620000D02*
X106910000Y-112620000D01*
X97700000Y-108490000D02*
X98950000Y-109740000D01*
X97700000Y-104950000D02*
X97700000Y-108490000D01*
%TA.AperFunction,Conductor*%
G36*
X105674933Y-91028502D02*
G01*
X105721426Y-91082158D01*
X105731530Y-91152432D01*
X105702036Y-91217012D01*
X105695907Y-91223595D01*
X105563802Y-91355700D01*
X105432477Y-91543251D01*
X105430154Y-91548233D01*
X105430151Y-91548238D01*
X105338039Y-91745775D01*
X105335716Y-91750757D01*
X105276457Y-91971913D01*
X105256502Y-92200000D01*
X105276457Y-92428087D01*
X105335716Y-92649243D01*
X105338039Y-92654224D01*
X105338039Y-92654225D01*
X105430151Y-92851762D01*
X105430154Y-92851767D01*
X105432477Y-92856749D01*
X105563802Y-93044300D01*
X105725700Y-93206198D01*
X105730208Y-93209355D01*
X105730211Y-93209357D01*
X105808389Y-93264098D01*
X105913251Y-93337523D01*
X105918233Y-93339846D01*
X105918238Y-93339849D01*
X105953049Y-93356081D01*
X106006334Y-93402998D01*
X106025795Y-93471275D01*
X106005253Y-93539235D01*
X105953049Y-93584471D01*
X105918489Y-93600586D01*
X105908993Y-93606069D01*
X105730533Y-93731028D01*
X105722125Y-93738084D01*
X105568084Y-93892125D01*
X105561028Y-93900533D01*
X105436069Y-94078993D01*
X105430586Y-94088489D01*
X105338510Y-94285947D01*
X105334764Y-94296239D01*
X105288606Y-94468503D01*
X105288942Y-94482599D01*
X105296884Y-94486000D01*
X106698000Y-94486000D01*
X106766121Y-94506002D01*
X106812614Y-94559658D01*
X106824000Y-94612000D01*
X106824000Y-94868000D01*
X106803998Y-94936121D01*
X106750342Y-94982614D01*
X106698000Y-94994000D01*
X105302033Y-94994000D01*
X105288502Y-94997973D01*
X105287273Y-95006522D01*
X105334764Y-95183761D01*
X105338510Y-95194053D01*
X105430586Y-95391511D01*
X105436069Y-95401007D01*
X105561028Y-95579467D01*
X105568084Y-95587875D01*
X105722125Y-95741916D01*
X105730533Y-95748972D01*
X105908993Y-95873931D01*
X105918489Y-95879414D01*
X105953049Y-95895529D01*
X106006334Y-95942446D01*
X106025795Y-96010723D01*
X106005253Y-96078683D01*
X105953049Y-96123919D01*
X105918238Y-96140151D01*
X105918233Y-96140154D01*
X105913251Y-96142477D01*
X105808389Y-96215902D01*
X105730211Y-96270643D01*
X105730208Y-96270645D01*
X105725700Y-96273802D01*
X105563802Y-96435700D01*
X105560645Y-96440208D01*
X105560643Y-96440211D01*
X105520283Y-96497851D01*
X105432477Y-96623251D01*
X105430154Y-96628233D01*
X105430151Y-96628238D01*
X105339840Y-96821913D01*
X105335716Y-96830757D01*
X105276457Y-97051913D01*
X105256502Y-97280000D01*
X105276457Y-97508087D01*
X105335716Y-97729243D01*
X105338039Y-97734224D01*
X105338039Y-97734225D01*
X105430151Y-97931762D01*
X105430154Y-97931767D01*
X105432477Y-97936749D01*
X105435634Y-97941257D01*
X105549142Y-98103363D01*
X105563802Y-98124300D01*
X105725700Y-98286198D01*
X105730208Y-98289355D01*
X105730211Y-98289357D01*
X105767096Y-98315184D01*
X105913251Y-98417523D01*
X105918233Y-98419846D01*
X105918238Y-98419849D01*
X105952457Y-98435805D01*
X106005742Y-98482722D01*
X106025203Y-98550999D01*
X106004661Y-98618959D01*
X105952457Y-98664195D01*
X105918238Y-98680151D01*
X105918233Y-98680154D01*
X105913251Y-98682477D01*
X105894504Y-98695604D01*
X105730211Y-98810643D01*
X105730208Y-98810645D01*
X105725700Y-98813802D01*
X105563802Y-98975700D01*
X105432477Y-99163251D01*
X105430154Y-99168233D01*
X105430151Y-99168238D01*
X105409024Y-99213546D01*
X105335716Y-99370757D01*
X105276457Y-99591913D01*
X105256502Y-99820000D01*
X105276457Y-100048087D01*
X105277881Y-100053400D01*
X105277881Y-100053402D01*
X105293707Y-100112463D01*
X105335716Y-100269243D01*
X105338039Y-100274224D01*
X105338039Y-100274225D01*
X105430151Y-100471762D01*
X105430154Y-100471767D01*
X105432477Y-100476749D01*
X105563802Y-100664300D01*
X105725700Y-100826198D01*
X105730208Y-100829355D01*
X105730211Y-100829357D01*
X105808389Y-100884098D01*
X105913251Y-100957523D01*
X105918233Y-100959846D01*
X105918238Y-100959849D01*
X106098278Y-101043802D01*
X106120757Y-101054284D01*
X106126065Y-101055706D01*
X106126067Y-101055707D01*
X106336598Y-101112119D01*
X106336600Y-101112119D01*
X106341913Y-101113543D01*
X106570000Y-101133498D01*
X106798087Y-101113543D01*
X106803400Y-101112119D01*
X106803402Y-101112119D01*
X107013933Y-101055707D01*
X107013935Y-101055706D01*
X107019243Y-101054284D01*
X107041722Y-101043802D01*
X107221762Y-100959849D01*
X107221767Y-100959846D01*
X107226749Y-100957523D01*
X107331611Y-100884098D01*
X107409789Y-100829357D01*
X107409792Y-100829355D01*
X107414300Y-100826198D01*
X107534905Y-100705593D01*
X107597217Y-100671567D01*
X107668032Y-100676632D01*
X107724868Y-100719179D01*
X107749679Y-100785699D01*
X107750000Y-100794688D01*
X107750000Y-101362132D01*
X107729998Y-101430253D01*
X107689813Y-101467772D01*
X107690244Y-101468365D01*
X107683830Y-101473025D01*
X107652874Y-101495516D01*
X107642952Y-101502033D01*
X107610023Y-101521507D01*
X107610019Y-101521510D01*
X107603193Y-101525547D01*
X107588029Y-101540711D01*
X107572996Y-101553551D01*
X107555643Y-101566159D01*
X107527021Y-101600757D01*
X107526198Y-101601752D01*
X107518208Y-101610532D01*
X106945364Y-102183376D01*
X106883052Y-102217402D01*
X106823659Y-102215988D01*
X106793405Y-102207882D01*
X106788087Y-102206457D01*
X106560000Y-102186502D01*
X106331913Y-102206457D01*
X106326600Y-102207881D01*
X106326598Y-102207881D01*
X106116067Y-102264293D01*
X106116065Y-102264294D01*
X106110757Y-102265716D01*
X106105776Y-102268039D01*
X106105775Y-102268039D01*
X105908238Y-102360151D01*
X105908233Y-102360154D01*
X105903251Y-102362477D01*
X105798389Y-102435902D01*
X105720211Y-102490643D01*
X105720208Y-102490645D01*
X105715700Y-102493802D01*
X105553802Y-102655700D01*
X105550645Y-102660208D01*
X105550643Y-102660211D01*
X105518057Y-102706749D01*
X105422477Y-102843251D01*
X105420154Y-102848233D01*
X105420151Y-102848238D01*
X105375682Y-102943604D01*
X105325716Y-103050757D01*
X105266457Y-103271913D01*
X105246502Y-103500000D01*
X105266457Y-103728087D01*
X105325716Y-103949243D01*
X105328039Y-103954224D01*
X105328039Y-103954225D01*
X105420151Y-104151762D01*
X105420154Y-104151767D01*
X105422477Y-104156749D01*
X105425634Y-104161257D01*
X105526345Y-104305087D01*
X105553802Y-104344300D01*
X105715700Y-104506198D01*
X105720208Y-104509355D01*
X105720211Y-104509357D01*
X105779337Y-104550757D01*
X105903251Y-104637523D01*
X105908233Y-104639846D01*
X105908238Y-104639849D01*
X106105775Y-104731961D01*
X106110757Y-104734284D01*
X106116065Y-104735706D01*
X106116067Y-104735707D01*
X106326598Y-104792119D01*
X106326600Y-104792119D01*
X106331913Y-104793543D01*
X106560000Y-104813498D01*
X106788087Y-104793543D01*
X106793400Y-104792119D01*
X106793402Y-104792119D01*
X106823657Y-104784012D01*
X106894633Y-104785702D01*
X106945363Y-104816623D01*
X107536345Y-105407604D01*
X107544336Y-105416386D01*
X107548584Y-105423080D01*
X107554363Y-105428507D01*
X107600274Y-105471621D01*
X107603083Y-105474343D01*
X107623667Y-105494926D01*
X107626791Y-105497349D01*
X107626793Y-105497351D01*
X107627163Y-105497638D01*
X107636191Y-105505348D01*
X107669867Y-105536972D01*
X107676813Y-105540790D01*
X107676815Y-105540792D01*
X107684698Y-105545125D01*
X107734758Y-105595469D01*
X107750000Y-105655541D01*
X107750000Y-106225312D01*
X107729998Y-106293433D01*
X107676342Y-106339926D01*
X107606068Y-106350030D01*
X107541488Y-106320536D01*
X107534905Y-106314407D01*
X107414300Y-106193802D01*
X107409792Y-106190645D01*
X107409789Y-106190643D01*
X107331611Y-106135902D01*
X107226749Y-106062477D01*
X107221767Y-106060154D01*
X107221762Y-106060151D01*
X107024225Y-105968039D01*
X107024224Y-105968039D01*
X107019243Y-105965716D01*
X107013935Y-105964294D01*
X107013933Y-105964293D01*
X106803402Y-105907881D01*
X106803400Y-105907881D01*
X106798087Y-105906457D01*
X106570000Y-105886502D01*
X106341913Y-105906457D01*
X106336600Y-105907881D01*
X106336598Y-105907881D01*
X106126067Y-105964293D01*
X106126065Y-105964294D01*
X106120757Y-105965716D01*
X106115776Y-105968039D01*
X106115775Y-105968039D01*
X105918238Y-106060151D01*
X105918233Y-106060154D01*
X105913251Y-106062477D01*
X105808389Y-106135902D01*
X105730211Y-106190643D01*
X105730208Y-106190645D01*
X105725700Y-106193802D01*
X105563802Y-106355700D01*
X105432477Y-106543251D01*
X105430154Y-106548233D01*
X105430151Y-106548238D01*
X105338039Y-106745775D01*
X105335716Y-106750757D01*
X105276457Y-106971913D01*
X105256502Y-107200000D01*
X105276457Y-107428087D01*
X105335716Y-107649243D01*
X105338039Y-107654224D01*
X105338039Y-107654225D01*
X105430151Y-107851762D01*
X105430154Y-107851767D01*
X105432477Y-107856749D01*
X105435634Y-107861257D01*
X105548460Y-108022389D01*
X105563802Y-108044300D01*
X105725700Y-108206198D01*
X105730208Y-108209355D01*
X105730211Y-108209357D01*
X105808389Y-108264098D01*
X105913251Y-108337523D01*
X105918233Y-108339846D01*
X105918238Y-108339849D01*
X105953049Y-108356081D01*
X106006334Y-108402998D01*
X106025795Y-108471275D01*
X106005253Y-108539235D01*
X105953049Y-108584471D01*
X105918489Y-108600586D01*
X105908993Y-108606069D01*
X105730533Y-108731028D01*
X105722125Y-108738084D01*
X105568084Y-108892125D01*
X105561028Y-108900533D01*
X105436069Y-109078993D01*
X105430586Y-109088489D01*
X105338510Y-109285947D01*
X105334764Y-109296239D01*
X105288606Y-109468503D01*
X105288942Y-109482599D01*
X105296884Y-109486000D01*
X106698000Y-109486000D01*
X106766121Y-109506002D01*
X106812614Y-109559658D01*
X106824000Y-109612000D01*
X106824000Y-109868000D01*
X106803998Y-109936121D01*
X106750342Y-109982614D01*
X106698000Y-109994000D01*
X105302033Y-109994000D01*
X105288502Y-109997973D01*
X105287273Y-110006522D01*
X105334764Y-110183761D01*
X105338510Y-110194053D01*
X105430586Y-110391511D01*
X105436069Y-110401007D01*
X105561028Y-110579467D01*
X105568084Y-110587875D01*
X105722125Y-110741916D01*
X105730533Y-110748972D01*
X105908993Y-110873931D01*
X105918489Y-110879414D01*
X105953049Y-110895529D01*
X106006334Y-110942446D01*
X106025795Y-111010723D01*
X106005253Y-111078683D01*
X105953049Y-111123919D01*
X105918238Y-111140151D01*
X105918233Y-111140154D01*
X105913251Y-111142477D01*
X105808389Y-111215902D01*
X105730211Y-111270643D01*
X105730208Y-111270645D01*
X105725700Y-111273802D01*
X105563802Y-111435700D01*
X105432477Y-111623251D01*
X105430154Y-111628233D01*
X105430151Y-111628238D01*
X105361389Y-111775700D01*
X105335716Y-111830757D01*
X105276457Y-112051913D01*
X105256502Y-112280000D01*
X105276457Y-112508087D01*
X105335716Y-112729243D01*
X105338039Y-112734224D01*
X105338039Y-112734225D01*
X105430151Y-112931762D01*
X105430154Y-112931767D01*
X105432477Y-112936749D01*
X105435634Y-112941257D01*
X105525251Y-113069243D01*
X105563802Y-113124300D01*
X105725700Y-113286198D01*
X105730208Y-113289355D01*
X105730211Y-113289357D01*
X105747249Y-113301287D01*
X105913251Y-113417523D01*
X105918233Y-113419846D01*
X105918238Y-113419849D01*
X105952457Y-113435805D01*
X106005742Y-113482722D01*
X106025203Y-113550999D01*
X106004661Y-113618959D01*
X105952457Y-113664195D01*
X105918238Y-113680151D01*
X105918233Y-113680154D01*
X105913251Y-113682477D01*
X105808389Y-113755902D01*
X105730211Y-113810643D01*
X105730208Y-113810645D01*
X105725700Y-113813802D01*
X105563802Y-113975700D01*
X105432477Y-114163251D01*
X105430154Y-114168233D01*
X105430151Y-114168238D01*
X105338039Y-114365775D01*
X105335716Y-114370757D01*
X105276457Y-114591913D01*
X105256502Y-114820000D01*
X105276457Y-115048087D01*
X105335716Y-115269243D01*
X105338039Y-115274224D01*
X105338039Y-115274225D01*
X105430151Y-115471762D01*
X105430154Y-115471767D01*
X105432477Y-115476749D01*
X105563802Y-115664300D01*
X105725700Y-115826198D01*
X105730208Y-115829355D01*
X105730211Y-115829357D01*
X105808389Y-115884098D01*
X105913251Y-115957523D01*
X105918233Y-115959846D01*
X105918238Y-115959849D01*
X106115775Y-116051961D01*
X106120757Y-116054284D01*
X106126065Y-116055706D01*
X106126067Y-116055707D01*
X106336598Y-116112119D01*
X106336600Y-116112119D01*
X106341913Y-116113543D01*
X106570000Y-116133498D01*
X106798087Y-116113543D01*
X106803400Y-116112119D01*
X106803402Y-116112119D01*
X107013933Y-116055707D01*
X107013935Y-116055706D01*
X107019243Y-116054284D01*
X107024225Y-116051961D01*
X107221762Y-115959849D01*
X107221767Y-115959846D01*
X107226749Y-115957523D01*
X107331611Y-115884098D01*
X107409789Y-115829357D01*
X107409792Y-115829355D01*
X107414300Y-115826198D01*
X107534905Y-115705593D01*
X107597217Y-115671567D01*
X107668032Y-115676632D01*
X107724868Y-115719179D01*
X107749679Y-115785699D01*
X107750000Y-115794688D01*
X107750000Y-118500000D01*
X108250000Y-119000000D01*
X114180500Y-119000000D01*
X114248621Y-119020002D01*
X114295114Y-119073658D01*
X114306500Y-119126000D01*
X114306500Y-120170500D01*
X114286498Y-120238621D01*
X114232842Y-120285114D01*
X114180500Y-120296500D01*
X114016866Y-120296500D01*
X113954684Y-120303255D01*
X113818295Y-120354385D01*
X113701739Y-120441739D01*
X113614385Y-120558295D01*
X113563255Y-120694684D01*
X113556500Y-120756866D01*
X113556500Y-120880520D01*
X113536498Y-120948641D01*
X113519595Y-120969616D01*
X112797021Y-121692189D01*
X112789408Y-121706132D01*
X112789539Y-121707966D01*
X112793790Y-121714580D01*
X113519595Y-122440384D01*
X113553620Y-122502697D01*
X113556500Y-122529480D01*
X113556500Y-122653134D01*
X113563255Y-122715316D01*
X113614385Y-122851705D01*
X113701739Y-122968261D01*
X113818295Y-123055615D01*
X113954684Y-123106745D01*
X114016866Y-123113500D01*
X115913134Y-123113500D01*
X115975316Y-123106745D01*
X116111705Y-123055615D01*
X116228261Y-122968261D01*
X116273174Y-122908334D01*
X116330033Y-122865819D01*
X116400852Y-122860793D01*
X116463145Y-122894853D01*
X116497135Y-122957184D01*
X116500000Y-122983899D01*
X116500000Y-128947810D01*
X116479998Y-129015931D01*
X116463095Y-129036905D01*
X116045405Y-129454595D01*
X115983093Y-129488621D01*
X115956310Y-129491500D01*
X114196366Y-129491500D01*
X114128245Y-129471498D01*
X114081752Y-129417842D01*
X114071648Y-129347568D01*
X114101142Y-129282988D01*
X114163755Y-129243793D01*
X114193933Y-129235707D01*
X114193935Y-129235706D01*
X114199243Y-129234284D01*
X114204225Y-129231961D01*
X114401762Y-129139849D01*
X114401767Y-129139846D01*
X114406749Y-129137523D01*
X114580400Y-129015931D01*
X114589789Y-129009357D01*
X114589792Y-129009355D01*
X114594300Y-129006198D01*
X114756198Y-128844300D01*
X114887523Y-128656749D01*
X114889846Y-128651767D01*
X114889849Y-128651762D01*
X114981961Y-128454225D01*
X114981961Y-128454224D01*
X114984284Y-128449243D01*
X115043543Y-128228087D01*
X115063498Y-128000000D01*
X115043543Y-127771913D01*
X114984284Y-127550757D01*
X114981961Y-127545775D01*
X114889849Y-127348238D01*
X114889846Y-127348233D01*
X114887523Y-127343251D01*
X114884363Y-127338738D01*
X114883410Y-127337376D01*
X114883175Y-127336680D01*
X114881617Y-127333981D01*
X114882160Y-127333668D01*
X114860726Y-127270100D01*
X114878015Y-127201241D01*
X114900656Y-127175919D01*
X114899373Y-127174636D01*
X114918285Y-127155724D01*
X114994786Y-127053649D01*
X115003324Y-127038054D01*
X115048478Y-126917606D01*
X115052105Y-126902351D01*
X115057631Y-126851486D01*
X115058000Y-126844672D01*
X115058000Y-126272115D01*
X115053525Y-126256876D01*
X115052135Y-126255671D01*
X115044452Y-126254000D01*
X112460116Y-126254000D01*
X112444877Y-126258475D01*
X112443672Y-126259865D01*
X112442001Y-126267548D01*
X112442001Y-126844669D01*
X112442371Y-126851490D01*
X112447895Y-126902352D01*
X112451521Y-126917604D01*
X112496676Y-127038054D01*
X112505214Y-127053649D01*
X112581715Y-127155724D01*
X112600627Y-127174636D01*
X112598369Y-127176894D01*
X112631457Y-127221154D01*
X112636476Y-127291973D01*
X112618139Y-127333840D01*
X112618383Y-127333981D01*
X112617115Y-127336177D01*
X112616590Y-127337376D01*
X112615637Y-127338738D01*
X112612477Y-127343251D01*
X112610154Y-127348233D01*
X112610151Y-127348238D01*
X112518039Y-127545775D01*
X112515716Y-127550757D01*
X112456457Y-127771913D01*
X112436502Y-128000000D01*
X112456457Y-128228087D01*
X112515716Y-128449243D01*
X112518039Y-128454224D01*
X112518039Y-128454225D01*
X112610151Y-128651762D01*
X112610154Y-128651767D01*
X112612477Y-128656749D01*
X112743802Y-128844300D01*
X112905700Y-129006198D01*
X112910208Y-129009355D01*
X112910211Y-129009357D01*
X112919600Y-129015931D01*
X113093251Y-129137523D01*
X113098233Y-129139846D01*
X113098238Y-129139849D01*
X113295775Y-129231961D01*
X113300757Y-129234284D01*
X113306065Y-129235706D01*
X113306067Y-129235707D01*
X113336245Y-129243793D01*
X113396868Y-129280745D01*
X113427889Y-129344605D01*
X113419461Y-129415100D01*
X113374258Y-129469847D01*
X113303634Y-129491500D01*
X104043690Y-129491500D01*
X103975569Y-129471498D01*
X103954595Y-129454595D01*
X103536905Y-129036905D01*
X103502879Y-128974593D01*
X103500000Y-128947810D01*
X103500000Y-126532068D01*
X103520002Y-126463947D01*
X103574177Y-126418067D01*
X103573967Y-126417664D01*
X103575749Y-126416736D01*
X103576264Y-126416300D01*
X103578112Y-126415506D01*
X103578120Y-126415502D01*
X103582414Y-126413657D01*
X103701751Y-126339809D01*
X103807017Y-126274669D01*
X103807021Y-126274666D01*
X103810990Y-126272210D01*
X103837337Y-126249906D01*
X106744839Y-126249906D01*
X106753553Y-126261427D01*
X106860452Y-126339809D01*
X106868351Y-126344745D01*
X107097905Y-126465519D01*
X107106454Y-126469236D01*
X107351327Y-126554749D01*
X107360336Y-126557163D01*
X107615166Y-126605544D01*
X107624423Y-126606598D01*
X107883607Y-126616783D01*
X107892921Y-126616457D01*
X108150753Y-126588220D01*
X108159930Y-126586519D01*
X108410758Y-126520481D01*
X108419574Y-126517445D01*
X108657880Y-126415062D01*
X108666167Y-126410748D01*
X108886718Y-126274266D01*
X108894268Y-126268780D01*
X108899559Y-126264301D01*
X108907997Y-126251497D01*
X108901935Y-126241145D01*
X107837812Y-125177022D01*
X107823868Y-125169408D01*
X107822035Y-125169539D01*
X107815420Y-125173790D01*
X106751497Y-126237713D01*
X106744839Y-126249906D01*
X103837337Y-126249906D01*
X104016149Y-126098530D01*
X104193382Y-125896434D01*
X104200631Y-125885165D01*
X104336269Y-125674291D01*
X104338797Y-125670361D01*
X104449199Y-125425278D01*
X104486247Y-125293917D01*
X104520893Y-125171072D01*
X104520894Y-125171069D01*
X104522163Y-125166568D01*
X104556086Y-124899915D01*
X104556170Y-124896733D01*
X104557543Y-124844276D01*
X104558571Y-124805000D01*
X104555391Y-124762211D01*
X106012775Y-124762211D01*
X106025220Y-125021288D01*
X106026356Y-125030543D01*
X106076961Y-125284945D01*
X106079449Y-125293917D01*
X106167095Y-125538033D01*
X106170895Y-125546568D01*
X106293658Y-125775042D01*
X106298666Y-125782904D01*
X106368720Y-125876716D01*
X106379979Y-125885165D01*
X106392397Y-125878393D01*
X107452978Y-124817812D01*
X107459356Y-124806132D01*
X108189408Y-124806132D01*
X108189539Y-124807965D01*
X108193790Y-124814580D01*
X109261094Y-125881884D01*
X109273474Y-125888644D01*
X109281815Y-125882400D01*
X109381203Y-125727885D01*
X112442000Y-125727885D01*
X112446475Y-125743124D01*
X112447865Y-125744329D01*
X112455548Y-125746000D01*
X113477885Y-125746000D01*
X113493124Y-125741525D01*
X113494329Y-125740135D01*
X113496000Y-125732452D01*
X113496000Y-125727885D01*
X114004000Y-125727885D01*
X114008475Y-125743124D01*
X114009865Y-125744329D01*
X114017548Y-125746000D01*
X115039884Y-125746000D01*
X115055123Y-125741525D01*
X115056328Y-125740135D01*
X115057999Y-125732452D01*
X115057999Y-125155331D01*
X115057629Y-125148510D01*
X115052105Y-125097648D01*
X115048479Y-125082396D01*
X115003324Y-124961946D01*
X114994786Y-124946351D01*
X114918285Y-124844276D01*
X114905724Y-124831715D01*
X114803649Y-124755214D01*
X114788054Y-124746676D01*
X114667606Y-124701522D01*
X114652351Y-124697895D01*
X114601486Y-124692369D01*
X114594672Y-124692000D01*
X114022115Y-124692000D01*
X114006876Y-124696475D01*
X114005671Y-124697865D01*
X114004000Y-124705548D01*
X114004000Y-125727885D01*
X113496000Y-125727885D01*
X113496000Y-124710116D01*
X113491525Y-124694877D01*
X113490135Y-124693672D01*
X113482452Y-124692001D01*
X112905331Y-124692001D01*
X112898510Y-124692371D01*
X112847648Y-124697895D01*
X112832396Y-124701521D01*
X112711946Y-124746676D01*
X112696351Y-124755214D01*
X112594276Y-124831715D01*
X112581715Y-124844276D01*
X112505214Y-124946351D01*
X112496676Y-124961946D01*
X112451522Y-125082394D01*
X112447895Y-125097649D01*
X112442369Y-125148514D01*
X112442000Y-125155328D01*
X112442000Y-125727885D01*
X109381203Y-125727885D01*
X109415832Y-125674048D01*
X109420275Y-125665864D01*
X109526807Y-125429370D01*
X109529997Y-125420605D01*
X109600402Y-125170972D01*
X109602262Y-125161830D01*
X109635187Y-124903019D01*
X109635668Y-124896733D01*
X109637987Y-124808160D01*
X109637836Y-124801851D01*
X109618501Y-124541663D01*
X109617125Y-124532457D01*
X109559878Y-124279467D01*
X109557154Y-124270556D01*
X109463143Y-124028806D01*
X109459132Y-124020397D01*
X109330422Y-123795202D01*
X109325211Y-123787476D01*
X109281996Y-123732658D01*
X109270071Y-123724187D01*
X109258537Y-123730673D01*
X108197022Y-124792188D01*
X108189408Y-124806132D01*
X107459356Y-124806132D01*
X107460592Y-124803868D01*
X107460461Y-124802035D01*
X107456210Y-124795420D01*
X106390816Y-123730026D01*
X106377507Y-123722758D01*
X106367472Y-123729878D01*
X106351937Y-123748556D01*
X106346531Y-123756135D01*
X106211965Y-123977891D01*
X106207736Y-123986192D01*
X106107432Y-124225389D01*
X106104471Y-124234239D01*
X106040628Y-124485625D01*
X106039006Y-124494822D01*
X106013020Y-124752885D01*
X106012775Y-124762211D01*
X104555391Y-124762211D01*
X104538650Y-124536937D01*
X104537619Y-124532379D01*
X104480361Y-124279331D01*
X104480360Y-124279326D01*
X104479327Y-124274763D01*
X104381902Y-124024238D01*
X104248518Y-123790864D01*
X104201068Y-123730673D01*
X104182416Y-123707014D01*
X104082105Y-123579769D01*
X103886317Y-123395591D01*
X103831682Y-123357689D01*
X106742102Y-123357689D01*
X106746675Y-123367465D01*
X107812188Y-124432978D01*
X107826132Y-124440592D01*
X107827965Y-124440461D01*
X107834580Y-124436210D01*
X108899349Y-123371441D01*
X108905733Y-123359751D01*
X108896321Y-123347641D01*
X108749045Y-123245471D01*
X108741010Y-123240738D01*
X108508376Y-123126016D01*
X108499743Y-123122528D01*
X108252703Y-123043450D01*
X108243643Y-123041274D01*
X107987630Y-122999580D01*
X107978343Y-122998768D01*
X107718992Y-122995373D01*
X107709681Y-122995943D01*
X107452682Y-123030919D01*
X107443546Y-123032860D01*
X107194543Y-123105439D01*
X107185800Y-123108707D01*
X106950252Y-123217296D01*
X106942097Y-123221816D01*
X106751240Y-123346947D01*
X106742102Y-123357689D01*
X103831682Y-123357689D01*
X103729751Y-123286976D01*
X103669299Y-123245039D01*
X103669296Y-123245037D01*
X103665457Y-123242374D01*
X103570272Y-123195434D01*
X103518023Y-123147366D01*
X103500000Y-123082428D01*
X103500000Y-122866406D01*
X111628423Y-122866406D01*
X111633704Y-122873461D01*
X111810080Y-122976527D01*
X111819363Y-122980974D01*
X112026003Y-123059883D01*
X112035901Y-123062759D01*
X112252653Y-123106857D01*
X112262883Y-123108076D01*
X112483914Y-123116182D01*
X112494223Y-123115714D01*
X112713623Y-123087608D01*
X112723688Y-123085468D01*
X112935557Y-123021905D01*
X112945152Y-123018144D01*
X113143778Y-122920838D01*
X113152636Y-122915559D01*
X113210097Y-122874572D01*
X113218497Y-122863874D01*
X113211510Y-122850721D01*
X112437811Y-122077021D01*
X112423868Y-122069408D01*
X112422034Y-122069539D01*
X112415420Y-122073790D01*
X111635180Y-122854031D01*
X111628423Y-122866406D01*
X103500000Y-122866406D01*
X103500000Y-121675638D01*
X111012893Y-121675638D01*
X111025627Y-121896468D01*
X111027061Y-121906670D01*
X111075685Y-122122439D01*
X111078773Y-122132292D01*
X111161986Y-122337220D01*
X111166634Y-122346421D01*
X111255097Y-122490781D01*
X111265553Y-122500242D01*
X111274331Y-122496458D01*
X112052979Y-121717811D01*
X112060592Y-121703868D01*
X112060461Y-121702034D01*
X112056210Y-121695420D01*
X111278862Y-120918073D01*
X111267330Y-120911776D01*
X111255048Y-120921399D01*
X111199467Y-121002877D01*
X111194379Y-121011833D01*
X111101252Y-121212459D01*
X111097689Y-121222146D01*
X111038581Y-121435280D01*
X111036650Y-121445400D01*
X111013145Y-121665349D01*
X111012893Y-121675638D01*
X103500000Y-121675638D01*
X103500000Y-120545711D01*
X111630508Y-120545711D01*
X111637251Y-120558040D01*
X112412189Y-121332979D01*
X112426132Y-121340592D01*
X112427966Y-121340461D01*
X112434580Y-121336210D01*
X113213994Y-120556795D01*
X113221011Y-120543944D01*
X113213237Y-120533274D01*
X113210902Y-120531430D01*
X113202320Y-120525729D01*
X113008678Y-120418833D01*
X112999272Y-120414606D01*
X112790772Y-120340772D01*
X112780809Y-120338140D01*
X112563047Y-120299350D01*
X112552796Y-120298381D01*
X112331616Y-120295679D01*
X112321332Y-120296399D01*
X112102693Y-120329855D01*
X112092666Y-120332244D01*
X111882426Y-120400961D01*
X111872916Y-120404958D01*
X111676725Y-120507089D01*
X111668007Y-120512578D01*
X111638961Y-120534386D01*
X111630508Y-120545711D01*
X103500000Y-120545711D01*
X103500000Y-91552190D01*
X103520002Y-91484069D01*
X103536905Y-91463095D01*
X103954595Y-91045405D01*
X104016907Y-91011379D01*
X104043690Y-91008500D01*
X105606812Y-91008500D01*
X105674933Y-91028502D01*
G37*
%TD.AperFunction*%
%TA.AperFunction,Conductor*%
G36*
X101524431Y-91028502D02*
G01*
X101545405Y-91045405D01*
X101963095Y-91463095D01*
X101997121Y-91525407D01*
X102000000Y-91552190D01*
X102000000Y-123076273D01*
X101979998Y-123144394D01*
X101926751Y-123190699D01*
X101865763Y-123218815D01*
X101861854Y-123221378D01*
X101644881Y-123363631D01*
X101644876Y-123363635D01*
X101640968Y-123366197D01*
X101440426Y-123545188D01*
X101268544Y-123751854D01*
X101129096Y-123981656D01*
X101025148Y-124229545D01*
X100958981Y-124490077D01*
X100932050Y-124757526D01*
X100932274Y-124762192D01*
X100932274Y-124762197D01*
X100936830Y-124857035D01*
X100944947Y-125026019D01*
X100997388Y-125289656D01*
X101088220Y-125542646D01*
X101090432Y-125546762D01*
X101090433Y-125546765D01*
X101156844Y-125670361D01*
X101215450Y-125779431D01*
X101218241Y-125783168D01*
X101218245Y-125783175D01*
X101302820Y-125896434D01*
X101376281Y-125994810D01*
X101379590Y-125998090D01*
X101379595Y-125998096D01*
X101539374Y-126156486D01*
X101567180Y-126184050D01*
X101570942Y-126186808D01*
X101570945Y-126186811D01*
X101623338Y-126225227D01*
X101783954Y-126342995D01*
X101788089Y-126345171D01*
X101788093Y-126345173D01*
X101932668Y-126421238D01*
X101983640Y-126470658D01*
X102000000Y-126532746D01*
X102000000Y-128947810D01*
X101979998Y-129015931D01*
X101963095Y-129036905D01*
X101545405Y-129454595D01*
X101483093Y-129488621D01*
X101456310Y-129491500D01*
X92729458Y-129491500D01*
X92661337Y-129471498D01*
X92614844Y-129417842D01*
X92604740Y-129347568D01*
X92634234Y-129282988D01*
X92685228Y-129247518D01*
X92788297Y-129208879D01*
X92796705Y-129205727D01*
X92913261Y-129118373D01*
X93000615Y-129001817D01*
X93051745Y-128865428D01*
X93058500Y-128803246D01*
X93058500Y-127106978D01*
X93051745Y-127044796D01*
X93000615Y-126908407D01*
X92966292Y-126862610D01*
X92918645Y-126799034D01*
X92918642Y-126799031D01*
X92913261Y-126791851D01*
X92906081Y-126786470D01*
X92899730Y-126780119D01*
X92901872Y-126777977D01*
X92868436Y-126733266D01*
X92863406Y-126662448D01*
X92881523Y-126621077D01*
X92881182Y-126620880D01*
X92882952Y-126617814D01*
X92883299Y-126617022D01*
X92883929Y-126616123D01*
X92889414Y-126606623D01*
X92981490Y-126409165D01*
X92985236Y-126398873D01*
X93041625Y-126188424D01*
X93043528Y-126177631D01*
X93045974Y-126149669D01*
X95857001Y-126149669D01*
X95857371Y-126156490D01*
X95862895Y-126207352D01*
X95866521Y-126222604D01*
X95911676Y-126343054D01*
X95920214Y-126358649D01*
X95996715Y-126460724D01*
X96009276Y-126473285D01*
X96111351Y-126549786D01*
X96126946Y-126558324D01*
X96247394Y-126603478D01*
X96262649Y-126607105D01*
X96313514Y-126612631D01*
X96320328Y-126613000D01*
X97392885Y-126613000D01*
X97408124Y-126608525D01*
X97409329Y-126607135D01*
X97411000Y-126599452D01*
X97411000Y-126594884D01*
X97919000Y-126594884D01*
X97923475Y-126610123D01*
X97924865Y-126611328D01*
X97932548Y-126612999D01*
X99009669Y-126612999D01*
X99016490Y-126612629D01*
X99067352Y-126607105D01*
X99082604Y-126603479D01*
X99203054Y-126558324D01*
X99218649Y-126549786D01*
X99320724Y-126473285D01*
X99333285Y-126460724D01*
X99409786Y-126358649D01*
X99418324Y-126343054D01*
X99463478Y-126222606D01*
X99467105Y-126207351D01*
X99472631Y-126156486D01*
X99473000Y-126149672D01*
X99473000Y-125077115D01*
X99468525Y-125061876D01*
X99467135Y-125060671D01*
X99459452Y-125059000D01*
X97937115Y-125059000D01*
X97921876Y-125063475D01*
X97920671Y-125064865D01*
X97919000Y-125072548D01*
X97919000Y-126594884D01*
X97411000Y-126594884D01*
X97411000Y-125077115D01*
X97406525Y-125061876D01*
X97405135Y-125060671D01*
X97397452Y-125059000D01*
X95875116Y-125059000D01*
X95859877Y-125063475D01*
X95858672Y-125064865D01*
X95857001Y-125072548D01*
X95857001Y-126149669D01*
X93045974Y-126149669D01*
X93062517Y-125960587D01*
X93062517Y-125949637D01*
X93043528Y-125732593D01*
X93041625Y-125721800D01*
X92985236Y-125511351D01*
X92981490Y-125501059D01*
X92889414Y-125303601D01*
X92883931Y-125294106D01*
X92847491Y-125242064D01*
X92837012Y-125233688D01*
X92823566Y-125240756D01*
X91839095Y-126225227D01*
X91776783Y-126259253D01*
X91705968Y-126254188D01*
X91660905Y-126225227D01*
X90675713Y-125240035D01*
X90663938Y-125233605D01*
X90651923Y-125242901D01*
X90616069Y-125294106D01*
X90610586Y-125303601D01*
X90518510Y-125501059D01*
X90514764Y-125511351D01*
X90458375Y-125721800D01*
X90456472Y-125732593D01*
X90437483Y-125949637D01*
X90437483Y-125960587D01*
X90456472Y-126177631D01*
X90458375Y-126188424D01*
X90514764Y-126398873D01*
X90518510Y-126409165D01*
X90610586Y-126606623D01*
X90616071Y-126616123D01*
X90616701Y-126617022D01*
X90616856Y-126617482D01*
X90618818Y-126620880D01*
X90618135Y-126621274D01*
X90639388Y-126684296D01*
X90622102Y-126753156D01*
X90599066Y-126778915D01*
X90600270Y-126780119D01*
X90593919Y-126786470D01*
X90586739Y-126791851D01*
X90581358Y-126799031D01*
X90581355Y-126799034D01*
X90533708Y-126862610D01*
X90499385Y-126908407D01*
X90448255Y-127044796D01*
X90441500Y-127106978D01*
X90441500Y-128803246D01*
X90448255Y-128865428D01*
X90499385Y-129001817D01*
X90586739Y-129118373D01*
X90703295Y-129205727D01*
X90711703Y-129208879D01*
X90814772Y-129247518D01*
X90871536Y-129290160D01*
X90896236Y-129356721D01*
X90881029Y-129426070D01*
X90830743Y-129476188D01*
X90770542Y-129491500D01*
X89543690Y-129491500D01*
X89475569Y-129471498D01*
X89454595Y-129454595D01*
X89036905Y-129036905D01*
X89002879Y-128974593D01*
X89000000Y-128947810D01*
X89000000Y-124868100D01*
X91028576Y-124868100D01*
X91035644Y-124881546D01*
X91737188Y-125583090D01*
X91751132Y-125590704D01*
X91752965Y-125590573D01*
X91759580Y-125586322D01*
X92465077Y-124880825D01*
X92471507Y-124869050D01*
X92462211Y-124857035D01*
X92411006Y-124821181D01*
X92401511Y-124815698D01*
X92204053Y-124723622D01*
X92193761Y-124719876D01*
X91983312Y-124663487D01*
X91972519Y-124661584D01*
X91755475Y-124642595D01*
X91744525Y-124642595D01*
X91527481Y-124661584D01*
X91516688Y-124663487D01*
X91306239Y-124719876D01*
X91295947Y-124723622D01*
X91098489Y-124815698D01*
X91088994Y-124821181D01*
X91036952Y-124857621D01*
X91028576Y-124868100D01*
X89000000Y-124868100D01*
X89000000Y-124532885D01*
X95857000Y-124532885D01*
X95861475Y-124548124D01*
X95862865Y-124549329D01*
X95870548Y-124551000D01*
X97392885Y-124551000D01*
X97408124Y-124546525D01*
X97409329Y-124545135D01*
X97411000Y-124537452D01*
X97411000Y-124532885D01*
X97919000Y-124532885D01*
X97923475Y-124548124D01*
X97924865Y-124549329D01*
X97932548Y-124551000D01*
X99454884Y-124551000D01*
X99470123Y-124546525D01*
X99471328Y-124545135D01*
X99472999Y-124537452D01*
X99472999Y-123460331D01*
X99472629Y-123453510D01*
X99467105Y-123402648D01*
X99463479Y-123387396D01*
X99418324Y-123266946D01*
X99409786Y-123251351D01*
X99333285Y-123149276D01*
X99320724Y-123136715D01*
X99218649Y-123060214D01*
X99203054Y-123051676D01*
X99082606Y-123006522D01*
X99067351Y-123002895D01*
X99016486Y-122997369D01*
X99009672Y-122997000D01*
X97937115Y-122997000D01*
X97921876Y-123001475D01*
X97920671Y-123002865D01*
X97919000Y-123010548D01*
X97919000Y-124532885D01*
X97411000Y-124532885D01*
X97411000Y-123015116D01*
X97406525Y-122999877D01*
X97405135Y-122998672D01*
X97397452Y-122997001D01*
X96320331Y-122997001D01*
X96313510Y-122997371D01*
X96262648Y-123002895D01*
X96247396Y-123006521D01*
X96126946Y-123051676D01*
X96111351Y-123060214D01*
X96009276Y-123136715D01*
X95996715Y-123149276D01*
X95920214Y-123251351D01*
X95911676Y-123266946D01*
X95866522Y-123387394D01*
X95862895Y-123402649D01*
X95857369Y-123453514D01*
X95857000Y-123460328D01*
X95857000Y-124532885D01*
X89000000Y-124532885D01*
X89000000Y-122334308D01*
X89020002Y-122266187D01*
X89073658Y-122219694D01*
X89143932Y-122209590D01*
X89208512Y-122239084D01*
X89242743Y-122286904D01*
X89283484Y-122387237D01*
X89404501Y-122584719D01*
X89556147Y-122759784D01*
X89734349Y-122907730D01*
X89934322Y-123024584D01*
X90150694Y-123107209D01*
X90155760Y-123108240D01*
X90155761Y-123108240D01*
X90208846Y-123119040D01*
X90377656Y-123153385D01*
X90508324Y-123158176D01*
X90603949Y-123161683D01*
X90603953Y-123161683D01*
X90609113Y-123161872D01*
X90614233Y-123161216D01*
X90614235Y-123161216D01*
X90713668Y-123148478D01*
X90838847Y-123132442D01*
X90843795Y-123130957D01*
X90843802Y-123130956D01*
X91055747Y-123067369D01*
X91060690Y-123065886D01*
X91072268Y-123060214D01*
X91264049Y-122966262D01*
X91264052Y-122966260D01*
X91268684Y-122963991D01*
X91457243Y-122829494D01*
X91460898Y-122825852D01*
X91460906Y-122825845D01*
X91502697Y-122784199D01*
X91565068Y-122750282D01*
X91635875Y-122755470D01*
X91692637Y-122798116D01*
X91709619Y-122829218D01*
X91731677Y-122888056D01*
X91740214Y-122903649D01*
X91816715Y-123005724D01*
X91829276Y-123018285D01*
X91931351Y-123094786D01*
X91946946Y-123103324D01*
X92067394Y-123148478D01*
X92082649Y-123152105D01*
X92133514Y-123157631D01*
X92140328Y-123158000D01*
X92812885Y-123158000D01*
X92828124Y-123153525D01*
X92829329Y-123152135D01*
X92831000Y-123144452D01*
X92831000Y-123139884D01*
X93339000Y-123139884D01*
X93343475Y-123155123D01*
X93344865Y-123156328D01*
X93352548Y-123157999D01*
X94029669Y-123157999D01*
X94036490Y-123157629D01*
X94087352Y-123152105D01*
X94102604Y-123148479D01*
X94223054Y-123103324D01*
X94238649Y-123094786D01*
X94340724Y-123018285D01*
X94353285Y-123005724D01*
X94429786Y-122903649D01*
X94438324Y-122888054D01*
X94483478Y-122767606D01*
X94487105Y-122752351D01*
X94492631Y-122701486D01*
X94493000Y-122694672D01*
X94493000Y-122022115D01*
X94488525Y-122006876D01*
X94487135Y-122005671D01*
X94479452Y-122004000D01*
X93357115Y-122004000D01*
X93341876Y-122008475D01*
X93340671Y-122009865D01*
X93339000Y-122017548D01*
X93339000Y-123139884D01*
X92831000Y-123139884D01*
X92831000Y-121477885D01*
X93339000Y-121477885D01*
X93343475Y-121493124D01*
X93344865Y-121494329D01*
X93352548Y-121496000D01*
X94474884Y-121496000D01*
X94490123Y-121491525D01*
X94491328Y-121490135D01*
X94492999Y-121482452D01*
X94492999Y-120805331D01*
X94492629Y-120798510D01*
X94487105Y-120747648D01*
X94483479Y-120732396D01*
X94438324Y-120611946D01*
X94429786Y-120596351D01*
X94353285Y-120494276D01*
X94340724Y-120481715D01*
X94238649Y-120405214D01*
X94223054Y-120396676D01*
X94102606Y-120351522D01*
X94087351Y-120347895D01*
X94036486Y-120342369D01*
X94029672Y-120342000D01*
X93357115Y-120342000D01*
X93341876Y-120346475D01*
X93340671Y-120347865D01*
X93339000Y-120355548D01*
X93339000Y-121477885D01*
X92831000Y-121477885D01*
X92831000Y-120360116D01*
X92826525Y-120344877D01*
X92825135Y-120343672D01*
X92817452Y-120342001D01*
X92140331Y-120342001D01*
X92133510Y-120342371D01*
X92082648Y-120347895D01*
X92067396Y-120351521D01*
X91946946Y-120396676D01*
X91931351Y-120405214D01*
X91829276Y-120481715D01*
X91816715Y-120494276D01*
X91740214Y-120596351D01*
X91731675Y-120611948D01*
X91710934Y-120667275D01*
X91668293Y-120724040D01*
X91601731Y-120748740D01*
X91532383Y-120733533D01*
X91509388Y-120716909D01*
X91508887Y-120716358D01*
X91327123Y-120572810D01*
X91268605Y-120540506D01*
X91218636Y-120490075D01*
X91203500Y-120430199D01*
X91203500Y-119126000D01*
X91223502Y-119057879D01*
X91277158Y-119011386D01*
X91329500Y-119000000D01*
X96750000Y-119000000D01*
X97750000Y-118000000D01*
X97750000Y-115773981D01*
X97770002Y-115705860D01*
X97823658Y-115659367D01*
X97893932Y-115649263D01*
X97958512Y-115678757D01*
X97965095Y-115684886D01*
X98102125Y-115821916D01*
X98110533Y-115828972D01*
X98288993Y-115953931D01*
X98298489Y-115959414D01*
X98495947Y-116051490D01*
X98506239Y-116055236D01*
X98678503Y-116101394D01*
X98692599Y-116101058D01*
X98696000Y-116093116D01*
X98696000Y-116087967D01*
X99204000Y-116087967D01*
X99207973Y-116101498D01*
X99216522Y-116102727D01*
X99393761Y-116055236D01*
X99404053Y-116051490D01*
X99601511Y-115959414D01*
X99611007Y-115953931D01*
X99789467Y-115828972D01*
X99797875Y-115821916D01*
X99951916Y-115667875D01*
X99958972Y-115659467D01*
X100083931Y-115481007D01*
X100089414Y-115471511D01*
X100181490Y-115274053D01*
X100185236Y-115263761D01*
X100231394Y-115091497D01*
X100231058Y-115077401D01*
X100223116Y-115074000D01*
X99222115Y-115074000D01*
X99206876Y-115078475D01*
X99205671Y-115079865D01*
X99204000Y-115087548D01*
X99204000Y-116087967D01*
X98696000Y-116087967D01*
X98696000Y-114692000D01*
X98716002Y-114623879D01*
X98769658Y-114577386D01*
X98822000Y-114566000D01*
X100217967Y-114566000D01*
X100231498Y-114562027D01*
X100232727Y-114553478D01*
X100185236Y-114376239D01*
X100181490Y-114365947D01*
X100089414Y-114168489D01*
X100083931Y-114158993D01*
X99958972Y-113980533D01*
X99951916Y-113972125D01*
X99797875Y-113818084D01*
X99789467Y-113811028D01*
X99611007Y-113686069D01*
X99601511Y-113680586D01*
X99566951Y-113664471D01*
X99513666Y-113617554D01*
X99494205Y-113549277D01*
X99514747Y-113481317D01*
X99566951Y-113436081D01*
X99601762Y-113419849D01*
X99601767Y-113419846D01*
X99606749Y-113417523D01*
X99711611Y-113344098D01*
X99789789Y-113289357D01*
X99789792Y-113289355D01*
X99794300Y-113286198D01*
X99956198Y-113124300D01*
X100087523Y-112936749D01*
X100089846Y-112931767D01*
X100089849Y-112931762D01*
X100181961Y-112734225D01*
X100181961Y-112734224D01*
X100184284Y-112729243D01*
X100243543Y-112508087D01*
X100263498Y-112280000D01*
X100243543Y-112051913D01*
X100184284Y-111830757D01*
X100181961Y-111825775D01*
X100089849Y-111628238D01*
X100089846Y-111628233D01*
X100087523Y-111623251D01*
X99965114Y-111448433D01*
X99959357Y-111440211D01*
X99959355Y-111440208D01*
X99956198Y-111435700D01*
X99794300Y-111273802D01*
X99789792Y-111270645D01*
X99789789Y-111270643D01*
X99669623Y-111186502D01*
X99606749Y-111142477D01*
X99601767Y-111140154D01*
X99601762Y-111140151D01*
X99567543Y-111124195D01*
X99514258Y-111077278D01*
X99494797Y-111009001D01*
X99515339Y-110941041D01*
X99567543Y-110895805D01*
X99601762Y-110879849D01*
X99601767Y-110879846D01*
X99606749Y-110877523D01*
X99711611Y-110804098D01*
X99789789Y-110749357D01*
X99789792Y-110749355D01*
X99794300Y-110746198D01*
X99956198Y-110584300D01*
X100087523Y-110396749D01*
X100089846Y-110391767D01*
X100089849Y-110391762D01*
X100181961Y-110194225D01*
X100181961Y-110194224D01*
X100184284Y-110189243D01*
X100243543Y-109968087D01*
X100263498Y-109740000D01*
X100243543Y-109511913D01*
X100215184Y-109406076D01*
X100185707Y-109296067D01*
X100185706Y-109296065D01*
X100184284Y-109290757D01*
X100181961Y-109285775D01*
X100089849Y-109088238D01*
X100089846Y-109088233D01*
X100087523Y-109083251D01*
X99990268Y-108944357D01*
X99959357Y-108900211D01*
X99959355Y-108900208D01*
X99956198Y-108895700D01*
X99794300Y-108733802D01*
X99789789Y-108730643D01*
X99785576Y-108727108D01*
X99786527Y-108725974D01*
X99746529Y-108675929D01*
X99739224Y-108605310D01*
X99771258Y-108541951D01*
X99832462Y-108505970D01*
X99849517Y-108502918D01*
X99860316Y-108501745D01*
X99996705Y-108450615D01*
X100113261Y-108363261D01*
X100200615Y-108246705D01*
X100251745Y-108110316D01*
X100258500Y-108048134D01*
X100258500Y-106351866D01*
X100251745Y-106289684D01*
X100200615Y-106153295D01*
X100113261Y-106036739D01*
X99996705Y-105949385D01*
X99860316Y-105898255D01*
X99798134Y-105891500D01*
X98484500Y-105891500D01*
X98416379Y-105871498D01*
X98369886Y-105817842D01*
X98358500Y-105765500D01*
X98358500Y-105032059D01*
X98359059Y-105020203D01*
X98360789Y-105012463D01*
X98358562Y-104941611D01*
X98358500Y-104937653D01*
X98358500Y-104908568D01*
X98357946Y-104904179D01*
X98357013Y-104892338D01*
X98356197Y-104866378D01*
X98374049Y-104797662D01*
X98426218Y-104749506D01*
X98496140Y-104737200D01*
X98514746Y-104740712D01*
X98706598Y-104792119D01*
X98706600Y-104792119D01*
X98711913Y-104793543D01*
X98940000Y-104813498D01*
X99168087Y-104793543D01*
X99173400Y-104792119D01*
X99173402Y-104792119D01*
X99383933Y-104735707D01*
X99383935Y-104735706D01*
X99389243Y-104734284D01*
X99394225Y-104731961D01*
X99591762Y-104639849D01*
X99591767Y-104639846D01*
X99596749Y-104637523D01*
X99701611Y-104564098D01*
X99779789Y-104509357D01*
X99779792Y-104509355D01*
X99784300Y-104506198D01*
X99946198Y-104344300D01*
X100077523Y-104156749D01*
X100079846Y-104151767D01*
X100079849Y-104151762D01*
X100171961Y-103954225D01*
X100171961Y-103954224D01*
X100174284Y-103949243D01*
X100233543Y-103728087D01*
X100253498Y-103500000D01*
X100233543Y-103271913D01*
X100174284Y-103050757D01*
X100171961Y-103045775D01*
X100079849Y-102848238D01*
X100079846Y-102848233D01*
X100077523Y-102843251D01*
X99946198Y-102655700D01*
X99784300Y-102493802D01*
X99779792Y-102490645D01*
X99779789Y-102490643D01*
X99701611Y-102435902D01*
X99596749Y-102362477D01*
X99591767Y-102360154D01*
X99591762Y-102360151D01*
X99394225Y-102268039D01*
X99394224Y-102268039D01*
X99389243Y-102265716D01*
X99383935Y-102264294D01*
X99383933Y-102264293D01*
X99173402Y-102207881D01*
X99173400Y-102207881D01*
X99168087Y-102206457D01*
X98940000Y-102186502D01*
X98711913Y-102206457D01*
X98706595Y-102207882D01*
X98676341Y-102215988D01*
X98605365Y-102214298D01*
X98554636Y-102183376D01*
X98195405Y-101824145D01*
X98161379Y-101761833D01*
X98158500Y-101735050D01*
X98158500Y-101091916D01*
X98178502Y-101023795D01*
X98232158Y-100977302D01*
X98302432Y-100967198D01*
X98337750Y-100977721D01*
X98495947Y-101051490D01*
X98506239Y-101055236D01*
X98678503Y-101101394D01*
X98692599Y-101101058D01*
X98696000Y-101093116D01*
X98696000Y-101087967D01*
X99204000Y-101087967D01*
X99207973Y-101101498D01*
X99216522Y-101102727D01*
X99393761Y-101055236D01*
X99404053Y-101051490D01*
X99601511Y-100959414D01*
X99611007Y-100953931D01*
X99789467Y-100828972D01*
X99797875Y-100821916D01*
X99951916Y-100667875D01*
X99958972Y-100659467D01*
X100083931Y-100481007D01*
X100089414Y-100471511D01*
X100181490Y-100274053D01*
X100185236Y-100263761D01*
X100231394Y-100091497D01*
X100231058Y-100077401D01*
X100223116Y-100074000D01*
X99222115Y-100074000D01*
X99206876Y-100078475D01*
X99205671Y-100079865D01*
X99204000Y-100087548D01*
X99204000Y-101087967D01*
X98696000Y-101087967D01*
X98696000Y-99692000D01*
X98716002Y-99623879D01*
X98769658Y-99577386D01*
X98822000Y-99566000D01*
X100217967Y-99566000D01*
X100231498Y-99562027D01*
X100232727Y-99553478D01*
X100185236Y-99376239D01*
X100181490Y-99365947D01*
X100089414Y-99168489D01*
X100083931Y-99158993D01*
X99958972Y-98980533D01*
X99951916Y-98972125D01*
X99797875Y-98818084D01*
X99789467Y-98811028D01*
X99611007Y-98686069D01*
X99601511Y-98680586D01*
X99566951Y-98664471D01*
X99513666Y-98617554D01*
X99494205Y-98549277D01*
X99514747Y-98481317D01*
X99566951Y-98436081D01*
X99601762Y-98419849D01*
X99601767Y-98419846D01*
X99606749Y-98417523D01*
X99711611Y-98344098D01*
X99789789Y-98289357D01*
X99789792Y-98289355D01*
X99794300Y-98286198D01*
X99956198Y-98124300D01*
X99977205Y-98094300D01*
X100084366Y-97941257D01*
X100087523Y-97936749D01*
X100089846Y-97931767D01*
X100089849Y-97931762D01*
X100181961Y-97734225D01*
X100181961Y-97734224D01*
X100184284Y-97729243D01*
X100243543Y-97508087D01*
X100263498Y-97280000D01*
X100243543Y-97051913D01*
X100242119Y-97046598D01*
X100185707Y-96836067D01*
X100185706Y-96836065D01*
X100184284Y-96830757D01*
X100170295Y-96800757D01*
X100089849Y-96628238D01*
X100089846Y-96628233D01*
X100087523Y-96623251D01*
X99965114Y-96448433D01*
X99959357Y-96440211D01*
X99959355Y-96440208D01*
X99956198Y-96435700D01*
X99794300Y-96273802D01*
X99789792Y-96270645D01*
X99789789Y-96270643D01*
X99711611Y-96215902D01*
X99606749Y-96142477D01*
X99601767Y-96140154D01*
X99601762Y-96140151D01*
X99567543Y-96124195D01*
X99514258Y-96077278D01*
X99494797Y-96009001D01*
X99515339Y-95941041D01*
X99567543Y-95895805D01*
X99601762Y-95879849D01*
X99601767Y-95879846D01*
X99606749Y-95877523D01*
X99711611Y-95804098D01*
X99789789Y-95749357D01*
X99789792Y-95749355D01*
X99794300Y-95746198D01*
X99956198Y-95584300D01*
X100087523Y-95396749D01*
X100089846Y-95391767D01*
X100089849Y-95391762D01*
X100181961Y-95194225D01*
X100181961Y-95194224D01*
X100184284Y-95189243D01*
X100243543Y-94968087D01*
X100263498Y-94740000D01*
X100243543Y-94511913D01*
X100184284Y-94290757D01*
X100181961Y-94285775D01*
X100089849Y-94088238D01*
X100089846Y-94088233D01*
X100087523Y-94083251D01*
X99965114Y-93908433D01*
X99959357Y-93900211D01*
X99959355Y-93900208D01*
X99956198Y-93895700D01*
X99794300Y-93733802D01*
X99789789Y-93730643D01*
X99785576Y-93727108D01*
X99786527Y-93725974D01*
X99746529Y-93675929D01*
X99739224Y-93605310D01*
X99771258Y-93541951D01*
X99832462Y-93505970D01*
X99849517Y-93502918D01*
X99860316Y-93501745D01*
X99996705Y-93450615D01*
X100113261Y-93363261D01*
X100200615Y-93246705D01*
X100251745Y-93110316D01*
X100258500Y-93048134D01*
X100258500Y-91351866D01*
X100251745Y-91289684D01*
X100210150Y-91178729D01*
X100204967Y-91107923D01*
X100238888Y-91045554D01*
X100301143Y-91011424D01*
X100328132Y-91008500D01*
X101456310Y-91008500D01*
X101524431Y-91028502D01*
G37*
%TD.AperFunction*%
M02*
