M48
; DRILL file {KiCad (6.0.7-1)-1} date Monday, August 15, 2022 at 03:41:13 PM
; FORMAT={-:-/ absolute / metric / decimal}
; #@! TF.CreationDate,2022-08-15T15:41:13-06:00
; #@! TF.GenerationSoftware,Kicad,Pcbnew,(6.0.7-1)-1
; #@! TF.FileFunction,Plated,1,2,PTH
FMAT,2
METRIC
; #@! TA.AperFunction,Plated,PTH,ComponentDrill
T1C0.400
; #@! TA.AperFunction,Plated,PTH,ComponentDrill
T2C0.800
; #@! TA.AperFunction,Plated,PTH,ComponentDrill
T3C0.900
; #@! TA.AperFunction,Plated,PTH,ComponentDrill
T4C1.270
; #@! TA.AperFunction,Plated,PTH,ComponentDrill
T5C1.300
; #@! TA.AperFunction,Plated,PTH,ComponentDrill
T6C1.524
%
G90
G05
T2
X80.75Y-112.5
X82.94Y-117.75
X85.75Y-112.5
X88.63Y-103.5
X88.63Y-112.5
X90.56Y-117.75
X91.25Y-97.25
X91.25Y-108.0
X91.75Y-125.955
X91.75Y-127.955
X96.25Y-97.25
X96.25Y-103.5
X96.25Y-108.0
X96.25Y-112.5
X98.94Y-103.5
X98.95Y-92.2
X98.95Y-94.74
X98.95Y-97.28
X98.95Y-99.82
X98.95Y-107.2
X98.95Y-109.74
X98.95Y-112.28
X98.95Y-114.82
X106.56Y-103.5
X106.57Y-92.2
X106.57Y-94.74
X106.57Y-97.28
X106.57Y-99.82
X106.57Y-107.2
X106.57Y-109.74
X106.57Y-112.28
X106.57Y-114.82
X110.5Y-97.05
X110.5Y-102.05
X110.5Y-105.0
X110.5Y-112.62
X113.75Y-126.0
X113.75Y-128.0
X114.94Y-117.75
X122.56Y-117.75
T3
X90.545Y-121.75
X93.085Y-121.75
X112.425Y-121.705
X114.965Y-121.705
T4
X80.75Y-103.75
T5
X97.665Y-124.805
X102.745Y-124.805
X107.825Y-124.805
T6
X77.575Y-100.575
X77.575Y-106.925
X83.925Y-100.575
X83.925Y-106.925
T1
X116.75Y-98.75G85X115.75Y-98.75
G05
X115.75Y-108.75G85X116.75Y-108.75
G05
X121.25Y-104.25G85X121.25Y-103.25
G05
T0
M30
