%TF.GenerationSoftware,KiCad,Pcbnew,(6.0.7-1)-1*%
%TF.CreationDate,2022-08-15T15:40:10-06:00*%
%TF.ProjectId,led_modulator,6c65645f-6d6f-4647-956c-61746f722e6b,rev?*%
%TF.SameCoordinates,Original*%
%TF.FileFunction,Soldermask,Top*%
%TF.FilePolarity,Negative*%
%FSLAX46Y46*%
G04 Gerber Fmt 4.6, Leading zero omitted, Abs format (unit mm)*
G04 Created by KiCad (PCBNEW (6.0.7-1)-1) date 2022-08-15 15:40:10*
%MOMM*%
%LPD*%
G01*
G04 APERTURE LIST*
G04 Aperture macros list*
%AMRoundRect*
0 Rectangle with rounded corners*
0 $1 Rounding radius*
0 $2 $3 $4 $5 $6 $7 $8 $9 X,Y pos of 4 corners*
0 Add a 4 corners polygon primitive as box body*
4,1,4,$2,$3,$4,$5,$6,$7,$8,$9,$2,$3,0*
0 Add four circle primitives for the rounded corners*
1,1,$1+$1,$2,$3*
1,1,$1+$1,$4,$5*
1,1,$1+$1,$6,$7*
1,1,$1+$1,$8,$9*
0 Add four rect primitives between the rounded corners*
20,1,$1+$1,$2,$3,$4,$5,0*
20,1,$1+$1,$4,$5,$6,$7,0*
20,1,$1+$1,$6,$7,$8,$9,0*
20,1,$1+$1,$8,$9,$2,$3,0*%
G04 Aperture macros list end*
%ADD10RoundRect,0.250000X-0.650000X0.412500X-0.650000X-0.412500X0.650000X-0.412500X0.650000X0.412500X0*%
%ADD11C,3.200000*%
%ADD12RoundRect,0.237500X0.300000X0.237500X-0.300000X0.237500X-0.300000X-0.237500X0.300000X-0.237500X0*%
%ADD13RoundRect,0.250000X1.500000X0.550000X-1.500000X0.550000X-1.500000X-0.550000X1.500000X-0.550000X0*%
%ADD14RoundRect,0.250000X-0.312500X-0.625000X0.312500X-0.625000X0.312500X0.625000X-0.312500X0.625000X0*%
%ADD15RoundRect,0.237500X-0.250000X-0.237500X0.250000X-0.237500X0.250000X0.237500X-0.250000X0.237500X0*%
%ADD16RoundRect,0.250000X0.325000X0.450000X-0.325000X0.450000X-0.325000X-0.450000X0.325000X-0.450000X0*%
%ADD17RoundRect,0.250000X-0.400000X-0.625000X0.400000X-0.625000X0.400000X0.625000X-0.400000X0.625000X0*%
%ADD18RoundRect,0.250000X-0.412500X-0.650000X0.412500X-0.650000X0.412500X0.650000X-0.412500X0.650000X0*%
%ADD19RoundRect,0.237500X0.237500X-0.250000X0.237500X0.250000X-0.237500X0.250000X-0.237500X-0.250000X0*%
%ADD20RoundRect,0.062500X0.350000X0.062500X-0.350000X0.062500X-0.350000X-0.062500X0.350000X-0.062500X0*%
%ADD21R,1.650000X1.350000*%
%ADD22RoundRect,0.250000X1.050000X0.550000X-1.050000X0.550000X-1.050000X-0.550000X1.050000X-0.550000X0*%
%ADD23R,2.600000X2.600000*%
%ADD24C,2.600000*%
%ADD25C,1.473200*%
%ADD26RoundRect,0.150000X-0.512500X-0.150000X0.512500X-0.150000X0.512500X0.150000X-0.512500X0.150000X0*%
%ADD27R,2.200000X1.200000*%
%ADD28R,6.400000X5.800000*%
%ADD29O,1.200000X2.200000*%
%ADD30O,2.200000X1.200000*%
G04 APERTURE END LIST*
G36*
X158889696Y-137784822D02*
G01*
X158839695Y-137705176D01*
X158802041Y-137648146D01*
X158771568Y-137609553D01*
X158743107Y-137585222D01*
X158711491Y-137570973D01*
X158671552Y-137562630D01*
X158618123Y-137556016D01*
X158604717Y-137554457D01*
X158550687Y-137549781D01*
X158514461Y-137553882D01*
X158482290Y-137570146D01*
X158453338Y-137591745D01*
X158404905Y-137626895D01*
X158356946Y-137657286D01*
X158343471Y-137664662D01*
X158320750Y-137675185D01*
X158300514Y-137678590D01*
X158276252Y-137672713D01*
X158241455Y-137655389D01*
X158189611Y-137624454D01*
X158151410Y-137600817D01*
X158091978Y-137563810D01*
X158043519Y-137533407D01*
X158011938Y-137513327D01*
X158002875Y-137507274D01*
X158003556Y-137490603D01*
X158010191Y-137450621D01*
X158021433Y-137395181D01*
X158024571Y-137380876D01*
X158051647Y-137259173D01*
X157993356Y-137175522D01*
X157959043Y-137126652D01*
X157929360Y-137085020D01*
X157913750Y-137063689D01*
X157883801Y-137043907D01*
X157825914Y-137028472D01*
X157776344Y-137020929D01*
X157717991Y-137012092D01*
X157672504Y-137002403D01*
X157648918Y-136993821D01*
X157648107Y-136993094D01*
X157639058Y-136971970D01*
X157626220Y-136928219D01*
X157612113Y-136870594D01*
X157609716Y-136859799D01*
X157595810Y-136797106D01*
X157583498Y-136743188D01*
X157575213Y-136708680D01*
X157574618Y-136706395D01*
X157574751Y-136686025D01*
X157589611Y-136664333D01*
X157623893Y-136636361D01*
X157671173Y-136604353D01*
X157726794Y-136564358D01*
X157753915Y-136539698D01*
X158184310Y-136539698D01*
X158185059Y-136618027D01*
X158188553Y-136674446D01*
X158196663Y-136719041D01*
X158211261Y-136761899D01*
X158234218Y-136813109D01*
X158235549Y-136815921D01*
X158313176Y-136944848D01*
X158412214Y-137051653D01*
X158529791Y-137134148D01*
X158663037Y-137190144D01*
X158753395Y-137210776D01*
X158894063Y-137218700D01*
X159025074Y-137196216D01*
X159145693Y-137143549D01*
X159255189Y-137060928D01*
X159263871Y-137052618D01*
X159354684Y-136942895D01*
X159420033Y-136817978D01*
X159458421Y-136683137D01*
X159468350Y-136543641D01*
X159448323Y-136404758D01*
X159448181Y-136404215D01*
X159398572Y-136270599D01*
X159325903Y-136153728D01*
X159233976Y-136055548D01*
X159126588Y-135978007D01*
X159007540Y-135923049D01*
X158880629Y-135892623D01*
X158749654Y-135888673D01*
X158618416Y-135913148D01*
X158544034Y-135940971D01*
X158445508Y-136000739D01*
X158353974Y-136085990D01*
X158275666Y-136190209D01*
X158235549Y-136263474D01*
X158212148Y-136315331D01*
X158197195Y-136358358D01*
X158188819Y-136402642D01*
X158185148Y-136458271D01*
X158184311Y-136535331D01*
X158184310Y-136539698D01*
X157753915Y-136539698D01*
X157766439Y-136528310D01*
X157783997Y-136501770D01*
X157784018Y-136501677D01*
X157790617Y-136468110D01*
X157800184Y-136415552D01*
X157808656Y-136366954D01*
X157825855Y-136266233D01*
X157746531Y-136166544D01*
X157667206Y-136066856D01*
X157757705Y-135919945D01*
X157806151Y-135844322D01*
X157845882Y-135793471D01*
X157883264Y-135763931D01*
X157924662Y-135752239D01*
X157976443Y-135754933D01*
X158038683Y-135767133D01*
X158146440Y-135791306D01*
X158232629Y-135731945D01*
X158280174Y-135697263D01*
X158307364Y-135669406D01*
X158321196Y-135638575D01*
X158328291Y-135597981D01*
X158336843Y-135526908D01*
X158344738Y-135475734D01*
X158356766Y-135440046D01*
X158377716Y-135415432D01*
X158412378Y-135397478D01*
X158465541Y-135381773D01*
X158541994Y-135363904D01*
X158595775Y-135351538D01*
X158767166Y-135311535D01*
X158835851Y-135417351D01*
X158904537Y-135523167D01*
X159140241Y-135565339D01*
X159216327Y-135501182D01*
X159269805Y-135458578D01*
X159313089Y-135433872D01*
X159353723Y-135427187D01*
X159399251Y-135438649D01*
X159457216Y-135468381D01*
X159518837Y-135506178D01*
X159661678Y-135596307D01*
X159639790Y-135687883D01*
X159624268Y-135761856D01*
X159620974Y-135816768D01*
X159632218Y-135863990D01*
X159660308Y-135914897D01*
X159696175Y-135965528D01*
X159774479Y-136071572D01*
X159895722Y-136082934D01*
X159957495Y-136089458D01*
X159994573Y-136096679D01*
X160014189Y-136107581D01*
X160023576Y-136125148D01*
X160026599Y-136136940D01*
X160035546Y-136175839D01*
X160048577Y-136231716D01*
X160058899Y-136275615D01*
X160072086Y-136331765D01*
X160082932Y-136378430D01*
X160087978Y-136400566D01*
X160083011Y-136421746D01*
X160057189Y-136448854D01*
X160007006Y-136485280D01*
X159986705Y-136498513D01*
X159879018Y-136567539D01*
X159858854Y-136699260D01*
X159850106Y-136758186D01*
X159846891Y-136801223D01*
X159851836Y-136836282D01*
X159867567Y-136871273D01*
X159896708Y-136914105D01*
X159941885Y-136972690D01*
X159955302Y-136989842D01*
X159969976Y-137009698D01*
X159977343Y-137027546D01*
X159975557Y-137048787D01*
X159962775Y-137078825D01*
X159937152Y-137123062D01*
X159896844Y-137186901D01*
X159877959Y-137216382D01*
X159831240Y-137283619D01*
X159789830Y-137325328D01*
X159745745Y-137345101D01*
X159691003Y-137346531D01*
X159618111Y-137333320D01*
X159513023Y-137309350D01*
X159428411Y-137367625D01*
X159385990Y-137398251D01*
X159358359Y-137425228D01*
X159341296Y-137457034D01*
X159330578Y-137502151D01*
X159321986Y-137569059D01*
X159320248Y-137584902D01*
X159312617Y-137638904D01*
X159301688Y-137670051D01*
X159283064Y-137687483D01*
X159267390Y-137694757D01*
X159236171Y-137704848D01*
X159185769Y-137718742D01*
X159123491Y-137734696D01*
X159056647Y-137750968D01*
X158992544Y-137765814D01*
X158938491Y-137777492D01*
X158901797Y-137784260D01*
X158894063Y-137784619D01*
X158889696Y-137784822D01*
G37*
G36*
X156115692Y-140206208D02*
G01*
X156063333Y-140054310D01*
X156010974Y-139902411D01*
X155932487Y-139885579D01*
X155860087Y-139871912D01*
X155809418Y-139869686D01*
X155771434Y-139881549D01*
X155737087Y-139910147D01*
X155701091Y-139953298D01*
X155657261Y-140002944D01*
X155610660Y-140045806D01*
X155578389Y-140068366D01*
X155521722Y-140098884D01*
X155384092Y-140037558D01*
X155323740Y-140009958D01*
X155275497Y-139986560D01*
X155246155Y-139970726D01*
X155240559Y-139966503D01*
X155240842Y-139947568D01*
X155246417Y-139904590D01*
X155256239Y-139844904D01*
X155263621Y-139804726D01*
X155274996Y-139738764D01*
X155281983Y-139685262D01*
X155283755Y-139651491D01*
X155281989Y-139643741D01*
X155265553Y-139629842D01*
X155231219Y-139600788D01*
X155185519Y-139562106D01*
X155170931Y-139549756D01*
X155070470Y-139464709D01*
X154922853Y-139521949D01*
X154775236Y-139579188D01*
X154739274Y-139535908D01*
X154710347Y-139498798D01*
X154673052Y-139447980D01*
X154645305Y-139408615D01*
X154587299Y-139324603D01*
X154644004Y-139256567D01*
X154687116Y-139204940D01*
X154731028Y-139152503D01*
X154747813Y-139132514D01*
X154794916Y-139076497D01*
X154691698Y-138804411D01*
X154538490Y-138780404D01*
X154472189Y-138769348D01*
X154418750Y-138759181D01*
X154385421Y-138751351D01*
X154378107Y-138748393D01*
X154373926Y-138729963D01*
X154368562Y-138686977D01*
X154362856Y-138626830D01*
X154359731Y-138587105D01*
X154348529Y-138433819D01*
X154389798Y-138415681D01*
X155175042Y-138415681D01*
X155193745Y-138591769D01*
X155243116Y-138766167D01*
X155246666Y-138775458D01*
X155322127Y-138929295D01*
X155420513Y-139065411D01*
X155538316Y-139182365D01*
X155672028Y-139278717D01*
X155818141Y-139353026D01*
X155973146Y-139403852D01*
X156133536Y-139429754D01*
X156295803Y-139429293D01*
X156456437Y-139401026D01*
X156611932Y-139343515D01*
X156620283Y-139339466D01*
X156738435Y-139265251D01*
X156849000Y-139164854D01*
X156947989Y-139043899D01*
X157031415Y-138908011D01*
X157095292Y-138762815D01*
X157135632Y-138613934D01*
X157135976Y-138612040D01*
X157143980Y-138533244D01*
X157144816Y-138435985D01*
X157139173Y-138332719D01*
X157127743Y-138235902D01*
X157111216Y-138157990D01*
X157110688Y-138156207D01*
X157044301Y-137986818D01*
X156953089Y-137834810D01*
X156839862Y-137702308D01*
X156707426Y-137591436D01*
X156558589Y-137504316D01*
X156396160Y-137443072D01*
X156222945Y-137409828D01*
X156116446Y-137404207D01*
X155952786Y-137414999D01*
X155807583Y-137449301D01*
X155675641Y-137509056D01*
X155551763Y-137596206D01*
X155513661Y-137629570D01*
X155390976Y-137762815D01*
X155294974Y-137911468D01*
X155226454Y-138072110D01*
X155186211Y-138241321D01*
X155175042Y-138415681D01*
X154389798Y-138415681D01*
X154441845Y-138392806D01*
X154502465Y-138367344D01*
X154561100Y-138344620D01*
X154593665Y-138333284D01*
X154624960Y-138321781D01*
X154644130Y-138306453D01*
X154656225Y-138279018D01*
X154666296Y-138231195D01*
X154670384Y-138207482D01*
X154680778Y-138148971D01*
X154690155Y-138100846D01*
X154696181Y-138074710D01*
X154688288Y-138051839D01*
X154654470Y-138014892D01*
X154593910Y-137963015D01*
X154576791Y-137949413D01*
X154449817Y-137849596D01*
X154474322Y-137790835D01*
X154521710Y-137685206D01*
X154564502Y-137607714D01*
X154604718Y-137555178D01*
X154643068Y-137525112D01*
X154672423Y-137510902D01*
X154699707Y-137504150D01*
X154734188Y-137504581D01*
X154785135Y-137511917D01*
X154827921Y-137519603D01*
X154958024Y-137543579D01*
X155082818Y-137395581D01*
X155030077Y-137259731D01*
X155006599Y-137197737D01*
X154988253Y-137146415D01*
X154977760Y-137113511D01*
X154976318Y-137106678D01*
X154988305Y-137090876D01*
X155021308Y-137061947D01*
X155069500Y-137024208D01*
X155127056Y-136981974D01*
X155188151Y-136939560D01*
X155246959Y-136901282D01*
X155282115Y-136880137D01*
X155340852Y-136846385D01*
X155462250Y-136950382D01*
X155583648Y-137054380D01*
X155662527Y-137028180D01*
X155696691Y-137016724D01*
X155720390Y-137005310D01*
X155736640Y-136988108D01*
X155748457Y-136959291D01*
X155758860Y-136913031D01*
X155770865Y-136843498D01*
X155776899Y-136807219D01*
X155787810Y-136748794D01*
X155799593Y-136712982D01*
X155817291Y-136690659D01*
X155845947Y-136672701D01*
X155853361Y-136668868D01*
X155903427Y-136651367D01*
X155977222Y-136636163D01*
X156066472Y-136624960D01*
X156066765Y-136624933D01*
X156221845Y-136610753D01*
X156276296Y-136763100D01*
X156330747Y-136915446D01*
X156401259Y-136926962D01*
X156455979Y-136936140D01*
X156504798Y-136944712D01*
X156514738Y-136946544D01*
X156539709Y-136947465D01*
X156563482Y-136936636D01*
X156592628Y-136909303D01*
X156633715Y-136860711D01*
X156634246Y-136860055D01*
X156679959Y-136809539D01*
X156727322Y-136766674D01*
X156766357Y-136740453D01*
X156767562Y-136739897D01*
X156794827Y-136728601D01*
X156818263Y-136724350D01*
X156845482Y-136728688D01*
X156884096Y-136743161D01*
X156941717Y-136769315D01*
X156964154Y-136779814D01*
X157023889Y-136808932D01*
X157070708Y-136833897D01*
X157098349Y-136851253D01*
X157103124Y-136856567D01*
X157099886Y-136876268D01*
X157091902Y-136919791D01*
X157080579Y-136979547D01*
X157073775Y-137014845D01*
X157045271Y-137161889D01*
X157153493Y-137250919D01*
X157203686Y-137290939D01*
X157245130Y-137321635D01*
X157271316Y-137338282D01*
X157276117Y-137339950D01*
X157296499Y-137334423D01*
X157339145Y-137319606D01*
X157396615Y-137298143D01*
X157429183Y-137285513D01*
X157567847Y-137231075D01*
X157648871Y-137342473D01*
X157686772Y-137395689D01*
X157717300Y-137440605D01*
X157735467Y-137469810D01*
X157737976Y-137474931D01*
X157731612Y-137495411D01*
X157707889Y-137533179D01*
X157671056Y-137581907D01*
X157645720Y-137612282D01*
X157545382Y-137728574D01*
X157594078Y-137866366D01*
X157642775Y-138004159D01*
X157798197Y-138030191D01*
X157864725Y-138041813D01*
X157918256Y-138052068D01*
X157951711Y-138059549D01*
X157959290Y-138062201D01*
X157962821Y-138079705D01*
X157967703Y-138121924D01*
X157973167Y-138181632D01*
X157976414Y-138222980D01*
X157987866Y-138377780D01*
X157926038Y-138408845D01*
X157873238Y-138432497D01*
X157809343Y-138457297D01*
X157779041Y-138467777D01*
X157736342Y-138482114D01*
X157708366Y-138495967D01*
X157690471Y-138516258D01*
X157678016Y-138549907D01*
X157666358Y-138603836D01*
X157657891Y-138648404D01*
X157635839Y-138764482D01*
X157758026Y-138862017D01*
X157810091Y-138904580D01*
X157851111Y-138940023D01*
X157875654Y-138963544D01*
X157880214Y-138970009D01*
X157874078Y-138988282D01*
X157857606Y-139028702D01*
X157833703Y-139084275D01*
X157818569Y-139118477D01*
X157785539Y-139188498D01*
X157758097Y-139235429D01*
X157731241Y-139266389D01*
X157699966Y-139288494D01*
X157698464Y-139289345D01*
X157663578Y-139307075D01*
X157633955Y-139314067D01*
X157597401Y-139311133D01*
X157544041Y-139299631D01*
X157486365Y-139287387D01*
X157436538Y-139279088D01*
X157411841Y-139276810D01*
X157378659Y-139288857D01*
X157338393Y-139319456D01*
X157300484Y-139359744D01*
X157274373Y-139400857D01*
X157271265Y-139408785D01*
X157272433Y-139435706D01*
X157283636Y-139483741D01*
X157302719Y-139544411D01*
X157312971Y-139572700D01*
X157337959Y-139642870D01*
X157350460Y-139689488D01*
X157351612Y-139717969D01*
X157346073Y-139730260D01*
X157319519Y-139754822D01*
X157275254Y-139788262D01*
X157219539Y-139826645D01*
X157158634Y-139866038D01*
X157098799Y-139902505D01*
X157046294Y-139932111D01*
X157007380Y-139950923D01*
X156988401Y-139955057D01*
X156967701Y-139939425D01*
X156929922Y-139908093D01*
X156881826Y-139866723D01*
X156860685Y-139848165D01*
X156753443Y-139753459D01*
X156676627Y-139781932D01*
X156632178Y-139798634D01*
X156602338Y-139810273D01*
X156595405Y-139813306D01*
X156591053Y-139829290D01*
X156583185Y-139869526D01*
X156573200Y-139926637D01*
X156568705Y-139953921D01*
X156557485Y-140018098D01*
X156546769Y-140070598D01*
X156538329Y-140103027D01*
X156536085Y-140108345D01*
X156502854Y-140136630D01*
X156444481Y-140160274D01*
X156367766Y-140176755D01*
X156343713Y-140179765D01*
X156277783Y-140186975D01*
X156213148Y-140194346D01*
X156181696Y-140198097D01*
X156133536Y-140204015D01*
X156115692Y-140206208D01*
G37*
G36*
X155179107Y-136475881D02*
G01*
X155134085Y-136470068D01*
X155079998Y-136465440D01*
X155043866Y-136468330D01*
X155012832Y-136482785D01*
X154974042Y-136512850D01*
X154959619Y-136524971D01*
X154882447Y-136590043D01*
X154769123Y-136528859D01*
X154713686Y-136498588D01*
X154679985Y-136475018D01*
X154664318Y-136449625D01*
X154662982Y-136413884D01*
X154672277Y-136359270D01*
X154679638Y-136322795D01*
X154672058Y-136287938D01*
X154638282Y-136236567D01*
X154613455Y-136206758D01*
X154573687Y-136162803D01*
X154544262Y-136137912D01*
X154514893Y-136126672D01*
X154475293Y-136123672D01*
X154455340Y-136123567D01*
X154370000Y-136123567D01*
X154329790Y-136003973D01*
X154289581Y-135884380D01*
X154368357Y-135818425D01*
X154410894Y-135781613D01*
X154434457Y-135753649D01*
X154444650Y-135722877D01*
X154446449Y-135689370D01*
X154767106Y-135689370D01*
X154779432Y-135801244D01*
X154817675Y-135907718D01*
X154881040Y-136001742D01*
X154971320Y-136082413D01*
X155074630Y-136133871D01*
X155191472Y-136156341D01*
X155228512Y-136157466D01*
X155304721Y-136152914D01*
X155371968Y-136141160D01*
X155402112Y-136131525D01*
X155488960Y-136079050D01*
X155562783Y-136002641D01*
X155617123Y-135909694D01*
X155632557Y-135867590D01*
X155643695Y-135801579D01*
X155645013Y-135720036D01*
X155637029Y-135637723D01*
X155622301Y-135575132D01*
X155577914Y-135487754D01*
X155509531Y-135405994D01*
X155425033Y-135338382D01*
X155379962Y-135312916D01*
X155278768Y-135278529D01*
X155172029Y-135268571D01*
X155067145Y-135282001D01*
X154971517Y-135317780D01*
X154892542Y-135374870D01*
X154885214Y-135382381D01*
X154820037Y-135473836D01*
X154780654Y-135578200D01*
X154767106Y-135689370D01*
X154446449Y-135689370D01*
X154447079Y-135677641D01*
X154447133Y-135654604D01*
X154445547Y-135598072D01*
X154437544Y-135560569D01*
X154418254Y-135529151D01*
X154387240Y-135495402D01*
X154327348Y-135434066D01*
X154389007Y-135314288D01*
X154420498Y-135257373D01*
X154449972Y-135211442D01*
X154472312Y-135184263D01*
X154476909Y-135180900D01*
X154506968Y-135175221D01*
X154555495Y-135175447D01*
X154589542Y-135178716D01*
X154641678Y-135183942D01*
X154675756Y-135179974D01*
X154705205Y-135163392D01*
X154729586Y-135143035D01*
X154761899Y-135110929D01*
X154777811Y-135079890D01*
X154782945Y-135036197D01*
X154783239Y-135012039D01*
X154786075Y-134960701D01*
X154798036Y-134923371D01*
X154824303Y-134895034D01*
X154870054Y-134870675D01*
X154940468Y-134845279D01*
X154962918Y-134838058D01*
X155086363Y-134798856D01*
X155129250Y-134857021D01*
X155170454Y-134908525D01*
X155206206Y-134938169D01*
X155247112Y-134951781D01*
X155303782Y-134955191D01*
X155307918Y-134955199D01*
X155364101Y-134952238D01*
X155404788Y-134939355D01*
X155446255Y-134910547D01*
X155459788Y-134899181D01*
X155499150Y-134867795D01*
X155529815Y-134847468D01*
X155540820Y-134843163D01*
X155561611Y-134850510D01*
X155601765Y-134869856D01*
X155652946Y-134897160D01*
X155657667Y-134899792D01*
X155758928Y-134956420D01*
X155749349Y-135048068D01*
X155745192Y-135101376D01*
X155749496Y-135137319D01*
X155766533Y-135169787D01*
X155799605Y-135211509D01*
X155835547Y-135251980D01*
X155865853Y-135274483D01*
X155903334Y-135285539D01*
X155956345Y-135291305D01*
X156053249Y-135299307D01*
X156090152Y-135419345D01*
X156107493Y-135475766D01*
X156120543Y-135518257D01*
X156127029Y-135539416D01*
X156127359Y-135540506D01*
X156116339Y-135550174D01*
X156088013Y-135573454D01*
X156069375Y-135588521D01*
X156031218Y-135618730D01*
X156002563Y-135640549D01*
X155995671Y-135645399D01*
X155986531Y-135665461D01*
X155977965Y-135707887D01*
X155972385Y-135757434D01*
X155968966Y-135813586D01*
X155971934Y-135849214D01*
X155984881Y-135875680D01*
X156011398Y-135904348D01*
X156022081Y-135914640D01*
X156055568Y-135950765D01*
X156076327Y-135980938D01*
X156079647Y-135991301D01*
X156071345Y-136023053D01*
X156049686Y-136071655D01*
X156019536Y-136127642D01*
X155985765Y-136181549D01*
X155971585Y-136201409D01*
X155947565Y-136231298D01*
X155926014Y-136246297D01*
X155896032Y-136249920D01*
X155846722Y-136245681D01*
X155837493Y-136244642D01*
X155782403Y-136239962D01*
X155746034Y-136243433D01*
X155715529Y-136257990D01*
X155687647Y-136278835D01*
X155655501Y-136307096D01*
X155638738Y-136333701D01*
X155632400Y-136370698D01*
X155631506Y-136415290D01*
X155629770Y-136463825D01*
X155621148Y-136498741D01*
X155600524Y-136524872D01*
X155562777Y-136547051D01*
X155502790Y-136570113D01*
X155448409Y-136588204D01*
X155337335Y-136624356D01*
X155284596Y-136562021D01*
X155254448Y-136524687D01*
X155235245Y-136497641D01*
X155231618Y-136489961D01*
X155228512Y-136488559D01*
X155216976Y-136483350D01*
X155179107Y-136475881D01*
G37*
D10*
X143460000Y-138712500D03*
X143460000Y-141837500D03*
D11*
X115425000Y-109425000D03*
D12*
X147912500Y-134100000D03*
X146187500Y-134100000D03*
D13*
X126350000Y-138200000D03*
X120950000Y-138200000D03*
D14*
X142812500Y-145225000D03*
X145737500Y-145225000D03*
D15*
X149512500Y-134100000D03*
X151337500Y-134100000D03*
D10*
X151460000Y-138712500D03*
X151460000Y-141837500D03*
D16*
X149600000Y-145225000D03*
X147550000Y-145225000D03*
D11*
X157075000Y-144075000D03*
D17*
X145370000Y-125100000D03*
X148470000Y-125100000D03*
D18*
X142247500Y-121600000D03*
X145372500Y-121600000D03*
D19*
X151070000Y-132100000D03*
X151070000Y-130275000D03*
D20*
X148237500Y-132600000D03*
X148237500Y-132100000D03*
X148237500Y-131600000D03*
X145362500Y-131600000D03*
X145362500Y-132100000D03*
X145362500Y-132600000D03*
D21*
X146800000Y-132100000D03*
D17*
X139670000Y-125100000D03*
X142770000Y-125100000D03*
D11*
X157075000Y-109425000D03*
D22*
X125450000Y-144800000D03*
X121850000Y-144800000D03*
D11*
X115425000Y-144075000D03*
D23*
X132530000Y-142425000D03*
D24*
X137530000Y-142425000D03*
D25*
X132750000Y-116075000D03*
X130210000Y-118615000D03*
X132750000Y-121155000D03*
D26*
X146322500Y-138800000D03*
X146322500Y-139750000D03*
X146322500Y-140700000D03*
X148597500Y-140700000D03*
X148597500Y-138800000D03*
D17*
X150780000Y-125100000D03*
X153880000Y-125100000D03*
D12*
X148237500Y-129975000D03*
X146512500Y-129975000D03*
D27*
X123050000Y-131280000D03*
D28*
X116750000Y-129000000D03*
D27*
X123050000Y-126720000D03*
D23*
X117075000Y-116115000D03*
D24*
X117075000Y-121115000D03*
D29*
X152250000Y-115500000D03*
D30*
X147250000Y-110500000D03*
D29*
X142250000Y-115500000D03*
M02*
