%TF.GenerationSoftware,KiCad,Pcbnew,(6.0.7-1)-1*%
%TF.CreationDate,2022-08-15T15:40:10-06:00*%
%TF.ProjectId,led_modulator,6c65645f-6d6f-4647-956c-61746f722e6b,rev?*%
%TF.SameCoordinates,Original*%
%TF.FileFunction,Copper,L2,Bot*%
%TF.FilePolarity,Positive*%
%FSLAX46Y46*%
G04 Gerber Fmt 4.6, Leading zero omitted, Abs format (unit mm)*
G04 Created by KiCad (PCBNEW (6.0.7-1)-1) date 2022-08-15 15:40:10*
%MOMM*%
%LPD*%
G01*
G04 APERTURE LIST*
%TA.AperFunction,ComponentPad*%
%ADD10R,2.600000X2.600000*%
%TD*%
%TA.AperFunction,ComponentPad*%
%ADD11C,2.600000*%
%TD*%
%TA.AperFunction,ComponentPad*%
%ADD12C,1.473200*%
%TD*%
%TA.AperFunction,ComponentPad*%
%ADD13O,1.200000X2.200000*%
%TD*%
%TA.AperFunction,ComponentPad*%
%ADD14O,2.200000X1.200000*%
%TD*%
%TA.AperFunction,ViaPad*%
%ADD15C,0.800000*%
%TD*%
%TA.AperFunction,ViaPad*%
%ADD16C,0.600000*%
%TD*%
%TA.AperFunction,Conductor*%
%ADD17C,0.400000*%
%TD*%
G04 APERTURE END LIST*
D10*
X132530000Y-142425000D03*
D11*
X137530000Y-142425000D03*
D12*
X132750000Y-116075000D03*
X130210000Y-118615000D03*
X132750000Y-121155000D03*
D10*
X117075000Y-116115000D03*
D11*
X117075000Y-121115000D03*
D13*
X152250000Y-115500000D03*
D14*
X147250000Y-110500000D03*
D13*
X142250000Y-115500000D03*
D15*
X143900000Y-132100000D03*
X125200000Y-126720000D03*
X151450000Y-143500000D03*
X155600000Y-125100000D03*
X143470000Y-143490000D03*
X117800000Y-138200000D03*
X151175000Y-145200000D03*
X119600000Y-144800000D03*
D16*
X147550000Y-139750000D03*
X147298122Y-133103074D03*
X149625000Y-130400000D03*
D17*
X125200000Y-126720000D02*
X125220000Y-126720000D01*
%TA.AperFunction,Conductor*%
G36*
X144708691Y-106319407D02*
G01*
X144744655Y-106368907D01*
X144749500Y-106399500D01*
X144749500Y-106965047D01*
X144747996Y-106982236D01*
X144744864Y-107000000D01*
X144746368Y-107008529D01*
X144746368Y-107008532D01*
X144747033Y-107012304D01*
X144748060Y-107019790D01*
X144755911Y-107099500D01*
X144759636Y-107137322D01*
X144761047Y-107141974D01*
X144761048Y-107141978D01*
X144798277Y-107264706D01*
X144799691Y-107269367D01*
X144864738Y-107391060D01*
X144952275Y-107497725D01*
X145058940Y-107585262D01*
X145180633Y-107650309D01*
X145185293Y-107651723D01*
X145185294Y-107651723D01*
X145308022Y-107688952D01*
X145308026Y-107688953D01*
X145312678Y-107690364D01*
X145377944Y-107696792D01*
X145386537Y-107698253D01*
X145390622Y-107699883D01*
X145396915Y-107700500D01*
X145410731Y-107700500D01*
X145420430Y-107700977D01*
X145430086Y-107701928D01*
X145430212Y-107701940D01*
X145437693Y-107702967D01*
X145441465Y-107703632D01*
X145441471Y-107703632D01*
X145450000Y-107705136D01*
X145467764Y-107702004D01*
X145484953Y-107700500D01*
X149015047Y-107700500D01*
X149032236Y-107702004D01*
X149050000Y-107705136D01*
X149058529Y-107703632D01*
X149058532Y-107703632D01*
X149062304Y-107702967D01*
X149069790Y-107701940D01*
X149182479Y-107690841D01*
X149187322Y-107690364D01*
X149191974Y-107688953D01*
X149191978Y-107688952D01*
X149314706Y-107651723D01*
X149314707Y-107651723D01*
X149319367Y-107650309D01*
X149441060Y-107585262D01*
X149547725Y-107497725D01*
X149635262Y-107391060D01*
X149700309Y-107269367D01*
X149701723Y-107264706D01*
X149738952Y-107141978D01*
X149738953Y-107141974D01*
X149740364Y-107137322D01*
X149746792Y-107072056D01*
X149748253Y-107063463D01*
X149749883Y-107059378D01*
X149750500Y-107053085D01*
X149750500Y-107039269D01*
X149750977Y-107029562D01*
X149751940Y-107019788D01*
X149752967Y-107012307D01*
X149753632Y-107008535D01*
X149753632Y-107008529D01*
X149755136Y-107000000D01*
X149752004Y-106982236D01*
X149750500Y-106965047D01*
X149750500Y-106399500D01*
X149769407Y-106341309D01*
X149818907Y-106305345D01*
X149849500Y-106300500D01*
X157465047Y-106300500D01*
X157482236Y-106302004D01*
X157500000Y-106305136D01*
X157508649Y-106303611D01*
X157531391Y-106302263D01*
X157796702Y-106317163D01*
X157807725Y-106318404D01*
X158011306Y-106352994D01*
X158095209Y-106367250D01*
X158106033Y-106369720D01*
X158201594Y-106397250D01*
X158386252Y-106450450D01*
X158396722Y-106454114D01*
X158666141Y-106565711D01*
X158676131Y-106570522D01*
X158931354Y-106711578D01*
X158940750Y-106717481D01*
X159178581Y-106886232D01*
X159187252Y-106893147D01*
X159316372Y-107008535D01*
X159404689Y-107087460D01*
X159412540Y-107095311D01*
X159445755Y-107132479D01*
X159563921Y-107264706D01*
X159606851Y-107312745D01*
X159613768Y-107321419D01*
X159782516Y-107559246D01*
X159788421Y-107568644D01*
X159907877Y-107784784D01*
X159929475Y-107823863D01*
X159934289Y-107833859D01*
X160001295Y-107995625D01*
X160045885Y-108103274D01*
X160049550Y-108113748D01*
X160072226Y-108192458D01*
X160130280Y-108393967D01*
X160132750Y-108404791D01*
X160175930Y-108658927D01*
X160181595Y-108692271D01*
X160182837Y-108703298D01*
X160193110Y-108886216D01*
X160197737Y-108968609D01*
X160196389Y-108991351D01*
X160194864Y-109000000D01*
X160196368Y-109008528D01*
X160197996Y-109017761D01*
X160199500Y-109034953D01*
X160199500Y-144465047D01*
X160197996Y-144482236D01*
X160194864Y-144500000D01*
X160196368Y-144508530D01*
X160196389Y-144508649D01*
X160197737Y-144531391D01*
X160190476Y-144660694D01*
X160182838Y-144796697D01*
X160181596Y-144807725D01*
X160162618Y-144919421D01*
X160132750Y-145095209D01*
X160130280Y-145106033D01*
X160115557Y-145157138D01*
X160055118Y-145366928D01*
X160049552Y-145386247D01*
X160045886Y-145396722D01*
X159978233Y-145560053D01*
X159934292Y-145666135D01*
X159929478Y-145676131D01*
X159839981Y-145838065D01*
X159788422Y-145931354D01*
X159782519Y-145940750D01*
X159613768Y-146178581D01*
X159606851Y-146187255D01*
X159412540Y-146404689D01*
X159404689Y-146412540D01*
X159187255Y-146606851D01*
X159178581Y-146613768D01*
X159040847Y-146711496D01*
X158940754Y-146782516D01*
X158931356Y-146788421D01*
X158676131Y-146929478D01*
X158666141Y-146934289D01*
X158396722Y-147045886D01*
X158386252Y-147049550D01*
X158201594Y-147102750D01*
X158106033Y-147130280D01*
X158095209Y-147132750D01*
X158011306Y-147147006D01*
X157807725Y-147181596D01*
X157796702Y-147182837D01*
X157531391Y-147197737D01*
X157508649Y-147196389D01*
X157508530Y-147196368D01*
X157500000Y-147194864D01*
X157482236Y-147197996D01*
X157465047Y-147199500D01*
X115034953Y-147199500D01*
X115017764Y-147197996D01*
X115000000Y-147194864D01*
X114991470Y-147196368D01*
X114991351Y-147196389D01*
X114968609Y-147197737D01*
X114703298Y-147182837D01*
X114692275Y-147181596D01*
X114488694Y-147147006D01*
X114404791Y-147132750D01*
X114393967Y-147130280D01*
X114298406Y-147102750D01*
X114113748Y-147049550D01*
X114103278Y-147045886D01*
X113833859Y-146934289D01*
X113823869Y-146929478D01*
X113568644Y-146788421D01*
X113559246Y-146782516D01*
X113459153Y-146711496D01*
X113321419Y-146613768D01*
X113312745Y-146606851D01*
X113095311Y-146412540D01*
X113087460Y-146404689D01*
X112893149Y-146187255D01*
X112886232Y-146178581D01*
X112717481Y-145940750D01*
X112711578Y-145931354D01*
X112660019Y-145838065D01*
X112570522Y-145676131D01*
X112565708Y-145666135D01*
X112521768Y-145560053D01*
X112454114Y-145396722D01*
X112450448Y-145386247D01*
X112444883Y-145366928D01*
X112384443Y-145157138D01*
X112369720Y-145106033D01*
X112367250Y-145095209D01*
X112337382Y-144919421D01*
X112318404Y-144807725D01*
X112317162Y-144796697D01*
X112309525Y-144660694D01*
X112302263Y-144531391D01*
X112303611Y-144508649D01*
X112303632Y-144508530D01*
X112305136Y-144500000D01*
X112302004Y-144482236D01*
X112300500Y-144465047D01*
X112300500Y-144118233D01*
X113519906Y-144118233D01*
X113520246Y-144121795D01*
X113520246Y-144121802D01*
X113538274Y-144310748D01*
X113546102Y-144392792D01*
X113611657Y-144660694D01*
X113715199Y-144916326D01*
X113854558Y-145154335D01*
X114026816Y-145369732D01*
X114228364Y-145558008D01*
X114454979Y-145715216D01*
X114458184Y-145716811D01*
X114458190Y-145716814D01*
X114698699Y-145836466D01*
X114698704Y-145836468D01*
X114701914Y-145838065D01*
X114705325Y-145839183D01*
X114705327Y-145839184D01*
X114960593Y-145922864D01*
X114960596Y-145922865D01*
X114963998Y-145923980D01*
X115235738Y-145971162D01*
X115286160Y-145973672D01*
X115321644Y-145975439D01*
X115321657Y-145975439D01*
X115322876Y-145975500D01*
X115495070Y-145975500D01*
X115700083Y-145960625D01*
X115790086Y-145940754D01*
X115965904Y-145901937D01*
X115965910Y-145901935D01*
X115969403Y-145901164D01*
X115972752Y-145899895D01*
X115972756Y-145899894D01*
X116135951Y-145838065D01*
X116227319Y-145803449D01*
X116468428Y-145669525D01*
X116687678Y-145502198D01*
X116880477Y-145304974D01*
X116992376Y-145151242D01*
X117040682Y-145084876D01*
X117042787Y-145081984D01*
X117171206Y-144837899D01*
X117263045Y-144577832D01*
X117316380Y-144307232D01*
X117330094Y-144031767D01*
X117329754Y-144028205D01*
X117329754Y-144028198D01*
X117305085Y-143769646D01*
X130929500Y-143769646D01*
X130932618Y-143795846D01*
X130978061Y-143898153D01*
X131057287Y-143977241D01*
X131065645Y-143980936D01*
X131152864Y-144019496D01*
X131152866Y-144019496D01*
X131159673Y-144022506D01*
X131167067Y-144023368D01*
X131182378Y-144025153D01*
X131185354Y-144025500D01*
X133874646Y-144025500D01*
X133892561Y-144023368D01*
X133893469Y-144023260D01*
X133893470Y-144023260D01*
X133900846Y-144022382D01*
X134003153Y-143976939D01*
X134082241Y-143897713D01*
X134097497Y-143863205D01*
X136451177Y-143863205D01*
X136451367Y-143864404D01*
X136455505Y-143869271D01*
X136570512Y-143953597D01*
X136576718Y-143957475D01*
X136806985Y-144078625D01*
X136813712Y-144081550D01*
X137059355Y-144167332D01*
X137066421Y-144169226D01*
X137322054Y-144217759D01*
X137329333Y-144218588D01*
X137589325Y-144228803D01*
X137596645Y-144228547D01*
X137855303Y-144200220D01*
X137862486Y-144198888D01*
X138114115Y-144132640D01*
X138121045Y-144130253D01*
X138149022Y-144118233D01*
X155169906Y-144118233D01*
X155170246Y-144121795D01*
X155170246Y-144121802D01*
X155188274Y-144310748D01*
X155196102Y-144392792D01*
X155261657Y-144660694D01*
X155365199Y-144916326D01*
X155504558Y-145154335D01*
X155676816Y-145369732D01*
X155878364Y-145558008D01*
X156104979Y-145715216D01*
X156108184Y-145716811D01*
X156108190Y-145716814D01*
X156348699Y-145836466D01*
X156348704Y-145836468D01*
X156351914Y-145838065D01*
X156355325Y-145839183D01*
X156355327Y-145839184D01*
X156610593Y-145922864D01*
X156610596Y-145922865D01*
X156613998Y-145923980D01*
X156885738Y-145971162D01*
X156936160Y-145973672D01*
X156971644Y-145975439D01*
X156971657Y-145975439D01*
X156972876Y-145975500D01*
X157145070Y-145975500D01*
X157350083Y-145960625D01*
X157440086Y-145940754D01*
X157615904Y-145901937D01*
X157615910Y-145901935D01*
X157619403Y-145901164D01*
X157622752Y-145899895D01*
X157622756Y-145899894D01*
X157785951Y-145838065D01*
X157877319Y-145803449D01*
X158118428Y-145669525D01*
X158337678Y-145502198D01*
X158530477Y-145304974D01*
X158642376Y-145151242D01*
X158690682Y-145084876D01*
X158692787Y-145081984D01*
X158821206Y-144837899D01*
X158913045Y-144577832D01*
X158966380Y-144307232D01*
X158980094Y-144031767D01*
X158979754Y-144028205D01*
X158979754Y-144028198D01*
X158954239Y-143760779D01*
X158954238Y-143760775D01*
X158953898Y-143757208D01*
X158888343Y-143489306D01*
X158784801Y-143233674D01*
X158645442Y-142995665D01*
X158473184Y-142780268D01*
X158271636Y-142591992D01*
X158045021Y-142434784D01*
X158041816Y-142433189D01*
X158041810Y-142433186D01*
X157801301Y-142313534D01*
X157801296Y-142313532D01*
X157798086Y-142311935D01*
X157794675Y-142310817D01*
X157794673Y-142310816D01*
X157539407Y-142227136D01*
X157539404Y-142227135D01*
X157536002Y-142226020D01*
X157264262Y-142178838D01*
X157213840Y-142176328D01*
X157178356Y-142174561D01*
X157178343Y-142174561D01*
X157177124Y-142174500D01*
X157004930Y-142174500D01*
X156799917Y-142189375D01*
X156796406Y-142190150D01*
X156796407Y-142190150D01*
X156534096Y-142248063D01*
X156534090Y-142248065D01*
X156530597Y-142248836D01*
X156527248Y-142250105D01*
X156527244Y-142250106D01*
X156423185Y-142289530D01*
X156272681Y-142346551D01*
X156031572Y-142480475D01*
X155812322Y-142647802D01*
X155619523Y-142845026D01*
X155617414Y-142847923D01*
X155617411Y-142847927D01*
X155478456Y-143038831D01*
X155457213Y-143068016D01*
X155328794Y-143312101D01*
X155236955Y-143572168D01*
X155183620Y-143842768D01*
X155183442Y-143846341D01*
X155183442Y-143846342D01*
X155182042Y-143874456D01*
X155169906Y-144118233D01*
X138149022Y-144118233D01*
X138360098Y-144027548D01*
X138366605Y-144024161D01*
X138587859Y-143887246D01*
X138593782Y-143882942D01*
X138603806Y-143874456D01*
X138610824Y-143863116D01*
X138610596Y-143860053D01*
X138608802Y-143857355D01*
X137541086Y-142789639D01*
X137529203Y-142783585D01*
X137524172Y-142784381D01*
X136457231Y-143851322D01*
X136451177Y-143863205D01*
X134097497Y-143863205D01*
X134127506Y-143795327D01*
X134130500Y-143769646D01*
X134130500Y-142381417D01*
X135725748Y-142381417D01*
X135738232Y-142641315D01*
X135739124Y-142648578D01*
X135789886Y-142903779D01*
X135791843Y-142910835D01*
X135879765Y-143155717D01*
X135882748Y-143162418D01*
X136005900Y-143391614D01*
X136009839Y-143397797D01*
X136083311Y-143496188D01*
X136094205Y-143503887D01*
X136095654Y-143503868D01*
X136100745Y-143500702D01*
X137165361Y-142436086D01*
X137170603Y-142425797D01*
X137888585Y-142425797D01*
X137889381Y-142430828D01*
X138959686Y-143501133D01*
X138971569Y-143507187D01*
X138974524Y-143506719D01*
X139114316Y-143289387D01*
X139117818Y-143282938D01*
X139224681Y-143045710D01*
X139227185Y-143038831D01*
X139297813Y-142788404D01*
X139299274Y-142781220D01*
X139332259Y-142521936D01*
X139332638Y-142516987D01*
X139334982Y-142427492D01*
X139334863Y-142422517D01*
X139315492Y-142161851D01*
X139314411Y-142154622D01*
X139256985Y-141900835D01*
X139254845Y-141893834D01*
X139160539Y-141651326D01*
X139157390Y-141644724D01*
X139028274Y-141418819D01*
X139024174Y-141412742D01*
X138977297Y-141353279D01*
X138966206Y-141345868D01*
X138964063Y-141345952D01*
X138960001Y-141348552D01*
X137894639Y-142413914D01*
X137888585Y-142425797D01*
X137170603Y-142425797D01*
X137171415Y-142424203D01*
X137170619Y-142419172D01*
X136102340Y-141350893D01*
X136090457Y-141344839D01*
X136087655Y-141345282D01*
X136084809Y-141347556D01*
X136062837Y-141373974D01*
X136058574Y-141379950D01*
X135923599Y-141602382D01*
X135920269Y-141608918D01*
X135819653Y-141848860D01*
X135817326Y-141855813D01*
X135753280Y-142107996D01*
X135752008Y-142115212D01*
X135725940Y-142374097D01*
X135725748Y-142381417D01*
X134130500Y-142381417D01*
X134130500Y-141080354D01*
X134127382Y-141054154D01*
X134097384Y-140986619D01*
X136448285Y-140986619D01*
X136452590Y-140994037D01*
X137518914Y-142060361D01*
X137530797Y-142066415D01*
X137535828Y-142065619D01*
X138603666Y-140997781D01*
X138609720Y-140985898D01*
X138609640Y-140985391D01*
X138604675Y-140979705D01*
X138449148Y-140871812D01*
X138442836Y-140868094D01*
X138209482Y-140753017D01*
X138202682Y-140750269D01*
X137954882Y-140670948D01*
X137947755Y-140669237D01*
X137690937Y-140627411D01*
X137683656Y-140626774D01*
X137423469Y-140623368D01*
X137416173Y-140623814D01*
X137158342Y-140658904D01*
X137151190Y-140660424D01*
X136901386Y-140733235D01*
X136894520Y-140735802D01*
X136658231Y-140844733D01*
X136651825Y-140848284D01*
X136456566Y-140976301D01*
X136448285Y-140986619D01*
X134097384Y-140986619D01*
X134081939Y-140951847D01*
X134002713Y-140872759D01*
X133973591Y-140859884D01*
X133907136Y-140830504D01*
X133907134Y-140830504D01*
X133900327Y-140827494D01*
X133886322Y-140825861D01*
X133877494Y-140824832D01*
X133877493Y-140824832D01*
X133874646Y-140824500D01*
X131185354Y-140824500D01*
X131168951Y-140826452D01*
X131166531Y-140826740D01*
X131166530Y-140826740D01*
X131159154Y-140827618D01*
X131056847Y-140873061D01*
X130977759Y-140952287D01*
X130932494Y-141054673D01*
X130929500Y-141080354D01*
X130929500Y-143769646D01*
X117305085Y-143769646D01*
X117304239Y-143760779D01*
X117304238Y-143760775D01*
X117303898Y-143757208D01*
X117238343Y-143489306D01*
X117134801Y-143233674D01*
X116995442Y-142995665D01*
X116823184Y-142780268D01*
X116621636Y-142591992D01*
X116395021Y-142434784D01*
X116391816Y-142433189D01*
X116391810Y-142433186D01*
X116151301Y-142313534D01*
X116151296Y-142313532D01*
X116148086Y-142311935D01*
X116144675Y-142310817D01*
X116144673Y-142310816D01*
X115889407Y-142227136D01*
X115889404Y-142227135D01*
X115886002Y-142226020D01*
X115614262Y-142178838D01*
X115563840Y-142176328D01*
X115528356Y-142174561D01*
X115528343Y-142174561D01*
X115527124Y-142174500D01*
X115354930Y-142174500D01*
X115149917Y-142189375D01*
X115146406Y-142190150D01*
X115146407Y-142190150D01*
X114884096Y-142248063D01*
X114884090Y-142248065D01*
X114880597Y-142248836D01*
X114877248Y-142250105D01*
X114877244Y-142250106D01*
X114773185Y-142289530D01*
X114622681Y-142346551D01*
X114381572Y-142480475D01*
X114162322Y-142647802D01*
X113969523Y-142845026D01*
X113967414Y-142847923D01*
X113967411Y-142847927D01*
X113828456Y-143038831D01*
X113807213Y-143068016D01*
X113678794Y-143312101D01*
X113586955Y-143572168D01*
X113533620Y-143842768D01*
X113533442Y-143846341D01*
X113533442Y-143846342D01*
X113532042Y-143874456D01*
X113519906Y-144118233D01*
X112300500Y-144118233D01*
X112300500Y-136000000D01*
X141500000Y-136000000D01*
X156250000Y-136000000D01*
X156250000Y-135750000D01*
X141849000Y-135750000D01*
X141790809Y-135731093D01*
X141754845Y-135681593D01*
X141750000Y-135651000D01*
X141750000Y-127849000D01*
X141768907Y-127790809D01*
X141818407Y-127754845D01*
X141849000Y-127750000D01*
X156250000Y-127750000D01*
X156250000Y-127500000D01*
X141500000Y-127500000D01*
X141500000Y-136000000D01*
X112300500Y-136000000D01*
X112300500Y-121115000D01*
X115469551Y-121115000D01*
X115469856Y-121118875D01*
X115487871Y-121347771D01*
X115489317Y-121366148D01*
X115548127Y-121611111D01*
X115644534Y-121843859D01*
X115776164Y-122058659D01*
X115939776Y-122250224D01*
X116131341Y-122413836D01*
X116346141Y-122545466D01*
X116434815Y-122582196D01*
X116575298Y-122640386D01*
X116575303Y-122640388D01*
X116578889Y-122641873D01*
X116582663Y-122642779D01*
X116582666Y-122642780D01*
X116820078Y-122699777D01*
X116823852Y-122700683D01*
X116827717Y-122700987D01*
X116827722Y-122700988D01*
X117071125Y-122720144D01*
X117075000Y-122720449D01*
X117078875Y-122720144D01*
X117322278Y-122700988D01*
X117322283Y-122700987D01*
X117326148Y-122700683D01*
X117329922Y-122699777D01*
X117567334Y-122642780D01*
X117567337Y-122642779D01*
X117571111Y-122641873D01*
X117574697Y-122640388D01*
X117574702Y-122640386D01*
X117715185Y-122582196D01*
X117803859Y-122545466D01*
X118018659Y-122413836D01*
X118210224Y-122250224D01*
X118373836Y-122058659D01*
X118505466Y-121843859D01*
X118601873Y-121611111D01*
X118660683Y-121366148D01*
X118662130Y-121347771D01*
X118678446Y-121140450D01*
X131707984Y-121140450D01*
X131725002Y-121343122D01*
X131781063Y-121538629D01*
X131783278Y-121542939D01*
X131816372Y-121607334D01*
X131874030Y-121719524D01*
X132000363Y-121878916D01*
X132155249Y-122010734D01*
X132159472Y-122013094D01*
X132159476Y-122013097D01*
X132274947Y-122077631D01*
X132332789Y-122109958D01*
X132383980Y-122126591D01*
X132521615Y-122171312D01*
X132521618Y-122171313D01*
X132526220Y-122172808D01*
X132728176Y-122196889D01*
X132732998Y-122196518D01*
X132733001Y-122196518D01*
X132799138Y-122191429D01*
X132930962Y-122181286D01*
X133126855Y-122126591D01*
X133131168Y-122124412D01*
X133131174Y-122124410D01*
X133304074Y-122037072D01*
X133304076Y-122037070D01*
X133308395Y-122034889D01*
X133343329Y-122007596D01*
X133464849Y-121912655D01*
X133464853Y-121912651D01*
X133468665Y-121909673D01*
X133492509Y-121882050D01*
X133598401Y-121759371D01*
X133601561Y-121755710D01*
X133702022Y-121578868D01*
X133716958Y-121533971D01*
X133764694Y-121390471D01*
X133764695Y-121390469D01*
X133766221Y-121385880D01*
X133791712Y-121184098D01*
X133792118Y-121155000D01*
X133772271Y-120952585D01*
X133769421Y-120943144D01*
X133714885Y-120762512D01*
X133714883Y-120762507D01*
X133713486Y-120757880D01*
X133662872Y-120662689D01*
X133620275Y-120582575D01*
X133620273Y-120582571D01*
X133618002Y-120578301D01*
X133489456Y-120420688D01*
X133332745Y-120291045D01*
X133153837Y-120194310D01*
X133090362Y-120174661D01*
X132964168Y-120135597D01*
X132964164Y-120135596D01*
X132959547Y-120134167D01*
X132954739Y-120133662D01*
X132954736Y-120133661D01*
X132762091Y-120113413D01*
X132762089Y-120113413D01*
X132757275Y-120112907D01*
X132692844Y-120118771D01*
X132559547Y-120130902D01*
X132559544Y-120130903D01*
X132554727Y-120131341D01*
X132550085Y-120132707D01*
X132550081Y-120132708D01*
X132364263Y-120187397D01*
X132364260Y-120187398D01*
X132359616Y-120188765D01*
X132179375Y-120282993D01*
X132175606Y-120286023D01*
X132175605Y-120286024D01*
X132024641Y-120407401D01*
X132024638Y-120407404D01*
X132020868Y-120410435D01*
X132017755Y-120414146D01*
X132017753Y-120414147D01*
X131893247Y-120562528D01*
X131890134Y-120566238D01*
X131887802Y-120570481D01*
X131887800Y-120570483D01*
X131859113Y-120622666D01*
X131792153Y-120744466D01*
X131790690Y-120749079D01*
X131790688Y-120749083D01*
X131786428Y-120762512D01*
X131730655Y-120938331D01*
X131730115Y-120943143D01*
X131730115Y-120943144D01*
X131710839Y-121115000D01*
X131707984Y-121140450D01*
X118678446Y-121140450D01*
X118680144Y-121118875D01*
X118680449Y-121115000D01*
X118667667Y-120952585D01*
X118660988Y-120867722D01*
X118660987Y-120867717D01*
X118660683Y-120863852D01*
X118601873Y-120618889D01*
X118586832Y-120582575D01*
X118506954Y-120389734D01*
X118505466Y-120386141D01*
X118373836Y-120171341D01*
X118210224Y-119979776D01*
X118018659Y-119816164D01*
X117803859Y-119684534D01*
X117699449Y-119641286D01*
X117574702Y-119589614D01*
X117574697Y-119589612D01*
X117571111Y-119588127D01*
X117567337Y-119587221D01*
X117567334Y-119587220D01*
X117329922Y-119530223D01*
X117329921Y-119530223D01*
X117326148Y-119529317D01*
X117322283Y-119529013D01*
X117322278Y-119529012D01*
X117078875Y-119509856D01*
X117075000Y-119509551D01*
X117071125Y-119509856D01*
X116827722Y-119529012D01*
X116827717Y-119529013D01*
X116823852Y-119529317D01*
X116820079Y-119530223D01*
X116820078Y-119530223D01*
X116582666Y-119587220D01*
X116582663Y-119587221D01*
X116578889Y-119588127D01*
X116575303Y-119589612D01*
X116575298Y-119589614D01*
X116450551Y-119641286D01*
X116346141Y-119684534D01*
X116131341Y-119816164D01*
X115939776Y-119979776D01*
X115776164Y-120171341D01*
X115644534Y-120386141D01*
X115643046Y-120389734D01*
X115563169Y-120582575D01*
X115548127Y-120618889D01*
X115489317Y-120863852D01*
X115489013Y-120867717D01*
X115489012Y-120867722D01*
X115482333Y-120952585D01*
X115469551Y-121115000D01*
X112300500Y-121115000D01*
X112300500Y-118600450D01*
X129167984Y-118600450D01*
X129185002Y-118803122D01*
X129241063Y-118998629D01*
X129243278Y-119002939D01*
X129287546Y-119089076D01*
X129334030Y-119179524D01*
X129460363Y-119338916D01*
X129615249Y-119470734D01*
X129619472Y-119473094D01*
X129619476Y-119473097D01*
X129685249Y-119509856D01*
X129792789Y-119569958D01*
X129843980Y-119586591D01*
X129981615Y-119631312D01*
X129981618Y-119631313D01*
X129986220Y-119632808D01*
X130188176Y-119656889D01*
X130192998Y-119656518D01*
X130193001Y-119656518D01*
X130259138Y-119651429D01*
X130390962Y-119641286D01*
X130586855Y-119586591D01*
X130591168Y-119584412D01*
X130591174Y-119584410D01*
X130764074Y-119497072D01*
X130764076Y-119497070D01*
X130768395Y-119494889D01*
X130803329Y-119467596D01*
X130924849Y-119372655D01*
X130924853Y-119372651D01*
X130928665Y-119369673D01*
X130952509Y-119342050D01*
X131058401Y-119219371D01*
X131061561Y-119215710D01*
X131162022Y-119038868D01*
X131176958Y-118993971D01*
X131224694Y-118850471D01*
X131224695Y-118850469D01*
X131226221Y-118845880D01*
X131251712Y-118644098D01*
X131252118Y-118615000D01*
X131232271Y-118412585D01*
X131229421Y-118403144D01*
X131174885Y-118222512D01*
X131174883Y-118222507D01*
X131173486Y-118217880D01*
X131078002Y-118038301D01*
X130949456Y-117880688D01*
X130792745Y-117751045D01*
X130644057Y-117670650D01*
X130618091Y-117656610D01*
X130618090Y-117656610D01*
X130613837Y-117654310D01*
X130550701Y-117634766D01*
X130424168Y-117595597D01*
X130424164Y-117595596D01*
X130419547Y-117594167D01*
X130414739Y-117593662D01*
X130414736Y-117593661D01*
X130222091Y-117573413D01*
X130222089Y-117573413D01*
X130217275Y-117572907D01*
X130152844Y-117578771D01*
X130019547Y-117590902D01*
X130019544Y-117590903D01*
X130014727Y-117591341D01*
X130010085Y-117592707D01*
X130010081Y-117592708D01*
X129824263Y-117647397D01*
X129824260Y-117647398D01*
X129819616Y-117648765D01*
X129639375Y-117742993D01*
X129635606Y-117746023D01*
X129635605Y-117746024D01*
X129484641Y-117867401D01*
X129484638Y-117867404D01*
X129480868Y-117870435D01*
X129477755Y-117874146D01*
X129477753Y-117874147D01*
X129353247Y-118022528D01*
X129350134Y-118026238D01*
X129347802Y-118030481D01*
X129347800Y-118030483D01*
X129341153Y-118042575D01*
X129252153Y-118204466D01*
X129250690Y-118209079D01*
X129250688Y-118209083D01*
X129246428Y-118222512D01*
X129190655Y-118398331D01*
X129167984Y-118600450D01*
X112300500Y-118600450D01*
X112300500Y-117459646D01*
X115474500Y-117459646D01*
X115477618Y-117485846D01*
X115523061Y-117588153D01*
X115602287Y-117667241D01*
X115610645Y-117670936D01*
X115697864Y-117709496D01*
X115697866Y-117709496D01*
X115704673Y-117712506D01*
X115712067Y-117713368D01*
X115727378Y-117715153D01*
X115730354Y-117715500D01*
X118419646Y-117715500D01*
X118437561Y-117713368D01*
X118438469Y-117713260D01*
X118438470Y-117713260D01*
X118445846Y-117712382D01*
X118548153Y-117666939D01*
X118566296Y-117648765D01*
X118588024Y-117626998D01*
X118627241Y-117587713D01*
X118672506Y-117485327D01*
X118675500Y-117459646D01*
X118675500Y-116060450D01*
X131707984Y-116060450D01*
X131711416Y-116101324D01*
X131718716Y-116188256D01*
X131725002Y-116263122D01*
X131726335Y-116267770D01*
X131726335Y-116267771D01*
X131764395Y-116400500D01*
X131781063Y-116458629D01*
X131783278Y-116462939D01*
X131816573Y-116527725D01*
X131874030Y-116639524D01*
X132000363Y-116798916D01*
X132155249Y-116930734D01*
X132159472Y-116933094D01*
X132159476Y-116933097D01*
X132202375Y-116957072D01*
X132332789Y-117029958D01*
X132383980Y-117046591D01*
X132521615Y-117091312D01*
X132521618Y-117091313D01*
X132526220Y-117092808D01*
X132728176Y-117116889D01*
X132732998Y-117116518D01*
X132733001Y-117116518D01*
X132799138Y-117111429D01*
X132930962Y-117101286D01*
X133126855Y-117046591D01*
X133131168Y-117044412D01*
X133131174Y-117044410D01*
X133304074Y-116957072D01*
X133304076Y-116957070D01*
X133308395Y-116954889D01*
X133343329Y-116927596D01*
X133464849Y-116832655D01*
X133464853Y-116832651D01*
X133468665Y-116829673D01*
X133492509Y-116802050D01*
X133598401Y-116679371D01*
X133601561Y-116675710D01*
X133702022Y-116498868D01*
X133716958Y-116453971D01*
X133764694Y-116310471D01*
X133764695Y-116310469D01*
X133766221Y-116305880D01*
X133775926Y-116229061D01*
X133781732Y-116183098D01*
X133791712Y-116104098D01*
X133792118Y-116075000D01*
X133789391Y-116047192D01*
X141349500Y-116047192D01*
X141364326Y-116188256D01*
X141365927Y-116193183D01*
X141365928Y-116193188D01*
X141421219Y-116363354D01*
X141422821Y-116368284D01*
X141425412Y-116372772D01*
X141425413Y-116372774D01*
X141500641Y-116503072D01*
X141517467Y-116532216D01*
X141520939Y-116536072D01*
X141640659Y-116669035D01*
X141640663Y-116669038D01*
X141644129Y-116672888D01*
X141797270Y-116784151D01*
X141802002Y-116786258D01*
X141802004Y-116786259D01*
X141830432Y-116798916D01*
X141970197Y-116861144D01*
X141975267Y-116862222D01*
X141975268Y-116862222D01*
X142012610Y-116870159D01*
X142155354Y-116900500D01*
X142344646Y-116900500D01*
X142487390Y-116870159D01*
X142524732Y-116862222D01*
X142524733Y-116862222D01*
X142529803Y-116861144D01*
X142669568Y-116798916D01*
X142697996Y-116786259D01*
X142697998Y-116786258D01*
X142702730Y-116784151D01*
X142855871Y-116672888D01*
X142859337Y-116669038D01*
X142859341Y-116669035D01*
X142979061Y-116536072D01*
X142982533Y-116532216D01*
X142999359Y-116503072D01*
X143074587Y-116372774D01*
X143074588Y-116372772D01*
X143077179Y-116368284D01*
X143078781Y-116363354D01*
X143134072Y-116193188D01*
X143134073Y-116193183D01*
X143135674Y-116188256D01*
X143150500Y-116047192D01*
X143150500Y-115594646D01*
X146349500Y-115594646D01*
X146388856Y-115779803D01*
X146390965Y-115784539D01*
X146390965Y-115784540D01*
X146421765Y-115853716D01*
X146465849Y-115952730D01*
X146577112Y-116105871D01*
X146580962Y-116109337D01*
X146580965Y-116109341D01*
X146674087Y-116193188D01*
X146717784Y-116232533D01*
X146722274Y-116235125D01*
X146722275Y-116235126D01*
X146877226Y-116324587D01*
X146877228Y-116324588D01*
X146881716Y-116327179D01*
X146886645Y-116328780D01*
X146886646Y-116328781D01*
X147056812Y-116384072D01*
X147056817Y-116384073D01*
X147061744Y-116385674D01*
X147202808Y-116400500D01*
X147297192Y-116400500D01*
X147438256Y-116385674D01*
X147443183Y-116384073D01*
X147443188Y-116384072D01*
X147613354Y-116328781D01*
X147613355Y-116328780D01*
X147618284Y-116327179D01*
X147622772Y-116324588D01*
X147622774Y-116324587D01*
X147777725Y-116235126D01*
X147777726Y-116235125D01*
X147782216Y-116232533D01*
X147825913Y-116193188D01*
X147919035Y-116109341D01*
X147919038Y-116109337D01*
X147922888Y-116105871D01*
X147965521Y-116047192D01*
X151349500Y-116047192D01*
X151364326Y-116188256D01*
X151365927Y-116193183D01*
X151365928Y-116193188D01*
X151421219Y-116363354D01*
X151422821Y-116368284D01*
X151425412Y-116372772D01*
X151425413Y-116372774D01*
X151500641Y-116503072D01*
X151517467Y-116532216D01*
X151520939Y-116536072D01*
X151640659Y-116669035D01*
X151640663Y-116669038D01*
X151644129Y-116672888D01*
X151797270Y-116784151D01*
X151802002Y-116786258D01*
X151802004Y-116786259D01*
X151830432Y-116798916D01*
X151970197Y-116861144D01*
X151975267Y-116862222D01*
X151975268Y-116862222D01*
X152012610Y-116870159D01*
X152155354Y-116900500D01*
X152344646Y-116900500D01*
X152487390Y-116870159D01*
X152524732Y-116862222D01*
X152524733Y-116862222D01*
X152529803Y-116861144D01*
X152669568Y-116798916D01*
X152697996Y-116786259D01*
X152697998Y-116786258D01*
X152702730Y-116784151D01*
X152855871Y-116672888D01*
X152859337Y-116669038D01*
X152859341Y-116669035D01*
X152979061Y-116536072D01*
X152982533Y-116532216D01*
X152999359Y-116503072D01*
X153074587Y-116372774D01*
X153074588Y-116372772D01*
X153077179Y-116368284D01*
X153078781Y-116363354D01*
X153134072Y-116193188D01*
X153134073Y-116193183D01*
X153135674Y-116188256D01*
X153150500Y-116047192D01*
X153150500Y-114952808D01*
X153135674Y-114811744D01*
X153134073Y-114806817D01*
X153134072Y-114806812D01*
X153078781Y-114636646D01*
X153078780Y-114636645D01*
X153077179Y-114631716D01*
X153035234Y-114559064D01*
X152985126Y-114472275D01*
X152985125Y-114472274D01*
X152982533Y-114467784D01*
X152974044Y-114458356D01*
X152859341Y-114330965D01*
X152859337Y-114330962D01*
X152855871Y-114327112D01*
X152702730Y-114215849D01*
X152697998Y-114213742D01*
X152697996Y-114213741D01*
X152534540Y-114140965D01*
X152534539Y-114140965D01*
X152529803Y-114138856D01*
X152524733Y-114137778D01*
X152524732Y-114137778D01*
X152487390Y-114129841D01*
X152344646Y-114099500D01*
X152155354Y-114099500D01*
X152012610Y-114129841D01*
X151975268Y-114137778D01*
X151975267Y-114137778D01*
X151970197Y-114138856D01*
X151965461Y-114140965D01*
X151965460Y-114140965D01*
X151802004Y-114213741D01*
X151802002Y-114213742D01*
X151797270Y-114215849D01*
X151644129Y-114327112D01*
X151640663Y-114330962D01*
X151640659Y-114330965D01*
X151525956Y-114458356D01*
X151517467Y-114467784D01*
X151514875Y-114472274D01*
X151514874Y-114472275D01*
X151464767Y-114559064D01*
X151422821Y-114631716D01*
X151421220Y-114636645D01*
X151421219Y-114636646D01*
X151365928Y-114806812D01*
X151365927Y-114806817D01*
X151364326Y-114811744D01*
X151349500Y-114952808D01*
X151349500Y-116047192D01*
X147965521Y-116047192D01*
X148034151Y-115952730D01*
X148078236Y-115853716D01*
X148109035Y-115784540D01*
X148109035Y-115784539D01*
X148111144Y-115779803D01*
X148150500Y-115594646D01*
X148150500Y-115405354D01*
X148111144Y-115220197D01*
X148065024Y-115116610D01*
X148036259Y-115052004D01*
X148036258Y-115052002D01*
X148034151Y-115047270D01*
X147922888Y-114894129D01*
X147919038Y-114890663D01*
X147919035Y-114890659D01*
X147786072Y-114770939D01*
X147782216Y-114767467D01*
X147777725Y-114764874D01*
X147622774Y-114675413D01*
X147622772Y-114675412D01*
X147618284Y-114672821D01*
X147613354Y-114671219D01*
X147443188Y-114615928D01*
X147443183Y-114615927D01*
X147438256Y-114614326D01*
X147297192Y-114599500D01*
X147202808Y-114599500D01*
X147061744Y-114614326D01*
X147056817Y-114615927D01*
X147056812Y-114615928D01*
X146886646Y-114671219D01*
X146881716Y-114672821D01*
X146877228Y-114675412D01*
X146877226Y-114675413D01*
X146722275Y-114764874D01*
X146717784Y-114767467D01*
X146713928Y-114770939D01*
X146580965Y-114890659D01*
X146580962Y-114890663D01*
X146577112Y-114894129D01*
X146465849Y-115047270D01*
X146463742Y-115052002D01*
X146463741Y-115052004D01*
X146434976Y-115116610D01*
X146388856Y-115220197D01*
X146349500Y-115405354D01*
X146349500Y-115594646D01*
X143150500Y-115594646D01*
X143150500Y-114952808D01*
X143135674Y-114811744D01*
X143134073Y-114806817D01*
X143134072Y-114806812D01*
X143078781Y-114636646D01*
X143078780Y-114636645D01*
X143077179Y-114631716D01*
X143035234Y-114559064D01*
X142985126Y-114472275D01*
X142985125Y-114472274D01*
X142982533Y-114467784D01*
X142974044Y-114458356D01*
X142859341Y-114330965D01*
X142859337Y-114330962D01*
X142855871Y-114327112D01*
X142702730Y-114215849D01*
X142697998Y-114213742D01*
X142697996Y-114213741D01*
X142534540Y-114140965D01*
X142534539Y-114140965D01*
X142529803Y-114138856D01*
X142524733Y-114137778D01*
X142524732Y-114137778D01*
X142487390Y-114129841D01*
X142344646Y-114099500D01*
X142155354Y-114099500D01*
X142012610Y-114129841D01*
X141975268Y-114137778D01*
X141975267Y-114137778D01*
X141970197Y-114138856D01*
X141965461Y-114140965D01*
X141965460Y-114140965D01*
X141802004Y-114213741D01*
X141802002Y-114213742D01*
X141797270Y-114215849D01*
X141644129Y-114327112D01*
X141640663Y-114330962D01*
X141640659Y-114330965D01*
X141525956Y-114458356D01*
X141517467Y-114467784D01*
X141514875Y-114472274D01*
X141514874Y-114472275D01*
X141464767Y-114559064D01*
X141422821Y-114631716D01*
X141421220Y-114636645D01*
X141421219Y-114636646D01*
X141365928Y-114806812D01*
X141365927Y-114806817D01*
X141364326Y-114811744D01*
X141349500Y-114952808D01*
X141349500Y-116047192D01*
X133789391Y-116047192D01*
X133772271Y-115872585D01*
X133769421Y-115863144D01*
X133714885Y-115682512D01*
X133714883Y-115682507D01*
X133713486Y-115677880D01*
X133618002Y-115498301D01*
X133546429Y-115410543D01*
X133492517Y-115344441D01*
X133492516Y-115344440D01*
X133489456Y-115340688D01*
X133332745Y-115211045D01*
X133153837Y-115114310D01*
X133090701Y-115094766D01*
X132964168Y-115055597D01*
X132964164Y-115055596D01*
X132959547Y-115054167D01*
X132954739Y-115053662D01*
X132954736Y-115053661D01*
X132762091Y-115033413D01*
X132762089Y-115033413D01*
X132757275Y-115032907D01*
X132692844Y-115038771D01*
X132559547Y-115050902D01*
X132559544Y-115050903D01*
X132554727Y-115051341D01*
X132550085Y-115052707D01*
X132550081Y-115052708D01*
X132364263Y-115107397D01*
X132364260Y-115107398D01*
X132359616Y-115108765D01*
X132179375Y-115202993D01*
X132175606Y-115206023D01*
X132175605Y-115206024D01*
X132024641Y-115327401D01*
X132024638Y-115327404D01*
X132020868Y-115330435D01*
X132017755Y-115334146D01*
X132017753Y-115334147D01*
X131893247Y-115482528D01*
X131890134Y-115486238D01*
X131887802Y-115490481D01*
X131887800Y-115490483D01*
X131830537Y-115594646D01*
X131792153Y-115664466D01*
X131790690Y-115669079D01*
X131790688Y-115669083D01*
X131786428Y-115682512D01*
X131730655Y-115858331D01*
X131730115Y-115863143D01*
X131730115Y-115863144D01*
X131709184Y-116049756D01*
X131707984Y-116060450D01*
X118675500Y-116060450D01*
X118675500Y-114770354D01*
X118672382Y-114744154D01*
X118626939Y-114641847D01*
X118616791Y-114631716D01*
X118554179Y-114569214D01*
X118547713Y-114562759D01*
X118518591Y-114549884D01*
X118452136Y-114520504D01*
X118452134Y-114520504D01*
X118445327Y-114517494D01*
X118431322Y-114515861D01*
X118422494Y-114514832D01*
X118422493Y-114514832D01*
X118419646Y-114514500D01*
X115730354Y-114514500D01*
X115713951Y-114516452D01*
X115711531Y-114516740D01*
X115711530Y-114516740D01*
X115704154Y-114517618D01*
X115601847Y-114563061D01*
X115522759Y-114642287D01*
X115477494Y-114744673D01*
X115474500Y-114770354D01*
X115474500Y-117459646D01*
X112300500Y-117459646D01*
X112300500Y-109468233D01*
X113519906Y-109468233D01*
X113520246Y-109471795D01*
X113520246Y-109471802D01*
X113545761Y-109739221D01*
X113546102Y-109742792D01*
X113611657Y-110010694D01*
X113715199Y-110266326D01*
X113854558Y-110504335D01*
X114026816Y-110719732D01*
X114228364Y-110908008D01*
X114454979Y-111065216D01*
X114458184Y-111066811D01*
X114458190Y-111066814D01*
X114698699Y-111186466D01*
X114698704Y-111186468D01*
X114701914Y-111188065D01*
X114705325Y-111189183D01*
X114705327Y-111189184D01*
X114960593Y-111272864D01*
X114960596Y-111272865D01*
X114963998Y-111273980D01*
X115235738Y-111321162D01*
X115286160Y-111323672D01*
X115321644Y-111325439D01*
X115321657Y-111325439D01*
X115322876Y-111325500D01*
X115495070Y-111325500D01*
X115700083Y-111310625D01*
X115763367Y-111296653D01*
X115965904Y-111251937D01*
X115965910Y-111251935D01*
X115969403Y-111251164D01*
X115972752Y-111249895D01*
X115972756Y-111249894D01*
X116135951Y-111188065D01*
X116227319Y-111153449D01*
X116468428Y-111019525D01*
X116687678Y-110852198D01*
X116880477Y-110654974D01*
X116920696Y-110599720D01*
X116924389Y-110594646D01*
X141349500Y-110594646D01*
X141388856Y-110779803D01*
X141390965Y-110784539D01*
X141390965Y-110784540D01*
X141426363Y-110864043D01*
X141465849Y-110952730D01*
X141577112Y-111105871D01*
X141580962Y-111109337D01*
X141580965Y-111109341D01*
X141668397Y-111188065D01*
X141717784Y-111232533D01*
X141722274Y-111235125D01*
X141722275Y-111235126D01*
X141877226Y-111324587D01*
X141877228Y-111324588D01*
X141881716Y-111327179D01*
X141886645Y-111328780D01*
X141886646Y-111328781D01*
X142056812Y-111384072D01*
X142056817Y-111384073D01*
X142061744Y-111385674D01*
X142202808Y-111400500D01*
X142297192Y-111400500D01*
X142438256Y-111385674D01*
X142443183Y-111384073D01*
X142443188Y-111384072D01*
X142613354Y-111328781D01*
X142613355Y-111328780D01*
X142618284Y-111327179D01*
X142622772Y-111324588D01*
X142622774Y-111324587D01*
X142777725Y-111235126D01*
X142777726Y-111235125D01*
X142782216Y-111232533D01*
X142831603Y-111188065D01*
X142919035Y-111109341D01*
X142919038Y-111109337D01*
X142922888Y-111105871D01*
X143034151Y-110952730D01*
X143073638Y-110864043D01*
X143109035Y-110784540D01*
X143109035Y-110784539D01*
X143111144Y-110779803D01*
X143114645Y-110763333D01*
X145681960Y-110763333D01*
X145704093Y-110855171D01*
X145707148Y-110864043D01*
X145790126Y-111046541D01*
X145794802Y-111054674D01*
X145910791Y-111218189D01*
X145916920Y-111225289D01*
X146061738Y-111363923D01*
X146069101Y-111369737D01*
X146237523Y-111478487D01*
X146245839Y-111482798D01*
X146431799Y-111557742D01*
X146440779Y-111560402D01*
X146638677Y-111599048D01*
X146645728Y-111599904D01*
X146646472Y-111599940D01*
X146648916Y-111600000D01*
X146984320Y-111600000D01*
X146997005Y-111595878D01*
X147000000Y-111591757D01*
X147000000Y-111584320D01*
X147500000Y-111584320D01*
X147504122Y-111597005D01*
X147508243Y-111600000D01*
X147800087Y-111600000D01*
X147804801Y-111599775D01*
X147954258Y-111585516D01*
X147963470Y-111583742D01*
X148155846Y-111527306D01*
X148164549Y-111523825D01*
X148342784Y-111432028D01*
X148350671Y-111426964D01*
X148508324Y-111303126D01*
X148515122Y-111296653D01*
X148646512Y-111145239D01*
X148651963Y-111137597D01*
X148752352Y-110964068D01*
X148756254Y-110955545D01*
X148822022Y-110766154D01*
X148822668Y-110763503D01*
X148820755Y-110752373D01*
X148819717Y-110751362D01*
X148813876Y-110750000D01*
X147515680Y-110750000D01*
X147502995Y-110754122D01*
X147500000Y-110758243D01*
X147500000Y-111584320D01*
X147000000Y-111584320D01*
X147000000Y-110765680D01*
X146995878Y-110752995D01*
X146991757Y-110750000D01*
X145694427Y-110750000D01*
X145682325Y-110753932D01*
X145681960Y-110763333D01*
X143114645Y-110763333D01*
X143150500Y-110594646D01*
X151349500Y-110594646D01*
X151388856Y-110779803D01*
X151390965Y-110784539D01*
X151390965Y-110784540D01*
X151426363Y-110864043D01*
X151465849Y-110952730D01*
X151577112Y-111105871D01*
X151580962Y-111109337D01*
X151580965Y-111109341D01*
X151668397Y-111188065D01*
X151717784Y-111232533D01*
X151722274Y-111235125D01*
X151722275Y-111235126D01*
X151877226Y-111324587D01*
X151877228Y-111324588D01*
X151881716Y-111327179D01*
X151886645Y-111328780D01*
X151886646Y-111328781D01*
X152056812Y-111384072D01*
X152056817Y-111384073D01*
X152061744Y-111385674D01*
X152202808Y-111400500D01*
X152297192Y-111400500D01*
X152438256Y-111385674D01*
X152443183Y-111384073D01*
X152443188Y-111384072D01*
X152613354Y-111328781D01*
X152613355Y-111328780D01*
X152618284Y-111327179D01*
X152622772Y-111324588D01*
X152622774Y-111324587D01*
X152777725Y-111235126D01*
X152777726Y-111235125D01*
X152782216Y-111232533D01*
X152831603Y-111188065D01*
X152919035Y-111109341D01*
X152919038Y-111109337D01*
X152922888Y-111105871D01*
X153034151Y-110952730D01*
X153073638Y-110864043D01*
X153109035Y-110784540D01*
X153109035Y-110784539D01*
X153111144Y-110779803D01*
X153150500Y-110594646D01*
X153150500Y-110405354D01*
X153111144Y-110220197D01*
X153077588Y-110144829D01*
X153036259Y-110052004D01*
X153036258Y-110052002D01*
X153034151Y-110047270D01*
X152922888Y-109894129D01*
X152919038Y-109890663D01*
X152919035Y-109890659D01*
X152786072Y-109770939D01*
X152782216Y-109767467D01*
X152739478Y-109742792D01*
X152622774Y-109675413D01*
X152622772Y-109675412D01*
X152618284Y-109672821D01*
X152613354Y-109671219D01*
X152443188Y-109615928D01*
X152443183Y-109615927D01*
X152438256Y-109614326D01*
X152297192Y-109599500D01*
X152202808Y-109599500D01*
X152061744Y-109614326D01*
X152056817Y-109615927D01*
X152056812Y-109615928D01*
X151886646Y-109671219D01*
X151881716Y-109672821D01*
X151877228Y-109675412D01*
X151877226Y-109675413D01*
X151760522Y-109742792D01*
X151717784Y-109767467D01*
X151713928Y-109770939D01*
X151580965Y-109890659D01*
X151580962Y-109890663D01*
X151577112Y-109894129D01*
X151465849Y-110047270D01*
X151463742Y-110052002D01*
X151463741Y-110052004D01*
X151422412Y-110144829D01*
X151388856Y-110220197D01*
X151349500Y-110405354D01*
X151349500Y-110594646D01*
X143150500Y-110594646D01*
X143150500Y-110405354D01*
X143114609Y-110236497D01*
X145677332Y-110236497D01*
X145679245Y-110247627D01*
X145680283Y-110248638D01*
X145686124Y-110250000D01*
X146984320Y-110250000D01*
X146997005Y-110245878D01*
X147000000Y-110241757D01*
X147000000Y-110234320D01*
X147500000Y-110234320D01*
X147504122Y-110247005D01*
X147508243Y-110250000D01*
X148805573Y-110250000D01*
X148817675Y-110246068D01*
X148818040Y-110236667D01*
X148795907Y-110144829D01*
X148792852Y-110135957D01*
X148709874Y-109953459D01*
X148705198Y-109945326D01*
X148589209Y-109781811D01*
X148583080Y-109774711D01*
X148438262Y-109636077D01*
X148430899Y-109630263D01*
X148262477Y-109521513D01*
X148254161Y-109517202D01*
X148132653Y-109468233D01*
X155169906Y-109468233D01*
X155170246Y-109471795D01*
X155170246Y-109471802D01*
X155195761Y-109739221D01*
X155196102Y-109742792D01*
X155261657Y-110010694D01*
X155365199Y-110266326D01*
X155504558Y-110504335D01*
X155676816Y-110719732D01*
X155878364Y-110908008D01*
X156104979Y-111065216D01*
X156108184Y-111066811D01*
X156108190Y-111066814D01*
X156348699Y-111186466D01*
X156348704Y-111186468D01*
X156351914Y-111188065D01*
X156355325Y-111189183D01*
X156355327Y-111189184D01*
X156610593Y-111272864D01*
X156610596Y-111272865D01*
X156613998Y-111273980D01*
X156885738Y-111321162D01*
X156936160Y-111323672D01*
X156971644Y-111325439D01*
X156971657Y-111325439D01*
X156972876Y-111325500D01*
X157145070Y-111325500D01*
X157350083Y-111310625D01*
X157413367Y-111296653D01*
X157615904Y-111251937D01*
X157615910Y-111251935D01*
X157619403Y-111251164D01*
X157622752Y-111249895D01*
X157622756Y-111249894D01*
X157785951Y-111188065D01*
X157877319Y-111153449D01*
X158118428Y-111019525D01*
X158337678Y-110852198D01*
X158530477Y-110654974D01*
X158570696Y-110599720D01*
X158690682Y-110434876D01*
X158692787Y-110431984D01*
X158821206Y-110187899D01*
X158913045Y-109927832D01*
X158966380Y-109657232D01*
X158980094Y-109381767D01*
X158979754Y-109378205D01*
X158979754Y-109378198D01*
X158954239Y-109110779D01*
X158954238Y-109110775D01*
X158953898Y-109107208D01*
X158888343Y-108839306D01*
X158784801Y-108583674D01*
X158645442Y-108345665D01*
X158473184Y-108130268D01*
X158271636Y-107941992D01*
X158045021Y-107784784D01*
X158041816Y-107783189D01*
X158041810Y-107783186D01*
X157801301Y-107663534D01*
X157801296Y-107663532D01*
X157798086Y-107661935D01*
X157794675Y-107660817D01*
X157794673Y-107660816D01*
X157539407Y-107577136D01*
X157539404Y-107577135D01*
X157536002Y-107576020D01*
X157264262Y-107528838D01*
X157213840Y-107526328D01*
X157178356Y-107524561D01*
X157178343Y-107524561D01*
X157177124Y-107524500D01*
X157004930Y-107524500D01*
X156799917Y-107539375D01*
X156796406Y-107540150D01*
X156796407Y-107540150D01*
X156534096Y-107598063D01*
X156534090Y-107598065D01*
X156530597Y-107598836D01*
X156527248Y-107600105D01*
X156527244Y-107600106D01*
X156423185Y-107639530D01*
X156272681Y-107696551D01*
X156031572Y-107830475D01*
X155812322Y-107997802D01*
X155619523Y-108195026D01*
X155617414Y-108197923D01*
X155617411Y-108197927D01*
X155474718Y-108393967D01*
X155457213Y-108418016D01*
X155328794Y-108662101D01*
X155236955Y-108922168D01*
X155183620Y-109192768D01*
X155169906Y-109468233D01*
X148132653Y-109468233D01*
X148068201Y-109442258D01*
X148059221Y-109439598D01*
X147861323Y-109400952D01*
X147854272Y-109400096D01*
X147853528Y-109400060D01*
X147851084Y-109400000D01*
X147515680Y-109400000D01*
X147502995Y-109404122D01*
X147500000Y-109408243D01*
X147500000Y-110234320D01*
X147000000Y-110234320D01*
X147000000Y-109415680D01*
X146995878Y-109402995D01*
X146991757Y-109400000D01*
X146699913Y-109400000D01*
X146695199Y-109400225D01*
X146545742Y-109414484D01*
X146536530Y-109416258D01*
X146344154Y-109472694D01*
X146335451Y-109476175D01*
X146157216Y-109567972D01*
X146149329Y-109573036D01*
X145991676Y-109696874D01*
X145984878Y-109703347D01*
X145853488Y-109854761D01*
X145848037Y-109862403D01*
X145747648Y-110035932D01*
X145743746Y-110044455D01*
X145677978Y-110233846D01*
X145677332Y-110236497D01*
X143114609Y-110236497D01*
X143111144Y-110220197D01*
X143077588Y-110144829D01*
X143036259Y-110052004D01*
X143036258Y-110052002D01*
X143034151Y-110047270D01*
X142922888Y-109894129D01*
X142919038Y-109890663D01*
X142919035Y-109890659D01*
X142786072Y-109770939D01*
X142782216Y-109767467D01*
X142739478Y-109742792D01*
X142622774Y-109675413D01*
X142622772Y-109675412D01*
X142618284Y-109672821D01*
X142613354Y-109671219D01*
X142443188Y-109615928D01*
X142443183Y-109615927D01*
X142438256Y-109614326D01*
X142297192Y-109599500D01*
X142202808Y-109599500D01*
X142061744Y-109614326D01*
X142056817Y-109615927D01*
X142056812Y-109615928D01*
X141886646Y-109671219D01*
X141881716Y-109672821D01*
X141877228Y-109675412D01*
X141877226Y-109675413D01*
X141760522Y-109742792D01*
X141717784Y-109767467D01*
X141713928Y-109770939D01*
X141580965Y-109890659D01*
X141580962Y-109890663D01*
X141577112Y-109894129D01*
X141465849Y-110047270D01*
X141463742Y-110052002D01*
X141463741Y-110052004D01*
X141422412Y-110144829D01*
X141388856Y-110220197D01*
X141349500Y-110405354D01*
X141349500Y-110594646D01*
X116924389Y-110594646D01*
X117040682Y-110434876D01*
X117042787Y-110431984D01*
X117171206Y-110187899D01*
X117263045Y-109927832D01*
X117316380Y-109657232D01*
X117330094Y-109381767D01*
X117329754Y-109378205D01*
X117329754Y-109378198D01*
X117304239Y-109110779D01*
X117304238Y-109110775D01*
X117303898Y-109107208D01*
X117238343Y-108839306D01*
X117134801Y-108583674D01*
X116995442Y-108345665D01*
X116823184Y-108130268D01*
X116785051Y-108094646D01*
X141349500Y-108094646D01*
X141388856Y-108279803D01*
X141390965Y-108284539D01*
X141390965Y-108284540D01*
X141449106Y-108415124D01*
X141465849Y-108452730D01*
X141577112Y-108605871D01*
X141580962Y-108609337D01*
X141580965Y-108609341D01*
X141679156Y-108697752D01*
X141717784Y-108732533D01*
X141722274Y-108735125D01*
X141722275Y-108735126D01*
X141877226Y-108824587D01*
X141877228Y-108824588D01*
X141881716Y-108827179D01*
X141886645Y-108828780D01*
X141886646Y-108828781D01*
X142056812Y-108884072D01*
X142056817Y-108884073D01*
X142061744Y-108885674D01*
X142202808Y-108900500D01*
X142297192Y-108900500D01*
X142438256Y-108885674D01*
X142443183Y-108884073D01*
X142443188Y-108884072D01*
X142613354Y-108828781D01*
X142613355Y-108828780D01*
X142618284Y-108827179D01*
X142622772Y-108824588D01*
X142622774Y-108824587D01*
X142777725Y-108735126D01*
X142777726Y-108735125D01*
X142782216Y-108732533D01*
X142820844Y-108697752D01*
X142919035Y-108609341D01*
X142919038Y-108609337D01*
X142922888Y-108605871D01*
X143034151Y-108452730D01*
X143050895Y-108415124D01*
X143109035Y-108284540D01*
X143109035Y-108284539D01*
X143111144Y-108279803D01*
X143150500Y-108094646D01*
X151349500Y-108094646D01*
X151388856Y-108279803D01*
X151390965Y-108284539D01*
X151390965Y-108284540D01*
X151449106Y-108415124D01*
X151465849Y-108452730D01*
X151577112Y-108605871D01*
X151580962Y-108609337D01*
X151580965Y-108609341D01*
X151679156Y-108697752D01*
X151717784Y-108732533D01*
X151722274Y-108735125D01*
X151722275Y-108735126D01*
X151877226Y-108824587D01*
X151877228Y-108824588D01*
X151881716Y-108827179D01*
X151886645Y-108828780D01*
X151886646Y-108828781D01*
X152056812Y-108884072D01*
X152056817Y-108884073D01*
X152061744Y-108885674D01*
X152202808Y-108900500D01*
X152297192Y-108900500D01*
X152438256Y-108885674D01*
X152443183Y-108884073D01*
X152443188Y-108884072D01*
X152613354Y-108828781D01*
X152613355Y-108828780D01*
X152618284Y-108827179D01*
X152622772Y-108824588D01*
X152622774Y-108824587D01*
X152777725Y-108735126D01*
X152777726Y-108735125D01*
X152782216Y-108732533D01*
X152820844Y-108697752D01*
X152919035Y-108609341D01*
X152919038Y-108609337D01*
X152922888Y-108605871D01*
X153034151Y-108452730D01*
X153050895Y-108415124D01*
X153109035Y-108284540D01*
X153109035Y-108284539D01*
X153111144Y-108279803D01*
X153150500Y-108094646D01*
X153150500Y-107905354D01*
X153111144Y-107720197D01*
X153101392Y-107698294D01*
X153036259Y-107552004D01*
X153036258Y-107552002D01*
X153034151Y-107547270D01*
X152922888Y-107394129D01*
X152919038Y-107390663D01*
X152919035Y-107390659D01*
X152786072Y-107270939D01*
X152782216Y-107267467D01*
X152777434Y-107264706D01*
X152622774Y-107175413D01*
X152622772Y-107175412D01*
X152618284Y-107172821D01*
X152613354Y-107171219D01*
X152443188Y-107115928D01*
X152443183Y-107115927D01*
X152438256Y-107114326D01*
X152297192Y-107099500D01*
X152202808Y-107099500D01*
X152061744Y-107114326D01*
X152056817Y-107115927D01*
X152056812Y-107115928D01*
X151886646Y-107171219D01*
X151881716Y-107172821D01*
X151877228Y-107175412D01*
X151877226Y-107175413D01*
X151722566Y-107264706D01*
X151717784Y-107267467D01*
X151713928Y-107270939D01*
X151580965Y-107390659D01*
X151580962Y-107390663D01*
X151577112Y-107394129D01*
X151465849Y-107547270D01*
X151463742Y-107552002D01*
X151463741Y-107552004D01*
X151398608Y-107698294D01*
X151388856Y-107720197D01*
X151349500Y-107905354D01*
X151349500Y-108094646D01*
X143150500Y-108094646D01*
X143150500Y-107905354D01*
X143111144Y-107720197D01*
X143101392Y-107698294D01*
X143036259Y-107552004D01*
X143036258Y-107552002D01*
X143034151Y-107547270D01*
X142922888Y-107394129D01*
X142919038Y-107390663D01*
X142919035Y-107390659D01*
X142786072Y-107270939D01*
X142782216Y-107267467D01*
X142777434Y-107264706D01*
X142622774Y-107175413D01*
X142622772Y-107175412D01*
X142618284Y-107172821D01*
X142613354Y-107171219D01*
X142443188Y-107115928D01*
X142443183Y-107115927D01*
X142438256Y-107114326D01*
X142297192Y-107099500D01*
X142202808Y-107099500D01*
X142061744Y-107114326D01*
X142056817Y-107115927D01*
X142056812Y-107115928D01*
X141886646Y-107171219D01*
X141881716Y-107172821D01*
X141877228Y-107175412D01*
X141877226Y-107175413D01*
X141722566Y-107264706D01*
X141717784Y-107267467D01*
X141713928Y-107270939D01*
X141580965Y-107390659D01*
X141580962Y-107390663D01*
X141577112Y-107394129D01*
X141465849Y-107547270D01*
X141463742Y-107552002D01*
X141463741Y-107552004D01*
X141398608Y-107698294D01*
X141388856Y-107720197D01*
X141349500Y-107905354D01*
X141349500Y-108094646D01*
X116785051Y-108094646D01*
X116621636Y-107941992D01*
X116395021Y-107784784D01*
X116391816Y-107783189D01*
X116391810Y-107783186D01*
X116151301Y-107663534D01*
X116151296Y-107663532D01*
X116148086Y-107661935D01*
X116144675Y-107660817D01*
X116144673Y-107660816D01*
X115889407Y-107577136D01*
X115889404Y-107577135D01*
X115886002Y-107576020D01*
X115614262Y-107528838D01*
X115563840Y-107526328D01*
X115528356Y-107524561D01*
X115528343Y-107524561D01*
X115527124Y-107524500D01*
X115354930Y-107524500D01*
X115149917Y-107539375D01*
X115146406Y-107540150D01*
X115146407Y-107540150D01*
X114884096Y-107598063D01*
X114884090Y-107598065D01*
X114880597Y-107598836D01*
X114877248Y-107600105D01*
X114877244Y-107600106D01*
X114773185Y-107639530D01*
X114622681Y-107696551D01*
X114381572Y-107830475D01*
X114162322Y-107997802D01*
X113969523Y-108195026D01*
X113967414Y-108197923D01*
X113967411Y-108197927D01*
X113824718Y-108393967D01*
X113807213Y-108418016D01*
X113678794Y-108662101D01*
X113586955Y-108922168D01*
X113533620Y-109192768D01*
X113519906Y-109468233D01*
X112300500Y-109468233D01*
X112300500Y-109034953D01*
X112302004Y-109017761D01*
X112303632Y-109008528D01*
X112305136Y-109000000D01*
X112303611Y-108991351D01*
X112302263Y-108968609D01*
X112306890Y-108886216D01*
X112317163Y-108703298D01*
X112318405Y-108692271D01*
X112324071Y-108658927D01*
X112367250Y-108404791D01*
X112369720Y-108393967D01*
X112427774Y-108192458D01*
X112450450Y-108113748D01*
X112454115Y-108103274D01*
X112498705Y-107995625D01*
X112565711Y-107833859D01*
X112570525Y-107823863D01*
X112592124Y-107784784D01*
X112711579Y-107568644D01*
X112717484Y-107559246D01*
X112886232Y-107321419D01*
X112893149Y-107312745D01*
X112936080Y-107264706D01*
X113054245Y-107132479D01*
X113087460Y-107095311D01*
X113095311Y-107087460D01*
X113183628Y-107008535D01*
X113312748Y-106893147D01*
X113321419Y-106886232D01*
X113559250Y-106717481D01*
X113568646Y-106711578D01*
X113823869Y-106570522D01*
X113833859Y-106565711D01*
X114103278Y-106454114D01*
X114113748Y-106450450D01*
X114298406Y-106397250D01*
X114393967Y-106369720D01*
X114404791Y-106367250D01*
X114488694Y-106352994D01*
X114692275Y-106318404D01*
X114703298Y-106317163D01*
X114968609Y-106302263D01*
X114991351Y-106303611D01*
X115000000Y-106305136D01*
X115017764Y-106302004D01*
X115034953Y-106300500D01*
X144650500Y-106300500D01*
X144708691Y-106319407D01*
G37*
%TD.AperFunction*%
M02*
