%TF.GenerationSoftware,KiCad,Pcbnew,(6.0.7-1)-1*%
%TF.CreationDate,2022-08-15T15:40:16-06:00*%
%TF.ProjectId,led_modulator,6c65645f-6d6f-4647-956c-61746f722e6b,rev?*%
%TF.SameCoordinates,Original*%
%TF.FileFunction,Drillmap*%
%TF.FilePolarity,Positive*%
%FSLAX45Y45*%
G04 Gerber Fmt 4.5, Leading zero omitted, Abs format (unit mm)*
G04 Created by KiCad (PCBNEW (6.0.7-1)-1) date 2022-08-15 15:40:16*
%MOMM*%
%LPD*%
G01*
G04 APERTURE LIST*
%ADD10C,0.100000*%
%ADD11C,0.200000*%
%ADD12C,0.030000*%
%ADD13C,0.040000*%
%ADD14C,0.096520*%
%ADD15C,0.130000*%
G04 APERTURE END LIST*
D10*
X16050000Y-10900000D02*
G75*
G03*
X15750000Y-10600000I-300000J0D01*
G01*
X11200000Y-14450000D02*
G75*
G03*
X11500000Y-14750000I300000J0D01*
G01*
X11500000Y-10600000D02*
X14075000Y-10600000D01*
X11500000Y-10600000D02*
G75*
G03*
X11200000Y-10900000I0J-300000D01*
G01*
X15750000Y-14750000D02*
G75*
G03*
X16050000Y-14450000I0J300000D01*
G01*
X16050000Y-10900000D02*
X16050000Y-14450000D01*
X11200000Y-14450000D02*
X11200000Y-10900000D01*
X15750000Y-14750000D02*
X11500000Y-14750000D01*
X15375000Y-10600000D02*
X15750000Y-10600000D01*
D11*
D12*
X14714812Y-13295307D02*
X14744812Y-13325307D01*
X14744812Y-13295307D02*
X14714812Y-13325307D01*
X14740000Y-13960000D02*
X14770000Y-13990000D01*
X14770000Y-13960000D02*
X14740000Y-13990000D01*
X14947500Y-13025000D02*
X14977500Y-13055000D01*
X14977500Y-13025000D02*
X14947500Y-13055000D01*
D13*
X11800000Y-13820000D02*
G75*
G03*
X11800000Y-13820000I-20000J0D01*
G01*
X11980000Y-14480000D02*
G75*
G03*
X11980000Y-14480000I-20000J0D01*
G01*
X12540000Y-12672000D02*
G75*
G03*
X12540000Y-12672000I-20000J0D01*
G01*
X14367000Y-14349000D02*
G75*
G03*
X14367000Y-14349000I-20000J0D01*
G01*
X14410000Y-13210000D02*
G75*
G03*
X14410000Y-13210000I-20000J0D01*
G01*
X15137500Y-14520000D02*
G75*
G03*
X15137500Y-14520000I-20000J0D01*
G01*
X15165000Y-14350000D02*
G75*
G03*
X15165000Y-14350000I-20000J0D01*
G01*
X15580000Y-12510000D02*
G75*
G03*
X15580000Y-12510000I-20000J0D01*
G01*
X14225000Y-11530000D02*
X14225000Y-11570000D01*
X14205000Y-11550000D02*
X14245000Y-11550000D01*
D11*
X14205000Y-11500000D02*
X14205000Y-11600000D01*
X14245000Y-11500000D02*
X14245000Y-11600000D01*
X14205000Y-11600000D02*
G75*
G03*
X14245000Y-11600000I20000J0D01*
G01*
X14245000Y-11500000D02*
G75*
G03*
X14205000Y-11500000I-20000J0D01*
G01*
D13*
X14725000Y-11030000D02*
X14725000Y-11070000D01*
X14705000Y-11050000D02*
X14745000Y-11050000D01*
D11*
X14775000Y-11030000D02*
X14675000Y-11030000D01*
X14775000Y-11070000D02*
X14675000Y-11070000D01*
X14675000Y-11030000D02*
G75*
G03*
X14675000Y-11070000I0J-20000D01*
G01*
X14775000Y-11070000D02*
G75*
G03*
X14775000Y-11030000I0J20000D01*
G01*
D13*
X15225000Y-11530000D02*
X15225000Y-11570000D01*
X15205000Y-11550000D02*
X15245000Y-11550000D01*
D11*
X15245000Y-11600000D02*
X15245000Y-11500000D01*
X15205000Y-11600000D02*
X15205000Y-11500000D01*
X15245000Y-11500000D02*
G75*
G03*
X15205000Y-11500000I-20000J0D01*
G01*
X15205000Y-11600000D02*
G75*
G03*
X15245000Y-11600000I20000J0D01*
G01*
D14*
X13055125Y-11895625D02*
X13055125Y-11827375D01*
X12986875Y-11827375D01*
X12986875Y-11895625D01*
X13055125Y-11895625D01*
X13309125Y-11641625D02*
X13309125Y-11573375D01*
X13240875Y-11573375D01*
X13240875Y-11641625D01*
X13309125Y-11641625D01*
X13309125Y-12149625D02*
X13309125Y-12081375D01*
X13240875Y-12081375D01*
X13240875Y-12149625D01*
X13309125Y-12149625D01*
D15*
X11707500Y-11676500D02*
X11772500Y-11611500D01*
X11707500Y-11546500D01*
X11642500Y-11611500D01*
X11707500Y-11676500D01*
X11707500Y-12176500D02*
X11772500Y-12111500D01*
X11707500Y-12046500D01*
X11642500Y-12111500D01*
X11707500Y-12176500D01*
X13253000Y-14307500D02*
X13318000Y-14242500D01*
X13253000Y-14177500D01*
X13188000Y-14242500D01*
X13253000Y-14307500D01*
X13753000Y-14307500D02*
X13818000Y-14242500D01*
X13753000Y-14177500D01*
X13688000Y-14242500D01*
X13753000Y-14307500D01*
D11*
X11452619Y-15065476D02*
X11452619Y-14865476D01*
X11500238Y-14865476D01*
X11528809Y-14875000D01*
X11547857Y-14894048D01*
X11557381Y-14913095D01*
X11566905Y-14951190D01*
X11566905Y-14979762D01*
X11557381Y-15017857D01*
X11547857Y-15036905D01*
X11528809Y-15055952D01*
X11500238Y-15065476D01*
X11452619Y-15065476D01*
X11652619Y-15065476D02*
X11652619Y-14932143D01*
X11652619Y-14970238D02*
X11662143Y-14951190D01*
X11671667Y-14941667D01*
X11690714Y-14932143D01*
X11709762Y-14932143D01*
X11776428Y-15065476D02*
X11776428Y-14932143D01*
X11776428Y-14865476D02*
X11766905Y-14875000D01*
X11776428Y-14884524D01*
X11785952Y-14875000D01*
X11776428Y-14865476D01*
X11776428Y-14884524D01*
X11900238Y-15065476D02*
X11881190Y-15055952D01*
X11871667Y-15036905D01*
X11871667Y-14865476D01*
X12005000Y-15065476D02*
X11985952Y-15055952D01*
X11976428Y-15036905D01*
X11976428Y-14865476D01*
X12233571Y-15065476D02*
X12233571Y-14865476D01*
X12300238Y-15008333D01*
X12366905Y-14865476D01*
X12366905Y-15065476D01*
X12547857Y-15065476D02*
X12547857Y-14960714D01*
X12538333Y-14941667D01*
X12519286Y-14932143D01*
X12481190Y-14932143D01*
X12462143Y-14941667D01*
X12547857Y-15055952D02*
X12528809Y-15065476D01*
X12481190Y-15065476D01*
X12462143Y-15055952D01*
X12452619Y-15036905D01*
X12452619Y-15017857D01*
X12462143Y-14998809D01*
X12481190Y-14989286D01*
X12528809Y-14989286D01*
X12547857Y-14979762D01*
X12643095Y-14932143D02*
X12643095Y-15132143D01*
X12643095Y-14941667D02*
X12662143Y-14932143D01*
X12700238Y-14932143D01*
X12719286Y-14941667D01*
X12728809Y-14951190D01*
X12738333Y-14970238D01*
X12738333Y-15027381D01*
X12728809Y-15046428D01*
X12719286Y-15055952D01*
X12700238Y-15065476D01*
X12662143Y-15065476D01*
X12643095Y-15055952D01*
X12824048Y-15046428D02*
X12833571Y-15055952D01*
X12824048Y-15065476D01*
X12814524Y-15055952D01*
X12824048Y-15046428D01*
X12824048Y-15065476D01*
X12824048Y-14941667D02*
X12833571Y-14951190D01*
X12824048Y-14960714D01*
X12814524Y-14951190D01*
X12824048Y-14941667D01*
X12824048Y-14960714D01*
D12*
X11165000Y-15380000D02*
X11195000Y-15410000D01*
X11195000Y-15380000D02*
X11165000Y-15410000D01*
D11*
X11490714Y-15285476D02*
X11509762Y-15285476D01*
X11528809Y-15295000D01*
X11538333Y-15304524D01*
X11547857Y-15323571D01*
X11557381Y-15361667D01*
X11557381Y-15409286D01*
X11547857Y-15447381D01*
X11538333Y-15466428D01*
X11528809Y-15475952D01*
X11509762Y-15485476D01*
X11490714Y-15485476D01*
X11471667Y-15475952D01*
X11462143Y-15466428D01*
X11452619Y-15447381D01*
X11443095Y-15409286D01*
X11443095Y-15361667D01*
X11452619Y-15323571D01*
X11462143Y-15304524D01*
X11471667Y-15295000D01*
X11490714Y-15285476D01*
X11643095Y-15466428D02*
X11652619Y-15475952D01*
X11643095Y-15485476D01*
X11633571Y-15475952D01*
X11643095Y-15466428D01*
X11643095Y-15485476D01*
X11719286Y-15285476D02*
X11843095Y-15285476D01*
X11776428Y-15361667D01*
X11805000Y-15361667D01*
X11824048Y-15371190D01*
X11833571Y-15380714D01*
X11843095Y-15399762D01*
X11843095Y-15447381D01*
X11833571Y-15466428D01*
X11824048Y-15475952D01*
X11805000Y-15485476D01*
X11747857Y-15485476D01*
X11728809Y-15475952D01*
X11719286Y-15466428D01*
X11966905Y-15285476D02*
X11985952Y-15285476D01*
X12005000Y-15295000D01*
X12014524Y-15304524D01*
X12024048Y-15323571D01*
X12033571Y-15361667D01*
X12033571Y-15409286D01*
X12024048Y-15447381D01*
X12014524Y-15466428D01*
X12005000Y-15475952D01*
X11985952Y-15485476D01*
X11966905Y-15485476D01*
X11947857Y-15475952D01*
X11938333Y-15466428D01*
X11928809Y-15447381D01*
X11919286Y-15409286D01*
X11919286Y-15361667D01*
X11928809Y-15323571D01*
X11938333Y-15304524D01*
X11947857Y-15295000D01*
X11966905Y-15285476D01*
X12157381Y-15285476D02*
X12176428Y-15285476D01*
X12195476Y-15295000D01*
X12205000Y-15304524D01*
X12214524Y-15323571D01*
X12224048Y-15361667D01*
X12224048Y-15409286D01*
X12214524Y-15447381D01*
X12205000Y-15466428D01*
X12195476Y-15475952D01*
X12176428Y-15485476D01*
X12157381Y-15485476D01*
X12138333Y-15475952D01*
X12128809Y-15466428D01*
X12119286Y-15447381D01*
X12109762Y-15409286D01*
X12109762Y-15361667D01*
X12119286Y-15323571D01*
X12128809Y-15304524D01*
X12138333Y-15295000D01*
X12157381Y-15285476D01*
X12309762Y-15485476D02*
X12309762Y-15352143D01*
X12309762Y-15371190D02*
X12319286Y-15361667D01*
X12338333Y-15352143D01*
X12366905Y-15352143D01*
X12385952Y-15361667D01*
X12395476Y-15380714D01*
X12395476Y-15485476D01*
X12395476Y-15380714D02*
X12405000Y-15361667D01*
X12424048Y-15352143D01*
X12452619Y-15352143D01*
X12471667Y-15361667D01*
X12481190Y-15380714D01*
X12481190Y-15485476D01*
X12576428Y-15485476D02*
X12576428Y-15352143D01*
X12576428Y-15371190D02*
X12585952Y-15361667D01*
X12605000Y-15352143D01*
X12633571Y-15352143D01*
X12652619Y-15361667D01*
X12662143Y-15380714D01*
X12662143Y-15485476D01*
X12662143Y-15380714D02*
X12671667Y-15361667D01*
X12690714Y-15352143D01*
X12719286Y-15352143D01*
X12738333Y-15361667D01*
X12747857Y-15380714D01*
X12747857Y-15485476D01*
X13138333Y-15275952D02*
X12966905Y-15533095D01*
X13395476Y-15285476D02*
X13414524Y-15285476D01*
X13433571Y-15295000D01*
X13443095Y-15304524D01*
X13452619Y-15323571D01*
X13462143Y-15361667D01*
X13462143Y-15409286D01*
X13452619Y-15447381D01*
X13443095Y-15466428D01*
X13433571Y-15475952D01*
X13414524Y-15485476D01*
X13395476Y-15485476D01*
X13376428Y-15475952D01*
X13366905Y-15466428D01*
X13357381Y-15447381D01*
X13347857Y-15409286D01*
X13347857Y-15361667D01*
X13357381Y-15323571D01*
X13366905Y-15304524D01*
X13376428Y-15295000D01*
X13395476Y-15285476D01*
X13547857Y-15466428D02*
X13557381Y-15475952D01*
X13547857Y-15485476D01*
X13538333Y-15475952D01*
X13547857Y-15466428D01*
X13547857Y-15485476D01*
X13681190Y-15285476D02*
X13700238Y-15285476D01*
X13719286Y-15295000D01*
X13728809Y-15304524D01*
X13738333Y-15323571D01*
X13747857Y-15361667D01*
X13747857Y-15409286D01*
X13738333Y-15447381D01*
X13728809Y-15466428D01*
X13719286Y-15475952D01*
X13700238Y-15485476D01*
X13681190Y-15485476D01*
X13662143Y-15475952D01*
X13652619Y-15466428D01*
X13643095Y-15447381D01*
X13633571Y-15409286D01*
X13633571Y-15361667D01*
X13643095Y-15323571D01*
X13652619Y-15304524D01*
X13662143Y-15295000D01*
X13681190Y-15285476D01*
X13938333Y-15485476D02*
X13824048Y-15485476D01*
X13881190Y-15485476D02*
X13881190Y-15285476D01*
X13862143Y-15314048D01*
X13843095Y-15333095D01*
X13824048Y-15342619D01*
X14128809Y-15485476D02*
X14014524Y-15485476D01*
X14071667Y-15485476D02*
X14071667Y-15285476D01*
X14052619Y-15314048D01*
X14033571Y-15333095D01*
X14014524Y-15342619D01*
X14243095Y-15371190D02*
X14224048Y-15361667D01*
X14214524Y-15352143D01*
X14205000Y-15333095D01*
X14205000Y-15323571D01*
X14214524Y-15304524D01*
X14224048Y-15295000D01*
X14243095Y-15285476D01*
X14281190Y-15285476D01*
X14300238Y-15295000D01*
X14309762Y-15304524D01*
X14319286Y-15323571D01*
X14319286Y-15333095D01*
X14309762Y-15352143D01*
X14300238Y-15361667D01*
X14281190Y-15371190D01*
X14243095Y-15371190D01*
X14224048Y-15380714D01*
X14214524Y-15390238D01*
X14205000Y-15409286D01*
X14205000Y-15447381D01*
X14214524Y-15466428D01*
X14224048Y-15475952D01*
X14243095Y-15485476D01*
X14281190Y-15485476D01*
X14300238Y-15475952D01*
X14309762Y-15466428D01*
X14319286Y-15447381D01*
X14319286Y-15409286D01*
X14309762Y-15390238D01*
X14300238Y-15380714D01*
X14281190Y-15371190D01*
X14395476Y-15285476D02*
X14395476Y-15323571D01*
X14471667Y-15285476D02*
X14471667Y-15323571D01*
X14766905Y-15561667D02*
X14757381Y-15552143D01*
X14738333Y-15523571D01*
X14728809Y-15504524D01*
X14719286Y-15475952D01*
X14709762Y-15428333D01*
X14709762Y-15390238D01*
X14719286Y-15342619D01*
X14728809Y-15314048D01*
X14738333Y-15295000D01*
X14757381Y-15266428D01*
X14766905Y-15256905D01*
X14824048Y-15285476D02*
X14947857Y-15285476D01*
X14881190Y-15361667D01*
X14909762Y-15361667D01*
X14928809Y-15371190D01*
X14938333Y-15380714D01*
X14947857Y-15399762D01*
X14947857Y-15447381D01*
X14938333Y-15466428D01*
X14928809Y-15475952D01*
X14909762Y-15485476D01*
X14852619Y-15485476D01*
X14833571Y-15475952D01*
X14824048Y-15466428D01*
X15185952Y-15485476D02*
X15185952Y-15285476D01*
X15271667Y-15485476D02*
X15271667Y-15380714D01*
X15262143Y-15361667D01*
X15243095Y-15352143D01*
X15214524Y-15352143D01*
X15195476Y-15361667D01*
X15185952Y-15371190D01*
X15395476Y-15485476D02*
X15376428Y-15475952D01*
X15366905Y-15466428D01*
X15357381Y-15447381D01*
X15357381Y-15390238D01*
X15366905Y-15371190D01*
X15376428Y-15361667D01*
X15395476Y-15352143D01*
X15424048Y-15352143D01*
X15443095Y-15361667D01*
X15452619Y-15371190D01*
X15462143Y-15390238D01*
X15462143Y-15447381D01*
X15452619Y-15466428D01*
X15443095Y-15475952D01*
X15424048Y-15485476D01*
X15395476Y-15485476D01*
X15576428Y-15485476D02*
X15557381Y-15475952D01*
X15547857Y-15456905D01*
X15547857Y-15285476D01*
X15728809Y-15475952D02*
X15709762Y-15485476D01*
X15671667Y-15485476D01*
X15652619Y-15475952D01*
X15643095Y-15456905D01*
X15643095Y-15380714D01*
X15652619Y-15361667D01*
X15671667Y-15352143D01*
X15709762Y-15352143D01*
X15728809Y-15361667D01*
X15738333Y-15380714D01*
X15738333Y-15399762D01*
X15643095Y-15418809D01*
X15814524Y-15475952D02*
X15833571Y-15485476D01*
X15871667Y-15485476D01*
X15890714Y-15475952D01*
X15900238Y-15456905D01*
X15900238Y-15447381D01*
X15890714Y-15428333D01*
X15871667Y-15418809D01*
X15843095Y-15418809D01*
X15824048Y-15409286D01*
X15814524Y-15390238D01*
X15814524Y-15380714D01*
X15824048Y-15361667D01*
X15843095Y-15352143D01*
X15871667Y-15352143D01*
X15890714Y-15361667D01*
X15966905Y-15561667D02*
X15976428Y-15552143D01*
X15995476Y-15523571D01*
X16005000Y-15504524D01*
X16014524Y-15475952D01*
X16024048Y-15428333D01*
X16024048Y-15390238D01*
X16014524Y-15342619D01*
X16005000Y-15314048D01*
X15995476Y-15295000D01*
X15976428Y-15266428D01*
X15966905Y-15256905D01*
D13*
X11195000Y-15659000D02*
G75*
G03*
X11195000Y-15659000I-20000J0D01*
G01*
D11*
X11490714Y-15549476D02*
X11509762Y-15549476D01*
X11528809Y-15559000D01*
X11538333Y-15568524D01*
X11547857Y-15587571D01*
X11557381Y-15625667D01*
X11557381Y-15673286D01*
X11547857Y-15711381D01*
X11538333Y-15730428D01*
X11528809Y-15739952D01*
X11509762Y-15749476D01*
X11490714Y-15749476D01*
X11471667Y-15739952D01*
X11462143Y-15730428D01*
X11452619Y-15711381D01*
X11443095Y-15673286D01*
X11443095Y-15625667D01*
X11452619Y-15587571D01*
X11462143Y-15568524D01*
X11471667Y-15559000D01*
X11490714Y-15549476D01*
X11643095Y-15730428D02*
X11652619Y-15739952D01*
X11643095Y-15749476D01*
X11633571Y-15739952D01*
X11643095Y-15730428D01*
X11643095Y-15749476D01*
X11824048Y-15616143D02*
X11824048Y-15749476D01*
X11776428Y-15539952D02*
X11728809Y-15682809D01*
X11852619Y-15682809D01*
X11966905Y-15549476D02*
X11985952Y-15549476D01*
X12005000Y-15559000D01*
X12014524Y-15568524D01*
X12024048Y-15587571D01*
X12033571Y-15625667D01*
X12033571Y-15673286D01*
X12024048Y-15711381D01*
X12014524Y-15730428D01*
X12005000Y-15739952D01*
X11985952Y-15749476D01*
X11966905Y-15749476D01*
X11947857Y-15739952D01*
X11938333Y-15730428D01*
X11928809Y-15711381D01*
X11919286Y-15673286D01*
X11919286Y-15625667D01*
X11928809Y-15587571D01*
X11938333Y-15568524D01*
X11947857Y-15559000D01*
X11966905Y-15549476D01*
X12157381Y-15549476D02*
X12176428Y-15549476D01*
X12195476Y-15559000D01*
X12205000Y-15568524D01*
X12214524Y-15587571D01*
X12224048Y-15625667D01*
X12224048Y-15673286D01*
X12214524Y-15711381D01*
X12205000Y-15730428D01*
X12195476Y-15739952D01*
X12176428Y-15749476D01*
X12157381Y-15749476D01*
X12138333Y-15739952D01*
X12128809Y-15730428D01*
X12119286Y-15711381D01*
X12109762Y-15673286D01*
X12109762Y-15625667D01*
X12119286Y-15587571D01*
X12128809Y-15568524D01*
X12138333Y-15559000D01*
X12157381Y-15549476D01*
X12309762Y-15749476D02*
X12309762Y-15616143D01*
X12309762Y-15635190D02*
X12319286Y-15625667D01*
X12338333Y-15616143D01*
X12366905Y-15616143D01*
X12385952Y-15625667D01*
X12395476Y-15644714D01*
X12395476Y-15749476D01*
X12395476Y-15644714D02*
X12405000Y-15625667D01*
X12424048Y-15616143D01*
X12452619Y-15616143D01*
X12471667Y-15625667D01*
X12481190Y-15644714D01*
X12481190Y-15749476D01*
X12576428Y-15749476D02*
X12576428Y-15616143D01*
X12576428Y-15635190D02*
X12585952Y-15625667D01*
X12605000Y-15616143D01*
X12633571Y-15616143D01*
X12652619Y-15625667D01*
X12662143Y-15644714D01*
X12662143Y-15749476D01*
X12662143Y-15644714D02*
X12671667Y-15625667D01*
X12690714Y-15616143D01*
X12719286Y-15616143D01*
X12738333Y-15625667D01*
X12747857Y-15644714D01*
X12747857Y-15749476D01*
X13138333Y-15539952D02*
X12966905Y-15797095D01*
X13395476Y-15549476D02*
X13414524Y-15549476D01*
X13433571Y-15559000D01*
X13443095Y-15568524D01*
X13452619Y-15587571D01*
X13462143Y-15625667D01*
X13462143Y-15673286D01*
X13452619Y-15711381D01*
X13443095Y-15730428D01*
X13433571Y-15739952D01*
X13414524Y-15749476D01*
X13395476Y-15749476D01*
X13376428Y-15739952D01*
X13366905Y-15730428D01*
X13357381Y-15711381D01*
X13347857Y-15673286D01*
X13347857Y-15625667D01*
X13357381Y-15587571D01*
X13366905Y-15568524D01*
X13376428Y-15559000D01*
X13395476Y-15549476D01*
X13547857Y-15730428D02*
X13557381Y-15739952D01*
X13547857Y-15749476D01*
X13538333Y-15739952D01*
X13547857Y-15730428D01*
X13547857Y-15749476D01*
X13681190Y-15549476D02*
X13700238Y-15549476D01*
X13719286Y-15559000D01*
X13728809Y-15568524D01*
X13738333Y-15587571D01*
X13747857Y-15625667D01*
X13747857Y-15673286D01*
X13738333Y-15711381D01*
X13728809Y-15730428D01*
X13719286Y-15739952D01*
X13700238Y-15749476D01*
X13681190Y-15749476D01*
X13662143Y-15739952D01*
X13652619Y-15730428D01*
X13643095Y-15711381D01*
X13633571Y-15673286D01*
X13633571Y-15625667D01*
X13643095Y-15587571D01*
X13652619Y-15568524D01*
X13662143Y-15559000D01*
X13681190Y-15549476D01*
X13938333Y-15749476D02*
X13824048Y-15749476D01*
X13881190Y-15749476D02*
X13881190Y-15549476D01*
X13862143Y-15578048D01*
X13843095Y-15597095D01*
X13824048Y-15606619D01*
X14119286Y-15549476D02*
X14024048Y-15549476D01*
X14014524Y-15644714D01*
X14024048Y-15635190D01*
X14043095Y-15625667D01*
X14090714Y-15625667D01*
X14109762Y-15635190D01*
X14119286Y-15644714D01*
X14128809Y-15663762D01*
X14128809Y-15711381D01*
X14119286Y-15730428D01*
X14109762Y-15739952D01*
X14090714Y-15749476D01*
X14043095Y-15749476D01*
X14024048Y-15739952D01*
X14014524Y-15730428D01*
X14195476Y-15549476D02*
X14328809Y-15549476D01*
X14243095Y-15749476D01*
X14395476Y-15549476D02*
X14395476Y-15587571D01*
X14471667Y-15549476D02*
X14471667Y-15587571D01*
X14766905Y-15825667D02*
X14757381Y-15816143D01*
X14738333Y-15787571D01*
X14728809Y-15768524D01*
X14719286Y-15739952D01*
X14709762Y-15692333D01*
X14709762Y-15654238D01*
X14719286Y-15606619D01*
X14728809Y-15578048D01*
X14738333Y-15559000D01*
X14757381Y-15530428D01*
X14766905Y-15520905D01*
X14871667Y-15635190D02*
X14852619Y-15625667D01*
X14843095Y-15616143D01*
X14833571Y-15597095D01*
X14833571Y-15587571D01*
X14843095Y-15568524D01*
X14852619Y-15559000D01*
X14871667Y-15549476D01*
X14909762Y-15549476D01*
X14928809Y-15559000D01*
X14938333Y-15568524D01*
X14947857Y-15587571D01*
X14947857Y-15597095D01*
X14938333Y-15616143D01*
X14928809Y-15625667D01*
X14909762Y-15635190D01*
X14871667Y-15635190D01*
X14852619Y-15644714D01*
X14843095Y-15654238D01*
X14833571Y-15673286D01*
X14833571Y-15711381D01*
X14843095Y-15730428D01*
X14852619Y-15739952D01*
X14871667Y-15749476D01*
X14909762Y-15749476D01*
X14928809Y-15739952D01*
X14938333Y-15730428D01*
X14947857Y-15711381D01*
X14947857Y-15673286D01*
X14938333Y-15654238D01*
X14928809Y-15644714D01*
X14909762Y-15635190D01*
X15185952Y-15749476D02*
X15185952Y-15549476D01*
X15271667Y-15749476D02*
X15271667Y-15644714D01*
X15262143Y-15625667D01*
X15243095Y-15616143D01*
X15214524Y-15616143D01*
X15195476Y-15625667D01*
X15185952Y-15635190D01*
X15395476Y-15749476D02*
X15376428Y-15739952D01*
X15366905Y-15730428D01*
X15357381Y-15711381D01*
X15357381Y-15654238D01*
X15366905Y-15635190D01*
X15376428Y-15625667D01*
X15395476Y-15616143D01*
X15424048Y-15616143D01*
X15443095Y-15625667D01*
X15452619Y-15635190D01*
X15462143Y-15654238D01*
X15462143Y-15711381D01*
X15452619Y-15730428D01*
X15443095Y-15739952D01*
X15424048Y-15749476D01*
X15395476Y-15749476D01*
X15576428Y-15749476D02*
X15557381Y-15739952D01*
X15547857Y-15720905D01*
X15547857Y-15549476D01*
X15728809Y-15739952D02*
X15709762Y-15749476D01*
X15671667Y-15749476D01*
X15652619Y-15739952D01*
X15643095Y-15720905D01*
X15643095Y-15644714D01*
X15652619Y-15625667D01*
X15671667Y-15616143D01*
X15709762Y-15616143D01*
X15728809Y-15625667D01*
X15738333Y-15644714D01*
X15738333Y-15663762D01*
X15643095Y-15682809D01*
X15814524Y-15739952D02*
X15833571Y-15749476D01*
X15871667Y-15749476D01*
X15890714Y-15739952D01*
X15900238Y-15720905D01*
X15900238Y-15711381D01*
X15890714Y-15692333D01*
X15871667Y-15682809D01*
X15843095Y-15682809D01*
X15824048Y-15673286D01*
X15814524Y-15654238D01*
X15814524Y-15644714D01*
X15824048Y-15625667D01*
X15843095Y-15616143D01*
X15871667Y-15616143D01*
X15890714Y-15625667D01*
X15966905Y-15825667D02*
X15976428Y-15816143D01*
X15995476Y-15787571D01*
X16005000Y-15768524D01*
X16014524Y-15739952D01*
X16024048Y-15692333D01*
X16024048Y-15654238D01*
X16014524Y-15606619D01*
X16005000Y-15578048D01*
X15995476Y-15559000D01*
X15976428Y-15530428D01*
X15966905Y-15520905D01*
D13*
X11175000Y-15903000D02*
X11175000Y-15943000D01*
X11155000Y-15923000D02*
X11195000Y-15923000D01*
D11*
X11490714Y-15813476D02*
X11509762Y-15813476D01*
X11528809Y-15823000D01*
X11538333Y-15832524D01*
X11547857Y-15851571D01*
X11557381Y-15889667D01*
X11557381Y-15937286D01*
X11547857Y-15975381D01*
X11538333Y-15994428D01*
X11528809Y-16003952D01*
X11509762Y-16013476D01*
X11490714Y-16013476D01*
X11471667Y-16003952D01*
X11462143Y-15994428D01*
X11452619Y-15975381D01*
X11443095Y-15937286D01*
X11443095Y-15889667D01*
X11452619Y-15851571D01*
X11462143Y-15832524D01*
X11471667Y-15823000D01*
X11490714Y-15813476D01*
X11643095Y-15994428D02*
X11652619Y-16003952D01*
X11643095Y-16013476D01*
X11633571Y-16003952D01*
X11643095Y-15994428D01*
X11643095Y-16013476D01*
X11824048Y-15880143D02*
X11824048Y-16013476D01*
X11776428Y-15803952D02*
X11728809Y-15946809D01*
X11852619Y-15946809D01*
X11966905Y-15813476D02*
X11985952Y-15813476D01*
X12005000Y-15823000D01*
X12014524Y-15832524D01*
X12024048Y-15851571D01*
X12033571Y-15889667D01*
X12033571Y-15937286D01*
X12024048Y-15975381D01*
X12014524Y-15994428D01*
X12005000Y-16003952D01*
X11985952Y-16013476D01*
X11966905Y-16013476D01*
X11947857Y-16003952D01*
X11938333Y-15994428D01*
X11928809Y-15975381D01*
X11919286Y-15937286D01*
X11919286Y-15889667D01*
X11928809Y-15851571D01*
X11938333Y-15832524D01*
X11947857Y-15823000D01*
X11966905Y-15813476D01*
X12157381Y-15813476D02*
X12176428Y-15813476D01*
X12195476Y-15823000D01*
X12205000Y-15832524D01*
X12214524Y-15851571D01*
X12224048Y-15889667D01*
X12224048Y-15937286D01*
X12214524Y-15975381D01*
X12205000Y-15994428D01*
X12195476Y-16003952D01*
X12176428Y-16013476D01*
X12157381Y-16013476D01*
X12138333Y-16003952D01*
X12128809Y-15994428D01*
X12119286Y-15975381D01*
X12109762Y-15937286D01*
X12109762Y-15889667D01*
X12119286Y-15851571D01*
X12128809Y-15832524D01*
X12138333Y-15823000D01*
X12157381Y-15813476D01*
X12309762Y-16013476D02*
X12309762Y-15880143D01*
X12309762Y-15899190D02*
X12319286Y-15889667D01*
X12338333Y-15880143D01*
X12366905Y-15880143D01*
X12385952Y-15889667D01*
X12395476Y-15908714D01*
X12395476Y-16013476D01*
X12395476Y-15908714D02*
X12405000Y-15889667D01*
X12424048Y-15880143D01*
X12452619Y-15880143D01*
X12471667Y-15889667D01*
X12481190Y-15908714D01*
X12481190Y-16013476D01*
X12576428Y-16013476D02*
X12576428Y-15880143D01*
X12576428Y-15899190D02*
X12585952Y-15889667D01*
X12605000Y-15880143D01*
X12633571Y-15880143D01*
X12652619Y-15889667D01*
X12662143Y-15908714D01*
X12662143Y-16013476D01*
X12662143Y-15908714D02*
X12671667Y-15889667D01*
X12690714Y-15880143D01*
X12719286Y-15880143D01*
X12738333Y-15889667D01*
X12747857Y-15908714D01*
X12747857Y-16013476D01*
X13138333Y-15803952D02*
X12966905Y-16061095D01*
X13395476Y-15813476D02*
X13414524Y-15813476D01*
X13433571Y-15823000D01*
X13443095Y-15832524D01*
X13452619Y-15851571D01*
X13462143Y-15889667D01*
X13462143Y-15937286D01*
X13452619Y-15975381D01*
X13443095Y-15994428D01*
X13433571Y-16003952D01*
X13414524Y-16013476D01*
X13395476Y-16013476D01*
X13376428Y-16003952D01*
X13366905Y-15994428D01*
X13357381Y-15975381D01*
X13347857Y-15937286D01*
X13347857Y-15889667D01*
X13357381Y-15851571D01*
X13366905Y-15832524D01*
X13376428Y-15823000D01*
X13395476Y-15813476D01*
X13547857Y-15994428D02*
X13557381Y-16003952D01*
X13547857Y-16013476D01*
X13538333Y-16003952D01*
X13547857Y-15994428D01*
X13547857Y-16013476D01*
X13681190Y-15813476D02*
X13700238Y-15813476D01*
X13719286Y-15823000D01*
X13728809Y-15832524D01*
X13738333Y-15851571D01*
X13747857Y-15889667D01*
X13747857Y-15937286D01*
X13738333Y-15975381D01*
X13728809Y-15994428D01*
X13719286Y-16003952D01*
X13700238Y-16013476D01*
X13681190Y-16013476D01*
X13662143Y-16003952D01*
X13652619Y-15994428D01*
X13643095Y-15975381D01*
X13633571Y-15937286D01*
X13633571Y-15889667D01*
X13643095Y-15851571D01*
X13652619Y-15832524D01*
X13662143Y-15823000D01*
X13681190Y-15813476D01*
X13938333Y-16013476D02*
X13824048Y-16013476D01*
X13881190Y-16013476D02*
X13881190Y-15813476D01*
X13862143Y-15842048D01*
X13843095Y-15861095D01*
X13824048Y-15870619D01*
X14119286Y-15813476D02*
X14024048Y-15813476D01*
X14014524Y-15908714D01*
X14024048Y-15899190D01*
X14043095Y-15889667D01*
X14090714Y-15889667D01*
X14109762Y-15899190D01*
X14119286Y-15908714D01*
X14128809Y-15927762D01*
X14128809Y-15975381D01*
X14119286Y-15994428D01*
X14109762Y-16003952D01*
X14090714Y-16013476D01*
X14043095Y-16013476D01*
X14024048Y-16003952D01*
X14014524Y-15994428D01*
X14195476Y-15813476D02*
X14328809Y-15813476D01*
X14243095Y-16013476D01*
X14395476Y-15813476D02*
X14395476Y-15851571D01*
X14471667Y-15813476D02*
X14471667Y-15851571D01*
X14766905Y-16089667D02*
X14757381Y-16080143D01*
X14738333Y-16051571D01*
X14728809Y-16032524D01*
X14719286Y-16003952D01*
X14709762Y-15956333D01*
X14709762Y-15918238D01*
X14719286Y-15870619D01*
X14728809Y-15842048D01*
X14738333Y-15823000D01*
X14757381Y-15794428D01*
X14766905Y-15784905D01*
X14881190Y-15813476D02*
X14900238Y-15813476D01*
X14919286Y-15823000D01*
X14928809Y-15832524D01*
X14938333Y-15851571D01*
X14947857Y-15889667D01*
X14947857Y-15937286D01*
X14938333Y-15975381D01*
X14928809Y-15994428D01*
X14919286Y-16003952D01*
X14900238Y-16013476D01*
X14881190Y-16013476D01*
X14862143Y-16003952D01*
X14852619Y-15994428D01*
X14843095Y-15975381D01*
X14833571Y-15937286D01*
X14833571Y-15889667D01*
X14843095Y-15851571D01*
X14852619Y-15832524D01*
X14862143Y-15823000D01*
X14881190Y-15813476D01*
X15185952Y-16013476D02*
X15185952Y-15813476D01*
X15271667Y-16013476D02*
X15271667Y-15908714D01*
X15262143Y-15889667D01*
X15243095Y-15880143D01*
X15214524Y-15880143D01*
X15195476Y-15889667D01*
X15185952Y-15899190D01*
X15395476Y-16013476D02*
X15376428Y-16003952D01*
X15366905Y-15994428D01*
X15357381Y-15975381D01*
X15357381Y-15918238D01*
X15366905Y-15899190D01*
X15376428Y-15889667D01*
X15395476Y-15880143D01*
X15424048Y-15880143D01*
X15443095Y-15889667D01*
X15452619Y-15899190D01*
X15462143Y-15918238D01*
X15462143Y-15975381D01*
X15452619Y-15994428D01*
X15443095Y-16003952D01*
X15424048Y-16013476D01*
X15395476Y-16013476D01*
X15576428Y-16013476D02*
X15557381Y-16003952D01*
X15547857Y-15984905D01*
X15547857Y-15813476D01*
X15728809Y-16003952D02*
X15709762Y-16013476D01*
X15671667Y-16013476D01*
X15652619Y-16003952D01*
X15643095Y-15984905D01*
X15643095Y-15908714D01*
X15652619Y-15889667D01*
X15671667Y-15880143D01*
X15709762Y-15880143D01*
X15728809Y-15889667D01*
X15738333Y-15908714D01*
X15738333Y-15927762D01*
X15643095Y-15946809D01*
X15814524Y-16003952D02*
X15833571Y-16013476D01*
X15871667Y-16013476D01*
X15890714Y-16003952D01*
X15900238Y-15984905D01*
X15900238Y-15975381D01*
X15890714Y-15956333D01*
X15871667Y-15946809D01*
X15843095Y-15946809D01*
X15824048Y-15937286D01*
X15814524Y-15918238D01*
X15814524Y-15908714D01*
X15824048Y-15889667D01*
X15843095Y-15880143D01*
X15871667Y-15880143D01*
X15890714Y-15889667D01*
X16138333Y-15937286D02*
X16290714Y-15937286D01*
X16214524Y-16013476D02*
X16214524Y-15861095D01*
X16519286Y-15813476D02*
X16643095Y-15813476D01*
X16576428Y-15889667D01*
X16605000Y-15889667D01*
X16624048Y-15899190D01*
X16633571Y-15908714D01*
X16643095Y-15927762D01*
X16643095Y-15975381D01*
X16633571Y-15994428D01*
X16624048Y-16003952D01*
X16605000Y-16013476D01*
X16547857Y-16013476D01*
X16528809Y-16003952D01*
X16519286Y-15994428D01*
X16871667Y-16003952D02*
X16890714Y-16013476D01*
X16928810Y-16013476D01*
X16947857Y-16003952D01*
X16957381Y-15984905D01*
X16957381Y-15975381D01*
X16947857Y-15956333D01*
X16928810Y-15946809D01*
X16900238Y-15946809D01*
X16881190Y-15937286D01*
X16871667Y-15918238D01*
X16871667Y-15908714D01*
X16881190Y-15889667D01*
X16900238Y-15880143D01*
X16928810Y-15880143D01*
X16947857Y-15889667D01*
X17071667Y-16013476D02*
X17052619Y-16003952D01*
X17043095Y-15984905D01*
X17043095Y-15813476D01*
X17176429Y-16013476D02*
X17157381Y-16003952D01*
X17147857Y-15994428D01*
X17138333Y-15975381D01*
X17138333Y-15918238D01*
X17147857Y-15899190D01*
X17157381Y-15889667D01*
X17176429Y-15880143D01*
X17205000Y-15880143D01*
X17224048Y-15889667D01*
X17233571Y-15899190D01*
X17243095Y-15918238D01*
X17243095Y-15975381D01*
X17233571Y-15994428D01*
X17224048Y-16003952D01*
X17205000Y-16013476D01*
X17176429Y-16013476D01*
X17300238Y-15880143D02*
X17376429Y-15880143D01*
X17328810Y-15813476D02*
X17328810Y-15984905D01*
X17338333Y-16003952D01*
X17357381Y-16013476D01*
X17376429Y-16013476D01*
X17433571Y-16003952D02*
X17452619Y-16013476D01*
X17490714Y-16013476D01*
X17509762Y-16003952D01*
X17519286Y-15984905D01*
X17519286Y-15975381D01*
X17509762Y-15956333D01*
X17490714Y-15946809D01*
X17462143Y-15946809D01*
X17443095Y-15937286D01*
X17433571Y-15918238D01*
X17433571Y-15908714D01*
X17443095Y-15889667D01*
X17462143Y-15880143D01*
X17490714Y-15880143D01*
X17509762Y-15889667D01*
X17585952Y-16089667D02*
X17595476Y-16080143D01*
X17614524Y-16051571D01*
X17624048Y-16032524D01*
X17633571Y-16003952D01*
X17643095Y-15956333D01*
X17643095Y-15918238D01*
X17633571Y-15870619D01*
X17624048Y-15842048D01*
X17614524Y-15823000D01*
X17595476Y-15794428D01*
X17585952Y-15784905D01*
D14*
X11180865Y-16221125D02*
X11180865Y-16152875D01*
X11112615Y-16152875D01*
X11112615Y-16221125D01*
X11180865Y-16221125D01*
D11*
X11490714Y-16077476D02*
X11509762Y-16077476D01*
X11528809Y-16087000D01*
X11538333Y-16096524D01*
X11547857Y-16115571D01*
X11557381Y-16153667D01*
X11557381Y-16201286D01*
X11547857Y-16239381D01*
X11538333Y-16258428D01*
X11528809Y-16267952D01*
X11509762Y-16277476D01*
X11490714Y-16277476D01*
X11471667Y-16267952D01*
X11462143Y-16258428D01*
X11452619Y-16239381D01*
X11443095Y-16201286D01*
X11443095Y-16153667D01*
X11452619Y-16115571D01*
X11462143Y-16096524D01*
X11471667Y-16087000D01*
X11490714Y-16077476D01*
X11643095Y-16258428D02*
X11652619Y-16267952D01*
X11643095Y-16277476D01*
X11633571Y-16267952D01*
X11643095Y-16258428D01*
X11643095Y-16277476D01*
X11747857Y-16277476D02*
X11785952Y-16277476D01*
X11805000Y-16267952D01*
X11814524Y-16258428D01*
X11833571Y-16229857D01*
X11843095Y-16191762D01*
X11843095Y-16115571D01*
X11833571Y-16096524D01*
X11824048Y-16087000D01*
X11805000Y-16077476D01*
X11766905Y-16077476D01*
X11747857Y-16087000D01*
X11738333Y-16096524D01*
X11728809Y-16115571D01*
X11728809Y-16163190D01*
X11738333Y-16182238D01*
X11747857Y-16191762D01*
X11766905Y-16201286D01*
X11805000Y-16201286D01*
X11824048Y-16191762D01*
X11833571Y-16182238D01*
X11843095Y-16163190D01*
X12014524Y-16077476D02*
X11976428Y-16077476D01*
X11957381Y-16087000D01*
X11947857Y-16096524D01*
X11928809Y-16125095D01*
X11919286Y-16163190D01*
X11919286Y-16239381D01*
X11928809Y-16258428D01*
X11938333Y-16267952D01*
X11957381Y-16277476D01*
X11995476Y-16277476D01*
X12014524Y-16267952D01*
X12024048Y-16258428D01*
X12033571Y-16239381D01*
X12033571Y-16191762D01*
X12024048Y-16172714D01*
X12014524Y-16163190D01*
X11995476Y-16153667D01*
X11957381Y-16153667D01*
X11938333Y-16163190D01*
X11928809Y-16172714D01*
X11919286Y-16191762D01*
X12214524Y-16077476D02*
X12119286Y-16077476D01*
X12109762Y-16172714D01*
X12119286Y-16163190D01*
X12138333Y-16153667D01*
X12185952Y-16153667D01*
X12205000Y-16163190D01*
X12214524Y-16172714D01*
X12224048Y-16191762D01*
X12224048Y-16239381D01*
X12214524Y-16258428D01*
X12205000Y-16267952D01*
X12185952Y-16277476D01*
X12138333Y-16277476D01*
X12119286Y-16267952D01*
X12109762Y-16258428D01*
X12309762Y-16277476D02*
X12309762Y-16144143D01*
X12309762Y-16163190D02*
X12319286Y-16153667D01*
X12338333Y-16144143D01*
X12366905Y-16144143D01*
X12385952Y-16153667D01*
X12395476Y-16172714D01*
X12395476Y-16277476D01*
X12395476Y-16172714D02*
X12405000Y-16153667D01*
X12424048Y-16144143D01*
X12452619Y-16144143D01*
X12471667Y-16153667D01*
X12481190Y-16172714D01*
X12481190Y-16277476D01*
X12576428Y-16277476D02*
X12576428Y-16144143D01*
X12576428Y-16163190D02*
X12585952Y-16153667D01*
X12605000Y-16144143D01*
X12633571Y-16144143D01*
X12652619Y-16153667D01*
X12662143Y-16172714D01*
X12662143Y-16277476D01*
X12662143Y-16172714D02*
X12671667Y-16153667D01*
X12690714Y-16144143D01*
X12719286Y-16144143D01*
X12738333Y-16153667D01*
X12747857Y-16172714D01*
X12747857Y-16277476D01*
X13138333Y-16067952D02*
X12966905Y-16325095D01*
X13395476Y-16077476D02*
X13414524Y-16077476D01*
X13433571Y-16087000D01*
X13443095Y-16096524D01*
X13452619Y-16115571D01*
X13462143Y-16153667D01*
X13462143Y-16201286D01*
X13452619Y-16239381D01*
X13443095Y-16258428D01*
X13433571Y-16267952D01*
X13414524Y-16277476D01*
X13395476Y-16277476D01*
X13376428Y-16267952D01*
X13366905Y-16258428D01*
X13357381Y-16239381D01*
X13347857Y-16201286D01*
X13347857Y-16153667D01*
X13357381Y-16115571D01*
X13366905Y-16096524D01*
X13376428Y-16087000D01*
X13395476Y-16077476D01*
X13547857Y-16258428D02*
X13557381Y-16267952D01*
X13547857Y-16277476D01*
X13538333Y-16267952D01*
X13547857Y-16258428D01*
X13547857Y-16277476D01*
X13681190Y-16077476D02*
X13700238Y-16077476D01*
X13719286Y-16087000D01*
X13728809Y-16096524D01*
X13738333Y-16115571D01*
X13747857Y-16153667D01*
X13747857Y-16201286D01*
X13738333Y-16239381D01*
X13728809Y-16258428D01*
X13719286Y-16267952D01*
X13700238Y-16277476D01*
X13681190Y-16277476D01*
X13662143Y-16267952D01*
X13652619Y-16258428D01*
X13643095Y-16239381D01*
X13633571Y-16201286D01*
X13633571Y-16153667D01*
X13643095Y-16115571D01*
X13652619Y-16096524D01*
X13662143Y-16087000D01*
X13681190Y-16077476D01*
X13814524Y-16077476D02*
X13938333Y-16077476D01*
X13871667Y-16153667D01*
X13900238Y-16153667D01*
X13919286Y-16163190D01*
X13928809Y-16172714D01*
X13938333Y-16191762D01*
X13938333Y-16239381D01*
X13928809Y-16258428D01*
X13919286Y-16267952D01*
X13900238Y-16277476D01*
X13843095Y-16277476D01*
X13824048Y-16267952D01*
X13814524Y-16258428D01*
X14052619Y-16163190D02*
X14033571Y-16153667D01*
X14024048Y-16144143D01*
X14014524Y-16125095D01*
X14014524Y-16115571D01*
X14024048Y-16096524D01*
X14033571Y-16087000D01*
X14052619Y-16077476D01*
X14090714Y-16077476D01*
X14109762Y-16087000D01*
X14119286Y-16096524D01*
X14128809Y-16115571D01*
X14128809Y-16125095D01*
X14119286Y-16144143D01*
X14109762Y-16153667D01*
X14090714Y-16163190D01*
X14052619Y-16163190D01*
X14033571Y-16172714D01*
X14024048Y-16182238D01*
X14014524Y-16201286D01*
X14014524Y-16239381D01*
X14024048Y-16258428D01*
X14033571Y-16267952D01*
X14052619Y-16277476D01*
X14090714Y-16277476D01*
X14109762Y-16267952D01*
X14119286Y-16258428D01*
X14128809Y-16239381D01*
X14128809Y-16201286D01*
X14119286Y-16182238D01*
X14109762Y-16172714D01*
X14090714Y-16163190D01*
X14252619Y-16077476D02*
X14271667Y-16077476D01*
X14290714Y-16087000D01*
X14300238Y-16096524D01*
X14309762Y-16115571D01*
X14319286Y-16153667D01*
X14319286Y-16201286D01*
X14309762Y-16239381D01*
X14300238Y-16258428D01*
X14290714Y-16267952D01*
X14271667Y-16277476D01*
X14252619Y-16277476D01*
X14233571Y-16267952D01*
X14224048Y-16258428D01*
X14214524Y-16239381D01*
X14205000Y-16201286D01*
X14205000Y-16153667D01*
X14214524Y-16115571D01*
X14224048Y-16096524D01*
X14233571Y-16087000D01*
X14252619Y-16077476D01*
X14395476Y-16077476D02*
X14395476Y-16115571D01*
X14471667Y-16077476D02*
X14471667Y-16115571D01*
X14766905Y-16353667D02*
X14757381Y-16344143D01*
X14738333Y-16315571D01*
X14728809Y-16296524D01*
X14719286Y-16267952D01*
X14709762Y-16220333D01*
X14709762Y-16182238D01*
X14719286Y-16134619D01*
X14728809Y-16106048D01*
X14738333Y-16087000D01*
X14757381Y-16058428D01*
X14766905Y-16048905D01*
X14824048Y-16077476D02*
X14947857Y-16077476D01*
X14881190Y-16153667D01*
X14909762Y-16153667D01*
X14928809Y-16163190D01*
X14938333Y-16172714D01*
X14947857Y-16191762D01*
X14947857Y-16239381D01*
X14938333Y-16258428D01*
X14928809Y-16267952D01*
X14909762Y-16277476D01*
X14852619Y-16277476D01*
X14833571Y-16267952D01*
X14824048Y-16258428D01*
X15185952Y-16277476D02*
X15185952Y-16077476D01*
X15271667Y-16277476D02*
X15271667Y-16172714D01*
X15262143Y-16153667D01*
X15243095Y-16144143D01*
X15214524Y-16144143D01*
X15195476Y-16153667D01*
X15185952Y-16163190D01*
X15395476Y-16277476D02*
X15376428Y-16267952D01*
X15366905Y-16258428D01*
X15357381Y-16239381D01*
X15357381Y-16182238D01*
X15366905Y-16163190D01*
X15376428Y-16153667D01*
X15395476Y-16144143D01*
X15424048Y-16144143D01*
X15443095Y-16153667D01*
X15452619Y-16163190D01*
X15462143Y-16182238D01*
X15462143Y-16239381D01*
X15452619Y-16258428D01*
X15443095Y-16267952D01*
X15424048Y-16277476D01*
X15395476Y-16277476D01*
X15576428Y-16277476D02*
X15557381Y-16267952D01*
X15547857Y-16248905D01*
X15547857Y-16077476D01*
X15728809Y-16267952D02*
X15709762Y-16277476D01*
X15671667Y-16277476D01*
X15652619Y-16267952D01*
X15643095Y-16248905D01*
X15643095Y-16172714D01*
X15652619Y-16153667D01*
X15671667Y-16144143D01*
X15709762Y-16144143D01*
X15728809Y-16153667D01*
X15738333Y-16172714D01*
X15738333Y-16191762D01*
X15643095Y-16210809D01*
X15814524Y-16267952D02*
X15833571Y-16277476D01*
X15871667Y-16277476D01*
X15890714Y-16267952D01*
X15900238Y-16248905D01*
X15900238Y-16239381D01*
X15890714Y-16220333D01*
X15871667Y-16210809D01*
X15843095Y-16210809D01*
X15824048Y-16201286D01*
X15814524Y-16182238D01*
X15814524Y-16172714D01*
X15824048Y-16153667D01*
X15843095Y-16144143D01*
X15871667Y-16144143D01*
X15890714Y-16153667D01*
X15966905Y-16353667D02*
X15976428Y-16344143D01*
X15995476Y-16315571D01*
X16005000Y-16296524D01*
X16014524Y-16267952D01*
X16024048Y-16220333D01*
X16024048Y-16182238D01*
X16014524Y-16134619D01*
X16005000Y-16106048D01*
X15995476Y-16087000D01*
X15976428Y-16058428D01*
X15966905Y-16048905D01*
D15*
X11130000Y-16516000D02*
X11195000Y-16451000D01*
X11130000Y-16386000D01*
X11065000Y-16451000D01*
X11130000Y-16516000D01*
D11*
X11557381Y-16541476D02*
X11443095Y-16541476D01*
X11500238Y-16541476D02*
X11500238Y-16341476D01*
X11481190Y-16370048D01*
X11462143Y-16389095D01*
X11443095Y-16398619D01*
X11643095Y-16522428D02*
X11652619Y-16531952D01*
X11643095Y-16541476D01*
X11633571Y-16531952D01*
X11643095Y-16522428D01*
X11643095Y-16541476D01*
X11719286Y-16341476D02*
X11843095Y-16341476D01*
X11776428Y-16417667D01*
X11805000Y-16417667D01*
X11824048Y-16427190D01*
X11833571Y-16436714D01*
X11843095Y-16455762D01*
X11843095Y-16503381D01*
X11833571Y-16522428D01*
X11824048Y-16531952D01*
X11805000Y-16541476D01*
X11747857Y-16541476D01*
X11728809Y-16531952D01*
X11719286Y-16522428D01*
X11966905Y-16341476D02*
X11985952Y-16341476D01*
X12005000Y-16351000D01*
X12014524Y-16360524D01*
X12024048Y-16379571D01*
X12033571Y-16417667D01*
X12033571Y-16465286D01*
X12024048Y-16503381D01*
X12014524Y-16522428D01*
X12005000Y-16531952D01*
X11985952Y-16541476D01*
X11966905Y-16541476D01*
X11947857Y-16531952D01*
X11938333Y-16522428D01*
X11928809Y-16503381D01*
X11919286Y-16465286D01*
X11919286Y-16417667D01*
X11928809Y-16379571D01*
X11938333Y-16360524D01*
X11947857Y-16351000D01*
X11966905Y-16341476D01*
X12157381Y-16341476D02*
X12176428Y-16341476D01*
X12195476Y-16351000D01*
X12205000Y-16360524D01*
X12214524Y-16379571D01*
X12224048Y-16417667D01*
X12224048Y-16465286D01*
X12214524Y-16503381D01*
X12205000Y-16522428D01*
X12195476Y-16531952D01*
X12176428Y-16541476D01*
X12157381Y-16541476D01*
X12138333Y-16531952D01*
X12128809Y-16522428D01*
X12119286Y-16503381D01*
X12109762Y-16465286D01*
X12109762Y-16417667D01*
X12119286Y-16379571D01*
X12128809Y-16360524D01*
X12138333Y-16351000D01*
X12157381Y-16341476D01*
X12309762Y-16541476D02*
X12309762Y-16408143D01*
X12309762Y-16427190D02*
X12319286Y-16417667D01*
X12338333Y-16408143D01*
X12366905Y-16408143D01*
X12385952Y-16417667D01*
X12395476Y-16436714D01*
X12395476Y-16541476D01*
X12395476Y-16436714D02*
X12405000Y-16417667D01*
X12424048Y-16408143D01*
X12452619Y-16408143D01*
X12471667Y-16417667D01*
X12481190Y-16436714D01*
X12481190Y-16541476D01*
X12576428Y-16541476D02*
X12576428Y-16408143D01*
X12576428Y-16427190D02*
X12585952Y-16417667D01*
X12605000Y-16408143D01*
X12633571Y-16408143D01*
X12652619Y-16417667D01*
X12662143Y-16436714D01*
X12662143Y-16541476D01*
X12662143Y-16436714D02*
X12671667Y-16417667D01*
X12690714Y-16408143D01*
X12719286Y-16408143D01*
X12738333Y-16417667D01*
X12747857Y-16436714D01*
X12747857Y-16541476D01*
X13138333Y-16331952D02*
X12966905Y-16589095D01*
X13395476Y-16341476D02*
X13414524Y-16341476D01*
X13433571Y-16351000D01*
X13443095Y-16360524D01*
X13452619Y-16379571D01*
X13462143Y-16417667D01*
X13462143Y-16465286D01*
X13452619Y-16503381D01*
X13443095Y-16522428D01*
X13433571Y-16531952D01*
X13414524Y-16541476D01*
X13395476Y-16541476D01*
X13376428Y-16531952D01*
X13366905Y-16522428D01*
X13357381Y-16503381D01*
X13347857Y-16465286D01*
X13347857Y-16417667D01*
X13357381Y-16379571D01*
X13366905Y-16360524D01*
X13376428Y-16351000D01*
X13395476Y-16341476D01*
X13547857Y-16522428D02*
X13557381Y-16531952D01*
X13547857Y-16541476D01*
X13538333Y-16531952D01*
X13547857Y-16522428D01*
X13547857Y-16541476D01*
X13681190Y-16341476D02*
X13700238Y-16341476D01*
X13719286Y-16351000D01*
X13728809Y-16360524D01*
X13738333Y-16379571D01*
X13747857Y-16417667D01*
X13747857Y-16465286D01*
X13738333Y-16503381D01*
X13728809Y-16522428D01*
X13719286Y-16531952D01*
X13700238Y-16541476D01*
X13681190Y-16541476D01*
X13662143Y-16531952D01*
X13652619Y-16522428D01*
X13643095Y-16503381D01*
X13633571Y-16465286D01*
X13633571Y-16417667D01*
X13643095Y-16379571D01*
X13652619Y-16360524D01*
X13662143Y-16351000D01*
X13681190Y-16341476D01*
X13928809Y-16341476D02*
X13833571Y-16341476D01*
X13824048Y-16436714D01*
X13833571Y-16427190D01*
X13852619Y-16417667D01*
X13900238Y-16417667D01*
X13919286Y-16427190D01*
X13928809Y-16436714D01*
X13938333Y-16455762D01*
X13938333Y-16503381D01*
X13928809Y-16522428D01*
X13919286Y-16531952D01*
X13900238Y-16541476D01*
X13852619Y-16541476D01*
X13833571Y-16531952D01*
X13824048Y-16522428D01*
X14128809Y-16541476D02*
X14014524Y-16541476D01*
X14071667Y-16541476D02*
X14071667Y-16341476D01*
X14052619Y-16370048D01*
X14033571Y-16389095D01*
X14014524Y-16398619D01*
X14205000Y-16360524D02*
X14214524Y-16351000D01*
X14233571Y-16341476D01*
X14281190Y-16341476D01*
X14300238Y-16351000D01*
X14309762Y-16360524D01*
X14319286Y-16379571D01*
X14319286Y-16398619D01*
X14309762Y-16427190D01*
X14195476Y-16541476D01*
X14319286Y-16541476D01*
X14395476Y-16341476D02*
X14395476Y-16379571D01*
X14471667Y-16341476D02*
X14471667Y-16379571D01*
X14766905Y-16617667D02*
X14757381Y-16608143D01*
X14738333Y-16579571D01*
X14728809Y-16560524D01*
X14719286Y-16531952D01*
X14709762Y-16484333D01*
X14709762Y-16446238D01*
X14719286Y-16398619D01*
X14728809Y-16370048D01*
X14738333Y-16351000D01*
X14757381Y-16322428D01*
X14766905Y-16312905D01*
X14928809Y-16408143D02*
X14928809Y-16541476D01*
X14881190Y-16331952D02*
X14833571Y-16474809D01*
X14957381Y-16474809D01*
X15185952Y-16541476D02*
X15185952Y-16341476D01*
X15271667Y-16541476D02*
X15271667Y-16436714D01*
X15262143Y-16417667D01*
X15243095Y-16408143D01*
X15214524Y-16408143D01*
X15195476Y-16417667D01*
X15185952Y-16427190D01*
X15395476Y-16541476D02*
X15376428Y-16531952D01*
X15366905Y-16522428D01*
X15357381Y-16503381D01*
X15357381Y-16446238D01*
X15366905Y-16427190D01*
X15376428Y-16417667D01*
X15395476Y-16408143D01*
X15424048Y-16408143D01*
X15443095Y-16417667D01*
X15452619Y-16427190D01*
X15462143Y-16446238D01*
X15462143Y-16503381D01*
X15452619Y-16522428D01*
X15443095Y-16531952D01*
X15424048Y-16541476D01*
X15395476Y-16541476D01*
X15576428Y-16541476D02*
X15557381Y-16531952D01*
X15547857Y-16512905D01*
X15547857Y-16341476D01*
X15728809Y-16531952D02*
X15709762Y-16541476D01*
X15671667Y-16541476D01*
X15652619Y-16531952D01*
X15643095Y-16512905D01*
X15643095Y-16436714D01*
X15652619Y-16417667D01*
X15671667Y-16408143D01*
X15709762Y-16408143D01*
X15728809Y-16417667D01*
X15738333Y-16436714D01*
X15738333Y-16455762D01*
X15643095Y-16474809D01*
X15814524Y-16531952D02*
X15833571Y-16541476D01*
X15871667Y-16541476D01*
X15890714Y-16531952D01*
X15900238Y-16512905D01*
X15900238Y-16503381D01*
X15890714Y-16484333D01*
X15871667Y-16474809D01*
X15843095Y-16474809D01*
X15824048Y-16465286D01*
X15814524Y-16446238D01*
X15814524Y-16436714D01*
X15824048Y-16417667D01*
X15843095Y-16408143D01*
X15871667Y-16408143D01*
X15890714Y-16417667D01*
X15966905Y-16617667D02*
X15976428Y-16608143D01*
X15995476Y-16579571D01*
X16005000Y-16560524D01*
X16014524Y-16531952D01*
X16024048Y-16484333D01*
X16024048Y-16446238D01*
X16014524Y-16398619D01*
X16005000Y-16370048D01*
X15995476Y-16351000D01*
X15976428Y-16322428D01*
X15966905Y-16312905D01*
M02*
